<svg width="40" height="52" viewBox="0 0 40 52" fill="none" xmlns="http://www.w3.org/2000/svg">
<path d="M38.7891 10.6641L28.8461 0.710938C28.3891 0.253906 27.7695 0 27.1195 0H26.5V13H39.5V12.3805C39.5 11.7406 39.2461 11.1211 38.7891 10.6641ZM23.25 13.8125V0H2.9375C1.58672 0 0.5 1.08672 0.5 2.4375V49.5625C0.5 50.9133 1.58672 52 2.9375 52H37.0625C38.4133 52 39.5 50.9133 39.5 49.5625V16.25H25.6875C24.3469 16.25 23.25 15.1531 23.25 13.8125ZM29.75 30.0625V34.9375C29.75 35.3844 29.3844 35.75 28.9375 35.75H23.25V41.4375C23.25 41.8844 22.8844 42.25 22.4375 42.25H17.5625C17.1156 42.25 16.75 41.8844 16.75 41.4375V35.75H11.0625C10.6156 35.75 10.25 35.3844 10.25 34.9375V30.0625C10.25 29.6156 10.6156 29.25 11.0625 29.25H16.75V23.5625C16.75 23.1156 17.1156 22.75 17.5625 22.75H22.4375C22.8844 22.75 23.25 23.1156 23.25 23.5625V29.25H28.9375C29.3844 29.25 29.75 29.6156 29.75 30.0625Z" fill="#2EAC66"/>
</svg>
