<svg width="25" height="22" viewBox="0 0 25 22" fill="none" xmlns="http://www.w3.org/2000/svg">
<path d="M21.1115 4.54418C17.7726 2.33802 13.3346 1.83585 9.648 2.50121C5.52344 -1.47709 0.901476 0.352773 0 0.878815C0 0.878815 3.17187 3.57413 2.65668 5.9348C-1.09852 9.76293 0.686632 14.0251 2.65668 16.0377C3.17187 18.3983 0 21.0937 0 21.0937C0.892795 21.6214 5.50217 23.4457 9.648 19.4878C13.3264 20.1488 17.7643 19.6509 21.1115 17.4409C26.2878 14.1362 26.3047 7.86579 21.1115 4.54375V4.54418ZM12.7682 17.4196C11.4774 17.4233 10.1916 17.2574 8.94401 16.9261L8.08594 17.7547C7.60931 18.2169 7.07563 18.6164 6.49783 18.9435C5.79681 19.2964 5.03526 19.5134 4.25347 19.5828C4.29688 19.5056 4.33507 19.4283 4.3737 19.3554C5.2322 17.7639 5.46369 16.3361 5.06814 15.072C3.65625 13.9604 2.8112 12.5398 2.8112 10.9865C2.8112 7.42743 7.2704 4.54418 12.7682 4.54418C18.2661 4.54418 22.7253 7.42743 22.7253 10.9865C22.7253 14.5455 18.2661 17.4196 12.7682 17.4196ZM7.99132 12.5186C7.59713 12.5241 7.21681 12.3732 6.9337 12.0989C6.65058 11.8246 6.48776 11.4492 6.4809 11.055C6.45052 9.08498 9.42491 9.04201 9.45486 11.0077V11.0299C9.45669 11.2238 9.42028 11.4162 9.3477 11.596C9.27512 11.7759 9.16779 11.9397 9.03187 12.078C8.89594 12.2164 8.73408 12.3266 8.55553 12.4023C8.37698 12.478 8.18526 12.5179 7.99132 12.5194V12.5186ZM11.1931 11.055C11.1589 9.08498 14.1332 9.03767 14.1675 11.0034V11.0299C14.1845 12.9865 11.2274 13.0077 11.1931 11.055ZM17.4162 12.5186C17.022 12.5241 16.6416 12.3732 16.3585 12.0989C16.0753 11.8246 15.9123 11.4492 15.9054 11.055C15.8754 9.08498 18.8498 9.04201 18.8798 11.0077V11.0299C18.8822 11.224 18.8463 11.4166 18.7739 11.5968C18.7015 11.7769 18.5943 11.941 18.4582 12.0794C18.3221 12.2179 18.16 12.3281 17.9812 12.4036C17.8024 12.4791 17.6104 12.5185 17.4162 12.5194V12.5186Z" fill="white"/>
</svg>
