<svg width="97" height="27" viewBox="0 0 97 27" fill="none" xmlns="http://www.w3.org/2000/svg">
<path d="M40.99 11.216C40.702 10.688 40.306 10.286 39.802 10.01C39.298 9.734 38.71 9.596 38.038 9.596C37.294 9.596 36.634 9.764 36.058 10.1C35.482 10.436 35.032 10.916 34.708 11.54C34.384 12.164 34.222 12.884 34.222 13.7C34.222 14.54 34.384 15.272 34.708 15.896C35.044 16.52 35.506 17 36.094 17.336C36.682 17.672 37.366 17.84 38.146 17.84C39.106 17.84 39.892 17.588 40.504 17.084C41.116 16.568 41.518 15.854 41.71 14.942H37.39V13.016H44.194V15.212C44.026 16.088 43.666 16.898 43.114 17.642C42.562 18.386 41.848 18.986 40.972 19.442C40.108 19.886 39.136 20.108 38.056 20.108C36.844 20.108 35.746 19.838 34.762 19.298C33.79 18.746 33.022 17.984 32.458 17.012C31.906 16.04 31.63 14.936 31.63 13.7C31.63 12.464 31.906 11.36 32.458 10.388C33.022 9.404 33.79 8.642 34.762 8.102C35.746 7.55 36.838 7.274 38.038 7.274C39.454 7.274 40.684 7.622 41.728 8.318C42.772 9.002 43.492 9.968 43.888 11.216H40.99ZM50.4864 20.162C49.5264 20.162 48.6624 19.952 47.8944 19.532C47.1264 19.1 46.5204 18.494 46.0764 17.714C45.6444 16.934 45.4284 16.034 45.4284 15.014C45.4284 13.994 45.6504 13.094 46.0944 12.314C46.5504 11.534 47.1684 10.934 47.9484 10.514C48.7284 10.082 49.5984 9.866 50.5584 9.866C51.5184 9.866 52.3884 10.082 53.1684 10.514C53.9484 10.934 54.5604 11.534 55.0044 12.314C55.4604 13.094 55.6884 13.994 55.6884 15.014C55.6884 16.034 55.4544 16.934 54.9864 17.714C54.5304 18.494 53.9064 19.1 53.1144 19.532C52.3344 19.952 51.4584 20.162 50.4864 20.162ZM50.4864 17.966C50.9424 17.966 51.3684 17.858 51.7644 17.642C52.1724 17.414 52.4964 17.078 52.7364 16.634C52.9764 16.19 53.0964 15.65 53.0964 15.014C53.0964 14.066 52.8444 13.34 52.3404 12.836C51.8484 12.32 51.2424 12.062 50.5224 12.062C49.8024 12.062 49.1964 12.32 48.7044 12.836C48.2244 13.34 47.9844 14.066 47.9844 15.014C47.9844 15.962 48.2184 16.694 48.6864 17.21C49.1664 17.714 49.7664 17.966 50.4864 17.966ZM61.9649 20.162C61.0049 20.162 60.1409 19.952 59.3729 19.532C58.6049 19.1 57.9989 18.494 57.5549 17.714C57.1229 16.934 56.9069 16.034 56.9069 15.014C56.9069 13.994 57.1289 13.094 57.5729 12.314C58.0289 11.534 58.6469 10.934 59.4269 10.514C60.2069 10.082 61.0769 9.866 62.0369 9.866C62.9969 9.866 63.8669 10.082 64.6469 10.514C65.4269 10.934 66.0389 11.534 66.4829 12.314C66.9389 13.094 67.1669 13.994 67.1669 15.014C67.1669 16.034 66.9329 16.934 66.4649 17.714C66.0089 18.494 65.3849 19.1 64.5929 19.532C63.8129 19.952 62.9369 20.162 61.9649 20.162ZM61.9649 17.966C62.4209 17.966 62.8469 17.858 63.2429 17.642C63.6509 17.414 63.9749 17.078 64.2149 16.634C64.4549 16.19 64.5749 15.65 64.5749 15.014C64.5749 14.066 64.3229 13.34 63.8189 12.836C63.3269 12.32 62.7209 12.062 62.0009 12.062C61.2809 12.062 60.6749 12.32 60.1829 12.836C59.7029 13.34 59.4629 14.066 59.4629 15.014C59.4629 15.962 59.6969 16.694 60.1649 17.21C60.6449 17.714 61.2449 17.966 61.9649 17.966ZM72.9214 9.866C73.6654 9.866 74.3194 10.016 74.8834 10.316C75.4474 10.604 75.8914 10.982 76.2154 11.45V10.028H78.7534V20.072C78.7534 20.996 78.5674 21.818 78.1954 22.538C77.8234 23.27 77.2654 23.846 76.5214 24.266C75.7774 24.698 74.8774 24.914 73.8214 24.914C72.4054 24.914 71.2414 24.584 70.3294 23.924C69.4294 23.264 68.9194 22.364 68.7994 21.224H71.3014C71.4334 21.68 71.7154 22.04 72.1474 22.304C72.5914 22.58 73.1254 22.718 73.7494 22.718C74.4814 22.718 75.0754 22.496 75.5314 22.052C75.9874 21.62 76.2154 20.96 76.2154 20.072V18.524C75.8914 18.992 75.4414 19.382 74.8654 19.694C74.3014 20.006 73.6534 20.162 72.9214 20.162C72.0814 20.162 71.3134 19.946 70.6174 19.514C69.9214 19.082 69.3694 18.476 68.9614 17.696C68.5654 16.904 68.3674 15.998 68.3674 14.978C68.3674 13.97 68.5654 13.076 68.9614 12.296C69.3694 11.516 69.9154 10.916 70.5994 10.496C71.2954 10.076 72.0694 9.866 72.9214 9.866ZM76.2154 15.014C76.2154 14.402 76.0954 13.88 75.8554 13.448C75.6154 13.004 75.2914 12.668 74.8834 12.44C74.4754 12.2 74.0374 12.08 73.5694 12.08C73.1014 12.08 72.6694 12.194 72.2734 12.422C71.8774 12.65 71.5534 12.986 71.3014 13.43C71.0614 13.862 70.9414 14.378 70.9414 14.978C70.9414 15.578 71.0614 16.106 71.3014 16.562C71.5534 17.006 71.8774 17.348 72.2734 17.588C72.6814 17.828 73.1134 17.948 73.5694 17.948C74.0374 17.948 74.4754 17.834 74.8834 17.606C75.2914 17.366 75.6154 17.03 75.8554 16.598C76.0954 16.154 76.2154 15.626 76.2154 15.014ZM83.7347 6.68V20H81.2147V6.68H83.7347ZM95.4944 14.798C95.4944 15.158 95.4704 15.482 95.4224 15.77H88.1324C88.1924 16.49 88.4444 17.054 88.8884 17.462C89.3324 17.87 89.8784 18.074 90.5264 18.074C91.4624 18.074 92.1284 17.672 92.5244 16.868H95.2424C94.9544 17.828 94.4024 18.62 93.5864 19.244C92.7704 19.856 91.7684 20.162 90.5804 20.162C89.6204 20.162 88.7564 19.952 87.9884 19.532C87.2324 19.1 86.6384 18.494 86.2064 17.714C85.7864 16.934 85.5764 16.034 85.5764 15.014C85.5764 13.982 85.7864 13.076 86.2064 12.296C86.6264 11.516 87.2144 10.916 87.9704 10.496C88.7264 10.076 89.5964 9.866 90.5804 9.866C91.5284 9.866 92.3744 10.07 93.1184 10.478C93.8744 10.886 94.4564 11.468 94.8644 12.224C95.2844 12.968 95.4944 13.826 95.4944 14.798ZM92.8844 14.078C92.8724 13.43 92.6384 12.914 92.1824 12.53C91.7264 12.134 91.1684 11.936 90.5084 11.936C89.8844 11.936 89.3564 12.128 88.9244 12.512C88.5044 12.884 88.2464 13.406 88.1504 14.078H92.8844Z" fill="white"/>
<path d="M19.5312 3H2.34375C1.0498 3 0 4.0498 0 5.34375V22.5312C0 23.8252 1.0498 24.875 2.34375 24.875H19.5312C20.8252 24.875 21.875 23.8252 21.875 22.5312V5.34375C21.875 4.0498 20.8252 3 19.5312 3ZM8.00781 18.8203C5.30762 18.8203 3.125 16.6377 3.125 13.9375C3.125 11.2373 5.30762 9.05469 8.00781 9.05469C9.32617 9.05469 10.4248 9.5332 11.2793 10.334L9.95605 11.6084C9.59473 11.2617 8.96484 10.8564 8.0127 10.8564C6.34766 10.8564 4.99023 12.2334 4.99023 13.9424C4.99023 15.6465 6.34766 17.0283 8.0127 17.0283C9.94629 17.0283 10.6689 15.6367 10.7861 14.9238H8.00781V13.2441H12.6172C12.666 13.4883 12.6953 13.7373 12.6953 14.0547C12.6953 16.8428 10.8252 18.8203 8.00781 18.8203ZM18.75 14.8262H17.334V16.2422H15.9082V14.8262H14.4922V13.4004H15.9082V11.9844H17.334V13.4004H18.75V14.8262Z" fill="white"/>
</svg>
