<svg width="26" height="20" viewBox="0 0 26 20" fill="none" xmlns="http://www.w3.org/2000/svg">
<path d="M12.3887 5.20057L4.38656 11.7913V18.9046C4.38656 19.0887 4.45972 19.2654 4.58995 19.3956C4.72019 19.5258 4.89682 19.599 5.081 19.599L9.94471 19.5864C10.1283 19.5855 10.304 19.5119 10.4335 19.3818C10.563 19.2517 10.6357 19.0756 10.6357 18.892V14.7379C10.6357 14.5537 10.7089 14.3771 10.8391 14.2469C10.9693 14.1166 11.146 14.0435 11.3301 14.0435H14.1079C14.2921 14.0435 14.4687 14.1166 14.599 14.2469C14.7292 14.3771 14.8024 14.5537 14.8024 14.7379V18.8889C14.8021 18.9803 14.8198 19.0709 14.8546 19.1554C14.8894 19.2399 14.9405 19.3167 15.005 19.3814C15.0695 19.4461 15.1461 19.4975 15.2305 19.5325C15.3149 19.5675 15.4054 19.5856 15.4968 19.5856L20.3588 19.599C20.543 19.599 20.7196 19.5258 20.8498 19.3956C20.9801 19.2654 21.0532 19.0887 21.0532 18.9046V11.7865L13.0528 5.20057C12.9587 5.12476 12.8416 5.08342 12.7208 5.08342C12.5999 5.08342 12.4828 5.12476 12.3887 5.20057ZM25.0289 9.68018L21.4004 6.68929V0.677572C21.4004 0.539438 21.3456 0.406962 21.2479 0.309287C21.1502 0.211612 21.0177 0.156738 20.8796 0.156738H18.4491C18.3109 0.156738 18.1784 0.211612 18.0808 0.309287C17.9831 0.406962 17.9282 0.539438 17.9282 0.677572V3.82905L14.0424 0.631999C13.6695 0.325132 13.2015 0.157352 12.7186 0.157352C12.2356 0.157352 11.7677 0.325132 11.3948 0.631999L0.408257 9.68018C0.355517 9.72377 0.311883 9.77732 0.279848 9.83778C0.247814 9.89824 0.228006 9.96442 0.221557 10.0325C0.215108 10.1007 0.222144 10.1694 0.242263 10.2348C0.262382 10.3002 0.29519 10.361 0.338812 10.4137L1.44558 11.7592C1.48909 11.8121 1.5426 11.8559 1.60305 11.8881C1.6635 11.9202 1.72971 11.9402 1.79788 11.9468C1.86605 11.9533 1.93485 11.9464 2.00034 11.9264C2.06583 11.9063 2.12672 11.8735 2.17952 11.8299L12.3887 3.42106C12.4828 3.34525 12.5999 3.3039 12.7208 3.3039C12.8416 3.3039 12.9587 3.34525 13.0528 3.42106L23.2624 11.8299C23.3151 11.8735 23.3759 11.9063 23.4413 11.9265C23.5067 11.9466 23.5754 11.9536 23.6436 11.9472C23.7117 11.9407 23.7779 11.9209 23.8383 11.8889C23.8988 11.8568 23.9523 11.8132 23.9959 11.7605L25.1027 10.415C25.1463 10.362 25.1789 10.3009 25.1988 10.2352C25.2187 10.1695 25.2254 10.1005 25.2186 10.0322C25.2117 9.96396 25.1914 9.8977 25.1589 9.83728C25.1263 9.77686 25.0822 9.72347 25.0289 9.68018Z" fill="#0077B6"/>
</svg>
