<svg width="52" height="61" viewBox="0 0 52 61" fill="none" xmlns="http://www.w3.org/2000/svg">
<path d="M40.4444 31.7778C36.4 31.7778 32.3556 34.9556 32.3556 39V43.3333C30.6222 43.3333 28.8889 45.0667 28.8889 46.8V56.9111C28.8889 58.9333 30.6222 60.6667 32.3556 60.6667H48.2444C50.2667 60.6667 52 58.9333 52 57.2V47.0889C52 45.0667 50.2667 43.3333 48.5333 43.3333V39C48.5333 34.9556 44.4889 31.7778 40.4444 31.7778ZM40.4444 35.2444C42.7556 35.2444 44.7778 36.6889 44.7778 39V43.3333H36.1111V39C36.1111 36.6889 38.1333 35.2444 40.4444 35.2444ZM5.77778 0C2.6 0 0 2.6 0 5.77778V52C0 55.1778 2.6 57.7778 5.77778 57.7778H23.1111V46.8C23.1111 43.9111 24.2667 41.8889 26 40.4444C26.2889 40.1556 26.5778 40.1556 26.5778 39.8667V39C26.5778 31.2 33.5111 26 40.4444 26C42.4667 26 44.4889 26.5778 46.2222 27.1556V17.3333L28.8889 0H5.77778ZM26 4.33333L41.8889 20.2222H26V4.33333Z" fill="#F71B08"/>
</svg>
