<svg width="25" height="19" viewBox="0 0 25 19" fill="none" xmlns="http://www.w3.org/2000/svg">
<path d="M24.2676 10.3301L16.0645 18.5333C15.332 19.2657 14.0625 18.753 14.0625 17.7032V13.0157H7.42188C6.77246 13.0157 6.25 12.4932 6.25 11.8438V7.15631C6.25 6.5069 6.77246 5.98444 7.42188 5.98444H14.0625V1.29694C14.0625 0.252015 15.3271 -0.265563 16.0645 0.466859L24.2676 8.66998C24.7217 9.12897 24.7217 9.87116 24.2676 10.3301ZM9.375 18.2891V16.336C9.375 16.0137 9.11133 15.7501 8.78906 15.7501H4.6875C3.82324 15.7501 3.125 15.0518 3.125 14.1876V4.81256C3.125 3.9483 3.82324 3.25006 4.6875 3.25006H8.78906C9.11133 3.25006 9.375 2.98639 9.375 2.66412V0.710999C9.375 0.388734 9.11133 0.125062 8.78906 0.125062H4.6875C2.09961 0.125062 0 2.22467 0 4.81256V14.1876C0 16.7755 2.09961 18.8751 4.6875 18.8751H8.78906C9.11133 18.8751 9.375 18.6114 9.375 18.2891Z" fill="#EA4335"/>
</svg>
