<svg width="52" height="48" viewBox="0 0 52 48" fill="none" xmlns="http://www.w3.org/2000/svg">
<path d="M52 22.5556C52 20.4223 50.8309 18.5797 49.1111 17.5795V3.77871C49.1111 2.98878 48.481 0.888916 46.2222 0.888916C45.5794 0.888916 44.9412 1.10378 44.4185 1.52267L36.7422 7.66426C32.8864 10.7463 28.0457 12.4445 23.1111 12.4445H5.77778C2.58646 12.4445 1.90735e-06 15.0309 1.90735e-06 18.2222V26.8889C1.90735e-06 30.0802 2.58646 32.6667 5.77778 32.6667H8.82014C8.69465 33.6128 8.62333 34.5752 8.62333 35.5556C8.62333 39.1459 9.45931 42.5386 10.9308 45.571C11.3994 46.5361 12.4222 47.1111 13.4947 47.1111H20.2006C22.5523 47.1111 23.9642 44.4172 22.5388 42.5467C21.0582 40.6039 20.178 38.1809 20.178 35.5556C20.178 34.5526 20.3242 33.5884 20.5761 32.6667H23.1111C28.0457 32.6667 32.8864 34.3648 36.7413 37.4469L44.4176 43.5885C44.9295 43.9982 45.5656 44.2217 46.2213 44.2222C48.471 44.2222 49.1102 42.1657 49.1102 41.3334V27.5326C50.8309 26.5314 52 24.6888 52 22.5556ZM43.3333 35.3227L40.3497 32.9357C35.4747 29.0357 29.3511 26.8889 23.1111 26.8889V18.2222C29.3511 18.2222 35.4747 16.0754 40.3497 12.1754L43.3333 9.7885V35.3227Z" fill="#0077B6"/>
</svg>
