<svg width="24" height="28" viewBox="0 0 24 28" fill="none" xmlns="http://www.w3.org/2000/svg">
<path d="M12 13.7143C15.7875 13.7143 18.8571 10.6446 18.8571 6.85714C18.8571 3.06964 15.7875 0 12 0C8.2125 0 5.14286 3.06964 5.14286 6.85714C5.14286 10.6446 8.2125 13.7143 12 13.7143ZM17.1321 15.4607L14.5714 25.7143L12.8571 18.4286L14.5714 15.4286H9.42857L11.1429 18.4286L9.42857 25.7143L6.86786 15.4607C3.04821 15.6429 0 18.7661 0 22.6286V24.8571C0 26.2768 1.15179 27.4286 2.57143 27.4286H21.4286C22.8482 27.4286 24 26.2768 24 24.8571V22.6286C24 18.7661 20.9518 15.6429 17.1321 15.4607Z" fill="#6D6E71"/>
</svg>
