<svg width="30" height="26" viewBox="0 0 30 26" fill="none" xmlns="http://www.w3.org/2000/svg">
<path d="M17.3438 0H28.5938C29.3704 0 30 0.623594 30 1.39286V10.6786C30 11.4478 29.3704 12.0714 28.5938 12.0714H17.3438C16.5671 12.0714 15.9375 11.4478 15.9375 10.6786V1.39286C15.9375 0.623594 16.5671 0 17.3438 0ZM12.6562 0H1.40625C0.62959 0 0 0.623594 0 1.39286V10.6786C0 11.4478 0.62959 12.0714 1.40625 12.0714H12.6562C13.4329 12.0714 14.0625 11.4478 14.0625 10.6786V1.39286C14.0625 0.623594 13.4329 0 12.6562 0ZM0 15.3214V24.6071C0 25.3764 0.62959 26 1.40625 26H12.6562C13.4329 26 14.0625 25.3764 14.0625 24.6071V15.3214C14.0625 14.5522 13.4329 13.9286 12.6562 13.9286H1.40625C0.62959 13.9286 0 14.5522 0 15.3214ZM17.3438 26H28.5938C29.3704 26 30 25.3764 30 24.6071V15.3214C30 14.5522 29.3704 13.9286 28.5938 13.9286H17.3438C16.5671 13.9286 15.9375 14.5522 15.9375 15.3214V24.6071C15.9375 25.3764 16.5671 26 17.3438 26Z" fill="#00B4D8"/>
</svg>
