<svg width="25" height="29" viewBox="0 0 25 29" fill="none" xmlns="http://www.w3.org/2000/svg">
<path d="M12.5 28.5713C14.471 28.5713 16.0697 26.9726 16.0697 24.9999H8.93026C8.93026 26.9726 10.529 28.5713 12.5 28.5713ZM24.5195 20.217C23.4414 19.0585 21.4241 17.3158 21.4241 11.6071C21.4241 7.27118 18.3839 3.80021 14.2846 2.94865V1.78571C14.2846 0.799663 13.4855 0 12.5 0C11.5145 0 10.7154 0.799663 10.7154 1.78571V2.94865C6.61609 3.80021 3.57592 7.27118 3.57592 11.6071C3.57592 17.3158 1.55863 19.0585 0.480506 20.217C0.145685 20.5769 -0.00275159 21.0072 3.85818e-05 21.4285C0.00617696 22.3437 0.724367 23.2142 1.79133 23.2142H23.2087C24.2756 23.2142 24.9944 22.3437 25 21.4285C25.0028 21.0072 24.8543 20.5764 24.5195 20.217Z" fill="white"/>
</svg>
