<svg width="35" height="25" viewBox="0 0 35 25" fill="none" xmlns="http://www.w3.org/2000/svg">
<path d="M10.5 12.5C13.8852 12.5 16.625 9.76016 16.625 6.375C16.625 2.98984 13.8852 0.25 10.5 0.25C7.11484 0.25 4.375 2.98984 4.375 6.375C4.375 9.76016 7.11484 12.5 10.5 12.5ZM14.7 14.25H14.2461C13.1086 14.7969 11.8453 15.125 10.5 15.125C9.15469 15.125 7.89687 14.7969 6.75391 14.25H6.3C2.82187 14.25 0 17.0719 0 20.55V22.125C0 23.5742 1.17578 24.75 2.625 24.75H18.375C19.8242 24.75 21 23.5742 21 22.125V20.55C21 17.0719 18.1781 14.25 14.7 14.25ZM26.25 12.5C29.1484 12.5 31.5 10.1484 31.5 7.25C31.5 4.35156 29.1484 2 26.25 2C23.3516 2 21 4.35156 21 7.25C21 10.1484 23.3516 12.5 26.25 12.5ZM28.875 14.25H28.6672C27.907 14.5125 27.1031 14.6875 26.25 14.6875C25.3969 14.6875 24.593 14.5125 23.8328 14.25H23.625C22.5094 14.25 21.4812 14.5727 20.5789 15.0922C21.9133 16.5305 22.75 18.4391 22.75 20.55V22.65C22.75 22.7703 22.7227 22.8852 22.7172 23H32.375C33.8242 23 35 21.8242 35 20.375C35 16.9898 32.2602 14.25 28.875 14.25Z" fill="#0077B6"/>
</svg>
