<svg width="25" height="21" viewBox="0 0 25 21" fill="none" xmlns="http://www.w3.org/2000/svg">
<path d="M24.3086 11.0898L19.8086 9.33203C19.6484 9.26953 19.3164 9.1875 18.9414 9.33203L14.4414 11.0898C14.0234 11.2539 13.75 11.6367 13.75 12.0625C13.75 16.4219 16.4336 19.4375 18.9414 20.418C19.3164 20.5625 19.6445 20.4805 19.8086 20.418C21.8125 19.6367 25 16.9258 25 12.0625C25 11.6367 24.7266 11.2539 24.3086 11.0898ZM19.375 18.5625V11.1758L23.1055 12.6328C22.8867 16.0352 20.7266 17.9219 19.375 18.5625ZM8.75 10.5C11.5117 10.5 13.75 8.26172 13.75 5.5C13.75 2.73828 11.5117 0.5 8.75 0.5C5.98828 0.5 3.75 2.73828 3.75 5.5C3.75 8.26172 5.98828 10.5 8.75 10.5ZM12.5 12.0625C12.5 11.9648 12.5312 11.875 12.543 11.7812C12.4453 11.7773 12.3516 11.75 12.25 11.75H11.5977C10.7305 12.1484 9.76562 12.375 8.75 12.375C7.73438 12.375 6.77344 12.1484 5.90234 11.75H5.25C2.35156 11.75 0 14.1016 0 17V18.625C0 19.6602 0.839844 20.5 1.875 20.5H15.625C15.8906 20.5 16.1445 20.4414 16.375 20.3438C14.2656 18.668 12.5 15.7852 12.5 12.0625Z" fill="#00B4D8"/>
</svg>
