<svg width="124" height="58" viewBox="0 0 124 58" fill="none" xmlns="http://www.w3.org/2000/svg">
<path d="M12.9944 40.1321C8.72151 40.1321 5.42397 38.9569 3.10183 36.6066C1.60866 35.078 0.567797 33.1659 0.0945615 31.0821C-0.0274514 30.5684 -0.0314408 30.0337 0.082893 29.5182C0.197227 29.0027 0.42691 28.5199 0.754681 28.1059C1.08245 27.692 1.49978 27.3577 1.97532 27.1282C2.45085 26.8987 2.97221 26.78 3.50021 26.781H3.85277C4.60789 26.7768 5.3437 27.0195 5.94827 27.4719C6.55284 27.9244 6.99307 28.562 7.20201 29.2876C7.44012 30.1925 7.89235 31.0268 8.52056 31.7202C9.60642 32.8954 11.1341 33.483 13.1037 33.483C15.0733 33.483 16.614 32.8954 17.7257 31.7202C18.8116 30.5451 19.3545 28.8998 19.3545 26.7845V5.47978C19.3568 5.0199 19.4498 4.565 19.6281 4.14111C19.8064 3.71721 20.0666 3.33266 20.3938 3.00944C20.7209 2.68623 21.1086 2.43071 21.5346 2.25751C21.9606 2.08431 22.4166 1.99684 22.8765 2.00009V2.00009C23.8034 2.00009 24.6924 2.36807 25.3482 3.02318C26.004 3.67829 26.3729 4.56694 26.3738 5.49388V26.781C26.3738 31.0116 25.1986 34.2962 22.8483 36.6348C20.4979 38.9734 17.2133 40.1392 12.9944 40.1321ZM7.60392 5.20479C7.60392 3.4103 9.41604 2.00009 11.6477 2.00009H23.1162V8.42006H11.6477C9.41604 8.42006 7.60392 6.98165 7.60392 5.20479Z" fill="#0077B6"/>
<path d="M69.0185 4.8205C69.0182 4.37181 69.1811 3.93832 69.4769 3.60097C69.7728 3.26362 70.1813 3.04546 70.6262 2.98723C73.4749 2.62909 76.3432 2.45011 79.2143 2.45135C84.5308 2.45135 88.148 3.32921 90.6123 5.40927C92.643 7.10857 93.7853 9.68572 93.7853 12.8129C93.7853 17.5794 90.5524 20.8158 87.0868 22.0744V22.2401C89.7169 23.2272 91.3174 25.8009 92.2411 29.3652C92.9956 32.3936 93.6831 35.2775 94.2824 37.3046C94.3628 37.579 94.3782 37.8682 94.3276 38.1496C94.2769 38.4309 94.1616 38.6966 93.9906 38.9257C93.8196 39.1548 93.5978 39.341 93.3425 39.4696C93.0872 39.5982 92.8055 39.6657 92.5196 39.6667H89.4489C89.065 39.6697 88.6899 39.5517 88.3767 39.3296C88.0635 39.1076 87.8281 38.7926 87.7038 38.4293C87.1785 36.8957 86.4981 34.3608 85.7295 30.9552C84.6718 26.1323 82.9338 24.6092 79.098 24.4859H77.5573C77.068 24.4849 76.5983 24.6782 76.2513 25.0232C75.9042 25.3682 75.7083 25.8368 75.7064 26.3262V37.8123C75.7064 38.3023 75.5118 38.7722 75.1654 39.1186C74.8189 39.4651 74.349 39.6597 73.8591 39.6597H70.8588C70.3689 39.6597 69.899 39.4651 69.5526 39.1186C69.2061 38.7722 69.0115 38.3023 69.0115 37.8123L69.0185 4.8205ZM75.717 19.5607H79.7079C84.2558 19.5607 87.1115 17.1492 87.1115 13.4792C87.1115 9.42131 84.2629 7.55983 79.8771 7.55983C78.4815 7.51815 77.0854 7.62809 75.7135 7.88771L75.717 19.5607Z" fill="#0077B6"/>
<path d="M117.621 23.742H107.274C107.055 23.742 106.845 23.8282 106.689 23.9819C106.534 24.1357 106.445 24.3446 106.442 24.5634V33.765C106.442 33.9857 106.53 34.1973 106.686 34.3534C106.842 34.5094 107.053 34.597 107.274 34.597H119.261C119.987 34.597 120.684 34.8857 121.198 35.3994C121.711 35.9131 122 36.6099 122 37.3364V37.3893C122.001 37.7493 121.93 38.1059 121.793 38.4386C121.655 38.7714 121.453 39.0738 121.199 39.3285C120.945 39.5833 120.642 39.7854 120.31 39.9233C119.977 40.0611 119.621 40.1321 119.261 40.1321H100.53C100.31 40.1312 100.099 40.0431 99.9436 39.8872C99.7883 39.7312 99.7012 39.5201 99.7012 39.3001V4.02021C99.7012 3.91141 99.7226 3.80368 99.7642 3.70316C99.8059 3.60264 99.8669 3.51131 99.9438 3.43437C100.021 3.35744 100.112 3.29642 100.213 3.25478C100.313 3.21314 100.421 3.19171 100.53 3.19171H118.453C118.813 3.19125 119.17 3.26176 119.503 3.39922C119.836 3.53668 120.138 3.73838 120.393 3.9928C120.647 4.24721 120.85 4.54935 120.987 4.88193C121.125 5.21451 121.196 5.57101 121.196 5.93104V5.98745C121.196 6.34748 121.125 6.70398 120.987 7.03656C120.85 7.36914 120.647 7.67128 120.393 7.9257C120.138 8.18011 119.836 8.38182 119.503 8.51927C119.17 8.65673 118.813 8.72724 118.453 8.72678H107.274C107.165 8.72631 107.056 8.74752 106.955 8.78916C106.854 8.83081 106.762 8.89208 106.685 8.96943C106.607 9.04679 106.546 9.13869 106.504 9.23985C106.463 9.34101 106.441 9.44941 106.442 9.5588V17.4313C106.442 17.652 106.53 17.8636 106.686 18.0196C106.842 18.1757 107.053 18.2633 107.274 18.2633H117.621C118.348 18.2633 119.045 18.5519 119.558 19.0656C120.072 19.5794 120.361 20.2761 120.361 21.0026C120.361 21.7292 120.072 22.4259 119.558 22.9396C119.045 23.4534 118.348 23.742 117.621 23.742Z" fill="#0077B6"/>
<path d="M72.6922 47.9693L68.8917 51.0965L53.0515 31.7273L56.852 28.6001L72.6922 47.9693Z" fill="#F6F6F6"/>
<path d="M74.3525 53.8252L74.3102 53.8605C73.1115 54.8476 71.4898 54.8476 70.6684 53.8605L61.3081 42.6388L65.7256 38.8241L75.0541 50.2539C75.8685 51.234 75.5512 52.831 74.3525 53.8252Z" fill="#242449"/>
<g style="mix-blend-mode:multiply" opacity="0.2">
<path d="M55.0046 34.1176L55.6216 34.9425L62.7925 35.8733L58.026 30.1584L55.0046 34.1176Z" fill="#BBBCC0"/>
</g>
<path opacity="0.5" d="M61.361 20.2729C60.6348 0.942432 36.1042 -1.43729 31.6797 17.4137C32.4306 36.7652 56.9365 39.1238 61.361 20.2729Z" fill="#C8E7F5"/>
<path d="M46.3564 35.1611C55.3675 35.1611 62.6725 27.8562 62.6725 18.845C62.6725 9.83389 55.3675 2.52892 46.3564 2.52892C37.3453 2.52892 30.0403 9.83389 30.0403 18.845C30.0403 27.8562 37.3453 35.1611 46.3564 35.1611Z" stroke="#023E8A" stroke-width="5" stroke-miterlimit="10"/>
<path d="M46.3564 33.4654C54.431 33.4654 60.9768 26.9196 60.9768 18.845C60.9768 10.7704 54.431 4.22469 46.3564 4.22469C38.2818 4.22469 31.7361 10.7704 31.7361 18.845C31.7361 26.9196 38.2818 33.4654 46.3564 33.4654Z" stroke="#CCCCCC" stroke-width="1.5" stroke-miterlimit="10"/>
<path d="M59.6936 39.8183L63.3919 36.6313L63.0287 36.113L59.3022 39.3847L59.6936 39.8183Z" fill="#2F3787"/>
<path d="M46.5187 31.0786C53.2751 31.0786 58.7523 25.6014 58.7523 18.845C58.7523 12.0886 53.2751 6.61147 46.5187 6.61147C39.7623 6.61147 34.2852 12.0886 34.2852 18.845C34.2852 25.6014 39.7623 31.0786 46.5187 31.0786Z" fill="#00ABFD" stroke="#2E3192" stroke-width="3" stroke-miterlimit="10"/>
<path d="M34.9973 14.7202H57.8744" stroke="#2E3192" stroke-width="3" stroke-miterlimit="10"/>
<path d="M35.0818 23.1708H57.9589" stroke="#2E3192" stroke-width="3" stroke-miterlimit="10"/>
<path d="M47.9429 30.8776C52.2793 22.8253 52.2793 14.7742 47.9429 6.72428" stroke="#2E3192" stroke-width="3" stroke-miterlimit="10"/>
<path d="M44.5868 6.72428C40.2504 14.7719 40.2504 22.823 44.5868 30.8776" stroke="#2E3192" stroke-width="3" stroke-miterlimit="10"/>
<path d="M46.4552 10.4085H54.3841C54.4309 10.4085 54.4757 10.427 54.5088 10.4601C54.5418 10.4932 54.5604 10.538 54.5604 10.5847V13.2289C54.5604 13.4654 54.4664 13.6923 54.2991 13.8596C54.1319 14.0269 53.905 14.1208 53.6684 14.1208H47.1744C46.9379 14.1208 46.711 14.0269 46.5437 13.8596C46.3764 13.6923 46.2825 13.4654 46.2825 13.2289V10.5847C46.2825 10.538 46.301 10.4932 46.3341 10.4601C46.3672 10.427 46.412 10.4085 46.4587 10.4085H46.4552Z" fill="#D88839" stroke="black" stroke-width="1.5" stroke-miterlimit="10"/>
<path d="M52.1277 5.89226H48.7114C48.6141 5.89226 48.5352 5.97118 48.5352 6.06853V7.28131C48.5352 7.37867 48.6141 7.45759 48.7114 7.45759H52.1277C52.225 7.45759 52.3039 7.37867 52.3039 7.28131V6.06853C52.3039 5.97118 52.225 5.89226 52.1277 5.89226Z" stroke="black" stroke-width="1.5" stroke-miterlimit="10"/>
<path d="M45.965 7.45759H54.874C54.9207 7.45759 54.9656 7.47616 54.9986 7.50922C55.0317 7.54228 55.0503 7.58711 55.0503 7.63386V11.1065C55.0503 11.2402 54.9971 11.3684 54.9026 11.463C54.808 11.5575 54.6798 11.6107 54.5461 11.6107H46.2964C46.1627 11.6107 46.0344 11.5575 45.9399 11.463C45.8454 11.3684 45.7922 11.2402 45.7922 11.1065V7.64092C45.7922 7.59416 45.8108 7.54933 45.8439 7.51627C45.8769 7.48321 45.9218 7.46464 45.9685 7.46464L45.965 7.45759Z" fill="#A55F13" stroke="black" stroke-width="1.5" stroke-miterlimit="10"/>
<path d="M49.7834 10.6447H51.0561C51.1234 10.6447 51.188 10.6714 51.2356 10.719C51.2832 10.7666 51.3099 10.8312 51.3099 10.8985V11.7129C51.3099 11.8728 51.2464 12.0261 51.1334 12.1392C51.0203 12.2522 50.867 12.3158 50.7071 12.3158H50.1324C49.9725 12.3158 49.8192 12.2522 49.7061 12.1392C49.5931 12.0261 49.5295 11.8728 49.5295 11.7129V10.8985C49.5295 10.8312 49.5563 10.7666 49.6039 10.719C49.6515 10.6714 49.7161 10.6447 49.7834 10.6447Z" fill="#6B7292" stroke="black" stroke-width="1.5" stroke-miterlimit="10"/>
<path d="M52.9421 22.6871L52.9351 22.3952H52.8999L52.9069 22.6907L52.9421 22.6871Z" fill="#2F3787"/>
<path d="M52.9421 22.6871L52.9351 22.3952H52.8999L52.9069 22.6907L52.9421 22.6871Z" fill="#2F3787"/>
<path d="M42.7075 20.7312C42.4748 19.8075 41.7415 19.0213 40.5922 18.4537C40.1402 18.236 39.6679 18.0636 39.182 17.939C39.7178 17.4489 40.0528 16.6522 40.1761 15.5628C40.2336 15.2432 40.2231 14.9151 40.1453 14.5999C40.0676 14.2846 39.9243 13.9892 39.7249 13.733C39.3189 13.2847 38.7585 13.0064 38.156 12.9539H38.1349C37.5332 13.0094 36.9739 13.2872 36.566 13.733C36.3666 13.9892 36.2233 14.2846 36.1456 14.5999C36.0678 14.9151 36.0573 15.2432 36.1147 15.5628C36.2381 16.6522 36.5731 17.4489 37.1089 17.939C36.623 18.0636 36.1507 18.236 35.6987 18.4537C34.5353 19.0213 33.802 19.8075 33.5834 20.7312C33.5044 21.4919 33.5341 22.2599 33.6716 23.0122C33.6716 23.0122 33.6716 23.0122 33.6716 23.0334C33.7809 23.2619 33.9571 23.4517 34.1769 23.5776C34.3967 23.7036 34.6496 23.7597 34.902 23.7385H34.9266L34.9549 24.1333V24.6621C34.9549 24.6986 34.9693 24.7336 34.9951 24.7594C35.0209 24.7851 35.0559 24.7996 35.0923 24.7996H41.2761C41.2942 24.7996 41.312 24.7961 41.3287 24.7892C41.3454 24.7823 41.3606 24.7721 41.3733 24.7594C41.3861 24.7466 41.3962 24.7314 41.4031 24.7148C41.41 24.6981 41.4136 24.6802 41.4136 24.6621V24.1333L41.4418 23.7349H41.5511C41.8032 23.7569 42.0559 23.7011 42.2753 23.575C42.4946 23.449 42.6701 23.2587 42.778 23.0298C42.778 23.0298 42.778 23.0298 42.778 23.0087C42.8678 22.2502 42.844 21.4826 42.7075 20.7312V20.7312ZM38.1243 18.4079C38.3916 18.3914 38.6497 18.3038 38.8717 18.154C38.9634 18.1752 39.1749 18.2281 39.4499 18.3127L38.1278 19.2046L36.7917 18.3127C36.9814 18.2504 37.1744 18.1986 37.3698 18.1576C37.5997 18.3096 37.8666 18.3962 38.1419 18.4079H38.1243ZM36.7529 13.9128C37.1113 13.5257 37.5993 13.2836 38.1243 13.2324C38.649 13.2849 39.1365 13.5268 39.4957 13.9128C39.7834 14.2793 39.9275 14.7381 39.9012 15.2032C39.6404 15.149 39.4032 15.0145 39.2229 14.8184C39.0427 14.6223 38.9285 14.3747 38.8964 14.1103C38.8935 14.0828 38.8826 14.0568 38.865 14.0355C38.8475 14.0142 38.824 13.9985 38.7977 13.9904C38.7708 13.9815 38.7417 13.9811 38.7146 13.9893C38.6875 13.9975 38.6635 14.0139 38.6461 14.0362C38.3759 14.4014 38.0363 14.7097 37.6466 14.9432C37.257 15.1767 36.8251 15.331 36.3756 15.3971C36.34 15.1359 36.3565 14.8701 36.4243 14.6154C36.492 14.3606 36.6097 14.1218 36.7705 13.9128H36.7529ZM36.4003 15.6756C37.296 15.5577 38.1155 15.1102 38.699 14.4205C38.7846 14.6886 38.9413 14.9285 39.1523 15.1148C39.3634 15.301 39.6209 15.4266 39.8976 15.4782C39.8994 15.4957 39.8994 15.5135 39.8976 15.531C39.7778 16.5887 39.4323 17.3819 38.9034 17.805C38.6885 17.988 38.4228 18.1011 38.1419 18.1294C38.1067 18.1329 36.7317 18.087 36.4038 15.6791L36.4003 15.6756ZM41.1421 23.9782H35.2228L34.9161 19.9802H41.4524L41.1421 23.9782ZM41.1421 24.5141H35.251V24.2567H41.1527L41.1421 24.5141ZM42.5241 22.9382C42.4222 23.1221 42.2658 23.27 42.0764 23.3615C41.887 23.4531 41.674 23.4837 41.4665 23.4494L41.7415 19.8428C41.7429 19.8237 41.7405 19.8045 41.7345 19.7863C41.7284 19.7682 41.7188 19.7514 41.7062 19.737C41.6934 19.7226 41.6776 19.7111 41.66 19.7032C41.6424 19.6953 41.6233 19.6912 41.604 19.6912H34.768C34.7487 19.6912 34.7296 19.6953 34.712 19.7032C34.6944 19.7111 34.6786 19.7226 34.6658 19.737C34.6532 19.7514 34.6436 19.7682 34.6375 19.7863C34.6315 19.8045 34.6291 19.8237 34.6305 19.8428L34.8984 23.4529C34.7044 23.4735 34.5085 23.4359 34.3359 23.3448C34.1632 23.2538 34.0216 23.1135 33.9289 22.9417C33.8004 22.2347 33.7707 21.5133 33.8408 20.7982C34.1651 19.4937 35.526 18.778 36.4779 18.4255L38.0679 19.4832C38.0898 19.4982 38.1154 19.5067 38.1419 19.5078C38.1696 19.5072 38.1965 19.4986 38.2195 19.4832L39.7919 18.4255C40.7438 18.778 42.1046 19.4832 42.429 20.7982C42.5575 21.5051 42.5871 22.2265 42.5171 22.9417L42.5241 22.9382Z" fill="#29333F"/>
<path d="M38.1844 22.8007C38.347 22.8014 38.5062 22.7538 38.6417 22.6639C38.7773 22.5741 38.8831 22.446 38.9458 22.296C39.0085 22.146 39.0253 21.9807 38.994 21.8211C38.9627 21.6615 38.8847 21.5148 38.77 21.3996C38.6553 21.2844 38.5089 21.2058 38.3495 21.1738C38.19 21.1418 38.0247 21.1579 37.8744 21.22C37.7241 21.282 37.5956 21.3873 37.5051 21.5225C37.4147 21.6576 37.3665 21.8166 37.3665 21.9792C37.366 22.0869 37.3868 22.1937 37.4277 22.2933C37.4686 22.3929 37.5288 22.4835 37.6048 22.5598C37.6808 22.6362 37.7711 22.6967 37.8706 22.7381C37.97 22.7794 38.0767 22.8007 38.1844 22.8007V22.8007ZM38.1844 21.4398C38.2918 21.4398 38.3967 21.4716 38.486 21.5313C38.5753 21.591 38.6449 21.6758 38.686 21.775C38.7271 21.8742 38.7378 21.9833 38.7169 22.0887C38.6959 22.194 38.6442 22.2907 38.5683 22.3666C38.4924 22.4426 38.3956 22.4943 38.2903 22.5152C38.185 22.5362 38.0758 22.5254 37.9766 22.4843C37.8774 22.4432 37.7926 22.3737 37.733 22.2844C37.6733 22.1951 37.6415 22.0901 37.6415 21.9827C37.641 21.9111 37.6547 21.8402 37.6818 21.7739C37.7088 21.7076 37.7488 21.6473 37.7992 21.5965C37.8497 21.5458 37.9097 21.5054 37.9758 21.4779C38.0419 21.4504 38.1128 21.4363 38.1844 21.4363V21.4398Z" fill="#29333F"/>
<path d="M41.1386 24.2602H35.2334V24.5176H41.1386V24.2602Z" fill="#ADADAD"/>
<path d="M34.916 19.9802L35.2227 23.9888H41.1456L41.4523 19.9802H34.916ZM38.1842 22.8007C38.0214 22.8014 37.8621 22.7537 37.7265 22.6637C37.5909 22.5737 37.485 22.4454 37.4224 22.2952C37.3598 22.145 37.3432 21.9795 37.3748 21.8198C37.4064 21.6602 37.4847 21.5135 37.5998 21.3984C37.7149 21.2833 37.8616 21.205 38.0213 21.1734C38.1809 21.1418 38.3464 21.1584 38.4966 21.221C38.6469 21.2836 38.7751 21.3894 38.8651 21.525C38.9551 21.6607 39.0028 21.82 39.0021 21.9827C39.0021 22.1997 38.9159 22.4077 38.7625 22.5611C38.6091 22.7145 38.4011 22.8007 38.1842 22.8007Z" fill="#ADADAD"/>
<path d="M42.5172 22.9417C42.4152 23.1256 42.2588 23.2735 42.0695 23.3651C41.8801 23.4566 41.6671 23.4873 41.4596 23.4529L41.7345 19.8463C41.736 19.8272 41.7336 19.808 41.7275 19.7899C41.7215 19.7717 41.7119 19.7549 41.6993 19.7405C41.6864 19.7261 41.6707 19.7146 41.6531 19.7067C41.6354 19.6988 41.6164 19.6947 41.597 19.6947H34.7681C34.7488 19.6947 34.7297 19.6988 34.7121 19.7067C34.6945 19.7146 34.6787 19.7261 34.6659 19.7405C34.6533 19.7549 34.6437 19.7717 34.6376 19.7899C34.6316 19.808 34.6292 19.8272 34.6306 19.8463L34.8986 23.4529C34.7045 23.4735 34.5086 23.4359 34.336 23.3448C34.1634 23.2538 34.0217 23.1135 33.929 22.9417C33.8005 22.2347 33.7708 21.5133 33.8409 20.7982C34.1653 19.4937 35.5261 18.778 36.478 18.4255L38.068 19.4831C38.0899 19.4982 38.1155 19.5067 38.142 19.5078C38.1697 19.5072 38.1966 19.4986 38.2196 19.4831L39.7955 18.4255C40.7439 18.778 42.1047 19.4831 42.4291 20.7982C42.5576 21.5051 42.5873 22.2265 42.5172 22.9417V22.9417Z" fill="#505773"/>
<path d="M39.4817 18.3127L38.1597 19.2046L36.8235 18.3127C37.0985 18.2245 37.31 18.1752 37.4017 18.154C37.6247 18.3045 37.884 18.3922 38.1526 18.4079V18.4079C38.4199 18.3914 38.678 18.3038 38.9 18.154C38.9882 18.1752 39.1962 18.2175 39.4817 18.3127Z" fill="#FAAB7F"/>
<path d="M39.9047 15.4817C39.9047 15.4817 39.9047 15.5169 39.9047 15.5346C39.7848 16.5922 39.4393 17.3855 38.9105 17.8085C38.6955 17.9915 38.4299 18.1047 38.149 18.1329C38.1172 18.1329 36.7388 18.087 36.4109 15.665C37.3073 15.5469 38.1271 15.098 38.7095 14.4064C38.7918 14.6775 38.9467 14.921 39.1573 15.1105C39.368 15.3 39.6264 15.4284 39.9047 15.4817V15.4817Z" fill="#FAAB7F"/>
<path d="M39.919 15.2032C39.6582 15.149 39.421 15.0144 39.2407 14.8184C39.0605 14.6223 38.9463 14.3746 38.9142 14.1102C38.9113 14.0828 38.9004 14.0568 38.8828 14.0355C38.8653 14.0142 38.8419 13.9985 38.8155 13.9904C38.7891 13.9817 38.7607 13.9815 38.7341 13.9897C38.7076 13.9979 38.6843 14.0142 38.6674 14.0362C38.3948 14.404 38.0518 14.714 37.6584 14.9482C37.265 15.1824 36.8291 15.3362 36.3758 15.4006C36.3393 15.1386 36.3558 14.8719 36.4242 14.6163C36.4927 14.3608 36.6117 14.1216 36.7742 13.9128C37.1311 13.5257 37.618 13.2835 38.1421 13.2324C38.667 13.2843 39.1547 13.5263 39.5135 13.9128C39.8012 14.2793 39.9453 14.738 39.919 15.2032V15.2032Z" fill="#505773"/>
<path d="M38.7272 21.9792C38.7272 22.0866 38.6954 22.1916 38.6357 22.2808C38.5761 22.3701 38.4913 22.4397 38.3921 22.4808C38.2928 22.5219 38.1837 22.5327 38.0784 22.5117C37.973 22.4908 37.8763 22.439 37.8004 22.3631C37.7244 22.2872 37.6727 22.1904 37.6518 22.0851C37.6308 21.9798 37.6416 21.8706 37.6827 21.7714C37.7238 21.6722 37.7934 21.5874 37.8827 21.5278C37.9719 21.4681 38.0769 21.4363 38.1843 21.4363C38.328 21.4372 38.4656 21.4947 38.5672 21.5963C38.6688 21.6979 38.7263 21.8355 38.7272 21.9792V21.9792Z" fill="#ADADAD"/>
<path d="M50.6893 23.1109L50.6752 29.1607L49.2615 28.3428L49.2721 22.293L50.6893 23.1109Z" fill="#939598"/>
<path d="M50.6894 23.1109L51.6624 22.5468L51.6483 28.5931L50.6753 29.1607L50.6894 23.1109Z" fill="#939598"/>
<path d="M53.2771 23.4705V29.5309L56.3584 27.7505V21.6972L53.2771 23.4705Z" fill="#939598"/>
<path d="M53.277 23.4705L48.4153 20.6642V26.7246L53.277 29.5309V23.4705Z" fill="#939598"/>
<path d="M53.2771 23.058V29.1184L56.3584 27.338V21.2812L53.2771 23.058Z" fill="#C0C7CE"/>
<path d="M53.277 23.058L48.4153 20.2517V26.3086L53.277 29.1184V23.058Z" fill="#D7E4E8"/>
<path d="M50.6894 22.6984L51.6624 22.1343L51.6483 28.1806L50.6753 28.7447L50.6894 22.6984Z" fill="#C0C7CE"/>
<path d="M53.2771 23.3612V24.4294L53.5274 24.6163V23.5058L53.2771 23.3612Z" fill="#A16845"/>
<path d="M55.9495 21.817V22.9276L56.2033 23.0757V21.9616L55.9495 21.817Z" fill="#D4CAB8"/>
<path d="M56.2032 21.9651L53.5273 23.5058V24.6163L56.2032 23.0756V21.9651Z" fill="#5B95AB"/>
<path d="M54.9482 22.8465L55.5934 22.4728V23.2378L54.9482 23.608V22.8465Z" fill="#B5D4DE"/>
<path d="M55.6145 22.4657V23.2519L54.927 23.6468V23.5904L54.9482 23.5798L55.5722 23.2202V22.4587L55.6145 22.4375V22.4657Z" fill="#6D6E71"/>
<path d="M55.6321 23.2696L54.9305 23.675L54.927 22.8289L54.9482 22.8183V23.5798V23.608L55.5933 23.2378V22.4446L55.611 22.4375L55.6356 22.4481L55.6321 23.2696Z" fill="#58595B"/>
<path d="M55.6356 22.4481L55.5933 22.4728L54.9482 22.8465L54.927 22.8289L55.5933 22.4446L55.611 22.4375L55.6356 22.4481Z" fill="#58595B"/>
<g style="mix-blend-mode:screen">
<path d="M55.4207 22.5715L54.9482 23.3718V22.8465L55.4207 22.5715Z" fill="#3D3D3D"/>
</g>
<g style="mix-blend-mode:screen">
<path d="M55.5721 22.7584V23.2202L55.1208 23.4811L55.5721 22.7584Z" fill="#3D3D3D"/>
</g>
<path d="M54.2676 23.2414L54.9127 22.8676V23.6292L54.2676 24.0029V23.2414Z" fill="#B5D4DE"/>
<path d="M54.9341 22.8571V23.6468H54.9305L54.2466 24.0416V23.9852L54.2677 23.9747L54.8918 23.615V22.8535L54.9341 22.8324V22.8571Z" fill="#6D6E71"/>
<path d="M54.9517 23.6644L54.2466 24.0698V23.2237L54.2677 23.2131V23.9747V24.0029L54.9129 23.6291V22.8394L54.9305 22.8289L54.9517 22.843V23.6644Z" fill="#58595B"/>
<path d="M54.9517 22.843L54.9129 22.8676L54.2677 23.2413L54.2466 23.2237L54.9129 22.8394L54.9305 22.8289L54.9517 22.843Z" fill="#58595B"/>
<g style="mix-blend-mode:screen">
<path d="M54.74 22.9664L54.2676 23.7631V23.2414L54.74 22.9664Z" fill="#3D3D3D"/>
</g>
<g style="mix-blend-mode:screen">
<path d="M54.8917 23.1532V23.6151L54.4404 23.8724L54.8917 23.1532Z" fill="#3D3D3D"/>
</g>
<path d="M53.5274 23.5058L53.2771 23.3612L55.9494 21.817L56.2033 21.9651L53.5274 23.5058Z" fill="#88C2DB"/>
<path d="M53.5274 23.5058V24.6163L53.2771 24.7608V23.6503L53.5274 23.5058Z" fill="#5B95AB"/>
<path d="M51.6589 22.7196L53.2772 23.6503V24.7608L51.6589 23.8266V22.7196Z" fill="#66A6C0"/>
<path d="M51.9128 22.5715L51.6589 22.7196L53.2772 23.6503L53.5275 23.5058L51.9128 22.5715Z" fill="#88C2DB"/>
<path d="M53.2771 25.2791V26.3473L53.5274 26.5377V25.4237L53.2771 25.2791Z" fill="#A16845"/>
<path d="M55.9495 23.7349V24.8455L56.2033 24.9935V23.8795L55.9495 23.7349Z" fill="#D4CAB8"/>
<path d="M56.2032 23.883L53.5273 25.4236V26.5377L56.2032 24.9935V23.883Z" fill="#5B95AB"/>
<path d="M54.9482 24.7644L55.5934 24.3907V25.1557L54.9482 25.5259V24.7644Z" fill="#B5D4DE"/>
<path d="M55.6145 24.3836V25.1698V25.1733V25.1698L54.927 25.5647V25.5118L54.9482 25.4977L55.5722 25.1381V24.3801L55.6145 24.3554V24.3836Z" fill="#6D6E71"/>
<path d="M55.6321 25.1874L54.9305 25.5929L54.927 24.7503L54.9482 24.7397V25.4977V25.5259L55.5933 25.1557V24.3625L55.611 24.3554L55.6356 24.366L55.6321 25.1874Z" fill="#58595B"/>
<path d="M55.6356 24.366L55.5933 24.3907L54.9482 24.7644L54.927 24.7503L55.5933 24.3625L55.611 24.3554L55.6356 24.366Z" fill="#58595B"/>
<g style="mix-blend-mode:screen">
<path d="M55.4207 24.4929L54.9482 25.2897V24.7644L55.4207 24.4929Z" fill="#3D3D3D"/>
</g>
<g style="mix-blend-mode:screen">
<path d="M55.5721 24.6798V25.1381L55.1208 25.399L55.5721 24.6798Z" fill="#3D3D3D"/>
</g>
<path d="M54.2676 25.1592L54.9127 24.7855V25.5506L54.2676 25.9207V25.1592Z" fill="#B5D4DE"/>
<path d="M54.9341 24.7785V25.5647H54.9305L54.2466 25.9595V25.9031L54.2677 25.8925L54.8918 25.5329V24.7714L54.9341 24.7503V24.7785Z" fill="#6D6E71"/>
<path d="M54.9517 25.5823L54.2466 25.9877V25.1416L54.2677 25.131V25.8925V25.9207L54.9129 25.5506V24.7573L54.9305 24.7467L54.9517 24.7609V25.5823Z" fill="#58595B"/>
<path d="M54.9517 24.7609L54.9129 24.7855L54.2677 25.1592L54.2466 25.1416L54.9129 24.7573L54.9305 24.7467L54.9517 24.7609Z" fill="#58595B"/>
<g style="mix-blend-mode:screen">
<path d="M54.74 24.8842L54.2676 25.681V25.1592L54.74 24.8842Z" fill="#3D3D3D"/>
</g>
<g style="mix-blend-mode:screen">
<path d="M54.8917 25.0711V25.5329L54.4404 25.7938L54.8917 25.0711Z" fill="#3D3D3D"/>
</g>
<path d="M53.5274 25.4236L53.2771 25.2791L55.9494 23.7349L56.2033 23.883L53.5274 25.4236Z" fill="#88C2DB"/>
<path d="M53.5274 25.4236V26.5377L53.2771 26.6823V25.5682L53.5274 25.4236Z" fill="#5B95AB"/>
<path d="M51.6589 24.6375L53.2772 25.5682V26.6823L51.6589 25.748V24.6375Z" fill="#66A6C0"/>
<path d="M51.9128 24.4929L51.6589 24.6374L53.2772 25.5682L53.5275 25.4236L51.9128 24.4929Z" fill="#88C2DB"/>
<path d="M53.2771 27.204V28.2723L53.5274 28.4591V27.3486L53.2771 27.204Z" fill="#A16845"/>
<path d="M55.9495 25.6599V26.7704L56.2033 26.9149V25.8044L55.9495 25.6599Z" fill="#D4CAB8"/>
<path d="M56.2032 25.8044L53.5273 27.3486V28.4591L56.2032 26.9185V25.8044Z" fill="#5B95AB"/>
<path d="M54.9482 26.6893L55.5934 26.3156V27.0771L54.9482 27.4508V26.6893Z" fill="#B5D4DE"/>
<path d="M55.6145 26.3086V27.0947L54.927 27.4896V27.4332L54.9482 27.4226L55.5722 27.063V26.3015L55.6145 26.2803V26.3086Z" fill="#6D6E71"/>
<path d="M55.6321 27.1124L54.9305 27.5178L54.927 26.6717L54.9482 26.6611V27.4226V27.4508L55.5933 27.0771V26.2874L55.611 26.2768L55.6356 26.2909L55.6321 27.1124Z" fill="#58595B"/>
<path d="M55.6356 26.2909L55.5933 26.3156L54.9482 26.6893L54.927 26.6717L55.5933 26.2874L55.611 26.2768L55.6356 26.2909Z" fill="#58595B"/>
<g style="mix-blend-mode:screen">
<path d="M55.4207 26.4143L54.9482 27.2146V26.6893L55.4207 26.4143Z" fill="#3D3D3D"/>
</g>
<g style="mix-blend-mode:screen">
<path d="M55.5721 26.6012V27.063L55.1208 27.3239L55.5721 26.6012Z" fill="#3D3D3D"/>
</g>
<path d="M54.2676 27.0806L54.9127 26.7069V27.472L54.2676 27.8457V27.0806Z" fill="#B5D4DE"/>
<path d="M54.9341 26.6999V27.4896H54.9305L54.2466 27.8845V27.8281L54.2677 27.8175L54.8918 27.4544V26.6964L54.9341 26.6717V26.6999Z" fill="#6D6E71"/>
<path d="M54.9517 27.5037L54.2466 27.9127V27.0665L54.2677 27.056V27.8175V27.8457L54.9129 27.472V26.6823L54.9305 26.6717L54.9517 26.6858V27.5037Z" fill="#58595B"/>
<path d="M54.9517 26.6858L54.9129 26.7069L54.2677 27.0807L54.2466 27.0665L54.9129 26.6823L54.9305 26.6717L54.9517 26.6858Z" fill="#58595B"/>
<g style="mix-blend-mode:screen">
<path d="M54.74 26.8092L54.2676 27.6059V27.0806L54.74 26.8092Z" fill="#3D3D3D"/>
</g>
<g style="mix-blend-mode:screen">
<path d="M54.8917 26.996V27.4543L54.4404 27.7152L54.8917 26.996Z" fill="#3D3D3D"/>
</g>
<path d="M53.5274 27.3486L53.2771 27.204L55.9494 25.6599L56.2033 25.8044L53.5274 27.3486Z" fill="#88C2DB"/>
<path d="M53.5274 27.3486V28.4591L53.2771 28.6037V27.4931L53.5274 27.3486Z" fill="#5B95AB"/>
<path d="M51.6589 26.5624L53.2772 27.4931V28.6037L51.6589 27.6694V26.5624Z" fill="#66A6C0"/>
<path d="M51.9092 26.4143L51.6589 26.5624L53.2772 27.4931L53.5275 27.3486L51.9092 26.4143Z" fill="#88C2DB"/>
<path d="M52.7729 27.3697L52.1277 26.996V27.7575L52.7729 28.1313V27.3697Z" fill="#B5D4DE"/>
<path d="M52.1064 26.989V27.7752H52.11L52.7939 28.17V28.1136L52.7728 28.103L52.1487 27.7434V26.9819L52.1064 26.9608V26.989Z" fill="#6D6E71"/>
<path d="M52.0889 27.7928L52.794 28.1982V27.3521L52.7763 27.3415L52.7728 28.103V28.1312L52.1276 27.7575V26.9678L52.11 26.9608L52.0889 26.9713V27.7928Z" fill="#58595B"/>
<path d="M52.0889 26.9713L52.1276 26.996L52.7728 27.3697L52.794 27.3521L52.1276 26.9678L52.11 26.9608L52.0889 26.9713Z" fill="#58595B"/>
<g style="mix-blend-mode:screen">
<path d="M52.304 27.0983L52.7728 27.895V27.3697L52.304 27.0983Z" fill="#3D3D3D"/>
</g>
<g style="mix-blend-mode:screen">
<path d="M52.1489 27.2816V27.7434L52.6002 28.0043L52.1489 27.2816Z" fill="#3D3D3D"/>
</g>
<path d="M52.7834 25.4624L52.1382 25.0887V25.8502L52.7834 26.2239V25.4624Z" fill="#B5D4DE"/>
<path d="M52.1172 25.0781V25.8679L52.8011 26.2627V26.2063L52.7835 26.1957L52.1595 25.8361V25.0746L52.1172 25.0535V25.0781Z" fill="#6D6E71"/>
<path d="M52.0995 25.8855L52.8011 26.2909V25.4448L52.7834 25.4342V26.1957V26.2239L52.1383 25.8502V25.0605L52.1206 25.0499L52.0959 25.064L52.0995 25.8855Z" fill="#58595B"/>
<path d="M52.0959 25.064L52.1383 25.0887L52.7834 25.4624L52.8011 25.4448H52.8046H52.8011L52.1383 25.0605L52.1206 25.0499L52.0959 25.064Z" fill="#58595B"/>
<g style="mix-blend-mode:screen">
<path d="M52.311 25.1874L52.7835 25.9842V25.4624L52.311 25.1874Z" fill="#3D3D3D"/>
</g>
<g style="mix-blend-mode:screen">
<path d="M52.1594 25.3743V25.8361L52.6107 26.0935L52.1594 25.3743Z" fill="#3D3D3D"/>
</g>
<path d="M52.7834 23.5446L52.1382 23.1708V23.9359L52.7834 24.3061V23.5446Z" fill="#B5D4DE"/>
<path d="M52.1172 23.1638V23.95L52.8011 24.3448V24.2884L52.7835 24.2779L52.1595 23.9183V23.1567L52.1172 23.1356V23.1638Z" fill="#6D6E71"/>
<path d="M52.0995 23.9676L52.8011 24.373V23.5269L52.7834 23.5163V24.2779V24.3061L52.1383 23.9359V23.1426L52.1206 23.1356L52.0959 23.1462L52.0995 23.9676Z" fill="#58595B"/>
<path d="M52.0959 23.1462L52.1383 23.1708L52.7834 23.5445L52.8011 23.5269L52.1383 23.1426L52.1206 23.1356L52.0959 23.1462Z" fill="#58595B"/>
<g style="mix-blend-mode:screen">
<path d="M52.311 23.2731L52.7835 24.0698V23.5445L52.311 23.2731Z" fill="#3D3D3D"/>
</g>
<g style="mix-blend-mode:screen">
<path d="M52.1594 23.4564V23.9182L52.6107 24.1791L52.1594 23.4564Z" fill="#3D3D3D"/>
</g>
<path d="M49.9948 21.4645V22.5785L49.741 22.7231V21.609L49.9948 21.4645Z" fill="#A16845"/>
<path d="M48.165 20.6994L49.7409 21.609V22.7231L48.165 21.81V20.6994Z" fill="#66A6C0"/>
<path d="M48.4153 20.5549L48.165 20.6994L49.7409 21.609L49.9948 21.4645L48.4153 20.5549Z" fill="#88C2DB"/>
<path d="M49.9948 23.3824V24.4929L49.741 24.6375V23.5269L49.9948 23.3824Z" fill="#A16845"/>
<path d="M48.165 22.6173L49.7409 23.5269V24.6375L48.165 23.7279V22.6173Z" fill="#66A6C0"/>
<path d="M48.4153 22.4763L48.165 22.6173L49.7409 23.5304L49.9948 23.3824L48.4153 22.4763Z" fill="#88C2DB"/>
<path d="M49.9948 25.3073V26.4178L49.741 26.5624V25.4518L49.9948 25.3073Z" fill="#A16845"/>
<path d="M48.165 24.5387L49.7409 25.4519V26.5624L48.165 25.6528V24.5387Z" fill="#66A6C0"/>
<path d="M48.4153 24.3942L48.165 24.5387L49.7445 25.4519L49.9948 25.3073L48.4153 24.3942Z" fill="#88C2DB"/>
<path d="M49.286 25.3496L48.6409 24.9759V25.741L49.286 26.1111V25.3496Z" fill="#B5D4DE"/>
<path d="M48.6199 24.9689L48.6234 25.755H48.6199H48.6234V25.7586L49.3073 26.1499V26.0935L49.2862 26.0829L48.6622 25.7233V24.9653L48.6199 24.9407V24.9689Z" fill="#6D6E71"/>
<path d="M48.6023 25.7727L49.3074 26.1781V25.3355L49.2862 25.3249V26.0829V26.1111L48.6411 25.7409V24.9477L48.6234 24.9371L48.6023 24.9548V25.7727Z" fill="#58595B"/>
<path d="M48.6023 24.9548L48.6411 24.9759L49.2862 25.3496L49.3074 25.3355V25.332L48.6411 24.9477L48.6234 24.9371L48.6023 24.9548Z" fill="#58595B"/>
<g style="mix-blend-mode:screen">
<path d="M48.8137 25.0781L49.2861 25.8749V25.3496L48.8137 25.0781Z" fill="#3D3D3D"/>
</g>
<g style="mix-blend-mode:screen">
<path d="M48.6621 25.265V25.7233L49.1134 25.9842L48.6621 25.265Z" fill="#3D3D3D"/>
</g>
<path d="M49.2968 23.4423L48.6516 23.0686V23.8301L49.2968 24.2038V23.4423Z" fill="#B5D4DE"/>
<path d="M48.6304 23.0615V23.8477L49.3178 24.2426V24.1862L49.2967 24.1756L48.6727 23.816V23.0545L48.6304 23.0333V23.0615Z" fill="#6D6E71"/>
<path d="M48.6128 23.8654L49.3144 24.2708L49.3179 23.4247L49.2967 23.4141V24.1756V24.2038L48.6516 23.8301V23.0404L48.634 23.0298L48.6128 23.0439V23.8654Z" fill="#58595B"/>
<path d="M48.6128 23.0439L48.6516 23.0686L49.2967 23.4423L49.3179 23.4247L48.6516 23.0404L48.634 23.0298L48.6128 23.0439Z" fill="#58595B"/>
<g style="mix-blend-mode:screen">
<path d="M48.8242 23.1673L49.2966 23.9641V23.4423L48.8242 23.1673Z" fill="#3D3D3D"/>
</g>
<g style="mix-blend-mode:screen">
<path d="M48.6726 23.3542V23.816L49.1239 24.0769L48.6726 23.3542Z" fill="#3D3D3D"/>
</g>
<path d="M49.2968 21.5244L48.6516 21.1507V21.9158L49.2968 22.2859V21.5244Z" fill="#B5D4DE"/>
<path d="M48.6304 21.1437V21.9299L49.3178 22.3247V22.2683L49.2967 22.2577L48.6727 21.8981V21.1366L48.6304 21.1155V21.1437Z" fill="#6D6E71"/>
<path d="M48.6129 21.9475L49.3145 22.3529L49.318 21.5103L49.2969 21.4962V22.2577V22.2859L48.6517 21.9157V21.1225L48.6341 21.1155L48.6094 21.1296L48.6129 21.9475Z" fill="#58595B"/>
<path d="M48.6094 21.1296L48.6517 21.1507L49.2969 21.5244L49.318 21.5103L48.6517 21.1225L48.6341 21.1155L48.6094 21.1296Z" fill="#58595B"/>
<g style="mix-blend-mode:screen">
<path d="M48.8242 21.253L49.2966 22.0497V21.5244L48.8242 21.253Z" fill="#3D3D3D"/>
</g>
<g style="mix-blend-mode:screen">
<path d="M48.6726 21.4398V21.8981L49.1239 22.159L48.6726 21.4398Z" fill="#3D3D3D"/>
</g>
<path d="M50.6893 22.6984L50.6752 28.7447L49.2615 27.9268L49.2721 21.8805L50.6893 22.6984Z" fill="#F1F2F2"/>
<path d="M50.3967 22.9452L49.5823 22.4763V23.4353L50.3967 23.9041V22.9452Z" fill="#B5D4DE"/>
<path d="M49.5576 22.4657V23.4564V23.4599L50.4178 23.9535V23.883L50.3967 23.8689L49.607 23.4176V22.4587L49.5576 22.4305V22.4657Z" fill="#6D6E71"/>
<path d="M49.533 23.4776L50.4179 23.9888V22.9276L50.3967 22.9135V23.8689V23.9041L49.5823 23.4352V22.441L49.5612 22.4305L49.533 22.4481V23.4776Z" fill="#58595B"/>
<path d="M49.533 22.4481L49.5823 22.4763L50.3967 22.9452L50.4179 22.9276V22.924L49.5823 22.441L49.5612 22.4305L49.533 22.4481Z" fill="#58595B"/>
<g style="mix-blend-mode:screen">
<path d="M49.8008 22.6032L50.3966 23.6045V22.9452L49.8008 22.6032Z" fill="#3D3D3D"/>
</g>
<g style="mix-blend-mode:screen">
<path d="M49.6069 22.8359V23.4176L50.1745 23.7455L49.6069 22.8359Z" fill="#3D3D3D"/>
</g>
<path d="M50.3967 24.8666L49.5823 24.3977V25.3602L50.3967 25.8256V24.8666Z" fill="#B5D4DE"/>
<path d="M49.5576 24.3871V25.3778V25.3813V25.3778L50.4178 25.8749V25.8044L50.3967 25.7903L49.607 25.339V24.3801L49.5576 24.3519V24.3871Z" fill="#6D6E71"/>
<path d="M49.533 25.399L50.4179 25.9102V24.849L50.3967 24.8349V25.7903V25.8256L49.5823 25.3602V24.3625L49.5612 24.3519L49.533 24.3695V25.399Z" fill="#58595B"/>
<path d="M49.533 24.3695L49.5823 24.3977L50.3967 24.8666L50.4179 24.849L49.5823 24.3625L49.5612 24.3519L49.533 24.3695Z" fill="#58595B"/>
<g style="mix-blend-mode:screen">
<path d="M49.8008 24.5246L50.3966 25.5259V24.8666L49.8008 24.5246Z" fill="#3D3D3D"/>
</g>
<g style="mix-blend-mode:screen">
<path d="M49.6069 24.7608V25.339L50.1745 25.6669L49.6069 24.7608Z" fill="#3D3D3D"/>
</g>
<path d="M50.3931 26.8303L49.5823 26.3579V27.3204L50.3931 27.7893V26.8303Z" fill="#B5D4DE"/>
<path d="M49.5542 26.3508V27.3415L50.418 27.8386V27.7681L50.3933 27.754L49.6071 27.2992V26.3438L49.5542 26.3156V26.3508Z" fill="#6D6E71"/>
<path d="M49.5295 27.3627L50.418 27.8739V26.8092L50.3933 26.7951V27.754V27.7893L49.5824 27.3204V26.3262L49.5613 26.3121L49.5295 26.3297V27.3627Z" fill="#58595B"/>
<path d="M49.5295 26.3297L49.5824 26.3579L50.3933 26.8303L50.418 26.8092L49.5824 26.3262L49.5613 26.3121L49.5295 26.3297Z" fill="#58595B"/>
<g style="mix-blend-mode:screen">
<path d="M49.8008 26.4848L50.3931 27.4896V26.8303L49.8008 26.4848Z" fill="#3D3D3D"/>
</g>
<g style="mix-blend-mode:screen">
<path d="M49.6069 26.721V27.2992L50.1745 27.6271L49.6069 26.721Z" fill="#3D3D3D"/>
</g>
<path d="M48.4153 20.2517V19.8569L51.4895 18.4748L56.3583 20.8863V21.2812L53.2699 23.058L51.6658 22.1308L50.6892 22.6984L49.272 21.8805V21.4856L50.2521 21.3129L48.4153 20.2517Z" fill="#939598"/>
<path d="M48.4153 19.8569L51.4895 18.08L56.3583 20.8863L53.2699 22.6632L51.6658 21.736L50.6892 22.3036L49.272 21.4856L50.2521 20.918L48.4153 19.8569Z" fill="#C0C7CE"/>
<path d="M81.016 48.8513V52.6753C81.016 53.2673 80.848 53.7233 80.512 54.0433C80.1813 54.3633 79.7333 54.5233 79.168 54.5233C78.576 54.5233 78.1013 54.3553 77.744 54.0193C77.3867 53.6833 77.208 53.206 77.208 52.5873H78.568C78.568 52.822 78.616 53.0006 78.712 53.1233C78.808 53.2406 78.9467 53.2993 79.128 53.2993C79.2933 53.2993 79.4213 53.246 79.512 53.1393C79.6027 53.0326 79.648 52.878 79.648 52.6753V48.8513H81.016ZM84.153 54.5313C83.7157 54.5313 83.321 54.438 82.969 54.2513C82.6223 54.0646 82.3477 53.798 82.145 53.4513C81.9477 53.1046 81.849 52.6993 81.849 52.2353C81.849 51.7766 81.9503 51.374 82.153 51.0273C82.3557 50.6753 82.633 50.406 82.985 50.2193C83.337 50.0326 83.7317 49.9393 84.169 49.9393C84.6063 49.9393 85.001 50.0326 85.353 50.2193C85.705 50.406 85.9823 50.6753 86.185 51.0273C86.3877 51.374 86.489 51.7766 86.489 52.2353C86.489 52.694 86.385 53.0993 86.177 53.4513C85.9743 53.798 85.6943 54.0646 85.337 54.2513C84.985 54.438 84.5903 54.5313 84.153 54.5313ZM84.153 53.3473C84.4143 53.3473 84.6357 53.2513 84.817 53.0593C85.0037 52.8673 85.097 52.5926 85.097 52.2353C85.097 51.878 85.0063 51.6033 84.825 51.4113C84.649 51.2193 84.4303 51.1233 84.169 51.1233C83.9023 51.1233 83.681 51.2193 83.505 51.4113C83.329 51.598 83.241 51.8726 83.241 52.2353C83.241 52.5926 83.3263 52.8673 83.497 53.0593C83.673 53.2513 83.8917 53.3473 84.153 53.3473ZM88.5828 50.6353C88.7108 50.4273 88.8948 50.2593 89.1348 50.1313C89.3748 50.0033 89.6494 49.9393 89.9588 49.9393C90.3268 49.9393 90.6601 50.0326 90.9588 50.2193C91.2574 50.406 91.4921 50.6726 91.6628 51.0193C91.8388 51.366 91.9268 51.7686 91.9268 52.2273C91.9268 52.686 91.8388 53.0913 91.6628 53.4433C91.4921 53.79 91.2574 54.0593 90.9588 54.2513C90.6601 54.438 90.3268 54.5313 89.9588 54.5313C89.6441 54.5313 89.3694 54.47 89.1348 54.3473C88.9001 54.2193 88.7161 54.0513 88.5828 53.8433V54.4673H87.2148V48.5473H88.5828V50.6353ZM90.5348 52.2273C90.5348 51.886 90.4388 51.6193 90.2468 51.4273C90.0601 51.23 89.8281 51.1313 89.5508 51.1313C89.2788 51.1313 89.0468 51.23 88.8548 51.4273C88.6681 51.6246 88.5748 51.894 88.5748 52.2353C88.5748 52.5766 88.6681 52.846 88.8548 53.0433C89.0468 53.2406 89.2788 53.3393 89.5508 53.3393C89.8228 53.3393 90.0548 53.2406 90.2468 53.0433C90.4388 52.8406 90.5348 52.5686 90.5348 52.2273ZM97.2038 54.4673L96.0358 52.3473H95.7078V54.4673H94.3398V48.8513H96.6358C97.0784 48.8513 97.4544 48.9286 97.7638 49.0833C98.0784 49.238 98.3131 49.4513 98.4678 49.7233C98.6224 49.99 98.6998 50.2886 98.6998 50.6193C98.6998 50.9926 98.5931 51.326 98.3798 51.6193C98.1718 51.9126 97.8624 52.1206 97.4518 52.2433L98.7478 54.4673H97.2038ZM95.7078 51.3793H96.5558C96.8064 51.3793 96.9931 51.318 97.1158 51.1953C97.2438 51.0726 97.3078 50.8993 97.3078 50.6753C97.3078 50.462 97.2438 50.294 97.1158 50.1713C96.9931 50.0486 96.8064 49.9873 96.5558 49.9873H95.7078V51.3793ZM103.766 52.1633C103.766 52.2913 103.759 52.4246 103.743 52.5633H100.647C100.668 52.8406 100.756 53.054 100.911 53.2033C101.071 53.3473 101.265 53.4193 101.495 53.4193C101.836 53.4193 102.073 53.2753 102.207 52.9873H103.663C103.588 53.2806 103.452 53.5446 103.255 53.7793C103.063 54.014 102.82 54.198 102.527 54.3313C102.233 54.4646 101.905 54.5313 101.543 54.5313C101.105 54.5313 100.716 54.438 100.375 54.2513C100.033 54.0646 99.7665 53.798 99.5745 53.4513C99.3825 53.1046 99.2865 52.6993 99.2865 52.2353C99.2865 51.7713 99.3798 51.366 99.5665 51.0193C99.7585 50.6726 100.025 50.406 100.367 50.2193C100.708 50.0326 101.1 49.9393 101.543 49.9393C101.975 49.9393 102.359 50.03 102.695 50.2113C103.031 50.3926 103.292 50.6513 103.479 50.9873C103.671 51.3233 103.766 51.7153 103.766 52.1633ZM102.367 51.8033C102.367 51.5686 102.287 51.382 102.127 51.2433C101.967 51.1046 101.767 51.0353 101.527 51.0353C101.297 51.0353 101.103 51.102 100.943 51.2353C100.788 51.3686 100.692 51.558 100.655 51.8033H102.367ZM104.216 52.2353C104.216 51.7713 104.31 51.366 104.496 51.0193C104.688 50.6726 104.952 50.406 105.288 50.2193C105.63 50.0326 106.019 49.9393 106.456 49.9393C107.016 49.9393 107.483 50.086 107.856 50.3793C108.235 50.6726 108.483 51.086 108.6 51.6193H107.144C107.022 51.278 106.784 51.1073 106.432 51.1073C106.182 51.1073 105.982 51.206 105.832 51.4033C105.683 51.5953 105.608 51.8726 105.608 52.2353C105.608 52.598 105.683 52.878 105.832 53.0753C105.982 53.2673 106.182 53.3633 106.432 53.3633C106.784 53.3633 107.022 53.1926 107.144 52.8513H108.6C108.483 53.374 108.235 53.7846 107.856 54.0833C107.478 54.382 107.011 54.5313 106.456 54.5313C106.019 54.5313 105.63 54.438 105.288 54.2513C104.952 54.0646 104.688 53.798 104.496 53.4513C104.31 53.1046 104.216 52.6993 104.216 52.2353ZM110.7 50.7473C110.86 50.502 111.06 50.31 111.3 50.1713C111.54 50.0273 111.807 49.9553 112.1 49.9553V51.4033H111.724C111.383 51.4033 111.127 51.478 110.956 51.6273C110.785 51.7713 110.7 52.0273 110.7 52.3953V54.4673H109.332V50.0033H110.7V50.7473ZM117.162 50.0033V54.4673H115.794V53.8593C115.655 54.0566 115.466 54.2166 115.226 54.3393C114.991 54.4566 114.73 54.5153 114.442 54.5153C114.1 54.5153 113.799 54.4406 113.538 54.2913C113.276 54.1366 113.074 53.9153 112.93 53.6273C112.786 53.3393 112.714 53.0006 112.714 52.6113V50.0033H114.074V52.4273C114.074 52.726 114.151 52.958 114.306 53.1233C114.46 53.2886 114.668 53.3713 114.93 53.3713C115.196 53.3713 115.407 53.2886 115.562 53.1233C115.716 52.958 115.794 52.726 115.794 52.4273V50.0033H117.162ZM118.832 49.5393C118.592 49.5393 118.395 49.47 118.24 49.3313C118.091 49.1873 118.016 49.0113 118.016 48.8033C118.016 48.59 118.091 48.414 118.24 48.2753C118.395 48.1313 118.592 48.0593 118.832 48.0593C119.067 48.0593 119.259 48.1313 119.408 48.2753C119.563 48.414 119.64 48.59 119.64 48.8033C119.64 49.0113 119.563 49.1873 119.408 49.3313C119.259 49.47 119.067 49.5393 118.832 49.5393ZM119.512 50.0033V54.4673H118.144V50.0033H119.512ZM122.992 53.3073V54.4673H122.296C121.8 54.4673 121.413 54.3473 121.136 54.1073C120.858 53.862 120.72 53.4646 120.72 52.9153V51.1393H120.176V50.0033H120.72V48.9153H122.088V50.0033H122.984V51.1393H122.088V52.9313C122.088 53.0646 122.12 53.1606 122.184 53.2193C122.248 53.278 122.354 53.3073 122.504 53.3073H122.992Z" fill="#023E8A"/>
</svg>
