<svg width="24" height="28" viewBox="0 0 24 28" fill="none" xmlns="http://www.w3.org/2000/svg">
<path d="M12 27.4285C13.8921 27.4285 15.427 25.8937 15.427 23.9999H8.57305C8.57305 25.8937 10.1079 27.4285 12 27.4285ZM23.5387 19.4083C22.5037 18.2962 20.5671 16.6232 20.5671 11.1428C20.5671 6.98034 17.6486 3.6482 13.7132 2.83071V1.71428C13.7132 0.767676 12.9461 0 12 0C11.0539 0 10.2868 0.767676 10.2868 1.71428V2.83071C6.35145 3.6482 3.43288 6.98034 3.43288 11.1428C3.43288 16.6232 1.49628 18.2962 0.461286 19.4083C0.139858 19.7539 -0.00264152 20.1669 3.70385e-05 20.5714C0.00592988 21.4499 0.695392 22.2856 1.71967 22.2856H22.2803C23.3046 22.2856 23.9946 21.4499 24 20.5714C24.0026 20.1669 23.8601 19.7533 23.5387 19.4083Z" fill="#00B4D8"/>
</svg>
