<svg width="606" height="364" viewBox="0 0 606 364" fill="none" xmlns="http://www.w3.org/2000/svg">
<g clip-path="url(#clip0_38_810)">
<path d="M31.6177 363.187C31.5772 363.008 27.6564 345.147 35.6636 330.311C43.6708 315.477 60.7629 308.934 60.9346 308.87L61.7158 308.577L61.9003 309.391C61.9408 309.569 65.8616 327.431 57.8544 342.266C49.8476 357.1 32.7551 363.643 32.5834 363.707L31.8019 364L31.6177 363.187ZM60.6445 310.562C57.2208 312.033 43.7085 318.473 36.9457 331.002C30.1823 343.533 32.2229 358.351 32.8735 362.015C36.2958 360.547 49.8028 354.118 56.5723 341.575C63.3353 329.045 61.2955 314.229 60.6445 310.562V310.562Z" fill="#F1F1F1"/>
<path d="M51.7354 337.062C37.346 345.711 31.8042 362.89 31.8042 362.89C31.8042 362.89 49.5922 366.046 63.9815 357.397C78.3708 348.748 83.9127 331.57 83.9127 331.57C83.9127 331.57 66.1247 328.413 51.7354 337.062Z" fill="#F1F1F1"/>
<path d="M269.644 198.415C269.863 197.284 269.832 196.118 269.551 195C269.271 193.882 268.748 192.839 268.021 191.944C267.293 191.05 266.378 190.326 265.34 189.823C264.302 189.32 263.166 189.05 262.013 189.033L255.349 172.292L244.178 173.856L253.921 197.366C254.021 199.304 254.828 201.138 256.191 202.52C257.554 203.903 259.378 204.738 261.316 204.868C263.254 204.997 265.172 204.412 266.707 203.222C268.242 202.033 269.287 200.323 269.644 198.415Z" fill="#9F616A"/>
<path d="M249.063 192.533L245.602 184.287L224.032 143.268L225.205 67.368L225.43 67.3382C239.232 65.5164 248.57 129.049 248.961 131.755L262.589 178.32L265.834 188.584L249.063 192.533Z" fill="#00B4D8"/>
<path d="M215.92 352.58L226.407 352.579L231.396 312.167L215.918 312.167L215.92 352.58Z" fill="#9F616A"/>
<path d="M213.245 349.159L233.898 349.158H233.899C237.39 349.158 240.737 350.544 243.206 353.01C245.674 355.476 247.061 358.82 247.061 362.307V362.735L213.245 362.736L213.245 349.159Z" fill="#2F2E41"/>
<path d="M119.492 336.617L128.097 342.607L155.318 312.301L142.618 303.46L119.492 336.617Z" fill="#9F616A"/>
<path d="M119.255 332.282L136.2 344.079L136.201 344.079C139.065 346.073 141.018 349.122 141.632 352.555C142.246 355.988 141.47 359.524 139.474 362.385L139.23 362.736L111.485 343.422L119.255 332.282Z" fill="#2F2E41"/>
<path d="M210.156 343.081L209.703 267.27L203.104 219.601L190.801 261.521L190.778 261.556L146.194 326.218L128.847 317.437L128.942 317.211C130.002 314.692 154.983 255.526 161.698 255.526C162.284 255.567 162.872 255.465 163.41 255.228C163.948 254.992 164.421 254.629 164.787 254.169C166.758 251.54 165.153 245.961 165.137 245.905C163.214 237.942 168.047 235.23 169.01 234.778L171.599 181.383L171.867 181.401L242.057 186.32L239.112 253.078L232.778 340.544L232.56 340.569L210.156 343.081Z" fill="#2F2E41"/>
<path d="M243.129 198.151L242.826 198.127L167.339 192.048L167.525 167.095L171.22 101.943L171.241 101.898L186.287 69.2641L196.953 64.439L212.515 63.6209L212.553 63.6304L226.754 67.1455L241.528 173.095L243.129 198.151Z" fill="#00B4D8"/>
<path d="M214.953 55.2575C224.584 49.9975 228.124 37.9332 222.859 28.311C217.594 18.6889 205.518 15.1526 195.887 20.4126C186.255 25.6725 182.715 37.7369 187.98 47.359C193.246 56.9812 205.322 60.5174 214.953 55.2575Z" fill="#9F616A"/>
<path d="M185.432 42.8192V35.083C185.432 35.083 179.187 27.7352 186.056 25.8842C186.056 25.8842 187.93 7.37504 204.166 16.0127C204.166 16.0127 226.648 12.3108 224.15 25.2673C224.15 25.2673 229.77 21.8848 227.897 30.5224L224.274 44.4361C224.274 44.4361 226.024 35.2451 220.403 34.0111L217.281 32.1602C217.281 32.1602 208.538 40.7978 195.424 30.3093C195.424 30.3093 189.803 28.9692 190.428 34.5219C191.052 40.0747 185.432 42.8192 185.432 42.8192Z" fill="#2F2E41"/>
<path d="M203.35 179.517C203.363 178.365 203.122 177.224 202.646 176.174C202.169 175.125 201.468 174.192 200.591 173.443C199.715 172.693 198.685 172.145 197.573 171.836C196.462 171.527 195.296 171.466 194.158 171.656L184.595 156.381L173.887 159.922L187.694 181.304C188.14 183.192 189.265 184.852 190.854 185.968C192.443 187.084 194.387 187.578 196.316 187.358C198.246 187.138 200.028 186.218 201.325 184.773C202.621 183.328 203.342 181.458 203.35 179.517Z" fill="#9F616A"/>
<path d="M178.652 174.703L161.353 139.613L161.368 139.527C161.438 139.139 168.401 100.51 173.727 86.311C179.087 72.0222 186.424 69.1533 186.733 69.0382L186.888 68.9807L193.467 75.2844L184.354 136.049L194.177 165.355L178.652 174.703Z" fill="#00B4D8"/>
<path d="M606 0H572.503V33.4642H606V0Z" fill="#F1F1F1"/>
<path d="M343.853 130.219H310.357V163.683H343.853V130.219Z" fill="#F1F1F1"/>
<path d="M329.158 149.019H593.98V15.0836H329.158V149.019Z" fill="white"/>
<path d="M596.165 151.202H326.973V12.901H596.165V151.202ZM331.342 146.837H591.796V17.2659H331.342V146.837Z" fill="#E5E5E5"/>
<path d="M564.696 62.0657H360.945V68.8161H564.696V62.0657Z" fill="#E5E5E5"/>
<path d="M564.696 78.4363H360.945V85.1867H564.696V78.4363Z" fill="#E5E5E5"/>
<path d="M564.696 102.608H526.831V108.466H564.696V102.608Z" fill="#00B4D8"/>
<path d="M278.167 363.971H0.728185C0.535058 363.971 0.349841 363.894 0.21328 363.758C0.0767187 363.621 0 363.436 0 363.243C0 363.05 0.0767187 362.865 0.21328 362.729C0.349841 362.592 0.535058 362.516 0.728185 362.516H278.167C278.36 362.516 278.545 362.592 278.682 362.729C278.818 362.865 278.895 363.05 278.895 363.243C278.895 363.436 278.818 363.621 278.682 363.758C278.545 363.894 278.36 363.971 278.167 363.971Z" fill="#CBCBCB"/>
</g>
<defs>
<clipPath id="clip0_38_810">
<rect width="606" height="364" fill="white"/>
</clipPath>
</defs>
</svg>
