<svg width="548" height="382" viewBox="0 0 548 382" fill="none" xmlns="http://www.w3.org/2000/svg">
<g clip-path="url(#clip0_142_2625)">
<path d="M109.185 382C169.487 382 218.371 378.28 218.371 373.692C218.371 369.103 169.487 365.383 109.185 365.383C48.884 365.383 0 369.103 0 373.692C0 378.28 48.884 382 109.185 382Z" fill="#E6E6E6"/>
<path d="M83.459 84.7591C102.461 76.6617 126.127 81.7921 149.24 85.3528C149.455 81.0408 152.062 75.7928 149.332 72.7844C146.014 69.1296 146.319 65.2894 148.316 61.427C153.421 51.5504 146.106 41.0412 138.721 32.3029C137.056 30.3377 134.953 28.7937 132.58 27.7962C130.208 26.7987 127.635 26.3758 125.069 26.5619L111.388 27.541C108.059 27.7792 104.882 29.0305 102.282 31.1272C99.6819 33.224 97.7831 36.0664 96.8395 39.2739C93.5728 43.7253 91.8243 48.1643 92.9252 52.5802C88.0321 55.9304 87.21 59.9745 89.4088 64.5335C91.2732 67.404 91.2534 70.1981 89.324 72.915C86.7901 76.3787 84.8493 80.2409 83.5813 84.3432L83.459 84.7591Z" fill="#2F2E41"/>
<path d="M535.014 330.233H147.739C144.295 330.233 140.993 328.862 138.557 326.422C136.122 323.982 134.754 320.673 134.754 317.223C275.141 300.876 412.89 300.876 548 317.223C548 320.673 546.632 323.982 544.196 326.422C541.761 328.862 538.458 330.233 535.014 330.233Z" fill="#2F2E41"/>
<path d="M548 317.988L134.754 317.223L182.648 236.482L182.877 236.099V58.1562C182.877 55.9963 183.301 53.8576 184.126 51.8621C184.951 49.8667 186.16 48.0535 187.684 46.5263C189.209 44.999 191.018 43.7876 193.01 42.9611C195.002 42.1347 197.136 41.7094 199.292 41.7096H481.17C483.326 41.7094 485.46 42.1347 487.452 42.9611C489.444 43.7876 491.253 44.999 492.778 46.5263C494.302 48.0535 495.511 49.8667 496.336 51.8621C497.161 53.8576 497.586 55.9963 497.585 58.1562V237.324L548 317.988Z" fill="#3F3D56"/>
<path d="M198.918 53.1893C197.501 53.1909 196.142 53.7558 195.139 54.7601C194.137 55.7645 193.573 57.1262 193.571 58.5465V220.793C193.573 222.213 194.137 223.575 195.139 224.579C196.142 225.584 197.501 226.149 198.918 226.15H483.836C485.254 226.148 486.613 225.584 487.615 224.579C488.618 223.575 489.182 222.213 489.183 220.793V58.5465C489.182 57.1262 488.618 55.7645 487.616 54.7602C486.613 53.7559 485.254 53.191 483.836 53.1893H198.918Z" fill="white"/>
<path d="M200.112 247.579C199.674 247.58 199.245 247.706 198.876 247.943C198.507 248.179 198.214 248.517 198.03 248.915L183.272 281.058C183.112 281.408 183.041 281.793 183.068 282.177C183.095 282.561 183.217 282.932 183.424 283.257C183.632 283.581 183.917 283.848 184.254 284.032C184.591 284.217 184.97 284.314 185.354 284.314H495.697C496.088 284.314 496.472 284.214 496.813 284.023C497.155 283.833 497.441 283.558 497.647 283.225C497.852 282.892 497.969 282.512 497.986 282.121C498.004 281.73 497.921 281.341 497.747 280.991L481.706 248.848C481.516 248.466 481.224 248.145 480.862 247.92C480.5 247.696 480.082 247.578 479.657 247.579H200.112Z" fill="#2F2E41"/>
<path d="M340.231 50.5107C342.13 50.5107 343.669 48.9688 343.669 47.0668C343.669 45.1648 342.13 43.6229 340.231 43.6229C338.333 43.6229 336.794 45.1648 336.794 47.0668C336.794 48.9688 338.333 50.5107 340.231 50.5107Z" fill="white"/>
<path d="M309.727 290.437C309.223 290.437 308.733 290.604 308.333 290.911C307.934 291.218 307.646 291.648 307.514 292.135L303.812 305.911C303.721 306.251 303.709 306.608 303.777 306.954C303.845 307.3 303.992 307.625 304.206 307.905C304.42 308.184 304.695 308.411 305.011 308.567C305.326 308.723 305.673 308.804 306.025 308.804H376.425C376.79 308.804 377.15 308.717 377.475 308.549C377.799 308.381 378.079 308.138 378.291 307.84C378.503 307.542 378.64 307.197 378.692 306.835C378.744 306.472 378.709 306.103 378.589 305.757L373.83 291.981C373.674 291.53 373.382 291.139 372.994 290.862C372.606 290.586 372.141 290.437 371.665 290.437H309.727Z" fill="#2F2E41"/>
<path d="M497.585 233.421V236.482H182.647L182.884 236.099V233.421H497.585Z" fill="#2F2E41"/>
<path d="M488.801 107.144C518.332 107.144 542.271 83.1589 542.271 53.572C542.271 23.985 518.332 0 488.801 0C459.27 0 435.331 23.985 435.331 53.572C435.331 83.1589 459.27 107.144 488.801 107.144Z" fill="#00B4D8"/>
<path d="M510.953 76.9141H466.649C465.839 76.9133 465.062 76.5905 464.49 76.0165C463.917 75.4426 463.595 74.6644 463.594 73.8528V47.0668C463.595 46.2552 463.917 45.477 464.49 44.9031C465.062 44.3292 465.839 44.0064 466.649 44.0056H510.953C511.763 44.0064 512.54 44.3292 513.112 44.9031C513.685 45.477 514.007 46.2552 514.008 47.0668V73.8528C514.007 74.6644 513.685 75.4426 513.112 76.0165C512.54 76.5905 511.763 76.9133 510.953 76.9141ZM466.649 47.0668V73.8528H510.955L510.953 47.0668L466.649 47.0668Z" fill="white"/>
<path d="M502.551 47.0668H475.052V34.8218C475.052 25.9527 480.834 19.5155 488.801 19.5155C496.768 19.5155 502.551 25.9527 502.551 34.8218L502.551 47.0668ZM478.107 44.0056H499.495V34.8218C499.495 27.6122 495.098 22.5768 488.801 22.5768C482.505 22.5768 478.107 27.6122 478.107 34.8218L478.107 44.0056Z" fill="white"/>
<path d="M488.802 62.7557C490.489 62.7557 491.857 61.3851 491.857 59.6945C491.857 58.0038 490.489 56.6332 488.802 56.6332C487.114 56.6332 485.746 58.0038 485.746 59.6945C485.746 61.3851 487.114 62.7557 488.802 62.7557Z" fill="white"/>
<path d="M451.475 171.118H231.28C230.199 171.117 229.162 170.686 228.398 169.92C227.633 169.154 227.203 168.116 227.202 167.032V112.307C227.203 111.224 227.633 110.186 228.398 109.42C229.162 108.654 230.199 108.223 231.28 108.222H451.475C452.556 108.223 453.592 108.654 454.357 109.42C455.121 110.186 455.551 111.224 455.553 112.307V167.032C455.551 168.116 455.121 169.154 454.357 169.92C453.592 170.686 452.556 171.117 451.475 171.118ZM231.28 109.856C230.631 109.857 230.009 110.115 229.551 110.575C229.092 111.034 228.834 111.657 228.833 112.307V167.032C228.834 167.682 229.092 168.305 229.551 168.765C230.009 169.224 230.631 169.483 231.28 169.484H451.475C452.124 169.483 452.745 169.224 453.204 168.765C453.663 168.305 453.921 167.682 453.921 167.032V112.307C453.921 111.657 453.663 111.034 453.204 110.575C452.745 110.115 452.124 109.857 451.475 109.856L231.28 109.856Z" fill="#E6E6E6"/>
<path d="M265.493 154.212C274.667 154.212 282.103 146.761 282.103 137.57C282.103 128.379 274.667 120.928 265.493 120.928C256.32 120.928 248.883 128.379 248.883 137.57C248.883 146.761 256.32 154.212 265.493 154.212Z" fill="#E6E6E6"/>
<path d="M303.856 126.475C303.492 126.475 303.131 126.546 302.795 126.685C302.459 126.824 302.153 127.029 301.895 127.286C301.638 127.544 301.434 127.85 301.294 128.187C301.155 128.523 301.083 128.884 301.083 129.249C301.083 129.614 301.155 129.975 301.294 130.311C301.434 130.648 301.638 130.954 301.895 131.212C302.153 131.469 302.459 131.674 302.795 131.813C303.131 131.952 303.492 132.023 303.856 132.023H434.365C435.099 132.023 435.804 131.73 436.323 131.21C436.842 130.69 437.134 129.985 437.134 129.249C437.134 128.513 436.842 127.808 436.323 127.288C435.804 126.768 435.099 126.475 434.365 126.475H303.856Z" fill="#E6E6E6"/>
<path d="M303.855 143.117C303.121 143.117 302.417 143.409 301.898 143.93C301.379 144.45 301.087 145.155 301.087 145.891C301.087 146.627 301.379 147.332 301.898 147.852C302.417 148.372 303.121 148.665 303.855 148.665H360.014C360.748 148.665 361.452 148.372 361.971 147.852C362.491 147.332 362.782 146.627 362.782 145.891C362.782 145.155 362.491 144.45 361.971 143.93C361.452 143.409 360.748 143.117 360.014 143.117H303.855Z" fill="#E6E6E6"/>
<path d="M182.106 144.239L141.401 165.921L140.886 147.853C154.171 145.631 166.812 141.762 178.499 135.463L182.756 124.925C183.22 123.777 183.974 122.77 184.944 122.001C185.914 121.233 187.067 120.731 188.289 120.544C189.511 120.357 190.761 120.492 191.916 120.935C193.07 121.378 194.09 122.114 194.875 123.071C196.023 124.472 196.597 126.257 196.48 128.066C196.364 129.875 195.565 131.571 194.247 132.812L182.106 144.239Z" fill="#FFB8B8"/>
<path d="M82.6479 269.422C82.3509 268.331 82.2879 267.189 82.4629 266.072C82.6379 264.955 83.047 263.887 83.6633 262.94L92.6049 249.191C94.7198 245.939 97.965 243.59 101.711 242.6C105.457 241.61 109.436 242.049 112.877 243.832C109.119 250.241 109.643 255.863 114.175 260.749C107.139 264.19 100.637 268.632 94.8695 273.935C93.8165 274.655 92.6073 275.111 91.3425 275.267C90.0777 275.424 88.794 275.275 87.5983 274.833C86.4026 274.392 85.3295 273.67 84.4684 272.729C83.6073 271.788 82.9831 270.654 82.6479 269.422Z" fill="#2F2E41"/>
<path d="M183.96 251.445C182.607 253.705 180.697 255.578 178.413 256.885C176.13 258.192 173.549 258.889 170.919 258.909L111.517 259.359L108.94 244.389L135.218 236.645L113.062 219.609L137.279 191.217L181.264 232.291C183.835 234.691 185.505 237.903 185.996 241.39C186.487 244.877 185.768 248.426 183.96 251.445Z" fill="#2F2E41"/>
<path d="M102.242 353.83H88.3306C75.8399 268.048 63.1255 182.025 100.697 149.918L145.008 157.145L139.34 194.83L114.608 223.223L102.242 353.83Z" fill="#2F2E41"/>
<path d="M114.472 373.262C113.383 373.56 112.243 373.623 111.128 373.448C110.013 373.273 108.947 372.863 108.001 372.246L92.8959 370.211C89.6501 368.093 87.3055 364.841 86.317 361.088C85.3286 357.336 85.7668 353.349 87.5466 349.901C93.9434 353.666 99.5549 353.141 104.431 348.6C107.877 355.57 113.554 355.145 118.975 361.017C119.693 362.072 120.149 363.284 120.305 364.551C120.461 365.818 120.313 367.104 119.872 368.302C119.431 369.5 118.711 370.576 117.772 371.438C116.833 372.301 115.701 372.927 114.472 373.262Z" fill="#2F2E41"/>
<path d="M135.219 92.6159L109.456 86.4211C113.735 77.6461 114.087 67.8822 112.032 57.512L129.551 56.9958C130.1 69.8914 131.76 81.9391 135.219 92.6159Z" fill="#FFB8B8"/>
<path d="M142.299 172.689C123.545 185.493 110.294 173.127 100.181 154.048C101.587 142.373 99.3114 128.402 95.0976 113.221C93.2236 106.526 93.9232 99.3694 97.0584 93.1652C100.194 86.9611 105.536 82.1601 112.032 79.7101L134.188 89.0023C153.001 104.366 156.704 121.008 149.645 138.561L142.299 172.689Z" fill="#00B4D8"/>
<path d="M88.3303 105.522L67.7203 116.363L104.303 138.044L109.393 150.624C109.733 151.464 109.899 152.364 109.88 153.27C109.861 154.176 109.658 155.068 109.284 155.893C108.909 156.718 108.371 157.458 107.702 158.067C107.033 158.677 106.248 159.144 105.393 159.439C104.421 159.775 103.385 159.88 102.365 159.748C101.346 159.615 100.371 159.248 99.5168 158.675C98.6626 158.102 97.9524 157.339 97.4419 156.445C96.9313 155.551 96.6342 154.551 96.5738 153.523L96.0591 144.756L49.5628 129.382C47.9962 128.865 46.5678 127.996 45.3858 126.843C44.2038 125.69 43.2991 124.283 42.7403 122.728C41.9258 120.461 41.8844 117.988 42.6225 115.695C43.3605 113.402 44.8365 111.419 46.8193 110.056L84.2083 84.3562L88.3303 105.522Z" fill="#FFB8B8"/>
<path d="M108.941 107.587C100.345 103.813 92.5288 107.912 82.6629 111.2L81.1172 83.8399C90.9135 78.6087 100.254 77.1982 108.941 81.2588L108.941 107.587Z" fill="#00B4D8"/>
<path d="M119.223 70.5483C128.307 70.5483 135.671 63.1701 135.671 54.0686C135.671 44.967 128.307 37.5888 119.223 37.5888C110.139 37.5888 102.774 44.967 102.774 54.0686C102.774 63.1701 110.139 70.5483 119.223 70.5483Z" fill="#FFB8B8"/>
<path d="M138.901 51.9893C122.616 53.5873 110.206 50.9188 102.275 43.3208V37.2019H137.519L138.901 51.9893Z" fill="#2F2E41"/>
</g>
<defs>
<clipPath id="clip0_142_2625">
<rect width="548" height="382" fill="white"/>
</clipPath>
</defs>
</svg>
