<svg width="451" height="34" viewBox="0 0 451 34" fill="none" xmlns="http://www.w3.org/2000/svg">
<path d="M0.99 14.44C0.99 12.36 1.44 10.51 2.34 8.89C3.24 7.25 4.49 5.98 6.09 5.08C7.71 4.16 9.54 3.7 11.58 3.7C14.08 3.7 16.22 4.36 18 5.68C19.78 7 20.97 8.8 21.57 11.08H15.93C15.51 10.2 14.91 9.53 14.13 9.07C13.37 8.61 12.5 8.38 11.52 8.38C9.94 8.38 8.66 8.93 7.68 10.03C6.7 11.13 6.21 12.6 6.21 14.44C6.21 16.28 6.7 17.75 7.68 18.85C8.66 19.95 9.94 20.5 11.52 20.5C12.5 20.5 13.37 20.27 14.13 19.81C14.91 19.35 15.51 18.68 15.93 17.8H21.57C20.97 20.08 19.78 21.88 18 23.2C16.22 24.5 14.08 25.15 11.58 25.15C9.54 25.15 7.71 24.7 6.09 23.8C4.49 22.88 3.24 21.61 2.34 19.99C1.44 18.37 0.99 16.52 0.99 14.44ZM35.0016 8.08C36.9216 8.08 38.4616 8.72 39.6216 10C40.7816 11.26 41.3616 13 41.3616 15.22V25H36.2616V15.91C36.2616 14.79 35.9716 13.92 35.3916 13.3C34.8116 12.68 34.0316 12.37 33.0516 12.37C32.0716 12.37 31.2916 12.68 30.7116 13.3C30.1316 13.92 29.8416 14.79 29.8416 15.91V25H24.7116V2.8H29.8416V10.51C30.3616 9.77 31.0716 9.18 31.9716 8.74C32.8716 8.3 33.8816 8.08 35.0016 8.08ZM43.9064 16.6C43.9064 14.88 44.2264 13.37 44.8664 12.07C45.5264 10.77 46.4164 9.77 47.5364 9.07C48.6564 8.37 49.9064 8.02 51.2864 8.02C52.4664 8.02 53.4964 8.26 54.3764 8.74C55.2764 9.22 55.9664 9.85 56.4464 10.63V8.26H61.5764V25H56.4464V22.63C55.9464 23.41 55.2464 24.04 54.3464 24.52C53.4664 25 52.4364 25.24 51.2564 25.24C49.8964 25.24 48.6564 24.89 47.5364 24.19C46.4164 23.47 45.5264 22.46 44.8664 21.16C44.2264 19.84 43.9064 18.32 43.9064 16.6ZM56.4464 16.63C56.4464 15.35 56.0864 14.34 55.3664 13.6C54.6664 12.86 53.8064 12.49 52.7864 12.49C51.7664 12.49 50.8964 12.86 50.1764 13.6C49.4764 14.32 49.1264 15.32 49.1264 16.6C49.1264 17.88 49.4764 18.9 50.1764 19.66C50.8964 20.4 51.7664 20.77 52.7864 20.77C53.8064 20.77 54.6664 20.4 55.3664 19.66C56.0864 18.92 56.4464 17.91 56.4464 16.63ZM56.8364 3.58V7.12L49.6064 4.09V0.0999987L56.8364 3.58ZM72.9077 25.24C71.2677 25.24 69.7877 24.89 68.4677 24.19C67.1677 23.49 66.1377 22.49 65.3777 21.19C64.6377 19.89 64.2677 18.37 64.2677 16.63C64.2677 14.91 64.6477 13.4 65.4077 12.1C66.1677 10.78 67.2077 9.77 68.5277 9.07C69.8477 8.37 71.3277 8.02 72.9677 8.02C74.6077 8.02 76.0877 8.37 77.4077 9.07C78.7277 9.77 79.7677 10.78 80.5277 12.1C81.2877 13.4 81.6677 14.91 81.6677 16.63C81.6677 18.35 81.2777 19.87 80.4977 21.19C79.7377 22.49 78.6877 23.49 77.3477 24.19C76.0277 24.89 74.5477 25.24 72.9077 25.24ZM72.9077 20.8C73.8877 20.8 74.7177 20.44 75.3977 19.72C76.0977 19 76.4477 17.97 76.4477 16.63C76.4477 15.29 76.1077 14.26 75.4277 13.54C74.7677 12.82 73.9477 12.46 72.9677 12.46C71.9677 12.46 71.1377 12.82 70.4777 13.54C69.8177 14.24 69.4877 15.27 69.4877 16.63C69.4877 17.97 69.8077 19 70.4477 19.72C71.1077 20.44 71.9277 20.8 72.9077 20.8ZM112.107 8.08C114.187 8.08 115.837 8.71 117.057 9.97C118.297 11.23 118.917 12.98 118.917 15.22V25H113.817V15.91C113.817 14.83 113.527 14 112.947 13.42C112.387 12.82 111.607 12.52 110.607 12.52C109.607 12.52 108.817 12.82 108.237 13.42C107.677 14 107.397 14.83 107.397 15.91V25H102.297V15.91C102.297 14.83 102.007 14 101.427 13.42C100.867 12.82 100.087 12.52 99.0867 12.52C98.0867 12.52 97.2967 12.82 96.7167 13.42C96.1567 14 95.8767 14.83 95.8767 15.91V25H90.7467V8.26H95.8767V10.36C96.3967 9.66 97.0767 9.11 97.9167 8.71C98.7567 8.29 99.7067 8.08 100.767 8.08C102.027 8.08 103.147 8.35 104.127 8.89C105.127 9.43 105.907 10.2 106.467 11.2C107.047 10.28 107.837 9.53 108.837 8.95C109.837 8.37 110.927 8.08 112.107 8.08ZM144.825 6.49C144.665 7.31 144.445 8.08 144.165 8.8C143.885 9.52 143.495 10.17 142.995 10.75C142.515 11.31 141.875 11.79 141.075 12.19C140.275 12.57 139.255 12.85 138.015 13.03V25H134.595L133.995 22.9H133.725C133.385 23.46 132.945 23.92 132.405 24.28C131.885 24.62 131.305 24.87 130.665 25.03C130.045 25.21 129.395 25.3 128.715 25.3C127.555 25.3 126.535 25.09 125.655 24.67C124.775 24.25 124.095 23.6 123.615 22.72C123.135 21.84 122.895 20.7 122.895 19.3V8.62H127.365V18.19C127.365 19.35 127.575 20.23 127.995 20.83C128.415 21.43 129.085 21.73 130.005 21.73C131.365 21.73 132.295 21.27 132.795 20.35C133.295 19.41 133.545 18.07 133.545 16.33V8.62H138.015V10.33C138.515 10.17 138.925 9.9 139.245 9.52C139.565 9.12 139.805 8.64 139.965 8.08C140.125 7.5 140.205 6.86 140.205 6.16H144.615L144.825 6.49ZM129.795 2.02C130.095 2.46 130.445 2.96 130.845 3.52C131.265 4.06 131.685 4.59 132.105 5.11C132.545 5.61 132.925 6.05 133.245 6.43V6.82H130.275C129.895 6.56 129.445 6.24 128.925 5.86C128.425 5.46 127.905 5.04 127.365 4.6C126.845 4.16 126.355 3.74 125.895 3.34C125.435 2.94 125.065 2.6 124.785 2.32V2.02H129.795ZM155.498 8.08C157.458 8.08 159.018 8.72 160.178 10C161.358 11.26 161.948 13 161.948 15.22V25H156.848V15.91C156.848 14.79 156.558 13.92 155.978 13.3C155.398 12.68 154.618 12.37 153.638 12.37C152.658 12.37 151.878 12.68 151.298 13.3C150.718 13.92 150.428 14.79 150.428 15.91V25H145.298V8.26H150.428V10.48C150.948 9.74 151.648 9.16 152.528 8.74C153.408 8.3 154.398 8.08 155.498 8.08ZM171.872 8.02C173.052 8.02 174.082 8.26 174.962 8.74C175.862 9.22 176.552 9.85 177.032 10.63V8.26H182.162V24.97C182.162 26.51 181.852 27.9 181.232 29.14C180.632 30.4 179.702 31.4 178.442 32.14C177.202 32.88 175.652 33.25 173.792 33.25C171.312 33.25 169.302 32.66 167.762 31.48C166.222 30.32 165.342 28.74 165.122 26.74H170.192C170.352 27.38 170.732 27.88 171.332 28.24C171.932 28.62 172.672 28.81 173.552 28.81C174.612 28.81 175.452 28.5 176.072 27.88C176.712 27.28 177.032 26.31 177.032 24.97V22.6C176.532 23.38 175.842 24.02 174.962 24.52C174.082 25 173.052 25.24 171.872 25.24C170.492 25.24 169.242 24.89 168.122 24.19C167.002 23.47 166.112 22.46 165.452 21.16C164.812 19.84 164.492 18.32 164.492 16.6C164.492 14.88 164.812 13.37 165.452 12.07C166.112 10.77 167.002 9.77 168.122 9.07C169.242 8.37 170.492 8.02 171.872 8.02ZM177.032 16.63C177.032 15.35 176.672 14.34 175.952 13.6C175.252 12.86 174.392 12.49 173.372 12.49C172.352 12.49 171.482 12.86 170.762 13.6C170.062 14.32 169.712 15.32 169.712 16.6C169.712 17.88 170.062 18.9 170.762 19.66C171.482 20.4 172.352 20.77 173.372 20.77C174.392 20.77 175.252 20.4 175.952 19.66C176.672 18.92 177.032 17.91 177.032 16.63ZM197.361 10.63C197.841 9.85 198.531 9.22 199.431 8.74C200.331 8.26 201.361 8.02 202.521 8.02C203.901 8.02 205.151 8.37 206.271 9.07C207.391 9.77 208.271 10.77 208.911 12.07C209.571 13.37 209.901 14.88 209.901 16.6C209.901 18.32 209.571 19.84 208.911 21.16C208.271 22.46 207.391 23.47 206.271 24.19C205.151 24.89 203.901 25.24 202.521 25.24C201.341 25.24 200.311 25.01 199.431 24.55C198.551 24.07 197.861 23.44 197.361 22.66V25H192.231V2.8H197.361V10.63ZM204.681 16.6C204.681 15.32 204.321 14.32 203.601 13.6C202.901 12.86 202.031 12.49 200.991 12.49C199.971 12.49 199.101 12.86 198.381 13.6C197.681 14.34 197.331 15.35 197.331 16.63C197.331 17.91 197.681 18.92 198.381 19.66C199.101 20.4 199.971 20.77 200.991 20.77C202.011 20.77 202.881 20.4 203.601 19.66C204.321 18.9 204.681 17.88 204.681 16.6ZM219.792 8.29C221.992 8.29 223.672 8.77 224.832 9.73C226.012 10.67 226.602 12.12 226.602 14.08V25H223.482L222.612 22.78H222.492C222.032 23.36 221.552 23.84 221.052 24.22C220.572 24.6 220.012 24.87 219.372 25.03C218.752 25.21 217.982 25.3 217.062 25.3C216.102 25.3 215.232 25.12 214.452 24.76C213.692 24.38 213.092 23.81 212.652 23.05C212.212 22.27 211.992 21.29 211.992 20.11C211.992 18.37 212.602 17.09 213.822 16.27C215.042 15.43 216.872 14.97 219.312 14.89L222.162 14.8V14.08C222.162 13.22 221.932 12.59 221.472 12.19C221.032 11.79 220.412 11.59 219.612 11.59C218.812 11.59 218.032 11.71 217.272 11.95C216.512 12.17 215.752 12.45 214.992 12.79L213.522 9.76C214.402 9.3 215.372 8.94 216.432 8.68C217.512 8.42 218.632 8.29 219.792 8.29ZM220.422 17.47C218.982 17.51 217.982 17.77 217.422 18.25C216.862 18.73 216.582 19.36 216.582 20.14C216.582 20.82 216.782 21.31 217.182 21.61C217.582 21.89 218.102 22.03 218.742 22.03C219.702 22.03 220.512 21.75 221.172 21.19C221.832 20.61 222.162 19.8 222.162 18.76V17.41L220.422 17.47ZM219.762 31.3C219.082 31.3 218.502 31.14 218.022 30.82C217.562 30.5 217.332 29.93 217.332 29.11C217.332 28.27 217.562 27.69 218.022 27.37C218.502 27.07 219.082 26.92 219.762 26.92C220.422 26.92 220.992 27.07 221.472 27.37C221.952 27.69 222.192 28.27 222.192 29.11C222.192 29.93 221.952 30.5 221.472 30.82C220.992 31.14 220.422 31.3 219.762 31.3ZM240.898 8.08C242.858 8.08 244.418 8.72 245.578 10C246.758 11.26 247.348 13 247.348 15.22V25H242.248V15.91C242.248 14.79 241.958 13.92 241.378 13.3C240.798 12.68 240.018 12.37 239.038 12.37C238.058 12.37 237.278 12.68 236.698 13.3C236.118 13.92 235.828 14.79 235.828 15.91V25H230.698V8.26H235.828V10.48C236.348 9.74 237.048 9.16 237.928 8.74C238.808 8.3 239.798 8.08 240.898 8.08ZM275.78 7.27H273.92V25H268.79V22.6C268.31 23.4 267.62 24.04 266.72 24.52C265.84 25 264.81 25.24 263.63 25.24C262.25 25.24 261 24.89 259.88 24.19C258.76 23.47 257.87 22.46 257.21 21.16C256.57 19.84 256.25 18.32 256.25 16.6C256.25 14.88 256.57 13.37 257.21 12.07C257.87 10.77 258.76 9.77 259.88 9.07C261 8.37 262.25 8.02 263.63 8.02C264.73 8.02 265.73 8.25 266.63 8.71C267.55 9.17 268.27 9.79 268.79 10.57V7.27H266.69V4.81H268.79V2.8H273.92V4.81H275.78V7.27ZM265.13 20.77C266.15 20.77 267.01 20.4 267.71 19.66C268.43 18.92 268.79 17.91 268.79 16.63C268.79 15.35 268.43 14.34 267.71 13.6C267.01 12.86 266.15 12.49 265.13 12.49C264.11 12.49 263.24 12.86 262.52 13.6C261.82 14.32 261.47 15.32 261.47 16.6C261.47 17.88 261.82 18.9 262.52 19.66C263.24 20.4 264.11 20.77 265.13 20.77ZM288.362 6.82C287.862 6.48 287.352 6.11 286.832 5.71C286.312 5.29 285.792 4.85 285.272 4.39C284.752 4.85 284.232 5.29 283.712 5.71C283.192 6.11 282.682 6.48 282.182 6.82H279.812V6.43C280.152 6.05 280.502 5.63 280.862 5.17C281.222 4.69 281.582 4.21 281.942 3.73C282.322 3.23 282.662 2.76 282.962 2.32H287.582C287.902 2.76 288.242 3.23 288.602 3.73C288.962 4.21 289.322 4.69 289.682 5.17C290.062 5.63 290.412 6.05 290.732 6.43V6.82H288.362ZM289.442 3.58C289.842 3.16 290.192 2.73 290.492 2.29C290.812 1.83 291.132 1.28 291.452 0.639999H294.992V0.939999C294.552 1.52 294.032 2.07 293.432 2.59C292.832 3.09 292.242 3.55 291.662 3.97H289.442V3.58ZM285.272 8.32C286.792 8.32 288.092 8.61 289.172 9.19C290.272 9.77 291.122 10.61 291.722 11.71C292.322 12.81 292.622 14.16 292.622 15.76V17.92H282.062C282.102 19.18 282.472 20.17 283.172 20.89C283.892 21.61 284.882 21.97 286.142 21.97C287.202 21.97 288.162 21.87 289.022 21.67C289.882 21.45 290.772 21.12 291.692 20.68V24.13C290.892 24.53 290.042 24.82 289.142 25C288.262 25.2 287.192 25.3 285.932 25.3C284.292 25.3 282.842 25 281.582 24.4C280.322 23.78 279.332 22.85 278.612 21.61C277.892 20.37 277.532 18.81 277.532 16.93C277.532 15.01 277.852 13.42 278.492 12.16C279.152 10.88 280.062 9.92 281.222 9.28C282.382 8.64 283.732 8.32 285.272 8.32ZM285.302 11.5C284.442 11.5 283.722 11.78 283.142 12.34C282.582 12.9 282.252 13.77 282.152 14.95H288.422C288.422 14.29 288.302 13.7 288.062 13.18C287.842 12.66 287.502 12.25 287.042 11.95C286.582 11.65 286.002 11.5 285.302 11.5ZM305.966 8.08C307.926 8.08 309.486 8.72 310.646 10C311.826 11.26 312.416 13 312.416 15.22V25H307.316V15.91C307.316 14.79 307.026 13.92 306.446 13.3C305.866 12.68 305.086 12.37 304.106 12.37C303.126 12.37 302.346 12.68 301.766 13.3C301.186 13.92 300.896 14.79 300.896 15.91V25H295.766V8.26H300.896V10.48C301.416 9.74 302.116 9.16 302.996 8.74C303.876 8.3 304.866 8.08 305.966 8.08ZM329.869 20.2L333.499 8.26H338.959L333.019 25H326.689L320.749 8.26H326.239L329.869 20.2ZM356.478 16.78C356.478 18.6 356.148 20.15 355.488 21.43C354.848 22.69 353.928 23.65 352.728 24.31C351.548 24.97 350.138 25.3 348.498 25.3C346.978 25.3 345.618 24.97 344.418 24.31C343.238 23.65 342.308 22.69 341.628 21.43C340.948 20.15 340.608 18.6 340.608 16.78C340.608 14.06 341.318 11.97 342.738 10.51C344.158 9.05 346.108 8.32 348.588 8.32C349.688 8.32 350.728 8.49 351.708 8.83C352.688 9.17 353.518 9.67 354.198 10.33C354.738 10.17 355.168 9.9 355.488 9.52C355.808 9.12 356.038 8.64 356.178 8.08C356.318 7.5 356.388 6.86 356.388 6.16H360.798L361.008 6.49C360.808 7.45 360.528 8.35 360.168 9.19C359.828 10.01 359.308 10.72 358.608 11.32C357.908 11.92 356.948 12.38 355.728 12.7C355.968 13.28 356.148 13.91 356.268 14.59C356.408 15.27 356.478 16 356.478 16.78ZM345.168 16.78C345.168 17.86 345.278 18.77 345.498 19.51C345.738 20.23 346.108 20.78 346.608 21.16C347.108 21.52 347.758 21.7 348.558 21.7C349.358 21.7 349.998 21.52 350.478 21.16C350.978 20.78 351.338 20.23 351.558 19.51C351.798 18.77 351.918 17.86 351.918 16.78C351.918 15.7 351.798 14.8 351.558 14.08C351.338 13.36 350.978 12.82 350.478 12.46C349.978 12.1 349.328 11.92 348.528 11.92C347.348 11.92 346.488 12.33 345.948 13.15C345.428 13.95 345.168 15.16 345.168 16.78ZM354.318 2.32C354.038 2.6 353.668 2.94 353.208 3.34C352.748 3.74 352.248 4.16 351.708 4.6C351.188 5.04 350.668 5.46 350.148 5.86C349.648 6.24 349.208 6.56 348.828 6.82H345.858V6.43C346.178 6.05 346.548 5.61 346.968 5.11C347.408 4.59 347.838 4.06 348.258 3.52C348.678 2.96 349.028 2.46 349.308 2.02H354.318V2.32ZM364.059 6.52C363.159 6.52 362.419 6.26 361.839 5.74C361.279 5.2 360.999 4.54 360.999 3.76C360.999 2.96 361.279 2.3 361.839 1.78C362.419 1.24 363.159 0.969998 364.059 0.969998C364.939 0.969998 365.659 1.24 366.219 1.78C366.799 2.3 367.089 2.96 367.089 3.76C367.089 4.54 366.799 5.2 366.219 5.74C365.659 6.26 364.939 6.52 364.059 6.52ZM366.609 8.26V25H361.479V8.26H366.609Z" fill="#00B4D8"/>
<path d="M389.884 3.94V18.28C389.884 20.5 389.254 22.21 387.994 23.41C386.754 24.61 385.074 25.21 382.954 25.21C380.734 25.21 378.954 24.58 377.614 23.32C376.274 22.06 375.604 20.27 375.604 17.95H380.704C380.704 18.83 380.884 19.5 381.244 19.96C381.604 20.4 382.124 20.62 382.804 20.62C383.424 20.62 383.904 20.42 384.244 20.02C384.584 19.62 384.754 19.04 384.754 18.28V3.94H389.884ZM403.988 25.21C402.008 25.21 400.188 24.75 398.528 23.83C396.888 22.91 395.578 21.63 394.598 19.99C393.638 18.33 393.158 16.47 393.158 14.41C393.158 12.35 393.638 10.5 394.598 8.86C395.578 7.22 396.888 5.94 398.528 5.02C400.188 4.1 402.008 3.64 403.988 3.64C405.968 3.64 407.778 4.1 409.418 5.02C411.078 5.94 412.378 7.22 413.318 8.86C414.278 10.5 414.758 12.35 414.758 14.41C414.758 16.47 414.278 18.33 413.318 19.99C412.358 21.63 411.058 22.91 409.418 23.83C407.778 24.75 405.968 25.21 403.988 25.21ZM403.988 20.53C405.668 20.53 407.008 19.97 408.008 18.85C409.028 17.73 409.538 16.25 409.538 14.41C409.538 12.55 409.028 11.07 408.008 9.97C407.008 8.85 405.668 8.29 403.988 8.29C402.288 8.29 400.928 8.84 399.908 9.94C398.908 11.04 398.408 12.53 398.408 14.41C398.408 16.27 398.908 17.76 399.908 18.88C400.928 19.98 402.288 20.53 403.988 20.53ZM428.352 25L423.972 17.05H422.742V25H417.612V3.94H426.222C427.882 3.94 429.292 4.23 430.452 4.81C431.632 5.39 432.512 6.19 433.092 7.21C433.672 8.21 433.962 9.33 433.962 10.57C433.962 11.97 433.562 13.22 432.762 14.32C431.982 15.42 430.822 16.2 429.282 16.66L434.142 25H428.352ZM422.742 13.42H425.922C426.862 13.42 427.562 13.19 428.022 12.73C428.502 12.27 428.742 11.62 428.742 10.78C428.742 9.98 428.502 9.35 428.022 8.89C427.562 8.43 426.862 8.2 425.922 8.2H422.742V13.42ZM442.312 8.05V12.31H449.182V16.27H442.312V20.89H450.082V25H437.182V3.94H450.082V8.05H442.312Z" fill="#2E3192"/>
</svg>
