<svg width="24" height="26" viewBox="0 0 24 26" fill="none" xmlns="http://www.w3.org/2000/svg">
<path d="M22.525 4.18375L12.925 0.183753C12.6326 0.0624427 12.3191 0 12.0025 0C11.6859 0 11.3724 0.0624427 11.08 0.183753L1.48 4.18375C0.585 4.55375 0 5.42875 0 6.39875C0 16.3238 5.725 23.1838 11.075 25.4138C11.665 25.6588 12.33 25.6588 12.92 25.4138C17.205 23.6288 24 17.4638 24 6.39875C24 5.42875 23.415 4.55375 22.525 4.18375ZM12.005 22.3138L12 3.26375L20.795 6.92875C20.63 14.4988 16.69 19.9838 12.005 22.3138Z" fill="#00B4D8"/>
</svg>
