<svg width="386" height="20" viewBox="0 0 386 20" fill="none" xmlns="http://www.w3.org/2000/svg">
<path d="M9.108 2.454V3.786H5.688V15H4.05V3.786H0.612V2.454H9.108ZM15.4263 15.162C14.5023 15.162 13.6623 14.952 12.9063 14.532C12.1623 14.112 11.5743 13.518 11.1423 12.75C10.7223 11.97 10.5123 11.07 10.5123 10.05C10.5123 9.042 10.7283 8.154 11.1603 7.386C11.6043 6.606 12.2043 6.012 12.9603 5.604C13.7163 5.184 14.5623 4.974 15.4983 4.974C16.4343 4.974 17.2803 5.184 18.0363 5.604C18.7923 6.012 19.3863 6.6 19.8183 7.368C20.2623 8.136 20.4843 9.03 20.4843 10.05C20.4843 11.07 20.2563 11.97 19.8003 12.75C19.3563 13.518 18.7503 14.112 17.9823 14.532C17.2143 14.952 16.3623 15.162 15.4263 15.162ZM15.4263 13.722C16.0143 13.722 16.5663 13.584 17.0823 13.308C17.5983 13.032 18.0123 12.618 18.3243 12.066C18.6483 11.514 18.8103 10.842 18.8103 10.05C18.8103 9.258 18.6543 8.586 18.3423 8.034C18.0303 7.482 17.6223 7.074 17.1183 6.81C16.6143 6.534 16.0683 6.396 15.4803 6.396C14.8803 6.396 14.3283 6.534 13.8243 6.81C13.3323 7.074 12.9363 7.482 12.6363 8.034C12.3363 8.586 12.1863 9.258 12.1863 10.05C12.1863 10.854 12.3303 11.532 12.6183 12.084C12.9183 12.636 13.3143 13.05 13.8063 13.326C14.2983 13.59 14.8383 13.722 15.4263 13.722ZM15.5163 2.598L13.0143 4.128V2.832L15.5163 1.338L18.0003 2.832V4.128L15.5163 2.598ZM23.484 3.534C23.172 3.534 22.908 3.426 22.692 3.21C22.476 2.994 22.368 2.73 22.368 2.418C22.368 2.106 22.476 1.842 22.692 1.626C22.908 1.41 23.172 1.302 23.484 1.302C23.784 1.302 24.036 1.41 24.24 1.626C24.456 1.842 24.564 2.106 24.564 2.418C24.564 2.73 24.456 2.994 24.24 3.21C24.036 3.426 23.784 3.534 23.484 3.534ZM24.276 5.136V15H22.638V5.136H24.276ZM42.3605 4.11H41.2625V15H39.6065V13.146C39.2825 13.734 38.8025 14.22 38.1665 14.604C37.5305 14.976 36.7865 15.162 35.9345 15.162C35.0585 15.162 34.2605 14.946 33.5405 14.514C32.8325 14.082 32.2745 13.476 31.8665 12.696C31.4585 11.916 31.2545 11.028 31.2545 10.032C31.2545 9.024 31.4585 8.142 31.8665 7.386C32.2745 6.618 32.8325 6.024 33.5405 5.604C34.2605 5.184 35.0645 4.974 35.9525 4.974C36.7205 4.974 37.4345 5.154 38.0945 5.514C38.7545 5.862 39.2585 6.324 39.6065 6.9V4.11H37.5905V3.138H39.6065V1.68H41.2625V3.138H42.3605V4.11ZM36.2585 13.722C36.8705 13.722 37.4285 13.578 37.9325 13.29C38.4485 12.99 38.8565 12.564 39.1565 12.012C39.4565 11.448 39.6065 10.794 39.6065 10.05C39.6065 9.306 39.4565 8.658 39.1565 8.106C38.8565 7.554 38.4485 7.134 37.9325 6.846C37.4285 6.546 36.8705 6.396 36.2585 6.396C35.6465 6.396 35.0885 6.54 34.5845 6.828C34.0805 7.116 33.6785 7.536 33.3785 8.088C33.0785 8.64 32.9285 9.288 32.9285 10.032C32.9285 10.788 33.0785 11.448 33.3785 12.012C33.6785 12.564 34.0805 12.99 34.5845 13.29C35.0885 13.578 35.6465 13.722 36.2585 13.722ZM45.345 3.894C45.549 3.666 45.759 3.426 45.975 3.174C46.203 2.922 46.425 2.664 46.641 2.4C46.869 2.124 47.073 1.854 47.253 1.59H48.927C49.119 1.854 49.323 2.124 49.539 2.4C49.755 2.664 49.971 2.922 50.187 3.174C50.415 3.426 50.631 3.666 50.835 3.894V4.092H49.935C49.635 3.888 49.329 3.666 49.017 3.426C48.705 3.174 48.393 2.91 48.081 2.634C47.781 2.91 47.469 3.174 47.145 3.426C46.833 3.666 46.527 3.888 46.227 4.092H45.345V3.894ZM45.183 2.382C44.847 2.13 44.523 1.854 44.211 1.554C43.911 1.242 43.629 0.911999 43.365 0.563999V0.383999H44.931C45.123 0.767999 45.297 1.092 45.453 1.356C45.621 1.608 45.819 1.884 46.047 2.184V2.382H45.183ZM52.545 10.158C52.545 10.962 52.437 11.676 52.221 12.3C52.017 12.912 51.717 13.434 51.321 13.866C50.937 14.298 50.463 14.628 49.899 14.856C49.347 15.072 48.729 15.18 48.045 15.18C47.409 15.18 46.821 15.072 46.281 14.856C45.741 14.628 45.273 14.298 44.877 13.866C44.481 13.434 44.169 12.912 43.941 12.3C43.725 11.676 43.617 10.962 43.617 10.158C43.617 9.09 43.797 8.19 44.157 7.458C44.517 6.714 45.033 6.15 45.705 5.766C46.377 5.37 47.175 5.172 48.099 5.172C48.975 5.172 49.743 5.37 50.403 5.766C51.075 6.15 51.597 6.714 51.969 7.458C52.353 8.19 52.545 9.09 52.545 10.158ZM45.255 10.158C45.255 10.914 45.351 11.574 45.543 12.138C45.747 12.69 46.059 13.116 46.479 13.416C46.899 13.716 47.433 13.866 48.081 13.866C48.729 13.866 49.263 13.716 49.683 13.416C50.103 13.116 50.409 12.69 50.601 12.138C50.805 11.574 50.907 10.914 50.907 10.158C50.907 9.39 50.805 8.736 50.601 8.196C50.397 7.656 50.085 7.242 49.665 6.954C49.257 6.654 48.723 6.504 48.063 6.504C47.079 6.504 46.365 6.828 45.921 7.476C45.477 8.124 45.255 9.018 45.255 10.158ZM59.7174 4.956C60.9174 4.956 61.8894 5.322 62.6334 6.054C63.3774 6.774 63.7494 7.818 63.7494 9.186V15H62.1294V9.42C62.1294 8.436 61.8834 7.686 61.3914 7.17C60.8994 6.642 60.2274 6.378 59.3754 6.378C58.5114 6.378 57.8214 6.648 57.3054 7.188C56.8014 7.728 56.5494 8.514 56.5494 9.546V15H54.9114V5.136H56.5494V6.54C56.8734 6.036 57.3114 5.646 57.8634 5.37C58.4274 5.094 59.0454 4.956 59.7174 4.956ZM70.4931 4.974C71.3451 4.974 72.0891 5.16 72.7251 5.532C73.3731 5.904 73.8531 6.372 74.1651 6.936V5.136H75.8211V15.216C75.8211 16.116 75.6291 16.914 75.2451 17.61C74.8611 18.318 74.3091 18.87 73.5891 19.266C72.8811 19.662 72.0531 19.86 71.1051 19.86C69.8091 19.86 68.7291 19.554 67.8651 18.942C67.0011 18.33 66.4911 17.496 66.3351 16.44H67.9551C68.1351 17.04 68.5071 17.52 69.0711 17.88C69.6351 18.252 70.3131 18.438 71.1051 18.438C72.0051 18.438 72.7371 18.156 73.3011 17.592C73.8771 17.028 74.1651 16.236 74.1651 15.216V13.146C73.8411 13.722 73.3611 14.202 72.7251 14.586C72.0891 14.97 71.3451 15.162 70.4931 15.162C69.6171 15.162 68.8191 14.946 68.0991 14.514C67.3911 14.082 66.8331 13.476 66.4251 12.696C66.0171 11.916 65.8131 11.028 65.8131 10.032C65.8131 9.024 66.0171 8.142 66.4251 7.386C66.8331 6.618 67.3911 6.024 68.0991 5.604C68.8191 5.184 69.6171 4.974 70.4931 4.974ZM74.1651 10.05C74.1651 9.306 74.0151 8.658 73.7151 8.106C73.4151 7.554 73.0071 7.134 72.4911 6.846C71.9871 6.546 71.4291 6.396 70.8171 6.396C70.2051 6.396 69.6471 6.54 69.1431 6.828C68.6391 7.116 68.2371 7.536 67.9371 8.088C67.6371 8.64 67.4871 9.288 67.4871 10.032C67.4871 10.788 67.6371 11.448 67.9371 12.012C68.2371 12.564 68.6391 12.99 69.1431 13.29C69.6471 13.578 70.2051 13.722 70.8171 13.722C71.4291 13.722 71.9871 13.578 72.4911 13.29C73.0071 12.99 73.4151 12.564 73.7151 12.012C74.0151 11.448 74.1651 10.794 74.1651 10.05ZM91.884 5.136L85.944 19.644H84.252L86.196 14.892L82.218 5.136H84.036L87.132 13.128L90.192 5.136H91.884ZM88.824 2.346L84.99 4.398V3.174L88.824 0.923999V2.346ZM102.001 13.488L105.061 5.136H106.807L102.937 15H101.029L97.1594 5.136H98.9234L102.001 13.488ZM116.951 10.158C116.951 11.226 116.765 12.138 116.393 12.894C116.033 13.638 115.517 14.208 114.845 14.604C114.173 14.988 113.375 15.18 112.451 15.18C111.599 15.18 110.837 14.988 110.165 14.604C109.505 14.208 108.983 13.638 108.599 12.894C108.215 12.138 108.023 11.226 108.023 10.158C108.023 8.562 108.425 7.332 109.229 6.468C110.033 5.604 111.125 5.172 112.505 5.172C113.141 5.172 113.723 5.28 114.251 5.496C114.791 5.712 115.253 6.018 115.637 6.414C115.997 6.306 116.261 6.132 116.429 5.892C116.609 5.64 116.723 5.34 116.771 4.992C116.819 4.644 116.843 4.272 116.843 3.876H118.535L118.661 4.074C118.553 4.626 118.403 5.118 118.211 5.55C118.031 5.982 117.791 6.354 117.491 6.666C117.191 6.966 116.807 7.2 116.339 7.368C116.531 7.74 116.681 8.16 116.789 8.628C116.897 9.096 116.951 9.606 116.951 10.158ZM109.661 10.158C109.661 10.962 109.757 11.64 109.949 12.192C110.153 12.744 110.459 13.164 110.867 13.452C111.287 13.728 111.827 13.866 112.487 13.866C113.147 13.866 113.681 13.728 114.089 13.452C114.509 13.164 114.815 12.744 115.007 12.192C115.211 11.64 115.313 10.962 115.313 10.158C115.313 9.354 115.211 8.682 115.007 8.142C114.815 7.602 114.509 7.194 114.089 6.918C113.669 6.642 113.129 6.504 112.469 6.504C111.485 6.504 110.771 6.81 110.327 7.422C109.883 8.034 109.661 8.946 109.661 10.158ZM115.025 1.392C114.917 1.56 114.761 1.764 114.557 2.004C114.353 2.244 114.125 2.496 113.873 2.76C113.633 3.012 113.387 3.258 113.135 3.498C112.895 3.726 112.667 3.924 112.451 4.092H111.407V3.876C111.587 3.648 111.779 3.378 111.983 3.066C112.199 2.754 112.409 2.436 112.613 2.112C112.817 1.776 112.985 1.476 113.117 1.212H115.025V1.392ZM120.357 3.534C120.045 3.534 119.781 3.426 119.565 3.21C119.349 2.994 119.241 2.73 119.241 2.418C119.241 2.106 119.349 1.842 119.565 1.626C119.781 1.41 120.045 1.302 120.357 1.302C120.657 1.302 120.909 1.41 121.113 1.626C121.329 1.842 121.437 2.106 121.437 2.418C121.437 2.73 121.329 2.994 121.113 3.21C120.909 3.426 120.657 3.534 120.357 3.534ZM121.149 5.136V15H119.511V5.136H121.149ZM139.234 4.11H138.136V15H136.48V13.146C136.156 13.734 135.676 14.22 135.04 14.604C134.404 14.976 133.66 15.162 132.808 15.162C131.932 15.162 131.134 14.946 130.414 14.514C129.706 14.082 129.148 13.476 128.74 12.696C128.332 11.916 128.128 11.028 128.128 10.032C128.128 9.024 128.332 8.142 128.74 7.386C129.148 6.618 129.706 6.024 130.414 5.604C131.134 5.184 131.938 4.974 132.826 4.974C133.594 4.974 134.308 5.154 134.968 5.514C135.628 5.862 136.132 6.324 136.48 6.9V4.11H134.464V3.138H136.48V1.68H138.136V3.138H139.234V4.11ZM133.132 13.722C133.744 13.722 134.302 13.578 134.806 13.29C135.322 12.99 135.73 12.564 136.03 12.012C136.33 11.448 136.48 10.794 136.48 10.05C136.48 9.306 136.33 8.658 136.03 8.106C135.73 7.554 135.322 7.134 134.806 6.846C134.302 6.546 133.744 6.396 133.132 6.396C132.52 6.396 131.962 6.54 131.458 6.828C130.954 7.116 130.552 7.536 130.252 8.088C129.952 8.64 129.802 9.288 129.802 10.032C129.802 10.788 129.952 11.448 130.252 12.012C130.552 12.564 130.954 12.99 131.458 13.29C131.962 13.578 132.52 13.722 133.132 13.722ZM141.732 3.534C141.42 3.534 141.156 3.426 140.94 3.21C140.724 2.994 140.616 2.73 140.616 2.418C140.616 2.106 140.724 1.842 140.94 1.626C141.156 1.41 141.42 1.302 141.732 1.302C142.032 1.302 142.284 1.41 142.488 1.626C142.704 1.842 142.812 2.106 142.812 2.418C142.812 2.73 142.704 2.994 142.488 3.21C142.284 3.426 142.032 3.534 141.732 3.534ZM142.524 5.136V15H140.886V5.136H142.524ZM146.468 3.894C146.672 3.666 146.882 3.426 147.098 3.174C147.326 2.922 147.548 2.664 147.764 2.4C147.992 2.124 148.196 1.854 148.376 1.59H150.05C150.242 1.854 150.446 2.124 150.662 2.4C150.878 2.664 151.094 2.922 151.31 3.174C151.538 3.426 151.754 3.666 151.958 3.894V4.092H151.058C150.758 3.888 150.452 3.666 150.14 3.426C149.828 3.174 149.516 2.91 149.204 2.634C148.904 2.91 148.592 3.174 148.268 3.426C147.956 3.666 147.65 3.888 147.35 4.092H146.468V3.894ZM146.306 2.382C145.97 2.13 145.646 1.854 145.334 1.554C145.034 1.242 144.752 0.911999 144.488 0.563999V0.383999H146.054C146.246 0.767999 146.42 1.092 146.576 1.356C146.744 1.608 146.942 1.884 147.17 2.184V2.382H146.306ZM149.186 5.172C150.014 5.172 150.722 5.352 151.31 5.712C151.91 6.072 152.366 6.582 152.678 7.242C153.002 7.89 153.164 8.652 153.164 9.528V10.482H146.558C146.582 11.574 146.858 12.408 147.386 12.984C147.926 13.548 148.676 13.83 149.636 13.83C150.248 13.83 150.788 13.776 151.256 13.668C151.736 13.548 152.228 13.38 152.732 13.164V14.55C152.24 14.766 151.754 14.922 151.274 15.018C150.794 15.126 150.224 15.18 149.564 15.18C148.652 15.18 147.842 14.994 147.134 14.622C146.438 14.25 145.892 13.698 145.496 12.966C145.112 12.222 144.92 11.316 144.92 10.248C144.92 9.192 145.094 8.286 145.442 7.53C145.802 6.774 146.3 6.192 146.936 5.784C147.584 5.376 148.334 5.172 149.186 5.172ZM149.168 6.468C148.412 6.468 147.812 6.714 147.368 7.206C146.936 7.686 146.678 8.358 146.594 9.222H151.508C151.508 8.67 151.424 8.19 151.256 7.782C151.088 7.374 150.83 7.056 150.482 6.828C150.146 6.588 149.708 6.468 149.168 6.468ZM164.224 5.136V15H162.586V13.542C162.274 14.046 161.836 14.442 161.272 14.73C160.72 15.006 160.108 15.144 159.436 15.144C158.668 15.144 157.978 14.988 157.366 14.676C156.754 14.352 156.268 13.872 155.908 13.236C155.56 12.6 155.386 11.826 155.386 10.914V5.136H157.006V10.698C157.006 11.67 157.252 12.42 157.744 12.948C158.236 13.464 158.908 13.722 159.76 13.722C160.636 13.722 161.326 13.452 161.83 12.912C162.334 12.372 162.586 11.586 162.586 10.554V5.136H164.224ZM177.296 15L173.426 10.644V15H171.788V1.68H173.426V9.51L177.224 5.136H179.51L174.866 10.05L179.528 15H177.296ZM185.948 4.956C186.692 4.956 187.364 5.118 187.964 5.442C188.564 5.754 189.032 6.228 189.368 6.864C189.716 7.5 189.89 8.274 189.89 9.186V15H188.27V9.42C188.27 8.436 188.024 7.686 187.532 7.17C187.04 6.642 186.368 6.378 185.516 6.378C184.652 6.378 183.962 6.648 183.446 7.188C182.942 7.728 182.69 8.514 182.69 9.546V15H181.052V1.68H182.69V6.54C183.014 6.036 183.458 5.646 184.022 5.37C184.598 5.094 185.24 4.956 185.948 4.956ZM196.868 15.162C195.944 15.162 195.104 14.952 194.348 14.532C193.604 14.112 193.016 13.518 192.584 12.75C192.164 11.97 191.954 11.07 191.954 10.05C191.954 9.042 192.17 8.154 192.602 7.386C193.046 6.606 193.646 6.012 194.402 5.604C195.158 5.184 196.004 4.974 196.94 4.974C197.876 4.974 198.722 5.184 199.478 5.604C200.234 6.012 200.828 6.6 201.26 7.368C201.704 8.136 201.926 9.03 201.926 10.05C201.926 11.07 201.698 11.97 201.242 12.75C200.798 13.518 200.192 14.112 199.424 14.532C198.656 14.952 197.804 15.162 196.868 15.162ZM196.868 13.722C197.456 13.722 198.008 13.584 198.524 13.308C199.04 13.032 199.454 12.618 199.766 12.066C200.09 11.514 200.252 10.842 200.252 10.05C200.252 9.258 200.096 8.586 199.784 8.034C199.472 7.482 199.064 7.074 198.56 6.81C198.056 6.534 197.51 6.396 196.922 6.396C196.322 6.396 195.77 6.534 195.266 6.81C194.774 7.074 194.378 7.482 194.078 8.034C193.778 8.586 193.628 9.258 193.628 10.05C193.628 10.854 193.772 11.532 194.06 12.084C194.36 12.636 194.756 13.05 195.248 13.326C195.74 13.59 196.28 13.722 196.868 13.722ZM207.877 5.19C209.053 5.19 209.923 5.448 210.487 5.964C211.051 6.48 211.333 7.302 211.333 8.43V15H210.181L209.875 13.632H209.803C209.527 13.98 209.239 14.274 208.939 14.514C208.651 14.742 208.315 14.91 207.931 15.018C207.559 15.126 207.103 15.18 206.563 15.18C205.987 15.18 205.465 15.078 204.997 14.874C204.541 14.67 204.181 14.358 203.917 13.938C203.653 13.506 203.521 12.966 203.521 12.318C203.521 11.358 203.899 10.62 204.655 10.104C205.411 9.576 206.575 9.288 208.147 9.24L209.785 9.186V8.61C209.785 7.806 209.611 7.248 209.263 6.936C208.915 6.624 208.423 6.468 207.787 6.468C207.283 6.468 206.803 6.546 206.347 6.702C205.891 6.846 205.465 7.014 205.069 7.206L204.583 6.018C205.003 5.79 205.501 5.598 206.077 5.442C206.653 5.274 207.253 5.19 207.877 5.19ZM208.345 10.338C207.145 10.386 206.311 10.578 205.843 10.914C205.387 11.25 205.159 11.724 205.159 12.336C205.159 12.876 205.321 13.272 205.645 13.524C205.981 13.776 206.407 13.902 206.923 13.902C207.739 13.902 208.417 13.68 208.957 13.236C209.497 12.78 209.767 12.084 209.767 11.148V10.284L208.345 10.338ZM209.569 1.86C209.569 2.316 209.431 2.67 209.155 2.922C208.879 3.162 208.531 3.33 208.111 3.426L208.021 4.38H207.049L206.923 2.85C207.355 2.778 207.697 2.676 207.949 2.544C208.213 2.4 208.345 2.19 208.345 1.914C208.345 1.626 208.231 1.434 208.003 1.338C207.787 1.242 207.511 1.194 207.175 1.194C207.019 1.194 206.857 1.2 206.689 1.212C206.533 1.224 206.407 1.242 206.311 1.266V0.329999C206.419 0.293999 206.551 0.269999 206.707 0.257999C206.875 0.233999 207.073 0.221999 207.301 0.221999C208.021 0.221999 208.579 0.353999 208.975 0.618C209.371 0.882 209.569 1.296 209.569 1.86ZM218.975 4.956C220.175 4.956 221.147 5.322 221.891 6.054C222.635 6.774 223.007 7.818 223.007 9.186V15H221.387V9.42C221.387 8.436 221.141 7.686 220.649 7.17C220.157 6.642 219.485 6.378 218.633 6.378C217.769 6.378 217.079 6.648 216.563 7.188C216.059 7.728 215.807 8.514 215.807 9.546V15H214.169V5.136H215.807V6.54C216.131 6.036 216.569 5.646 217.121 5.37C217.685 5.094 218.303 4.956 218.975 4.956ZM229.87 10.05C229.87 9.03 230.074 8.142 230.482 7.386C230.89 6.618 231.454 6.024 232.174 5.604C232.906 5.184 233.74 4.974 234.676 4.974C235.888 4.974 236.884 5.268 237.664 5.856C238.456 6.444 238.978 7.26 239.23 8.304H237.466C237.298 7.704 236.968 7.23 236.476 6.882C235.996 6.534 235.396 6.36 234.676 6.36C233.74 6.36 232.984 6.684 232.408 7.332C231.832 7.968 231.544 8.874 231.544 10.05C231.544 11.238 231.832 12.156 232.408 12.804C232.984 13.452 233.74 13.776 234.676 13.776C235.396 13.776 235.996 13.608 236.476 13.272C236.956 12.936 237.286 12.456 237.466 11.832H239.23C238.966 12.84 238.438 13.65 237.646 14.262C236.854 14.862 235.864 15.162 234.676 15.162C233.74 15.162 232.906 14.952 232.174 14.532C231.454 14.112 230.89 13.518 230.482 12.75C230.074 11.982 229.87 11.082 229.87 10.05ZM247.463 1.86C247.463 2.316 247.325 2.67 247.049 2.922C246.773 3.162 246.425 3.33 246.005 3.426L245.915 4.38H244.943L244.817 2.85C245.249 2.778 245.591 2.676 245.843 2.544C246.107 2.4 246.239 2.19 246.239 1.914C246.239 1.626 246.125 1.434 245.897 1.338C245.681 1.242 245.405 1.194 245.069 1.194C244.913 1.194 244.751 1.2 244.583 1.212C244.427 1.224 244.301 1.242 244.205 1.266V0.329999C244.313 0.293999 244.445 0.269999 244.601 0.257999C244.769 0.233999 244.967 0.221999 245.195 0.221999C245.915 0.221999 246.473 0.353999 246.869 0.618C247.265 0.882 247.463 1.296 247.463 1.86ZM249.623 5.352V15H248.327L248.093 13.722H248.021C247.817 14.058 247.553 14.334 247.229 14.55C246.905 14.766 246.551 14.922 246.167 15.018C245.783 15.126 245.381 15.18 244.961 15.18C244.193 15.18 243.545 15.06 243.017 14.82C242.501 14.568 242.111 14.184 241.847 13.668C241.583 13.152 241.451 12.486 241.451 11.67V5.352H243.053V11.562C243.053 12.33 243.227 12.906 243.575 13.29C243.923 13.674 244.463 13.866 245.195 13.866C245.915 13.866 246.479 13.734 246.887 13.47C247.307 13.194 247.601 12.798 247.769 12.282C247.949 11.754 248.039 11.118 248.039 10.374V5.352H249.623ZM251.93 10.032C251.93 9.024 252.134 8.142 252.542 7.386C252.95 6.618 253.508 6.024 254.216 5.604C254.936 5.184 255.734 4.974 256.61 4.974C257.474 4.974 258.224 5.16 258.86 5.532C259.496 5.904 259.97 6.372 260.282 6.936V5.136H261.938V15H260.282V13.164C259.958 13.74 259.472 14.22 258.824 14.604C258.188 14.976 257.444 15.162 256.592 15.162C255.716 15.162 254.924 14.946 254.216 14.514C253.508 14.082 252.95 13.476 252.542 12.696C252.134 11.916 251.93 11.028 251.93 10.032ZM260.282 10.05C260.282 9.306 260.132 8.658 259.832 8.106C259.532 7.554 259.124 7.134 258.608 6.846C258.104 6.546 257.546 6.396 256.934 6.396C256.322 6.396 255.764 6.54 255.26 6.828C254.756 7.116 254.354 7.536 254.054 8.088C253.754 8.64 253.604 9.288 253.604 10.032C253.604 10.788 253.754 11.448 254.054 12.012C254.354 12.564 254.756 12.99 255.26 13.29C255.764 13.578 256.322 13.722 256.934 13.722C257.546 13.722 258.104 13.578 258.608 13.29C259.124 12.99 259.532 12.564 259.832 12.012C260.132 11.448 260.282 10.794 260.282 10.05ZM326.675 5.136L320.735 19.644H319.043L320.987 14.892L317.009 5.136H318.827L321.923 13.128L324.983 5.136H326.675ZM337.322 9.69C337.322 10.002 337.304 10.332 337.268 10.68H329.384C329.444 11.652 329.774 12.414 330.374 12.966C330.986 13.506 331.724 13.776 332.588 13.776C333.296 13.776 333.884 13.614 334.352 13.29C334.832 12.954 335.168 12.51 335.36 11.958H337.124C336.86 12.906 336.332 13.68 335.54 14.28C334.748 14.868 333.764 15.162 332.588 15.162C331.652 15.162 330.812 14.952 330.068 14.532C329.336 14.112 328.76 13.518 328.34 12.75C327.92 11.97 327.71 11.07 327.71 10.05C327.71 9.03 327.914 8.136 328.322 7.368C328.73 6.6 329.3 6.012 330.032 5.604C330.776 5.184 331.628 4.974 332.588 4.974C333.524 4.974 334.352 5.178 335.072 5.586C335.792 5.994 336.344 6.558 336.728 7.278C337.124 7.986 337.322 8.79 337.322 9.69ZM335.63 9.348C335.63 8.724 335.492 8.19 335.216 7.746C334.94 7.29 334.562 6.948 334.082 6.72C333.614 6.48 333.092 6.36 332.516 6.36C331.688 6.36 330.98 6.624 330.392 7.152C329.816 7.68 329.486 8.412 329.402 9.348H335.63ZM332.534 2.724L330.032 4.254V2.958L332.534 1.464L335.018 2.958V4.254L332.534 2.724ZM348.232 5.136V15H346.594V13.542C346.282 14.046 345.844 14.442 345.28 14.73C344.728 15.006 344.116 15.144 343.444 15.144C342.676 15.144 341.986 14.988 341.374 14.676C340.762 14.352 340.276 13.872 339.916 13.236C339.568 12.6 339.394 11.826 339.394 10.914V5.136H341.014V10.698C341.014 11.67 341.26 12.42 341.752 12.948C342.244 13.464 342.916 13.722 343.768 13.722C344.644 13.722 345.334 13.452 345.838 12.912C346.342 12.372 346.594 11.586 346.594 10.554V5.136H348.232ZM355.184 10.05C355.184 9.03 355.388 8.142 355.796 7.386C356.204 6.618 356.768 6.024 357.488 5.604C358.22 5.184 359.054 4.974 359.99 4.974C361.202 4.974 362.198 5.268 362.978 5.856C363.77 6.444 364.292 7.26 364.544 8.304H362.78C362.612 7.704 362.282 7.23 361.79 6.882C361.31 6.534 360.71 6.36 359.99 6.36C359.054 6.36 358.298 6.684 357.722 7.332C357.146 7.968 356.858 8.874 356.858 10.05C356.858 11.238 357.146 12.156 357.722 12.804C358.298 13.452 359.054 13.776 359.99 13.776C360.71 13.776 361.31 13.608 361.79 13.272C362.27 12.936 362.6 12.456 362.78 11.832H364.544C364.28 12.84 363.752 13.65 362.96 14.262C362.168 14.862 361.178 15.162 359.99 15.162C359.054 15.162 358.22 14.952 357.488 14.532C356.768 14.112 356.204 13.518 355.796 12.75C355.388 11.982 355.184 11.082 355.184 10.05ZM367.648 3.894C367.852 3.666 368.062 3.426 368.278 3.174C368.506 2.922 368.728 2.664 368.944 2.4C369.172 2.124 369.376 1.854 369.556 1.59H371.23C371.422 1.854 371.626 2.124 371.842 2.4C372.058 2.664 372.274 2.922 372.49 3.174C372.718 3.426 372.934 3.666 373.138 3.894V4.092H372.238C371.938 3.888 371.632 3.666 371.32 3.426C371.008 3.174 370.696 2.91 370.384 2.634C370.084 2.91 369.772 3.174 369.448 3.426C369.136 3.666 368.83 3.888 368.53 4.092H367.648V3.894ZM367.486 2.382C367.15 2.13 366.826 1.854 366.514 1.554C366.214 1.242 365.932 0.911999 365.668 0.563999V0.383999H367.234C367.426 0.767999 367.6 1.092 367.756 1.356C367.924 1.608 368.122 1.884 368.35 2.184V2.382H367.486ZM370.528 5.19C371.704 5.19 372.574 5.448 373.138 5.964C373.702 6.48 373.984 7.302 373.984 8.43V15H372.832L372.526 13.632H372.454C372.178 13.98 371.89 14.274 371.59 14.514C371.302 14.742 370.966 14.91 370.582 15.018C370.21 15.126 369.754 15.18 369.214 15.18C368.638 15.18 368.116 15.078 367.648 14.874C367.192 14.67 366.832 14.358 366.568 13.938C366.304 13.506 366.172 12.966 366.172 12.318C366.172 11.358 366.55 10.62 367.306 10.104C368.062 9.576 369.226 9.288 370.798 9.24L372.436 9.186V8.61C372.436 7.806 372.262 7.248 371.914 6.936C371.566 6.624 371.074 6.468 370.438 6.468C369.934 6.468 369.454 6.546 368.998 6.702C368.542 6.846 368.116 7.014 367.72 7.206L367.234 6.018C367.654 5.79 368.152 5.598 368.728 5.442C369.304 5.274 369.904 5.19 370.528 5.19ZM370.996 10.338C369.796 10.386 368.962 10.578 368.494 10.914C368.038 11.25 367.81 11.724 367.81 12.336C367.81 12.876 367.972 13.272 368.296 13.524C368.632 13.776 369.058 13.902 369.574 13.902C370.39 13.902 371.068 13.68 371.608 13.236C372.148 12.78 372.418 12.084 372.418 11.148V10.284L370.996 10.338ZM385.568 5.136V15H383.93V13.542C383.618 14.046 383.18 14.442 382.616 14.73C382.064 15.006 381.452 15.144 380.78 15.144C380.012 15.144 379.322 14.988 378.71 14.676C378.098 14.352 377.612 13.872 377.252 13.236C376.904 12.6 376.73 11.826 376.73 10.914V5.136H378.35V10.698C378.35 11.67 378.596 12.42 379.088 12.948C379.58 13.464 380.252 13.722 381.104 13.722C381.98 13.722 382.67 13.452 383.174 12.912C383.678 12.372 383.93 11.586 383.93 10.554V5.136H385.568Z" fill="#3D3D3D"/>
<path d="M275.823 2.454V11.724C275.823 12.756 275.505 13.584 274.869 14.208C274.233 14.82 273.393 15.126 272.349 15.126C271.293 15.126 270.447 14.814 269.811 14.19C269.175 13.554 268.857 12.69 268.857 11.598H270.495C270.507 12.21 270.663 12.708 270.963 13.092C271.275 13.476 271.737 13.668 272.349 13.668C272.961 13.668 273.417 13.488 273.717 13.128C274.017 12.756 274.167 12.288 274.167 11.724V2.454H275.823ZM284.738 15.126C283.574 15.126 282.512 14.856 281.552 14.316C280.592 13.764 279.83 13.002 279.266 12.03C278.714 11.046 278.438 9.942 278.438 8.718C278.438 7.494 278.714 6.396 279.266 5.424C279.83 4.44 280.592 3.678 281.552 3.138C282.512 2.586 283.574 2.31 284.738 2.31C285.914 2.31 286.982 2.586 287.942 3.138C288.902 3.678 289.658 4.434 290.21 5.406C290.762 6.378 291.038 7.482 291.038 8.718C291.038 9.954 290.762 11.058 290.21 12.03C289.658 13.002 288.902 13.764 287.942 14.316C286.982 14.856 285.914 15.126 284.738 15.126ZM284.738 13.704C285.614 13.704 286.4 13.5 287.096 13.092C287.804 12.684 288.356 12.102 288.752 11.346C289.16 10.59 289.364 9.714 289.364 8.718C289.364 7.71 289.16 6.834 288.752 6.09C288.356 5.334 287.81 4.752 287.114 4.344C286.418 3.936 285.626 3.732 284.738 3.732C283.85 3.732 283.058 3.936 282.362 4.344C281.666 4.752 281.114 5.334 280.706 6.09C280.31 6.834 280.112 7.71 280.112 8.718C280.112 9.714 280.31 10.59 280.706 11.346C281.114 12.102 281.666 12.684 282.362 13.092C283.07 13.5 283.862 13.704 284.738 13.704ZM299.806 15L296.818 9.87H294.838V15H293.2V2.454H297.25C298.198 2.454 298.996 2.616 299.644 2.94C300.304 3.264 300.796 3.702 301.12 4.254C301.444 4.806 301.606 5.436 301.606 6.144C301.606 7.008 301.354 7.77 300.85 8.43C300.358 9.09 299.614 9.528 298.618 9.744L301.768 15H299.806ZM294.838 8.556H297.25C298.138 8.556 298.804 8.34 299.248 7.908C299.692 7.464 299.914 6.876 299.914 6.144C299.914 5.4 299.692 4.824 299.248 4.416C298.816 4.008 298.15 3.804 297.25 3.804H294.838V8.556ZM305.79 3.786V7.98H310.362V9.33H305.79V13.65H310.902V15H304.152V2.436H310.902V3.786H305.79Z" fill="#00B4D8"/>
</svg>
