<svg width="52" height="52" viewBox="0 0 52 52" fill="none" xmlns="http://www.w3.org/2000/svg">
<path d="M1.625 29.25C0.73125 29.25 0 29.9813 0 30.875V34.125C0 35.0187 0.73125 35.75 1.625 35.75H13V29.25H1.625ZM51.2891 10.6641L41.3461 0.710938C40.8891 0.253906 40.2695 0 39.6195 0H39V13H52V12.3805C52 11.7406 51.7461 11.1211 51.2891 10.6641ZM35.75 13.8125V0H15.4375C14.0867 0 13 1.08672 13 2.4375V29.25H26V22.6281C26 21.1758 27.757 20.4547 28.7828 21.4805L38.4922 31.2812C39.1625 31.9617 39.1625 33.0484 38.4922 33.7188L28.7727 43.5094C27.7469 44.5352 25.9898 43.8141 25.9898 42.3617V35.75H13V49.5625C13 50.9133 14.0867 52 15.4375 52H49.5625C50.9133 52 52 50.9133 52 49.5625V16.25H38.1875C36.8469 16.25 35.75 15.1531 35.75 13.8125Z" fill="#DC554D"/>
</svg>
