<svg width="23" height="25" viewBox="0 0 23 25" fill="none" xmlns="http://www.w3.org/2000/svg">
<path d="M16.1875 21.875V23.8281C16.1875 24.4753 15.6628 25 15.0156 25H1.73438C1.08716 25 0.5625 24.4753 0.5625 23.8281V5.85938C0.5625 5.21216 1.08716 4.6875 1.73438 4.6875H5.25V19.1406C5.25 20.6484 6.47661 21.875 7.98438 21.875H16.1875ZM16.1875 5.07812V0H7.98438C7.33716 0 6.8125 0.524658 6.8125 1.17188V19.1406C6.8125 19.7878 7.33716 20.3125 7.98438 20.3125H21.2656C21.9128 20.3125 22.4375 19.7878 22.4375 19.1406V6.25H17.3594C16.7148 6.25 16.1875 5.72266 16.1875 5.07812ZM22.0943 3.56304L18.8745 0.343213C18.6547 0.123458 18.3566 1.62498e-06 18.0458 0L17.75 0V4.6875H22.4375V4.39165C22.4375 4.08086 22.314 3.7828 22.0943 3.56304Z" fill="#0077B6"/>
</svg>
