<svg width="35" height="29" viewBox="0 0 35 29" fill="none" xmlns="http://www.w3.org/2000/svg">
<path d="M32.0833 0.888916H2.91667C1.30642 0.888916 0 2.19534 0 3.80558V25.1945C0 26.8047 1.30642 28.1111 2.91667 28.1111H32.0833C33.6936 28.1111 35 26.8047 35 25.1945V3.80558C35 2.19534 33.6936 0.888916 32.0833 0.888916ZM10.6944 6.72225C12.8394 6.72225 14.5833 8.46617 14.5833 10.6111C14.5833 12.7561 12.8394 14.5 10.6944 14.5C8.54948 14.5 6.80555 12.7561 6.80555 10.6111C6.80555 8.46617 8.54948 6.72225 10.6944 6.72225ZM17.5 21.1111C17.5 21.7552 16.8924 22.2778 16.1389 22.2778H5.25C4.49653 22.2778 3.88889 21.7552 3.88889 21.1111V19.9445C3.88889 18.0122 5.71788 16.4445 7.97222 16.4445H8.27604C9.02344 16.7544 9.83767 16.9306 10.6944 16.9306C11.5512 16.9306 12.3715 16.7544 13.1128 16.4445H13.4167C15.671 16.4445 17.5 18.0122 17.5 19.9445V21.1111ZM31.1111 17.9028C31.1111 18.1702 30.8924 18.3889 30.625 18.3889H21.875C21.6076 18.3889 21.3889 18.1702 21.3889 17.9028V16.9306C21.3889 16.6632 21.6076 16.4445 21.875 16.4445H30.625C30.8924 16.4445 31.1111 16.6632 31.1111 16.9306V17.9028ZM31.1111 14.0139C31.1111 14.2813 30.8924 14.5 30.625 14.5H21.875C21.6076 14.5 21.3889 14.2813 21.3889 14.0139V13.0417C21.3889 12.7743 21.6076 12.5556 21.875 12.5556H30.625C30.8924 12.5556 31.1111 12.7743 31.1111 13.0417V14.0139ZM31.1111 10.125C31.1111 10.3924 30.8924 10.6111 30.625 10.6111H21.875C21.6076 10.6111 21.3889 10.3924 21.3889 10.125V9.1528C21.3889 8.88544 21.6076 8.66669 21.875 8.66669H30.625C30.8924 8.66669 31.1111 8.88544 31.1111 9.1528V10.125Z" fill="#0077B6"/>
</svg>
