<svg width="840" height="47" viewBox="0 0 840 47" fill="none" xmlns="http://www.w3.org/2000/svg">
<path d="M0.594008 20.216C0.594008 17.304 1.22401 14.714 2.48401 12.446C3.74401 10.15 5.49401 8.372 7.73401 7.112C10.002 5.824 12.564 5.18 15.42 5.18C18.92 5.18 21.916 6.104 24.408 7.952C26.9 9.8 28.566 12.32 29.406 15.512H21.51C20.922 14.28 20.082 13.342 18.99 12.698C17.926 12.054 16.708 11.732 15.336 11.732C13.124 11.732 11.332 12.502 9.96001 14.042C8.58801 15.582 7.90201 17.64 7.90201 20.216C7.90201 22.792 8.58801 24.85 9.96001 26.39C11.332 27.93 13.124 28.7 15.336 28.7C16.708 28.7 17.926 28.378 18.99 27.734C20.082 27.09 20.922 26.152 21.51 24.92H29.406C28.566 28.112 26.9 30.632 24.408 32.48C21.916 34.3 18.92 35.21 15.42 35.21C12.564 35.21 10.002 34.58 7.73401 33.32C5.49401 32.032 3.74401 30.254 2.48401 27.986C1.22401 25.718 0.594008 23.128 0.594008 20.216ZM48.2102 11.312C50.8982 11.312 53.0542 12.208 54.6782 14C56.3022 15.764 57.1142 18.2 57.1142 21.308V35H49.9742V22.274C49.9742 20.706 49.5682 19.488 48.7562 18.62C47.9442 17.752 46.8522 17.318 45.4802 17.318C44.1082 17.318 43.0162 17.752 42.2042 18.62C41.3922 19.488 40.9862 20.706 40.9862 22.274V35H33.8042V3.92H40.9862V14.714C41.7142 13.678 42.7082 12.852 43.9682 12.236C45.2282 11.62 46.6422 11.312 48.2102 11.312ZM60.677 23.24C60.677 20.832 61.125 18.718 62.021 16.898C62.945 15.078 64.191 13.678 65.759 12.698C67.327 11.718 69.077 11.228 71.009 11.228C72.661 11.228 74.103 11.564 75.335 12.236C76.595 12.908 77.561 13.79 78.233 14.882V11.564H85.415V35H78.233V31.682C77.533 32.774 76.553 33.656 75.293 34.328C74.061 35 72.619 35.336 70.967 35.336C69.063 35.336 67.327 34.846 65.759 33.866C64.191 32.858 62.945 31.444 62.021 29.624C61.125 27.776 60.677 25.648 60.677 23.24ZM78.233 23.282C78.233 21.49 77.729 20.076 76.721 19.04C75.741 18.004 74.537 17.486 73.109 17.486C71.681 17.486 70.463 18.004 69.455 19.04C68.475 20.048 67.985 21.448 67.985 23.24C67.985 25.032 68.475 26.46 69.455 27.524C70.463 28.56 71.681 29.078 73.109 29.078C74.537 29.078 75.741 28.56 76.721 27.524C77.729 26.488 78.233 25.074 78.233 23.282ZM78.779 5.012V9.968L68.657 5.726V0.139998L78.779 5.012ZM101.279 35.336C98.9828 35.336 96.9108 34.846 95.0628 33.866C93.2428 32.886 91.8008 31.486 90.7368 29.666C89.7008 27.846 89.1828 25.718 89.1828 23.282C89.1828 20.874 89.7148 18.76 90.7788 16.94C91.8428 15.092 93.2988 13.678 95.1468 12.698C96.9948 11.718 99.0668 11.228 101.363 11.228C103.659 11.228 105.731 11.718 107.579 12.698C109.427 13.678 110.883 15.092 111.947 16.94C113.011 18.76 113.543 20.874 113.543 23.282C113.543 25.69 112.997 27.818 111.905 29.666C110.841 31.486 109.371 32.886 107.495 33.866C105.647 34.846 103.575 35.336 101.279 35.336ZM101.279 29.12C102.651 29.12 103.813 28.616 104.765 27.608C105.745 26.6 106.235 25.158 106.235 23.282C106.235 21.406 105.759 19.964 104.807 18.956C103.883 17.948 102.735 17.444 101.363 17.444C99.9628 17.444 98.8008 17.948 97.8768 18.956C96.9528 19.936 96.4908 21.378 96.4908 23.282C96.4908 25.158 96.9388 26.6 97.8348 27.608C98.7588 28.616 99.9068 29.12 101.279 29.12ZM156.157 11.312C159.069 11.312 161.379 12.194 163.087 13.958C164.823 15.722 165.691 18.172 165.691 21.308V35H158.551V22.274C158.551 20.762 158.145 19.6 157.333 18.788C156.549 17.948 155.457 17.528 154.057 17.528C152.657 17.528 151.551 17.948 150.739 18.788C149.955 19.6 149.563 20.762 149.563 22.274V35H142.423V22.274C142.423 20.762 142.017 19.6 141.205 18.788C140.421 17.948 139.329 17.528 137.929 17.528C136.529 17.528 135.423 17.948 134.611 18.788C133.827 19.6 133.435 20.762 133.435 22.274V35H126.253V11.564H133.435V14.504C134.163 13.524 135.115 12.754 136.291 12.194C137.467 11.606 138.797 11.312 140.281 11.312C142.045 11.312 143.613 11.69 144.985 12.446C146.385 13.202 147.477 14.28 148.261 15.68C149.073 14.392 150.179 13.342 151.579 12.53C152.979 11.718 154.505 11.312 156.157 11.312ZM201.962 9.086C201.738 10.234 201.43 11.312 201.038 12.32C200.646 13.328 200.1 14.238 199.4 15.05C198.728 15.834 197.832 16.506 196.712 17.066C195.592 17.598 194.164 17.99 192.428 18.242V35H187.64L186.8 32.06H186.422C185.946 32.844 185.33 33.488 184.574 33.992C183.846 34.468 183.034 34.818 182.138 35.042C181.27 35.294 180.36 35.42 179.408 35.42C177.784 35.42 176.356 35.126 175.124 34.538C173.892 33.95 172.94 33.04 172.268 31.808C171.596 30.576 171.26 28.98 171.26 27.02V12.068H177.518V25.466C177.518 27.09 177.812 28.322 178.4 29.162C178.988 30.002 179.926 30.422 181.214 30.422C183.118 30.422 184.42 29.778 185.12 28.49C185.82 27.174 186.17 25.298 186.17 22.862V12.068H192.428V14.462C193.128 14.238 193.702 13.86 194.15 13.328C194.598 12.768 194.934 12.096 195.158 11.312C195.382 10.5 195.494 9.604 195.494 8.624H201.668L201.962 9.086ZM180.92 2.828C181.34 3.444 181.83 4.144 182.39 4.928C182.978 5.684 183.566 6.426 184.154 7.154C184.77 7.854 185.302 8.47 185.75 9.002V9.548H181.592C181.06 9.184 180.43 8.736 179.702 8.204C179.002 7.644 178.274 7.056 177.518 6.44C176.79 5.824 176.104 5.236 175.46 4.676C174.816 4.116 174.298 3.64 173.906 3.248V2.828H180.92ZM216.905 11.312C219.649 11.312 221.833 12.208 223.457 14C225.109 15.764 225.935 18.2 225.935 21.308V35H218.795V22.274C218.795 20.706 218.389 19.488 217.577 18.62C216.765 17.752 215.673 17.318 214.301 17.318C212.929 17.318 211.837 17.752 211.025 18.62C210.213 19.488 209.807 20.706 209.807 22.274V35H202.625V11.564H209.807V14.672C210.535 13.636 211.515 12.824 212.747 12.236C213.979 11.62 215.365 11.312 216.905 11.312ZM239.829 11.228C241.481 11.228 242.923 11.564 244.155 12.236C245.415 12.908 246.381 13.79 247.053 14.882V11.564H254.235V34.958C254.235 37.114 253.801 39.06 252.933 40.796C252.093 42.56 250.791 43.96 249.027 44.996C247.291 46.032 245.121 46.55 242.517 46.55C239.045 46.55 236.231 45.724 234.075 44.072C231.919 42.448 230.687 40.236 230.379 37.436H237.477C237.701 38.332 238.233 39.032 239.073 39.536C239.913 40.068 240.949 40.334 242.181 40.334C243.665 40.334 244.841 39.9 245.709 39.032C246.605 38.192 247.053 36.834 247.053 34.958V31.64C246.353 32.732 245.387 33.628 244.155 34.328C242.923 35 241.481 35.336 239.829 35.336C237.897 35.336 236.147 34.846 234.579 33.866C233.011 32.858 231.765 31.444 230.841 29.624C229.945 27.776 229.497 25.648 229.497 23.24C229.497 20.832 229.945 18.718 230.841 16.898C231.765 15.078 233.011 13.678 234.579 12.698C236.147 11.718 237.897 11.228 239.829 11.228ZM247.053 23.282C247.053 21.49 246.549 20.076 245.541 19.04C244.561 18.004 243.357 17.486 241.929 17.486C240.501 17.486 239.283 18.004 238.275 19.04C237.295 20.048 236.805 21.448 236.805 23.24C236.805 25.032 237.295 26.46 238.275 27.524C239.283 28.56 240.501 29.078 241.929 29.078C243.357 29.078 244.561 28.56 245.541 27.524C246.549 26.488 247.053 25.074 247.053 23.282ZM275.514 14.882C276.186 13.79 277.152 12.908 278.412 12.236C279.672 11.564 281.114 11.228 282.738 11.228C284.67 11.228 286.42 11.718 287.988 12.698C289.556 13.678 290.788 15.078 291.684 16.898C292.608 18.718 293.07 20.832 293.07 23.24C293.07 25.648 292.608 27.776 291.684 29.624C290.788 31.444 289.556 32.858 287.988 33.866C286.42 34.846 284.67 35.336 282.738 35.336C281.086 35.336 279.644 35.014 278.412 34.37C277.18 33.698 276.214 32.816 275.514 31.724V35H268.332V3.92H275.514V14.882ZM285.762 23.24C285.762 21.448 285.258 20.048 284.25 19.04C283.27 18.004 282.052 17.486 280.596 17.486C279.168 17.486 277.95 18.004 276.942 19.04C275.962 20.076 275.472 21.49 275.472 23.282C275.472 25.074 275.962 26.488 276.942 27.524C277.95 28.56 279.168 29.078 280.596 29.078C282.024 29.078 283.242 28.56 284.25 27.524C285.258 26.46 285.762 25.032 285.762 23.24ZM306.917 11.606C309.997 11.606 312.349 12.278 313.973 13.622C315.625 14.938 316.451 16.968 316.451 19.712V35H312.083L310.865 31.892H310.697C310.053 32.704 309.381 33.376 308.681 33.908C308.009 34.44 307.225 34.818 306.329 35.042C305.461 35.294 304.383 35.42 303.095 35.42C301.751 35.42 300.533 35.168 299.441 34.664C298.377 34.132 297.537 33.334 296.921 32.27C296.305 31.178 295.997 29.806 295.997 28.154C295.997 25.718 296.851 23.926 298.559 22.778C300.267 21.602 302.829 20.958 306.245 20.846L310.235 20.72V19.712C310.235 18.508 309.913 17.626 309.269 17.066C308.653 16.506 307.785 16.226 306.665 16.226C305.545 16.226 304.453 16.394 303.389 16.73C302.325 17.038 301.261 17.43 300.197 17.906L298.139 13.664C299.371 13.02 300.729 12.516 302.213 12.152C303.725 11.788 305.293 11.606 306.917 11.606ZM307.799 24.458C305.783 24.514 304.383 24.878 303.599 25.55C302.815 26.222 302.423 27.104 302.423 28.196C302.423 29.148 302.703 29.834 303.263 30.254C303.823 30.646 304.551 30.842 305.447 30.842C306.791 30.842 307.925 30.45 308.849 29.666C309.773 28.854 310.235 27.72 310.235 26.264V24.374L307.799 24.458ZM306.875 43.82C305.923 43.82 305.111 43.596 304.439 43.148C303.795 42.7 303.473 41.902 303.473 40.754C303.473 39.578 303.795 38.766 304.439 38.318C305.111 37.898 305.923 37.688 306.875 37.688C307.799 37.688 308.597 37.898 309.269 38.318C309.941 38.766 310.277 39.578 310.277 40.754C310.277 41.902 309.941 42.7 309.269 43.148C308.597 43.596 307.799 43.82 306.875 43.82ZM336.465 11.312C339.209 11.312 341.393 12.208 343.017 14C344.669 15.764 345.495 18.2 345.495 21.308V35H338.355V22.274C338.355 20.706 337.949 19.488 337.137 18.62C336.325 17.752 335.233 17.318 333.861 17.318C332.489 17.318 331.397 17.752 330.585 18.62C329.773 19.488 329.367 20.706 329.367 22.274V35H322.185V11.564H329.367V14.672C330.095 13.636 331.075 12.824 332.307 12.236C333.539 11.62 334.925 11.312 336.465 11.312ZM385.3 10.178H382.696V35H375.514V31.64C374.842 32.76 373.876 33.656 372.616 34.328C371.384 35 369.942 35.336 368.29 35.336C366.358 35.336 364.608 34.846 363.04 33.866C361.472 32.858 360.226 31.444 359.302 29.624C358.406 27.776 357.958 25.648 357.958 23.24C357.958 20.832 358.406 18.718 359.302 16.898C360.226 15.078 361.472 13.678 363.04 12.698C364.608 11.718 366.358 11.228 368.29 11.228C369.83 11.228 371.23 11.55 372.49 12.194C373.778 12.838 374.786 13.706 375.514 14.798V10.178H372.574V6.734H375.514V3.92H382.696V6.734H385.3V10.178ZM370.39 29.078C371.818 29.078 373.022 28.56 374.002 27.524C375.01 26.488 375.514 25.074 375.514 23.282C375.514 21.49 375.01 20.076 374.002 19.04C373.022 18.004 371.818 17.486 370.39 17.486C368.962 17.486 367.744 18.004 366.736 19.04C365.756 20.048 365.266 21.448 365.266 23.24C365.266 25.032 365.756 26.46 366.736 27.524C367.744 28.56 368.962 29.078 370.39 29.078ZM402.914 9.548C402.214 9.072 401.5 8.554 400.772 7.994C400.044 7.406 399.316 6.79 398.588 6.146C397.86 6.79 397.132 7.406 396.404 7.994C395.676 8.554 394.962 9.072 394.262 9.548H390.944V9.002C391.42 8.47 391.91 7.882 392.414 7.238C392.918 6.566 393.422 5.894 393.926 5.222C394.458 4.522 394.934 3.864 395.354 3.248H401.822C402.27 3.864 402.746 4.522 403.25 5.222C403.754 5.894 404.258 6.566 404.762 7.238C405.294 7.882 405.784 8.47 406.232 9.002V9.548H402.914ZM404.426 5.012C404.986 4.424 405.476 3.822 405.896 3.206C406.344 2.562 406.792 1.792 407.24 0.895998H412.196V1.316C411.58 2.128 410.852 2.898 410.012 3.626C409.172 4.326 408.346 4.97 407.534 5.558H404.426V5.012ZM398.588 11.648C400.716 11.648 402.536 12.054 404.048 12.866C405.588 13.678 406.778 14.854 407.618 16.394C408.458 17.934 408.878 19.824 408.878 22.064V25.088H394.094C394.15 26.852 394.668 28.238 395.648 29.246C396.656 30.254 398.042 30.758 399.806 30.758C401.29 30.758 402.634 30.618 403.838 30.338C405.042 30.03 406.288 29.568 407.576 28.952V33.782C406.456 34.342 405.266 34.748 404.006 35C402.774 35.28 401.276 35.42 399.512 35.42C397.216 35.42 395.186 35 393.422 34.16C391.658 33.292 390.272 31.99 389.264 30.254C388.256 28.518 387.752 26.334 387.752 23.702C387.752 21.014 388.2 18.788 389.096 17.024C390.02 15.232 391.294 13.888 392.918 12.992C394.542 12.096 396.432 11.648 398.588 11.648ZM398.63 16.1C397.426 16.1 396.418 16.492 395.606 17.276C394.822 18.06 394.36 19.278 394.22 20.93H402.998C402.998 20.006 402.83 19.18 402.494 18.452C402.186 17.724 401.71 17.15 401.066 16.73C400.422 16.31 399.61 16.1 398.63 16.1ZM427.561 11.312C430.305 11.312 432.489 12.208 434.113 14C435.765 15.764 436.591 18.2 436.591 21.308V35H429.451V22.274C429.451 20.706 429.045 19.488 428.233 18.62C427.421 17.752 426.329 17.318 424.957 17.318C423.585 17.318 422.493 17.752 421.681 18.62C420.869 19.488 420.463 20.706 420.463 22.274V35H413.281V11.564H420.463V14.672C421.191 13.636 422.171 12.824 423.403 12.236C424.635 11.62 426.021 11.312 427.561 11.312ZM461.024 28.28L466.106 11.564H473.75L465.434 35H456.572L448.256 11.564H455.942L461.024 28.28ZM498.277 23.492C498.277 26.04 497.815 28.21 496.891 30.002C495.995 31.766 494.707 33.11 493.027 34.034C491.375 34.958 489.401 35.42 487.105 35.42C484.977 35.42 483.073 34.958 481.393 34.034C479.741 33.11 478.439 31.766 477.487 30.002C476.535 28.21 476.059 26.04 476.059 23.492C476.059 19.684 477.053 16.758 479.041 14.714C481.029 12.67 483.759 11.648 487.231 11.648C488.771 11.648 490.227 11.886 491.599 12.362C492.971 12.838 494.133 13.538 495.085 14.462C495.841 14.238 496.443 13.86 496.891 13.328C497.339 12.768 497.661 12.096 497.857 11.312C498.053 10.5 498.151 9.604 498.151 8.624H504.325L504.619 9.086C504.339 10.43 503.947 11.69 503.443 12.866C502.967 14.014 502.239 15.008 501.259 15.848C500.279 16.688 498.935 17.332 497.227 17.78C497.563 18.592 497.815 19.474 497.983 20.426C498.179 21.378 498.277 22.4 498.277 23.492ZM482.443 23.492C482.443 25.004 482.597 26.278 482.905 27.314C483.241 28.322 483.759 29.092 484.459 29.624C485.159 30.128 486.069 30.38 487.189 30.38C488.309 30.38 489.205 30.128 489.877 29.624C490.577 29.092 491.081 28.322 491.389 27.314C491.725 26.278 491.893 25.004 491.893 23.492C491.893 21.98 491.725 20.72 491.389 19.712C491.081 18.704 490.577 17.948 489.877 17.444C489.177 16.94 488.267 16.688 487.147 16.688C485.495 16.688 484.291 17.262 483.535 18.41C482.807 19.53 482.443 21.224 482.443 23.492ZM495.253 3.248C494.861 3.64 494.343 4.116 493.699 4.676C493.055 5.236 492.355 5.824 491.599 6.44C490.871 7.056 490.143 7.644 489.415 8.204C488.715 8.736 488.099 9.184 487.567 9.548H483.409V9.002C483.857 8.47 484.375 7.854 484.963 7.154C485.579 6.426 486.181 5.684 486.769 4.928C487.357 4.144 487.847 3.444 488.239 2.828H495.253V3.248ZM508.891 9.128C507.631 9.128 506.595 8.764 505.783 8.036C504.999 7.28 504.607 6.356 504.607 5.264C504.607 4.144 504.999 3.22 505.783 2.492C506.595 1.736 507.631 1.358 508.891 1.358C510.123 1.358 511.131 1.736 511.915 2.492C512.727 3.22 513.133 4.144 513.133 5.264C513.133 6.356 512.727 7.28 511.915 8.036C511.131 8.764 510.123 9.128 508.891 9.128ZM512.461 11.564V35H505.279V11.564H512.461Z" fill="#00B4D8"/>
<path d="M545.046 5.516V25.592C545.046 28.7 544.164 31.094 542.4 32.774C540.664 34.454 538.312 35.294 535.344 35.294C532.236 35.294 529.744 34.412 527.868 32.648C525.992 30.884 525.054 28.378 525.054 25.13H532.194C532.194 26.362 532.446 27.3 532.95 27.944C533.454 28.56 534.182 28.868 535.134 28.868C536.002 28.868 536.674 28.588 537.15 28.028C537.626 27.468 537.864 26.656 537.864 25.592V5.516H545.046ZM564.791 35.294C562.019 35.294 559.471 34.65 557.147 33.362C554.851 32.074 553.017 30.282 551.645 27.986C550.301 25.662 549.629 23.058 549.629 20.174C549.629 17.29 550.301 14.7 551.645 12.404C553.017 10.108 554.851 8.316 557.147 7.028C559.471 5.74 562.019 5.096 564.791 5.096C567.563 5.096 570.097 5.74 572.393 7.028C574.717 8.316 576.537 10.108 577.853 12.404C579.197 14.7 579.869 17.29 579.869 20.174C579.869 23.058 579.197 25.662 577.853 27.986C576.509 30.282 574.689 32.074 572.393 33.362C570.097 34.65 567.563 35.294 564.791 35.294ZM564.791 28.742C567.143 28.742 569.019 27.958 570.419 26.39C571.847 24.822 572.561 22.75 572.561 20.174C572.561 17.57 571.847 15.498 570.419 13.958C569.019 12.39 567.143 11.606 564.791 11.606C562.411 11.606 560.507 12.376 559.079 13.916C557.679 15.456 556.979 17.542 556.979 20.174C556.979 22.778 557.679 24.864 559.079 26.432C560.507 27.972 562.411 28.742 564.791 28.742ZM598.901 35L592.769 23.87H591.047V35H583.865V5.516H595.919C598.243 5.516 600.217 5.922 601.841 6.734C603.493 7.546 604.725 8.666 605.537 10.094C606.349 11.494 606.755 13.062 606.755 14.798C606.755 16.758 606.195 18.508 605.075 20.048C603.983 21.588 602.359 22.68 600.203 23.324L607.007 35H598.901ZM591.047 18.788H595.499C596.815 18.788 597.795 18.466 598.439 17.822C599.111 17.178 599.447 16.268 599.447 15.092C599.447 13.972 599.111 13.09 598.439 12.446C597.795 11.802 596.815 11.48 595.499 11.48H591.047V18.788ZM618.445 11.27V17.234H628.063V22.778H618.445V29.246H629.323V35H611.263V5.516H629.323V11.27H618.445ZM660.736 19.88C662.444 20.244 663.816 21.098 664.852 22.442C665.888 23.758 666.406 25.27 666.406 26.978C666.406 29.442 665.538 31.402 663.802 32.858C662.094 34.286 659.7 35 656.62 35H642.886V5.516H656.158C659.154 5.516 661.492 6.202 663.172 7.574C664.88 8.946 665.734 10.808 665.734 13.16C665.734 14.896 665.272 16.338 664.348 17.486C663.452 18.634 662.248 19.432 660.736 19.88ZM650.068 17.444H654.772C655.948 17.444 656.844 17.192 657.46 16.688C658.104 16.156 658.426 15.386 658.426 14.378C658.426 13.37 658.104 12.6 657.46 12.068C656.844 11.536 655.948 11.27 654.772 11.27H650.068V17.444ZM655.36 29.204C656.564 29.204 657.488 28.938 658.132 28.406C658.804 27.846 659.14 27.048 659.14 26.012C659.14 24.976 658.79 24.164 658.09 23.576C657.418 22.988 656.48 22.694 655.276 22.694H650.068V29.204H655.36ZM677.628 5.516V23.156C677.628 24.92 678.062 26.278 678.93 27.23C679.798 28.182 681.072 28.658 682.752 28.658C684.432 28.658 685.72 28.182 686.616 27.23C687.512 26.278 687.96 24.92 687.96 23.156V5.516H695.142V23.114C695.142 25.746 694.582 27.972 693.462 29.792C692.342 31.612 690.83 32.984 688.926 33.908C687.05 34.832 684.95 35.294 682.626 35.294C680.302 35.294 678.216 34.846 676.368 33.95C674.548 33.026 673.106 31.654 672.042 29.834C670.978 27.986 670.446 25.746 670.446 23.114V5.516H677.628ZM710.853 35.294C708.697 35.294 706.765 34.944 705.057 34.244C703.349 33.544 701.977 32.508 700.941 31.136C699.933 29.764 699.401 28.112 699.345 26.18H706.989C707.101 27.272 707.479 28.112 708.123 28.7C708.767 29.26 709.607 29.54 710.643 29.54C711.707 29.54 712.547 29.302 713.163 28.826C713.779 28.322 714.087 27.636 714.087 26.768C714.087 26.04 713.835 25.438 713.331 24.962C712.855 24.486 712.253 24.094 711.525 23.786C710.825 23.478 709.817 23.128 708.501 22.736C706.597 22.148 705.043 21.56 703.839 20.972C702.635 20.384 701.599 19.516 700.731 18.368C699.863 17.22 699.429 15.722 699.429 13.874C699.429 11.13 700.423 8.988 702.411 7.448C704.399 5.88 706.989 5.096 710.181 5.096C713.429 5.096 716.047 5.88 718.035 7.448C720.023 8.988 721.087 11.144 721.227 13.916H713.457C713.401 12.964 713.051 12.222 712.407 11.69C711.763 11.13 710.937 10.85 709.929 10.85C709.061 10.85 708.361 11.088 707.829 11.564C707.297 12.012 707.031 12.67 707.031 13.538C707.031 14.49 707.479 15.232 708.375 15.764C709.271 16.296 710.671 16.87 712.575 17.486C714.479 18.13 716.019 18.746 717.195 19.334C718.399 19.922 719.435 20.776 720.303 21.896C721.171 23.016 721.605 24.458 721.605 26.222C721.605 27.902 721.171 29.428 720.303 30.8C719.463 32.172 718.231 33.264 716.607 34.076C714.983 34.888 713.065 35.294 710.853 35.294ZM733.207 5.516V35H726.025V5.516H733.207ZM764.788 35H757.606L745.594 16.814V35H738.412V5.516H745.594L757.606 23.786V5.516H764.788V35ZM777.176 11.27V17.234H786.794V22.778H777.176V29.246H788.054V35H769.994V5.516H788.054V11.27H777.176ZM803.384 35.294C801.228 35.294 799.296 34.944 797.588 34.244C795.88 33.544 794.508 32.508 793.472 31.136C792.464 29.764 791.932 28.112 791.876 26.18H799.52C799.632 27.272 800.01 28.112 800.654 28.7C801.298 29.26 802.138 29.54 803.174 29.54C804.238 29.54 805.078 29.302 805.694 28.826C806.31 28.322 806.618 27.636 806.618 26.768C806.618 26.04 806.366 25.438 805.862 24.962C805.386 24.486 804.784 24.094 804.056 23.786C803.356 23.478 802.348 23.128 801.032 22.736C799.128 22.148 797.574 21.56 796.37 20.972C795.166 20.384 794.13 19.516 793.262 18.368C792.394 17.22 791.96 15.722 791.96 13.874C791.96 11.13 792.954 8.988 794.942 7.448C796.93 5.88 799.52 5.096 802.712 5.096C805.96 5.096 808.578 5.88 810.566 7.448C812.554 8.988 813.618 11.144 813.758 13.916H805.988C805.932 12.964 805.582 12.222 804.938 11.69C804.294 11.13 803.468 10.85 802.46 10.85C801.592 10.85 800.892 11.088 800.36 11.564C799.828 12.012 799.562 12.67 799.562 13.538C799.562 14.49 800.01 15.232 800.906 15.764C801.802 16.296 803.202 16.87 805.106 17.486C807.01 18.13 808.55 18.746 809.726 19.334C810.93 19.922 811.966 20.776 812.834 21.896C813.702 23.016 814.136 24.458 814.136 26.222C814.136 27.902 813.702 29.428 812.834 30.8C811.994 32.172 810.762 33.264 809.138 34.076C807.514 34.888 805.596 35.294 803.384 35.294ZM829.224 35.294C827.068 35.294 825.136 34.944 823.428 34.244C821.72 33.544 820.348 32.508 819.312 31.136C818.304 29.764 817.772 28.112 817.716 26.18H825.36C825.472 27.272 825.85 28.112 826.494 28.7C827.138 29.26 827.978 29.54 829.014 29.54C830.078 29.54 830.918 29.302 831.534 28.826C832.15 28.322 832.458 27.636 832.458 26.768C832.458 26.04 832.206 25.438 831.702 24.962C831.226 24.486 830.624 24.094 829.896 23.786C829.196 23.478 828.188 23.128 826.872 22.736C824.968 22.148 823.414 21.56 822.21 20.972C821.006 20.384 819.97 19.516 819.102 18.368C818.234 17.22 817.8 15.722 817.8 13.874C817.8 11.13 818.794 8.988 820.782 7.448C822.77 5.88 825.36 5.096 828.552 5.096C831.8 5.096 834.418 5.88 836.406 7.448C838.394 8.988 839.458 11.144 839.598 13.916H831.828C831.772 12.964 831.422 12.222 830.778 11.69C830.134 11.13 829.308 10.85 828.3 10.85C827.432 10.85 826.732 11.088 826.2 11.564C825.668 12.012 825.402 12.67 825.402 13.538C825.402 14.49 825.85 15.232 826.746 15.764C827.642 16.296 829.042 16.87 830.946 17.486C832.85 18.13 834.39 18.746 835.566 19.334C836.77 19.922 837.806 20.776 838.674 21.896C839.542 23.016 839.976 24.458 839.976 26.222C839.976 27.902 839.542 29.428 838.674 30.8C837.834 32.172 836.602 33.264 834.978 34.076C833.354 34.888 831.436 35.294 829.224 35.294Z" fill="#2E3192"/>
</svg>
