<svg width="35" height="31" viewBox="0 0 35 31" fill="none" xmlns="http://www.w3.org/2000/svg">
<path d="M21.875 20.9688C21.875 21.573 21.3855 22.0625 20.7812 22.0625H14.2188C13.6145 22.0625 13.125 21.573 13.125 20.9688V17.6875H0V27.5312C0 29.2812 1.53125 30.8125 3.28125 30.8125H31.7188C33.4688 30.8125 35 29.2812 35 27.5312V17.6875H21.875V20.9688ZM31.7188 6.75H26.25V3.46875C26.25 1.71875 24.7188 0.1875 22.9688 0.1875H12.0312C10.2812 0.1875 8.75 1.71875 8.75 3.46875V6.75H3.28125C1.53125 6.75 0 8.28125 0 10.0312V15.5H35V10.0312C35 8.28125 33.4688 6.75 31.7188 6.75ZM21.875 6.75H13.125V4.5625H21.875V6.75Z" fill="#0077B6"/>
</svg>
