<svg width="122" height="27" viewBox="0 0 122 27" fill="none" xmlns="http://www.w3.org/2000/svg">
<path d="M41 7.436V9.47H35.762V12.692H39.776V14.69H35.762V20H33.242V7.436H41ZM42.1389 14.978C42.1389 13.97 42.3369 13.076 42.7329 12.296C43.1409 11.516 43.6869 10.916 44.3709 10.496C45.0669 10.076 45.8409 9.866 46.6929 9.866C47.4369 9.866 48.0849 10.016 48.6369 10.316C49.2009 10.616 49.6509 10.994 49.9869 11.45V10.028H52.5249V20H49.9869V18.542C49.6629 19.01 49.2129 19.4 48.6369 19.712C48.0729 20.012 47.4189 20.162 46.6749 20.162C45.8349 20.162 45.0669 19.946 44.3709 19.514C43.6869 19.082 43.1409 18.476 42.7329 17.696C42.3369 16.904 42.1389 15.998 42.1389 14.978ZM49.9869 15.014C49.9869 14.402 49.8669 13.88 49.6269 13.448C49.3869 13.004 49.0629 12.668 48.6549 12.44C48.2469 12.2 47.8089 12.08 47.3409 12.08C46.8729 12.08 46.4409 12.194 46.0449 12.422C45.6489 12.65 45.3249 12.986 45.0729 13.43C44.8329 13.862 44.7129 14.378 44.7129 14.978C44.7129 15.578 44.8329 16.106 45.0729 16.562C45.3249 17.006 45.6489 17.348 46.0449 17.588C46.4529 17.828 46.8849 17.948 47.3409 17.948C47.8089 17.948 48.2469 17.834 48.6549 17.606C49.0629 17.366 49.3869 17.03 49.6269 16.598C49.8669 16.154 49.9869 15.626 49.9869 15.014ZM54.3381 15.014C54.3381 13.982 54.5481 13.082 54.9681 12.314C55.3881 11.534 55.9701 10.934 56.7141 10.514C57.4581 10.082 58.3101 9.866 59.2701 9.866C60.5061 9.866 61.5261 10.178 62.3301 10.802C63.1461 11.414 63.6921 12.278 63.9681 13.394H61.2501C61.1061 12.962 60.8601 12.626 60.5121 12.386C60.1761 12.134 59.7561 12.008 59.2521 12.008C58.5321 12.008 57.9621 12.272 57.5421 12.8C57.1221 13.316 56.9121 14.054 56.9121 15.014C56.9121 15.962 57.1221 16.7 57.5421 17.228C57.9621 17.744 58.5321 18.002 59.2521 18.002C60.2721 18.002 60.9381 17.546 61.2501 16.634H63.9681C63.6921 17.714 63.1461 18.572 62.3301 19.208C61.5141 19.844 60.4941 20.162 59.2701 20.162C58.3101 20.162 57.4581 19.952 56.7141 19.532C55.9701 19.1 55.3881 18.5 54.9681 17.732C54.5481 16.952 54.3381 16.046 54.3381 15.014ZM75.0843 14.798C75.0843 15.158 75.0603 15.482 75.0123 15.77H67.7223C67.7823 16.49 68.0343 17.054 68.4783 17.462C68.9223 17.87 69.4683 18.074 70.1163 18.074C71.0523 18.074 71.7183 17.672 72.1143 16.868H74.8323C74.5443 17.828 73.9923 18.62 73.1763 19.244C72.3603 19.856 71.3583 20.162 70.1703 20.162C69.2103 20.162 68.3463 19.952 67.5783 19.532C66.8223 19.1 66.2283 18.494 65.7963 17.714C65.3763 16.934 65.1663 16.034 65.1663 15.014C65.1663 13.982 65.3763 13.076 65.7963 12.296C66.2163 11.516 66.8043 10.916 67.5603 10.496C68.3163 10.076 69.1863 9.866 70.1703 9.866C71.1183 9.866 71.9643 10.07 72.7083 10.478C73.4643 10.886 74.0463 11.468 74.4543 12.224C74.8743 12.968 75.0843 13.826 75.0843 14.798ZM72.4743 14.078C72.4623 13.43 72.2283 12.914 71.7723 12.53C71.3163 12.134 70.7583 11.936 70.0983 11.936C69.4743 11.936 68.9463 12.128 68.5143 12.512C68.0943 12.884 67.8363 13.406 67.7403 14.078H72.4743ZM79.4436 11.486C79.7676 11.006 80.2116 10.616 80.7756 10.316C81.3516 10.016 82.0056 9.866 82.7376 9.866C83.5896 9.866 84.3576 10.076 85.0416 10.496C85.7376 10.916 86.2836 11.516 86.6796 12.296C87.0876 13.064 87.2916 13.958 87.2916 14.978C87.2916 15.998 87.0876 16.904 86.6796 17.696C86.2836 18.476 85.7376 19.082 85.0416 19.514C84.3576 19.946 83.5896 20.162 82.7376 20.162C81.9936 20.162 81.3396 20.018 80.7756 19.73C80.2236 19.43 79.7796 19.046 79.4436 18.578V20H76.9236V6.68H79.4436V11.486ZM84.7176 14.978C84.7176 14.378 84.5916 13.862 84.3396 13.43C84.0996 12.986 83.7756 12.65 83.3676 12.422C82.9716 12.194 82.5396 12.08 82.0716 12.08C81.6156 12.08 81.1836 12.2 80.7756 12.44C80.3796 12.668 80.0556 13.004 79.8036 13.448C79.5636 13.892 79.4436 14.414 79.4436 15.014C79.4436 15.614 79.5636 16.136 79.8036 16.58C80.0556 17.024 80.3796 17.366 80.7756 17.606C81.1836 17.834 81.6156 17.948 82.0716 17.948C82.5396 17.948 82.9716 17.828 83.3676 17.588C83.7756 17.348 84.0996 17.006 84.3396 16.562C84.5916 16.118 84.7176 15.59 84.7176 14.978ZM93.5509 20.162C92.5909 20.162 91.7269 19.952 90.9589 19.532C90.1909 19.1 89.5849 18.494 89.1409 17.714C88.7089 16.934 88.4929 16.034 88.4929 15.014C88.4929 13.994 88.7149 13.094 89.1589 12.314C89.6149 11.534 90.2329 10.934 91.0129 10.514C91.7929 10.082 92.6629 9.866 93.6229 9.866C94.5829 9.866 95.4529 10.082 96.2329 10.514C97.0129 10.934 97.6249 11.534 98.0689 12.314C98.5249 13.094 98.7529 13.994 98.7529 15.014C98.7529 16.034 98.5189 16.934 98.0509 17.714C97.5949 18.494 96.9709 19.1 96.1789 19.532C95.3989 19.952 94.5229 20.162 93.5509 20.162ZM93.5509 17.966C94.0069 17.966 94.4329 17.858 94.8289 17.642C95.2369 17.414 95.5609 17.078 95.8009 16.634C96.0409 16.19 96.1609 15.65 96.1609 15.014C96.1609 14.066 95.9089 13.34 95.4049 12.836C94.9129 12.32 94.3069 12.062 93.5869 12.062C92.8669 12.062 92.2609 12.32 91.7689 12.836C91.2889 13.34 91.0489 14.066 91.0489 15.014C91.0489 15.962 91.2829 16.694 91.7509 17.21C92.2309 17.714 92.8309 17.966 93.5509 17.966ZM105.029 20.162C104.069 20.162 103.205 19.952 102.437 19.532C101.669 19.1 101.063 18.494 100.619 17.714C100.187 16.934 99.9714 16.034 99.9714 15.014C99.9714 13.994 100.193 13.094 100.637 12.314C101.093 11.534 101.711 10.934 102.491 10.514C103.271 10.082 104.141 9.866 105.101 9.866C106.061 9.866 106.931 10.082 107.711 10.514C108.491 10.934 109.103 11.534 109.547 12.314C110.003 13.094 110.231 13.994 110.231 15.014C110.231 16.034 109.997 16.934 109.529 17.714C109.073 18.494 108.449 19.1 107.657 19.532C106.877 19.952 106.001 20.162 105.029 20.162ZM105.029 17.966C105.485 17.966 105.911 17.858 106.307 17.642C106.715 17.414 107.039 17.078 107.279 16.634C107.519 16.19 107.639 15.65 107.639 15.014C107.639 14.066 107.387 13.34 106.883 12.836C106.391 12.32 105.785 12.062 105.065 12.062C104.345 12.062 103.739 12.32 103.247 12.836C102.767 13.34 102.527 14.066 102.527 15.014C102.527 15.962 102.761 16.694 103.229 17.21C103.709 17.714 104.309 17.966 105.029 17.966ZM117.984 20L114.6 15.752V20H112.08V6.68H114.6V14.258L117.948 10.028H121.224L116.832 15.032L121.26 20H117.984Z" fill="white"/>
<path d="M19.5312 2H2.34375C1.72215 2 1.12601 2.24693 0.686468 2.68647C0.24693 3.12601 0 3.72215 0 4.34375L0 21.5312C0 22.1529 0.24693 22.749 0.686468 23.1885C1.12601 23.6281 1.72215 23.875 2.34375 23.875H9.04541V16.438H5.96924V12.9375H9.04541V10.2695C9.04541 7.23486 10.8521 5.55859 13.6191 5.55859C14.9443 5.55859 16.3301 5.79492 16.3301 5.79492V8.77344H14.8032C13.2988 8.77344 12.8296 9.70703 12.8296 10.6646V12.9375H16.188L15.6509 16.438H12.8296V23.875H19.5312C20.1529 23.875 20.749 23.6281 21.1885 23.1885C21.6281 22.749 21.875 22.1529 21.875 21.5312V4.34375C21.875 3.72215 21.6281 3.12601 21.1885 2.68647C20.749 2.24693 20.1529 2 19.5312 2Z" fill="white"/>
</svg>
