<svg width="27" height="35" viewBox="0 0 27 35" fill="none" xmlns="http://www.w3.org/2000/svg">
<path d="M25.8047 0H20.4043C19.6729 0 19.3105 0.881836 19.8232 1.40137L20.9785 2.55664L15.4619 8.07324C13.9443 7.11621 12.1465 6.5625 10.2188 6.5625C4.78418 6.5625 0.375 10.9717 0.375 16.4062C0.375 21.0889 3.64941 25.0127 8.03125 26.0039V27.8906H5.57031C5.11914 27.8906 4.75 28.2598 4.75 28.7109V31.4453C4.75 31.8965 5.11914 32.2656 5.57031 32.2656H8.03125V34.1797C8.03125 34.6309 8.40039 35 8.85156 35H11.5859C12.0371 35 12.4062 34.6309 12.4062 34.1797V32.2656H14.8672C15.3184 32.2656 15.6875 31.8965 15.6875 31.4453V28.7109C15.6875 28.2598 15.3184 27.8906 14.8672 27.8906H12.4062V26.0039C16.7881 25.0059 20.0625 21.0889 20.0625 16.4062C20.0625 14.4785 19.5088 12.6807 18.5518 11.1631L24.0684 5.64648L25.2236 6.80176C25.7432 7.32129 26.625 6.95215 26.625 6.2207V0.820312C26.625 0.369141 26.2559 0 25.8047 0ZM10.2188 21.875C7.2041 21.875 4.75 19.4209 4.75 16.4062C4.75 13.3916 7.2041 10.9375 10.2188 10.9375C13.2334 10.9375 15.6875 13.3916 15.6875 16.4062C15.6875 19.4209 13.2334 21.875 10.2188 21.875Z" fill="#0077B6"/>
</svg>
