<svg width="424" height="413" viewBox="0 0 424 413" fill="none" xmlns="http://www.w3.org/2000/svg">
<g clip-path="url(#clip0_142_2683)">
<path d="M270.433 92.5797H247.873V284.841C247.873 287.858 247.279 290.845 246.124 293.632C244.969 296.418 243.277 298.951 241.143 301.084C239.009 303.217 236.476 304.909 233.688 306.063C230.9 307.217 227.912 307.812 224.894 307.812H52.4131V308.031C52.4131 311.048 53.0074 314.035 54.1623 316.822C55.3171 319.609 57.0098 322.141 59.1436 324.274C61.2774 326.407 63.8107 328.099 66.5987 329.253C69.3867 330.408 72.3749 331.002 75.3926 331.002H270.433C273.451 331.002 276.439 330.408 279.227 329.253C282.015 328.099 284.548 326.407 286.682 324.274C288.816 322.141 290.509 319.609 291.664 316.822C292.819 314.035 293.413 311.048 293.413 308.031V115.55C293.413 109.458 290.992 103.615 286.682 99.3076C282.373 94.9998 276.528 92.5797 270.433 92.5797Z" fill="#F2F2F2"/>
<path d="M377.379 398.113C377.778 398.131 378.173 398.026 378.511 397.812C378.849 397.599 379.113 397.286 379.267 396.918C379.421 396.549 379.458 396.142 379.373 395.751C379.288 395.361 379.085 395.006 378.792 394.734L378.658 394.203C378.676 394.161 378.694 394.118 378.711 394.076C379.114 393.126 379.788 392.316 380.649 391.748C381.511 391.18 382.521 390.879 383.553 390.882C384.585 390.886 385.593 391.195 386.45 391.769C387.307 392.344 387.975 393.159 388.37 394.112C389.95 397.915 391.961 401.725 392.457 405.746C392.675 407.524 392.583 409.326 392.185 411.072C395.895 402.981 397.822 394.188 397.834 385.287C397.835 383.054 397.711 380.822 397.463 378.602C397.257 376.783 396.972 374.976 396.608 373.183C394.619 363.45 390.349 354.328 384.149 346.566C381.148 344.929 378.721 342.412 377.195 339.354C376.642 338.255 376.252 337.081 376.035 335.87C376.374 335.914 377.312 330.761 377.056 330.444C377.528 329.729 378.372 329.373 378.888 328.675C381.45 325.202 384.981 325.808 386.824 330.528C390.761 332.514 390.799 335.808 388.383 338.977C386.846 340.992 386.635 343.72 385.286 345.878C385.425 346.055 385.57 346.227 385.708 346.405C388.245 349.665 390.455 353.165 392.308 356.856C391.857 352.721 392.395 348.538 393.877 344.652C395.379 341.029 398.195 337.979 400.674 334.847C401.33 334.006 402.221 333.378 403.233 333.043C404.246 332.707 405.336 332.68 406.364 332.963C407.393 333.247 408.314 333.828 409.012 334.635C409.709 335.442 410.152 336.437 410.284 337.496C410.289 337.542 410.294 337.588 410.299 337.634C409.931 337.842 409.57 338.062 409.217 338.295C408.774 338.591 408.431 339.014 408.232 339.508C408.034 340.003 407.989 340.546 408.105 341.066C408.22 341.586 408.49 342.059 408.878 342.423C409.267 342.787 409.757 343.026 410.284 343.107L410.338 343.115C410.207 344.442 409.975 345.757 409.644 347.048C412.825 359.344 405.958 363.822 396.153 364.024C395.936 364.135 395.725 364.245 395.509 364.351C397.371 369.625 398.539 375.119 398.983 380.694C399.235 383.983 399.22 387.287 398.939 390.574L398.955 390.457C399.666 386.803 401.616 383.505 404.477 381.121C408.727 377.632 414.73 376.347 419.315 373.542C419.802 373.229 420.369 373.062 420.948 373.061C421.527 373.059 422.094 373.224 422.583 373.534C423.071 373.844 423.461 374.288 423.706 374.812C423.951 375.337 424.04 375.92 423.964 376.494L423.946 376.616C423.262 376.895 422.597 377.215 421.953 377.576C421.585 377.784 421.225 378.004 420.872 378.237C420.429 378.533 420.085 378.956 419.887 379.451C419.688 379.945 419.644 380.488 419.759 381.008C419.874 381.528 420.144 382.001 420.533 382.365C420.922 382.729 421.412 382.968 421.938 383.049L421.992 383.057C422.031 383.063 422.064 383.068 422.103 383.074C420.935 385.861 419.297 388.426 417.258 390.657C415.269 401.391 406.727 402.409 397.59 399.284H397.585C396.582 403.638 395.129 407.877 393.25 411.932H377.767C377.711 411.76 377.661 411.582 377.611 411.41C379.044 411.5 380.483 411.415 381.896 411.155C380.747 409.746 379.598 408.326 378.449 406.917C378.424 406.891 378.4 406.863 378.377 406.834C377.794 406.113 377.206 405.397 376.623 404.676L376.623 404.675C376.592 402.464 376.846 400.259 377.378 398.113L377.379 398.113Z" fill="#F2F2F2"/>
<path d="M206.839 66.4268C207.404 67.2829 208.149 68.0061 209.021 68.5463C209.894 69.0865 210.873 69.4308 211.892 69.5554C212.91 69.68 213.944 69.582 214.921 69.2681C215.898 68.9542 216.795 68.4318 217.55 67.7373L249.741 82.255L255.948 74.3417L217.587 57.3782C216.323 56.1945 214.669 55.5155 212.937 55.4698C211.206 55.4241 209.517 56.0149 208.193 57.1302C206.868 58.2456 205.998 59.808 205.749 61.5214C205.499 63.2348 205.887 64.9802 206.839 66.4268H206.839Z" fill="#A0616A"/>
<path d="M344.99 75.4794L348.183 93.5646C348.332 94.4084 348.303 95.2739 348.097 96.1057C347.892 96.9375 347.514 97.7171 346.99 98.3946C346.465 99.072 345.804 99.6323 345.05 100.039C344.296 100.447 343.465 100.692 342.611 100.759L288.36 105.023L224.59 76.4946L232.206 62.0417L287.564 79.5651L344.99 75.4794Z" fill="#00B4D8"/>
<path d="M218.02 62.5182H22.9795C10.2883 62.5182 0 72.8024 0 85.4887V277.97C0 290.656 10.2883 300.94 22.9795 300.94H218.02C230.712 300.94 241 290.656 241 277.97V85.4887C241 72.8024 230.712 62.5182 218.02 62.5182Z" fill="#F2F2F2"/>
<path d="M22.9793 67.2421C20.5822 67.2421 18.2086 67.714 15.9939 68.631C13.7793 69.548 11.767 70.892 10.072 72.5864C8.37696 74.2807 7.03239 76.2922 6.11505 78.506C5.19772 80.7197 4.72558 83.0925 4.72559 85.4886V277.97C4.72559 282.809 6.64874 287.45 10.072 290.872C13.4952 294.294 18.1381 296.217 22.9793 296.217H147.459C159.122 296.217 170.671 293.92 181.447 289.459C192.222 284.997 202.013 278.458 210.26 270.214C218.508 261.97 225.05 252.183 229.513 241.412C233.976 230.64 236.274 219.096 236.274 207.437V85.4886C236.274 83.0925 235.801 80.7197 234.884 78.506C233.967 76.2922 232.622 74.2807 230.927 72.5864C229.232 70.892 227.22 69.548 225.005 68.631C222.791 67.714 220.417 67.2421 218.02 67.2421H22.9793Z" fill="white"/>
<path d="M175.023 125.657H65.5502C64.5457 125.657 63.5823 125.258 62.872 124.548C62.1617 123.838 61.7627 122.875 61.7627 121.871C61.7627 120.867 62.1617 119.904 62.872 119.194C63.5823 118.484 64.5457 118.085 65.5502 118.085H175.023C176.027 118.085 176.99 118.484 177.701 119.194C178.411 119.904 178.81 120.867 178.81 121.871C178.81 122.875 178.411 123.838 177.701 124.548C176.99 125.258 176.027 125.657 175.023 125.657Z" fill="#F2F2F2"/>
<path d="M175.023 206.393H65.5502C64.5457 206.393 63.5823 205.994 62.872 205.284C62.1617 204.574 61.7627 203.611 61.7627 202.607C61.7627 201.603 62.1617 200.64 62.872 199.93C63.5823 199.22 64.5457 198.821 65.5502 198.821H175.023C176.027 198.821 176.99 199.22 177.701 199.93C178.411 200.64 178.81 201.603 178.81 202.607C178.81 203.611 178.411 204.574 177.701 205.284C176.99 205.994 176.027 206.393 175.023 206.393Z" fill="#F2F2F2"/>
<path d="M219.477 166.052H21.0961C20.0916 166.052 19.1282 165.653 18.4179 164.943C17.7076 164.233 17.3086 163.27 17.3086 162.266C17.3086 161.261 17.7076 160.298 18.4179 159.588C19.1282 158.878 20.0916 158.479 21.0961 158.479H219.477C220.482 158.479 221.445 158.878 222.155 159.588C222.866 160.298 223.265 161.261 223.265 162.266C223.265 163.27 222.866 164.233 222.155 164.943C221.445 165.653 220.482 166.052 219.477 166.052Z" fill="#F2F2F2"/>
<path d="M338.136 155.192L318.374 197.278L394.397 189.581L378.527 149.18L338.136 155.192Z" fill="#A0616A"/>
<path d="M355.811 397.086L348.602 397.025L345.412 368.586L356.049 368.676L355.811 397.086Z" fill="#A0616A"/>
<path d="M332.723 408.543C332.716 409.397 333.049 410.219 333.648 410.828C334.247 411.437 335.063 411.784 335.918 411.793L350.249 411.912L352.757 406.829L353.679 411.938L359.086 411.987L357.721 393.764L355.839 393.639L348.166 393.11L345.69 392.944L345.647 398.1L334.135 405.906C333.704 406.198 333.35 406.591 333.104 407.05C332.858 407.51 332.727 408.022 332.723 408.543Z" fill="#2F2E41"/>
<path d="M276.044 397.119L269.172 394.943L274.481 366.823L284.624 370.033L276.044 397.119Z" fill="#A0616A"/>
<path d="M250.608 401.289C250.35 402.104 250.427 402.987 250.82 403.745C251.214 404.503 251.892 405.075 252.706 405.334L266.37 409.657L270.262 405.535L269.641 410.689L274.795 412.324L278.846 394.504L277.085 393.832L269.905 391.073L267.588 390.188L266.031 395.103L252.733 399.183C252.234 399.336 251.781 399.608 251.411 399.974C251.04 400.341 250.765 400.793 250.608 401.289Z" fill="#2F2E41"/>
<path d="M390.934 177.746L321.811 190.407C321.811 190.407 310.724 198.697 313.69 201.666C316.656 204.635 317.116 204.175 315.167 206.123C313.219 208.07 309.006 210.674 308.964 212.378C308.923 214.083 277.99 290.525 277.99 290.525C277.99 290.525 281.427 288.807 278.849 291.384C276.272 293.96 276.272 296.089 276.272 296.089L264.242 377.273L283.778 378.423L302.908 304.409L345.577 235.264C345.577 235.264 349.811 296.924 349.988 301.025C350.166 305.126 352.744 299.973 350.166 305.126C347.588 310.279 345.87 306.844 347.588 310.279C349.307 313.715 341.398 383.659 341.398 383.659H359.229L397.474 238.684C397.474 238.684 411.081 197.238 390.934 177.746Z" fill="#2F2E41"/>
<path d="M370.571 61.7845L342.882 58.9086L335.709 68.2185L327.352 72.6678C323.815 74.5506 320.896 77.4119 318.943 80.9095C316.991 84.4071 316.087 88.3928 316.341 92.3901L326.107 149.18C326.107 149.18 317.858 167.748 323.529 172.37C329.201 176.992 319.144 188.437 331.263 182.677C343.381 176.916 395.705 183.536 395.705 183.536L384.535 151.756L392.88 120.529L393.798 94.3451C393.97 89.4523 392.517 84.6401 389.667 80.6587C386.816 76.6774 382.729 73.7505 378.04 72.3342L376.873 71.9818L370.571 61.7845Z" fill="#00B4D8"/>
<path d="M408.691 40.5659C408.872 48.3673 405.956 55.9213 401.765 62.5563C400.521 58.6829 398.282 55.1576 395.948 51.797C397.125 59.0669 395.872 66.5218 392.382 73.008C392.259 73.0959 392.132 73.1776 392.001 73.2527C388.585 75.3063 384.255 76.1381 380.561 74.6549C388.195 66.4294 389.166 52.8011 382.766 43.575C380.954 40.9571 378.611 38.6417 377.488 35.6625C375.716 30.9089 377.42 25.6751 378.494 20.719C379.499 16.1063 379.675 10.6172 376.579 7.23673C376.91 6.76432 377.36 6.38827 377.884 6.14713C378.408 5.90599 378.987 5.80843 379.561 5.86444C381.469 6.13395 382.859 7.79237 383.744 9.50044C384.629 11.2085 385.212 13.1015 386.445 14.5768C388.729 17.3382 392.618 17.991 395.896 19.4463C403.833 22.9804 408.501 31.8851 408.691 40.5659Z" fill="#2F2E41"/>
<path d="M204.198 411.978C204.198 412.112 204.224 412.245 204.275 412.37C204.326 412.494 204.402 412.607 204.497 412.702C204.592 412.796 204.705 412.872 204.829 412.923C204.953 412.974 205.086 413 205.221 413H422.857C423.128 413 423.388 412.892 423.58 412.701C423.772 412.509 423.879 412.249 423.879 411.978C423.879 411.707 423.772 411.447 423.58 411.255C423.388 411.063 423.128 410.956 422.857 410.956H205.221C205.086 410.955 204.953 410.982 204.829 411.033C204.705 411.084 204.592 411.159 204.497 411.254C204.402 411.349 204.327 411.462 204.275 411.586C204.224 411.71 204.198 411.844 204.198 411.978Z" fill="#CCCCCC"/>
<path d="M410.405 221.379C414.676 221.379 418.138 217.918 418.138 213.649C418.138 209.38 414.676 205.919 410.405 205.919C406.134 205.919 402.672 209.38 402.672 213.649C402.672 217.918 406.134 221.379 410.405 221.379Z" fill="#00B4D8"/>
<path d="M341.878 36.1054C342.332 34.5185 339.205 44.2189 340.714 44.394C347.585 45.1819 357.017 49.2838 361.803 51.1975C362.018 51.1724 362.234 51.1474 362.443 51.1162C362.956 51.0599 363.457 50.9786 363.951 50.8848C375.095 48.7773 379.38 31.6668 379.38 31.5105C379.38 30.7413 377.533 9.61461 374.623 9.30197C373.859 9.21908 373.091 9.17733 372.323 9.17688H365.103C363.609 8.85509 362.095 8.6357 360.571 8.52025H360.558C346.024 7.41332 334.564 16.2686 335.635 27.0438C335.642 27.0563 335.654 27.0688 335.661 27.0813C335.971 27.5441 336.244 27.9819 336.485 28.4009C336.719 28.7948 336.916 29.17 337.087 29.5265C338.411 32.2782 335.006 35.7406 337.264 36.3869C340.267 37.2464 329.366 65.498 341.253 65.498C335.471 67.1413 340.627 40.483 341.878 36.1054Z" fill="#2F2E41"/>
<path d="M354.853 52.6823C364.293 52.6823 371.946 45.0324 371.946 35.5957C371.946 26.1591 364.293 18.5092 354.853 18.5092C345.413 18.5092 337.76 26.1591 337.76 35.5957C337.76 45.0324 345.413 52.6823 354.853 52.6823Z" fill="#A0616A"/>
<path d="M335.636 27.9756C335.921 28.1256 336.2 28.2632 336.485 28.4008C336.783 28.5446 337.081 28.6885 337.379 28.8198C343.103 31.4151 347.761 31.7028 350.588 27.9756C350.664 26.0144 351.105 24.0845 351.888 22.2846C351.749 24.296 352.28 26.2966 353.396 27.9756H359.088C364.951 31.8654 367.962 32.2719 363.893 45.042C362.758 48.6003 358.247 69.3065 360.022 72.3771C360.535 72.3208 365.997 49.6412 366.492 49.5474C377.635 47.4399 384.715 29.0887 383.809 28.0506C383.813 25.0985 383.134 22.1854 381.825 19.5393C380.168 16.1868 377.586 13.3787 374.383 11.4469C372.474 10.5217 370.484 9.7743 368.438 9.21436C368.387 9.20183 368.343 9.18931 368.292 9.17683C367.664 9.00797 367.024 8.85163 366.384 8.72029C365.061 8.44115 363.724 8.23861 362.378 8.11369C362.283 8.10743 362.188 8.10117 362.099 8.10117C361.562 8.10242 361.034 8.24708 360.572 8.5202C360.565 8.5202 360.565 8.52642 360.559 8.52642C360.228 8.7196 359.939 8.97686 359.709 9.28311C359.305 9.7984 359.086 10.4353 359.088 11.0904H352.75C352.515 11.0904 352.281 11.0967 352.046 11.1092C347.816 11.2537 343.792 12.971 340.761 15.9251C337.731 18.8792 335.912 22.8575 335.661 27.0813C335.642 27.3814 335.636 27.6754 335.636 27.9756Z" fill="#2F2E41"/>
<path d="M373.009 22.5134C379.229 22.5134 384.27 17.4736 384.27 11.2567C384.27 5.03981 379.229 0 373.009 0C366.79 0 361.748 5.03981 361.748 11.2567C361.748 17.4736 366.79 22.5134 373.009 22.5134Z" fill="#2F2E41"/>
<path d="M410.491 216.837C411.041 215.97 411.395 214.995 411.531 213.978C411.666 212.961 411.579 211.927 411.275 210.947C410.972 209.968 410.459 209.065 409.772 208.303C409.085 207.541 408.241 206.937 407.297 206.533L407.353 171.231L397.589 168.815L397.829 210.744C397.267 212.382 397.326 214.169 397.993 215.767C398.661 217.364 399.892 218.661 401.453 219.412C403.014 220.163 404.796 220.316 406.462 219.841C408.127 219.366 409.561 218.297 410.491 216.837V216.837Z" fill="#A0616A"/>
<path d="M362.137 87.1586L377.332 76.836C378.041 76.3544 378.842 76.0264 379.686 75.8728C380.529 75.7193 381.395 75.7437 382.228 75.9446C383.061 76.1454 383.843 76.5181 384.524 77.0389C385.205 77.5597 385.769 78.2169 386.18 78.9685L412.304 126.688L412.404 196.525L396.094 195.503L389.399 137.846L362.137 87.1586Z" fill="#00B4D8"/>
<path d="M245.438 245.54H83.0418C79.5096 245.54 76.1221 246.943 73.6244 249.439C71.1268 251.936 69.7236 255.322 69.7236 258.853C69.7236 262.384 71.1268 265.77 73.6244 268.267C76.1221 270.763 79.5096 272.166 83.0418 272.166H245.438C248.97 272.166 252.357 270.763 254.855 268.267C257.353 265.77 258.756 262.384 258.756 258.853C258.756 255.322 257.353 251.936 254.855 249.439C252.357 246.943 248.97 245.54 245.438 245.54Z" fill="white"/>
<path d="M245.437 273.025H83.0417C79.2816 273.025 75.6755 271.532 73.0167 268.874C70.3579 266.216 68.8643 262.611 68.8643 258.853C68.8643 255.094 70.3579 251.49 73.0167 248.832C75.6755 246.174 79.2816 244.681 83.0417 244.681H245.437C249.197 244.681 252.804 246.174 255.462 248.832C258.121 251.49 259.615 255.094 259.615 258.853C259.615 262.611 258.121 266.216 255.462 268.874C252.804 271.532 249.197 273.025 245.437 273.025ZM83.0417 246.399C79.7374 246.399 76.5684 247.711 74.2319 250.047C71.8954 252.382 70.5827 255.55 70.5827 258.853C70.5827 262.156 71.8954 265.324 74.2319 267.659C76.5684 269.995 79.7374 271.307 83.0417 271.307H245.437C248.742 271.307 251.911 269.995 254.247 267.659C256.584 265.324 257.896 262.156 257.896 258.853C257.896 255.55 256.584 252.382 254.247 250.047C251.911 247.711 248.742 246.399 245.437 246.399H83.0417Z" fill="#00B4D8"/>
<path d="M255.013 303.638H183.347C182.343 303.638 181.379 303.239 180.669 302.529C179.959 301.819 179.56 300.856 179.56 299.852C179.56 298.848 179.959 297.885 180.669 297.175C181.379 296.465 182.343 296.066 183.347 296.066H255.013C256.017 296.066 256.981 296.465 257.691 297.175C258.401 297.885 258.8 298.848 258.8 299.852C258.8 300.856 258.401 301.819 257.691 302.529C256.981 303.239 256.017 303.638 255.013 303.638Z" fill="#00B4D8"/>
</g>
<defs>
<clipPath id="clip0_142_2683">
<rect width="424" height="413" fill="white"/>
</clipPath>
</defs>
</svg>
