<svg width="77" height="11" viewBox="0 0 77 11" fill="none" xmlns="http://www.w3.org/2000/svg">
<path d="M6.228 1.576V3.22H2.796V4.996H5.364V6.592H2.796V10H0.744V1.576H6.228ZM10.3545 10.096C9.6985 10.096 9.1065 9.956 8.5785 9.676C8.0585 9.396 7.6465 8.996 7.3425 8.476C7.0465 7.956 6.8985 7.348 6.8985 6.652C6.8985 5.964 7.0505 5.36 7.3545 4.84C7.6585 4.312 8.0745 3.908 8.6025 3.628C9.1305 3.348 9.7225 3.208 10.3785 3.208C11.0345 3.208 11.6265 3.348 12.1545 3.628C12.6825 3.908 13.0985 4.312 13.4025 4.84C13.7065 5.36 13.8585 5.964 13.8585 6.652C13.8585 7.34 13.7025 7.948 13.3905 8.476C13.0865 8.996 12.6665 9.396 12.1305 9.676C11.6025 9.956 11.0105 10.096 10.3545 10.096ZM10.3545 8.32C10.7465 8.32 11.0785 8.176 11.3505 7.888C11.6305 7.6 11.7705 7.188 11.7705 6.652C11.7705 6.116 11.6345 5.704 11.3625 5.416C11.0985 5.128 10.7705 4.984 10.3785 4.984C9.9785 4.984 9.6465 5.128 9.3825 5.416C9.1185 5.696 8.9865 6.108 8.9865 6.652C8.9865 7.188 9.1145 7.6 9.3705 7.888C9.6345 8.176 9.9625 8.32 10.3545 8.32ZM16.9991 4.42C17.2391 4.052 17.5391 3.764 17.8991 3.556C18.2591 3.34 18.6591 3.232 19.0991 3.232V5.404H18.5351C18.0231 5.404 17.6391 5.516 17.3831 5.74C17.1271 5.956 16.9991 6.34 16.9991 6.892V10H14.9471V3.304H16.9991V4.42ZM27.7229 5.68C28.2109 5.784 28.6029 6.028 28.8989 6.412C29.1949 6.788 29.3429 7.22 29.3429 7.708C29.3429 8.412 29.0949 8.972 28.5989 9.388C28.1109 9.796 27.4269 10 26.5469 10H22.6229V1.576H26.4149C27.2709 1.576 27.9389 1.772 28.4189 2.164C28.9069 2.556 29.1509 3.088 29.1509 3.76C29.1509 4.256 29.0189 4.668 28.7549 4.996C28.4989 5.324 28.1549 5.552 27.7229 5.68ZM24.6749 4.984H26.0189C26.3549 4.984 26.6109 4.912 26.7869 4.768C26.9709 4.616 27.0629 4.396 27.0629 4.108C27.0629 3.82 26.9709 3.6 26.7869 3.448C26.6109 3.296 26.3549 3.22 26.0189 3.22H24.6749V4.984ZM26.1869 8.344C26.5309 8.344 26.7949 8.268 26.9789 8.116C27.1709 7.956 27.2669 7.728 27.2669 7.432C27.2669 7.136 27.1669 6.904 26.9669 6.736C26.7749 6.568 26.5069 6.484 26.1629 6.484H24.6749V8.344H26.1869ZM37.1451 3.304V10H35.0931V9.088C34.8851 9.384 34.6011 9.624 34.2411 9.808C33.8891 9.984 33.4971 10.072 33.0651 10.072C32.5531 10.072 32.1011 9.96 31.7091 9.736C31.3171 9.504 31.0131 9.172 30.7971 8.74C30.5811 8.308 30.4731 7.8 30.4731 7.216V3.304H32.5131V6.94C32.5131 7.388 32.6291 7.736 32.8611 7.984C33.0931 8.232 33.4051 8.356 33.7971 8.356C34.1971 8.356 34.5131 8.232 34.7451 7.984C34.9771 7.736 35.0931 7.388 35.0931 6.94V3.304H37.1451ZM41.343 10.096C40.759 10.096 40.239 9.996 39.783 9.796C39.327 9.596 38.967 9.324 38.703 8.98C38.439 8.628 38.291 8.236 38.259 7.804H40.287C40.311 8.036 40.419 8.224 40.611 8.368C40.803 8.512 41.039 8.584 41.319 8.584C41.575 8.584 41.771 8.536 41.907 8.44C42.051 8.336 42.123 8.204 42.123 8.044C42.123 7.852 42.023 7.712 41.823 7.624C41.623 7.528 41.299 7.424 40.851 7.312C40.371 7.2 39.971 7.084 39.651 6.964C39.331 6.836 39.055 6.64 38.823 6.376C38.591 6.104 38.475 5.74 38.475 5.284C38.475 4.9 38.579 4.552 38.787 4.24C39.003 3.92 39.315 3.668 39.723 3.484C40.139 3.3 40.631 3.208 41.199 3.208C42.039 3.208 42.699 3.416 43.179 3.832C43.667 4.248 43.947 4.8 44.019 5.488H42.123C42.091 5.256 41.987 5.072 41.811 4.936C41.643 4.8 41.419 4.732 41.139 4.732C40.899 4.732 40.715 4.78 40.587 4.876C40.459 4.964 40.395 5.088 40.395 5.248C40.395 5.44 40.495 5.584 40.695 5.68C40.903 5.776 41.223 5.872 41.655 5.968C42.151 6.096 42.555 6.224 42.867 6.352C43.179 6.472 43.451 6.672 43.683 6.952C43.923 7.224 44.047 7.592 44.055 8.056C44.055 8.448 43.943 8.8 43.719 9.112C43.503 9.416 43.187 9.656 42.771 9.832C42.363 10.008 41.887 10.096 41.343 10.096ZM46.3424 2.608C45.9824 2.608 45.6864 2.504 45.4544 2.296C45.2304 2.08 45.1184 1.816 45.1184 1.504C45.1184 1.184 45.2304 0.92 45.4544 0.711999C45.6864 0.495999 45.9824 0.387999 46.3424 0.387999C46.6944 0.387999 46.9824 0.495999 47.2064 0.711999C47.4384 0.92 47.5544 1.184 47.5544 1.504C47.5544 1.816 47.4384 2.08 47.2064 2.296C46.9824 2.504 46.6944 2.608 46.3424 2.608ZM47.3624 3.304V10H45.3104V3.304H47.3624ZM52.9295 3.232C53.7135 3.232 54.3375 3.488 54.8015 4C55.2735 4.504 55.5095 5.2 55.5095 6.088V10H53.4695V6.364C53.4695 5.916 53.3535 5.568 53.1215 5.32C52.8895 5.072 52.5775 4.948 52.1855 4.948C51.7935 4.948 51.4815 5.072 51.2495 5.32C51.0175 5.568 50.9015 5.916 50.9015 6.364V10H48.8495V3.304H50.9015V4.192C51.1095 3.896 51.3895 3.664 51.7415 3.496C52.0935 3.32 52.4895 3.232 52.9295 3.232ZM63.2474 6.544C63.2474 6.736 63.2354 6.936 63.2114 7.144H58.5674C58.5994 7.56 58.7314 7.88 58.9634 8.104C59.2034 8.32 59.4954 8.428 59.8394 8.428C60.3514 8.428 60.7074 8.212 60.9074 7.78H63.0914C62.9794 8.22 62.7754 8.616 62.4794 8.968C62.1914 9.32 61.8274 9.596 61.3874 9.796C60.9474 9.996 60.4554 10.096 59.9114 10.096C59.2554 10.096 58.6714 9.956 58.1594 9.676C57.6474 9.396 57.2474 8.996 56.9594 8.476C56.6714 7.956 56.5274 7.348 56.5274 6.652C56.5274 5.956 56.6674 5.348 56.9474 4.828C57.2354 4.308 57.6354 3.908 58.1474 3.628C58.6594 3.348 59.2474 3.208 59.9114 3.208C60.5594 3.208 61.1354 3.344 61.6394 3.616C62.1434 3.888 62.5354 4.276 62.8154 4.78C63.1034 5.284 63.2474 5.872 63.2474 6.544ZM61.1474 6.004C61.1474 5.652 61.0274 5.372 60.7874 5.164C60.5474 4.956 60.2474 4.852 59.8874 4.852C59.5434 4.852 59.2514 4.952 59.0114 5.152C58.7794 5.352 58.6354 5.636 58.5794 6.004H61.1474ZM67.0539 10.096C66.4699 10.096 65.9499 9.996 65.4939 9.796C65.0379 9.596 64.6779 9.324 64.4139 8.98C64.1499 8.628 64.0019 8.236 63.9699 7.804H65.9979C66.0219 8.036 66.1299 8.224 66.3219 8.368C66.5139 8.512 66.7499 8.584 67.0299 8.584C67.2859 8.584 67.4819 8.536 67.6179 8.44C67.7619 8.336 67.8339 8.204 67.8339 8.044C67.8339 7.852 67.7339 7.712 67.5339 7.624C67.3339 7.528 67.0099 7.424 66.5619 7.312C66.0819 7.2 65.6819 7.084 65.3619 6.964C65.0419 6.836 64.7659 6.64 64.5339 6.376C64.3019 6.104 64.1859 5.74 64.1859 5.284C64.1859 4.9 64.2899 4.552 64.4979 4.24C64.7139 3.92 65.0259 3.668 65.4339 3.484C65.8499 3.3 66.3419 3.208 66.9099 3.208C67.7499 3.208 68.4099 3.416 68.8899 3.832C69.3779 4.248 69.6579 4.8 69.7299 5.488H67.8339C67.8019 5.256 67.6979 5.072 67.5219 4.936C67.3539 4.8 67.1299 4.732 66.8499 4.732C66.6099 4.732 66.4259 4.78 66.2979 4.876C66.1699 4.964 66.1059 5.088 66.1059 5.248C66.1059 5.44 66.2059 5.584 66.4059 5.68C66.6139 5.776 66.9339 5.872 67.3659 5.968C67.8619 6.096 68.2659 6.224 68.5779 6.352C68.8899 6.472 69.1619 6.672 69.3939 6.952C69.6339 7.224 69.7579 7.592 69.7659 8.056C69.7659 8.448 69.6539 8.8 69.4299 9.112C69.2139 9.416 68.8979 9.656 68.4819 9.832C68.0739 10.008 67.5979 10.096 67.0539 10.096ZM73.7453 10.096C73.1613 10.096 72.6413 9.996 72.1853 9.796C71.7293 9.596 71.3693 9.324 71.1053 8.98C70.8413 8.628 70.6933 8.236 70.6613 7.804H72.6893C72.7133 8.036 72.8213 8.224 73.0133 8.368C73.2053 8.512 73.4413 8.584 73.7213 8.584C73.9773 8.584 74.1733 8.536 74.3093 8.44C74.4533 8.336 74.5253 8.204 74.5253 8.044C74.5253 7.852 74.4253 7.712 74.2253 7.624C74.0253 7.528 73.7013 7.424 73.2533 7.312C72.7733 7.2 72.3733 7.084 72.0533 6.964C71.7333 6.836 71.4573 6.64 71.2253 6.376C70.9933 6.104 70.8773 5.74 70.8773 5.284C70.8773 4.9 70.9813 4.552 71.1893 4.24C71.4053 3.92 71.7173 3.668 72.1253 3.484C72.5413 3.3 73.0333 3.208 73.6013 3.208C74.4413 3.208 75.1013 3.416 75.5813 3.832C76.0693 4.248 76.3493 4.8 76.4213 5.488H74.5253C74.4933 5.256 74.3893 5.072 74.2133 4.936C74.0453 4.8 73.8213 4.732 73.5413 4.732C73.3013 4.732 73.1173 4.78 72.9893 4.876C72.8613 4.964 72.7973 5.088 72.7973 5.248C72.7973 5.44 72.8973 5.584 73.0973 5.68C73.3053 5.776 73.6253 5.872 74.0573 5.968C74.5533 6.096 74.9573 6.224 75.2693 6.352C75.5813 6.472 75.8533 6.672 76.0853 6.952C76.3253 7.224 76.4493 7.592 76.4573 8.056C76.4573 8.448 76.3453 8.8 76.1213 9.112C75.9053 9.416 75.5893 9.656 75.1733 9.832C74.7653 10.008 74.2893 10.096 73.7453 10.096Z" fill="#023E8A"/>
</svg>
