<svg width="19" height="25" viewBox="0 0 19 25" fill="none" xmlns="http://www.w3.org/2000/svg">
<path d="M11.0625 6.64062V0H1.29688C0.647461 0 0.125 0.522461 0.125 1.17188V23.8281C0.125 24.4775 0.647461 25 1.29688 25H17.7031C18.3525 25 18.875 24.4775 18.875 23.8281V7.8125H12.2344C11.5898 7.8125 11.0625 7.28516 11.0625 6.64062ZM14.1875 18.1641C14.1875 18.4863 13.9238 18.75 13.6016 18.75H5.39844C5.07617 18.75 4.8125 18.4863 4.8125 18.1641V17.7734C4.8125 17.4512 5.07617 17.1875 5.39844 17.1875H13.6016C13.9238 17.1875 14.1875 17.4512 14.1875 17.7734V18.1641ZM14.1875 15.0391C14.1875 15.3613 13.9238 15.625 13.6016 15.625H5.39844C5.07617 15.625 4.8125 15.3613 4.8125 15.0391V14.6484C4.8125 14.3262 5.07617 14.0625 5.39844 14.0625H13.6016C13.9238 14.0625 14.1875 14.3262 14.1875 14.6484V15.0391ZM14.1875 11.5234V11.9141C14.1875 12.2363 13.9238 12.5 13.6016 12.5H5.39844C5.07617 12.5 4.8125 12.2363 4.8125 11.9141V11.5234C4.8125 11.2012 5.07617 10.9375 5.39844 10.9375H13.6016C13.9238 10.9375 14.1875 11.2012 14.1875 11.5234ZM18.875 5.95215V6.25H12.625V0H12.9229C13.2354 0 13.5332 0.12207 13.7529 0.341797L18.5332 5.12695C18.7529 5.34668 18.875 5.64453 18.875 5.95215Z" fill="#00B4D8"/>
</svg>
