<svg width="502" height="333" viewBox="0 0 502 333" fill="none" xmlns="http://www.w3.org/2000/svg">
<g clip-path="url(#clip0_142_2712)">
<path d="M180.068 191.644C197.272 161.437 230.088 138.243 264.826 140.477C239.202 168.291 224.26 204.256 222.644 242.008C222.073 256.569 222.958 272.825 213.272 283.728C207.245 290.513 198.033 293.799 188.975 294.488C179.917 295.177 170.861 293.544 161.924 291.917L159.756 292.581C158.93 257.844 162.864 221.852 180.068 191.644Z" fill="#F0F0F0"/>
<path d="M264.878 141.204C239.189 153.548 217.284 174.164 203.838 199.306C200.931 204.742 198.456 210.509 197.376 216.606C196.296 222.706 197.05 228.512 199.138 234.306C201.046 239.602 203.612 244.8 204.198 250.467C204.814 256.441 202.612 262.026 198.649 266.459C193.799 271.883 187.286 275.244 180.802 278.31C173.604 281.714 166.072 285.135 160.974 291.488C160.356 292.258 159.195 291.256 159.812 290.488C168.683 279.435 183.868 277.357 194.398 268.453C199.311 264.298 203 258.64 202.767 252.011C202.564 246.213 199.922 240.852 197.943 235.506C195.866 229.892 194.83 224.248 195.575 218.263C196.337 212.141 198.591 206.265 201.346 200.779C207.56 188.407 216.063 177.048 225.804 167.229C237 155.942 250.047 146.65 264.381 139.755C265.268 139.329 265.759 140.781 264.878 141.204Z" fill="white"/>
<path d="M207.777 190.904C203.839 188.029 201.053 183.851 199.916 179.116C198.779 174.38 199.366 169.395 201.571 165.052C202.02 164.174 203.407 164.83 202.957 165.708C200.896 169.75 200.35 174.393 201.418 178.801C202.486 183.208 205.097 187.09 208.78 189.744C209.58 190.322 208.573 191.478 207.777 190.904Z" fill="white"/>
<path d="M197.816 231.748C207.684 230.308 216.647 225.209 222.916 217.468C223.536 216.7 224.697 217.702 224.077 218.468C217.538 226.512 208.201 231.8 197.929 233.275C196.949 233.415 196.842 231.887 197.816 231.748V231.748Z" fill="white"/>
<path d="M237.757 157.827C239.049 159.256 240.676 160.342 242.492 160.989C244.308 161.635 246.257 161.821 248.163 161.53C249.14 161.377 249.246 162.906 248.275 163.057C246.168 163.369 244.016 163.161 242.008 162.451C240 161.742 238.196 160.552 236.755 158.986C236.607 158.85 236.516 158.662 236.501 158.462C236.486 158.261 236.549 158.062 236.675 157.906C236.809 157.753 236.997 157.659 237.2 157.644C237.403 157.629 237.603 157.695 237.757 157.827Z" fill="white"/>
<path d="M333.946 235.77C333.338 235.883 332.731 235.995 332.118 236.119C323.961 237.672 315.944 239.885 308.146 242.734C307.54 242.944 306.928 243.167 306.329 243.395C287.615 250.459 270.378 260.929 255.493 274.275C249.575 279.59 244.07 285.348 239.028 291.497C232.064 299.99 225.19 309.751 216.089 315.289C215.147 315.877 214.168 316.407 213.159 316.874L160.735 295.17C160.641 295.061 160.541 294.963 160.446 294.854L158.313 294.083C158.551 293.748 158.805 293.405 159.043 293.07C159.18 292.875 159.329 292.684 159.466 292.489C159.562 292.361 159.657 292.232 159.736 292.111C159.767 292.068 159.8 292.026 159.826 291.995C159.905 291.873 159.99 291.769 160.064 291.659C161.478 289.74 162.908 287.828 164.355 285.922C164.36 285.91 164.36 285.91 164.376 285.903C175.433 271.408 187.798 257.707 201.854 246.316C202.277 245.973 202.705 245.618 203.152 245.286C209.516 240.186 216.287 235.614 223.398 231.616C227.298 229.439 231.307 227.46 235.408 225.688C246.013 221.128 257.271 218.262 268.768 217.195C291.689 215.071 315.034 220.287 332.613 234.659C333.063 235.027 333.501 235.39 333.946 235.77Z" fill="#F0F0F0"/>
<path d="M333.552 236.386C305.596 230.804 275.671 234.1 249.77 246.094C244.17 248.687 238.715 251.804 234.176 256.024C229.634 260.245 226.734 265.335 224.906 271.215C223.235 276.591 222.149 282.283 219.198 287.159C216.087 292.3 210.96 295.436 205.121 296.593C197.977 298.009 190.75 296.779 183.724 295.33C175.923 293.722 167.846 291.928 159.943 293.937C158.985 294.18 158.663 292.683 159.619 292.44C173.369 288.945 186.746 296.412 200.525 295.631C206.954 295.266 213.312 292.966 217.125 287.532C220.459 282.781 221.584 276.913 223.228 271.455C224.956 265.724 227.533 260.595 231.738 256.264C236.039 251.834 241.383 248.497 246.892 245.773C259.316 239.628 272.957 235.669 286.657 233.683C302.404 231.399 318.426 231.821 334.03 234.93C334.996 235.123 334.512 236.577 333.552 236.386V236.386Z" fill="white"/>
<path d="M257.982 241.752C256.571 237.091 256.867 232.08 258.815 227.616C260.764 223.152 264.239 219.524 268.62 217.381C269.508 216.95 270.22 218.307 269.331 218.739C265.248 220.727 262.011 224.106 260.205 228.267C258.399 232.428 258.142 237.096 259.482 241.429C259.772 242.371 258.27 242.689 257.982 241.752Z" fill="white"/>
<path d="M225.393 268.378C234.14 273.159 244.372 274.474 254.047 272.06C255.005 271.82 255.328 273.317 254.371 273.557C244.298 276.05 233.653 274.66 224.562 269.665C223.695 269.188 224.532 267.904 225.393 268.378Z" fill="white"/>
<path d="M301.872 233.359C302.041 235.277 302.685 237.122 303.745 238.729C304.806 240.337 306.249 241.656 307.947 242.569C308.819 243.035 307.981 244.319 307.115 243.856C305.245 242.839 303.652 241.38 302.476 239.606C301.301 237.833 300.579 235.799 300.372 233.683C300.336 233.485 300.377 233.28 300.486 233.111C300.595 232.942 300.765 232.821 300.96 232.773C301.159 232.731 301.366 232.769 301.537 232.879C301.708 232.989 301.828 233.161 301.872 233.359Z" fill="white"/>
<path d="M234.082 271.579C226.74 236.145 217.562 224.332 217.562 224.332L214.056 221.618L209.84 218.349L209.861 217.928L208.861 217.589L208.626 217.407L208.241 217.112L208.179 217.178L208.048 217.314L188.969 210.84L164.764 202.634L153.556 188.092C151.731 185.724 149.381 183.809 146.69 182.499C143.999 181.189 141.041 180.519 138.048 180.541L102.252 180.806C97.4119 180.841 92.7604 182.683 89.2118 185.969L65.6838 207.752L29.0225 225.229L28.9607 225.168L28.5757 225.442L22.9112 228.146L23.145 229.36L19.639 231.885C19.639 231.885 10.4617 242.878 3.1198 275.848C1.25211 284.238 0.332767 302.234 0.000932524 324.41C-0.0157355 325.532 0.19119 326.646 0.609672 327.687C1.02815 328.728 1.64985 329.676 2.4386 330.475C3.22736 331.275 4.16743 331.909 5.20418 332.343C6.24092 332.776 7.35364 333 8.47764 333H204.292V333H228.733C229.856 332.999 230.968 332.776 232.004 332.343C233.04 331.91 233.979 331.276 234.768 330.478C235.557 329.68 236.179 328.733 236.598 327.693C237.017 326.653 237.225 325.54 237.209 324.419C236.885 300.288 235.966 280.677 234.082 271.579Z" fill="#3F3D56"/>
<path d="M259.205 30.9011C251.587 30.9011 244.281 33.9219 238.894 39.299C233.507 44.6761 230.48 51.9689 230.48 59.5732C230.48 67.1776 233.507 74.4704 238.894 79.8475C244.281 85.2246 251.587 88.2454 259.205 88.2454H473.275C480.893 88.2454 488.2 85.2246 493.587 79.8475C498.974 74.4704 502 67.1776 502 59.5732C502 51.9689 498.974 44.6761 493.587 39.299C488.2 33.9219 480.893 30.9011 473.275 30.9011H259.205Z" fill="#E5E5E5"/>
<path d="M259.206 36.7038C253.129 36.7038 247.301 39.1133 243.005 43.4021C238.708 47.691 236.294 53.5079 236.294 59.5733C236.294 65.6386 238.708 71.4555 243.005 75.7444C247.301 80.0332 253.129 82.4427 259.206 82.4427H473.275C479.352 82.4427 485.179 80.0332 489.476 75.7444C493.773 71.4555 496.187 65.6386 496.187 59.5733C496.187 53.5079 493.773 47.691 489.476 43.4021C485.179 39.1133 479.352 36.7038 473.275 36.7038H259.206Z" fill="white"/>
<path d="M125.771 167.118C151.671 167.118 172.667 146.161 172.667 120.309C172.667 94.4563 151.671 73.4989 125.771 73.4989C99.8711 73.4989 78.875 94.4563 78.875 120.309C78.875 146.161 99.8711 167.118 125.771 167.118Z" fill="#9E616A"/>
<path d="M113.774 164.826C113.574 164.386 113.374 163.944 113.175 163.501C113.252 163.503 113.328 163.514 113.404 163.516L113.774 164.826Z" fill="#2F2E41"/>
<path d="M77.5714 75.6276C79.9433 73.739 82.7154 72.0012 85.748 72.0989C88.7804 72.1965 91.8556 74.9303 91.2273 77.8932C96.7974 68.049 105.663 60.4777 116.269 56.5083C126.874 52.5388 138.542 52.4249 149.223 56.1864C156.76 58.8406 164.151 64.1507 165.882 71.9388C166.327 73.9381 166.422 76.1302 167.673 77.7537C169.25 79.8006 172.267 80.2636 174.751 79.5435C174.776 79.5363 174.8 79.529 174.825 79.5217C175.245 79.3786 175.698 79.3646 176.126 79.4813C176.553 79.598 176.936 79.8402 177.225 80.1765C177.513 80.5127 177.694 80.9276 177.743 81.3675C177.793 81.8074 177.709 82.252 177.503 82.6438L175.37 86.6137C178.058 87.2118 180.851 87.1525 183.512 86.4409C183.954 86.3252 184.421 86.3488 184.849 86.5085C185.277 86.6682 185.645 86.9561 185.902 87.3328C186.16 87.7095 186.294 88.1565 186.287 88.6125C186.28 89.0685 186.132 89.5111 185.863 89.8797C178.831 99.5164 167.083 105.739 155.094 105.666C146.573 105.614 137.965 102.683 129.672 104.639C126.464 105.396 123.466 106.859 120.899 108.923C118.332 110.987 116.26 113.599 114.835 116.566C113.411 119.533 112.67 122.781 112.668 126.072C112.665 129.362 113.4 132.611 114.82 135.581C112.272 132.8 107.347 133.458 104.742 136.185C102.136 138.912 101.461 142.983 101.724 146.742C102.125 152.492 104.382 157.91 106.762 163.184C86.8125 162.557 67.944 148.588 61.5929 129.696C55.2151 110.725 61.8992 88.1068 77.5714 75.6276Z" fill="#2F2E41"/>
<path opacity="0.2" d="M46.1582 260.881L59.3115 332.314L67.2037 333L46.1582 260.881Z" fill="black"/>
<path opacity="0.2" d="M191.044 255.494L177.89 332.262L169.998 333L191.044 255.494Z" fill="black"/>
<path d="M88.7893 51.587C86.2674 52.6382 83.6358 51.4862 82.5322 48.8481C81.4117 46.1696 82.4582 43.4506 85.0206 42.3826C87.5832 41.3145 90.1679 42.4693 91.3065 45.191C92.428 47.8718 91.3929 50.5019 88.7893 51.587ZM83.9584 37.1105L81.9531 37.9463C81.4522 38.1526 80.8919 38.1637 80.3831 37.9775C79.8744 37.7912 79.4542 37.4211 79.2057 36.9405L79.1065 36.7468C76.9489 32.8628 76.7018 28.1423 78.3761 22.7239C79.9271 17.8633 80.5713 14.4448 79.2758 11.3479C77.7779 7.76726 74.5793 6.64562 70.5004 8.27044C68.9184 8.92981 68.415 8.9193 67.1701 10.152C66.8993 10.4234 66.5765 10.6376 66.2209 10.7819C65.8654 10.9261 65.4844 10.9973 65.1007 10.9914C64.7298 10.987 64.3635 10.9082 64.0238 10.7595C63.684 10.6108 63.3777 10.3953 63.1232 10.1259C62.6329 9.60679 62.3581 8.92125 62.3545 8.20777C62.3509 7.49429 62.6187 6.80602 63.1038 6.28196C65.1963 4.09549 67.7202 2.36572 70.5162 1.20179C79.28 -2.45094 83.6918 2.94179 85.7106 7.76778C87.6853 12.4882 86.5745 16.8679 84.7897 22.54C83.2941 27.2533 83.3812 30.7457 85.0802 34.2183C85.2028 34.4808 85.2711 34.7653 85.2808 35.0549C85.2905 35.3444 85.2415 35.6329 85.1368 35.903C85.032 36.1731 84.8736 36.4193 84.6711 36.6268C84.4686 36.8343 84.2262 36.9989 83.9584 37.1105L83.9584 37.1105Z" fill="#00B4D8"/>
<path d="M306.491 73.2479H263.899C263.764 73.2488 263.63 73.223 263.504 73.172C263.379 73.1209 263.265 73.0457 263.169 72.9505C263.073 72.8553 262.997 72.7421 262.945 72.6174C262.893 72.4927 262.866 72.359 262.866 72.2239C262.866 72.0888 262.893 71.9551 262.945 71.8304C262.997 71.7057 263.073 71.5925 263.169 71.4974C263.265 71.4022 263.379 71.3269 263.504 71.2759C263.63 71.2248 263.764 71.199 263.899 71.1999H306.491C306.762 71.2018 307.021 71.3104 307.212 71.5023C307.403 71.6941 307.51 71.9535 307.51 72.2239C307.51 72.4943 307.403 72.7537 307.212 72.9455C307.021 73.1374 306.762 73.2461 306.491 73.2479Z" fill="#00B4D8"/>
<path d="M360.521 73.5892H317.929C317.794 73.5902 317.66 73.5644 317.535 73.5133C317.409 73.4623 317.295 73.387 317.199 73.2918C317.103 73.1966 317.027 73.0834 316.975 72.9587C316.923 72.834 316.896 72.7003 316.896 72.5652C316.896 72.4302 316.923 72.2964 316.975 72.1717C317.027 72.047 317.103 71.9338 317.199 71.8387C317.295 71.7435 317.409 71.6682 317.535 71.6172C317.66 71.5661 317.794 71.5403 317.929 71.5412H360.521C360.657 71.5403 360.791 71.5661 360.916 71.6172C361.041 71.6682 361.155 71.7435 361.251 71.8387C361.347 71.9338 361.423 72.047 361.475 72.1717C361.527 72.2964 361.554 72.4302 361.554 72.5652C361.554 72.7003 361.527 72.834 361.475 72.9587C361.423 73.0834 361.347 73.1966 361.251 73.2918C361.155 73.387 361.041 73.4623 360.916 73.5133C360.791 73.5644 360.657 73.5902 360.521 73.5892Z" fill="#00B4D8"/>
<path d="M414.551 73.9306H371.959C371.688 73.9287 371.429 73.82 371.238 73.6282C371.048 73.4364 370.94 73.1769 370.94 72.9066C370.94 72.6362 371.048 72.3768 371.238 72.1849C371.429 71.9931 371.688 71.8844 371.959 71.8826H414.551C414.687 71.8816 414.821 71.9075 414.946 71.9585C415.071 72.0096 415.185 72.0848 415.281 72.18C415.377 72.2752 415.453 72.3884 415.505 72.5131C415.557 72.6378 415.584 72.7715 415.584 72.9066C415.584 73.0416 415.557 73.1754 415.505 73.3001C415.453 73.4247 415.377 73.5379 415.281 73.6331C415.185 73.7283 415.071 73.8036 414.946 73.8546C414.821 73.9057 414.687 73.9315 414.551 73.9306H414.551Z" fill="#00B4D8"/>
<path d="M468.582 74.2719H425.99C425.719 74.27 425.46 74.1613 425.269 73.9695C425.078 73.7777 424.971 73.5183 424.971 73.2479C424.971 72.9775 425.078 72.7181 425.269 72.5262C425.46 72.3344 425.719 72.2257 425.99 72.2239H468.582C468.852 72.2257 469.112 72.3344 469.302 72.5262C469.493 72.7181 469.6 72.9775 469.6 73.2479C469.6 73.5183 469.493 73.7777 469.302 73.9695C469.112 74.1613 468.852 74.27 468.582 74.2719Z" fill="#00B4D8"/>
<path d="M285.101 63.8238C289.472 63.8238 293.017 60.2862 293.017 55.9224C293.017 51.5585 289.472 48.0209 285.101 48.0209C280.729 48.0209 277.185 51.5585 277.185 55.9224C277.185 60.2862 280.729 63.8238 285.101 63.8238Z" fill="#00B4D8"/>
<path d="M339.458 63.8238C343.83 63.8238 347.374 60.2862 347.374 55.9224C347.374 51.5585 343.83 48.0209 339.458 48.0209C335.086 48.0209 331.542 51.5585 331.542 55.9224C331.542 60.2862 335.086 63.8238 339.458 63.8238Z" fill="#00B4D8"/>
<path d="M393.814 63.8238C398.186 63.8238 401.73 60.2862 401.73 55.9224C401.73 51.5585 398.186 48.0209 393.814 48.0209C389.443 48.0209 385.898 51.5585 385.898 55.9224C385.898 60.2862 389.443 63.8238 393.814 63.8238Z" fill="#00B4D8"/>
<path d="M448.171 63.8238C452.543 63.8238 456.087 60.2862 456.087 55.9224C456.087 51.5585 452.543 48.0209 448.171 48.0209C443.799 48.0209 440.255 51.5585 440.255 55.9224C440.255 60.2862 443.799 63.8238 448.171 63.8238Z" fill="#00B4D8"/>
</g>
<defs>
<clipPath id="clip0_142_2712">
<rect width="502" height="333" fill="white"/>
</clipPath>
</defs>
</svg>
