<svg width="35" height="25" viewBox="0 0 35 25" fill="none" xmlns="http://www.w3.org/2000/svg">
<path d="M33.9697 1.47828C31.8484 0.588516 29.7254 0.25 27.6035 0.25C20.8677 0.249453 14.1323 3.65922 7.39648 3.65922C5.70719 3.65922 4.01898 3.44484 2.32969 2.90891C2.13992 2.84875 1.94961 2.82031 1.76367 2.82031C0.8225 2.82031 0 3.54875 0 4.55992V21.9101C0 22.6008 0.395391 23.2554 1.03031 23.5212C3.15164 24.4115 5.27461 24.75 7.39648 24.75C14.1323 24.75 20.8682 21.3402 27.6041 21.3402C29.2934 21.3402 30.9816 21.5546 32.6709 22.0905C32.8606 22.1507 33.0509 22.1791 33.2369 22.1791C34.1781 22.1791 35.0005 21.4507 35.0005 20.4395V3.08992C35 2.39867 34.6046 1.74461 33.9697 1.47828ZM2.625 5.73078C3.72531 6.00641 4.87375 6.14477 6.055 6.21914C5.73344 7.82641 4.32031 9.03773 2.625 9.03773V5.73078ZM2.625 21.3167V18.7038C4.50461 18.7038 6.02547 20.1951 6.10914 22.0616C4.87703 21.9626 3.72531 21.7165 2.625 21.3167ZM17.5 17.75C15.0834 17.75 13.125 15.399 13.125 12.5C13.125 9.60047 15.0839 7.25 17.5 7.25C19.9161 7.25 21.875 9.60047 21.875 12.5C21.875 15.4001 19.9155 17.75 17.5 17.75ZM32.375 19.2692C31.4169 19.0291 30.4221 18.8946 29.4044 18.8077C29.7254 17.3814 30.9083 16.2986 32.375 16.1127V19.2692ZM32.375 6.35695C30.6857 6.14313 29.3748 4.73273 29.3229 2.99094C30.3915 3.10961 31.4059 3.33164 32.375 3.68328V6.35695Z" fill="#0077B6"/>
</svg>
