<svg width="30" height="30" viewBox="0 0 30 30" fill="none" xmlns="http://www.w3.org/2000/svg">
<path d="M17.3438 22.5H12.6562C11.877 22.5 11.25 21.873 11.25 21.0938V11.25H6.11133C5.06836 11.25 4.54688 9.99023 5.28516 9.25195L14.1973 0.333984C14.6367 -0.105469 15.3574 -0.105469 15.7969 0.333984L24.7148 9.25195C25.4531 9.99023 24.9316 11.25 23.8887 11.25H18.75V21.0938C18.75 21.873 18.123 22.5 17.3438 22.5ZM30 22.0312V28.5938C30 29.373 29.373 30 28.5938 30H1.40625C0.626953 30 0 29.373 0 28.5938V22.0312C0 21.252 0.626953 20.625 1.40625 20.625H9.375V21.0938C9.375 22.9043 10.8457 24.375 12.6562 24.375H17.3438C19.1543 24.375 20.625 22.9043 20.625 21.0938V20.625H28.5938C29.373 20.625 30 21.252 30 22.0312ZM22.7344 27.1875C22.7344 26.543 22.207 26.0156 21.5625 26.0156C20.918 26.0156 20.3906 26.543 20.3906 27.1875C20.3906 27.832 20.918 28.3594 21.5625 28.3594C22.207 28.3594 22.7344 27.832 22.7344 27.1875ZM26.4844 27.1875C26.4844 26.543 25.957 26.0156 25.3125 26.0156C24.668 26.0156 24.1406 26.543 24.1406 27.1875C24.1406 27.832 24.668 28.3594 25.3125 28.3594C25.957 28.3594 26.4844 27.832 26.4844 27.1875Z" fill="#3D3D3D"/>
</svg>
