<svg width="637" height="381" viewBox="0 0 637 381" fill="none" xmlns="http://www.w3.org/2000/svg">
<g clip-path="url(#clip0_142_2570)">
<path d="M487.702 376.692C479.547 369.797 474.593 358.907 475.893 348.305C477.192 337.702 485.238 327.956 495.675 325.704C506.112 323.453 518.01 329.685 521.18 339.885C522.924 320.22 524.935 299.731 535.385 282.985C544.848 267.821 561.238 256.971 579.001 255.03C596.763 253.089 615.465 260.42 626.543 274.446C637.621 288.472 640.334 308.863 632.575 324.966C626.859 336.828 616.329 345.657 605.296 352.839C569.645 375.852 526.886 385.21 484.886 379.192L487.702 376.692Z" fill="#F2F2F2"/>
<path d="M608.978 260.827C594.322 272.77 580.876 286.127 568.835 300.706C549.992 323.443 534.743 348.935 523.621 376.295C522.807 378.291 526.047 379.16 526.852 377.186C545.05 332.721 574.1 293.529 611.347 263.197C613.02 261.834 610.637 259.475 608.978 260.827Z" fill="white"/>
<path d="M205.061 374.818C216.262 365.349 223.066 350.391 221.281 335.829C219.497 321.267 208.446 307.88 194.11 304.787C179.775 301.695 163.434 310.255 159.08 324.265C156.683 297.255 153.922 269.114 139.568 246.112C126.571 225.285 104.06 210.382 79.6625 207.716C55.2653 205.05 29.5782 215.12 14.3626 234.384C-0.853065 253.649 -4.57855 281.656 6.07808 303.773C13.9285 320.066 28.3916 332.192 43.5454 342.057C91.8911 373.529 151.864 386.654 208.929 378.253" fill="#F2F2F2"/>
<path d="M38.4883 215.678C58.619 232.082 77.0867 250.428 93.6245 270.452C110.165 290.454 124.727 312.015 137.106 334.831C144.025 347.63 150.241 360.797 155.726 374.273C156.844 377.015 152.394 378.208 151.289 375.497C141.574 351.738 129.555 328.989 115.405 307.575C101.323 286.239 85.2059 266.32 67.2794 248.097C57.1401 237.796 46.4423 228.06 35.2344 218.933C32.9371 217.062 36.2099 213.822 38.4883 215.678L38.4883 215.678Z" fill="white"/>
<path d="M457.249 380.166H190.002V105.846C190.002 47.4821 237.464 0 295.802 0H351.449C409.787 0 457.249 47.4821 457.249 105.846V380.166Z" fill="#F2F2F2"/>
<path d="M401.603 380.166H190.002V105.846C189.943 83.4822 197.022 61.6838 210.207 43.6244C210.693 42.9616 211.178 42.3074 211.678 41.6604C218.055 33.2924 225.645 25.9229 234.195 19.795C234.678 19.4434 235.163 19.0979 235.656 18.7524C242.811 13.7988 250.55 9.74936 258.699 6.69621C259.183 6.51272 259.675 6.32888 260.168 6.15254C267.538 3.52147 275.177 1.7192 282.945 0.779002C283.427 0.713187 283.921 0.661686 284.416 0.610184C291.986 -0.19957 299.621 -0.19957 307.191 0.610184C307.684 0.661686 308.178 0.71318 308.665 0.779706C316.431 1.71996 324.069 3.52202 331.436 6.15258C331.929 6.32891 332.422 6.51274 332.907 6.69659C340.955 9.71122 348.604 13.7002 355.683 18.5746C356.175 18.9126 356.667 19.2581 357.152 19.6036C361.945 23.0264 366.447 26.8396 370.612 31.0042C373.952 34.3447 377.065 37.9055 379.929 41.6626C380.427 42.3075 380.912 42.9617 381.397 43.6233C394.582 61.683 401.661 83.4818 401.603 105.846V380.166Z" fill="#CCCCCC"/>
<path d="M384.397 257.473C390.867 257.473 396.112 252.226 396.112 245.753C396.112 239.28 390.867 234.033 384.397 234.033C377.927 234.033 372.682 239.28 372.682 245.753C372.682 252.226 377.927 257.473 384.397 257.473Z" fill="#00B4D8"/>
<path d="M435.356 371.95H426.379L422.108 337.311L435.357 337.312L435.356 371.95Z" fill="#FFB8B8"/>
<path d="M419.967 369.384H437.279V380.288H409.067C409.067 378.856 409.349 377.438 409.897 376.115C410.445 374.792 411.248 373.59 412.26 372.577C413.272 371.565 414.474 370.762 415.796 370.214C417.119 369.666 418.536 369.384 419.967 369.384Z" fill="#2F2E41"/>
<path d="M480.019 371.95H471.042L466.771 337.311L480.02 337.312L480.019 371.95Z" fill="#FFB8B8"/>
<path d="M464.63 369.384H481.942V380.288H453.73C453.73 378.856 454.012 377.438 454.56 376.115C455.108 374.792 455.911 373.59 456.923 372.577C457.935 371.565 459.137 370.762 460.459 370.214C461.782 369.666 463.199 369.384 464.63 369.384Z" fill="#2F2E41"/>
<path d="M390.326 248.075C389.68 247.123 389.251 246.041 389.068 244.905C388.885 243.769 388.954 242.607 389.269 241.501C389.584 240.394 390.137 239.37 390.89 238.501C391.644 237.632 392.578 236.938 393.628 236.469L424.143 152.33L439.158 160.528L404.317 240.934C404.987 242.751 404.968 244.751 404.263 246.555C403.558 248.359 402.216 249.841 400.491 250.721C398.767 251.602 396.779 251.818 394.906 251.33C393.032 250.843 391.403 249.684 390.326 248.075Z" fill="#FFB8B8"/>
<path d="M475.434 263.885C474.436 263.313 473.576 262.528 472.914 261.588C472.252 260.647 471.804 259.573 471.602 258.44C471.401 257.308 471.449 256.145 471.745 255.033C472.041 253.921 472.577 252.888 473.315 252.006L463.862 163.001L480.95 163.782L484.878 251.33C486.277 252.669 487.137 254.475 487.294 256.405C487.451 258.336 486.894 260.257 485.73 261.804C484.566 263.352 482.875 264.418 480.977 264.802C479.079 265.185 477.107 264.859 475.434 263.885Z" fill="#FFB8B8"/>
<path d="M448.174 136.745C458.106 136.745 466.157 128.69 466.157 118.754C466.157 108.818 458.106 100.763 448.174 100.763C438.242 100.763 430.191 108.818 430.191 118.754C430.191 128.69 438.242 136.745 448.174 136.745Z" fill="#FFB8B8"/>
<path d="M475.319 243.642H421.103L421.168 243.22C421.266 242.589 430.831 179.904 423.776 159.396C423.068 157.381 423.131 155.175 423.951 153.203C424.771 151.23 426.292 149.632 428.22 148.714H428.22C438.304 143.963 457.66 138.114 473.996 152.31C476.4 154.433 478.278 157.087 479.48 160.061C480.682 163.036 481.176 166.249 480.922 169.447L475.319 243.642Z" fill="#00B4D8"/>
<path d="M431.516 189.168L407.107 184.214L418.549 157.089C419.233 154.462 420.932 152.214 423.271 150.838C425.61 149.462 428.4 149.07 431.027 149.749C433.655 150.427 435.906 152.121 437.288 154.458C438.669 156.795 439.067 159.585 438.395 162.215L431.516 189.168Z" fill="#00B4D8"/>
<path d="M462.777 198.366L461.31 164.714C460.197 158.388 463.817 152.408 469.384 151.431C474.953 150.457 480.39 154.844 481.508 161.217L487.023 192.661L462.777 198.366Z" fill="#00B4D8"/>
<path d="M473.515 239.613C482.239 272.852 483.19 315.112 480.837 361.208L469.122 359.743L447.888 271.843L436.174 361.208L422.994 360.475C419.057 312.109 415.223 270.587 421.53 243.276L473.515 239.613Z" fill="#2F2E41"/>
<path d="M460.023 132.658C456.668 136.233 450.438 134.314 450.001 129.43C449.967 129.051 449.969 128.669 450.008 128.29C450.234 126.127 451.483 124.163 451.184 121.878C451.116 121.31 450.905 120.768 450.569 120.304C447.896 116.723 441.62 121.906 439.097 118.664C437.55 116.676 439.369 113.546 438.181 111.324C436.614 108.391 431.973 109.838 429.063 108.232C425.824 106.445 426.018 101.475 428.15 98.4513C430.749 94.7642 435.307 92.7967 439.809 92.5132C444.31 92.2296 448.78 93.4469 452.982 95.0853C457.757 96.9468 462.492 99.5195 465.43 103.72C469.003 108.827 469.347 115.694 467.56 121.667C466.473 125.3 462.763 129.739 460.023 132.658Z" fill="#2F2E41"/>
<path d="M615.021 380.637H74.4542C74.2235 380.637 74.0024 380.544 73.8394 380.381C73.6765 380.217 73.585 379.996 73.585 379.765C73.585 379.534 73.6765 379.313 73.8394 379.149C74.0024 378.986 74.2235 378.894 74.4542 378.893H615.021C615.252 378.894 615.473 378.986 615.636 379.149C615.799 379.313 615.891 379.534 615.891 379.765C615.891 379.996 615.799 380.217 615.636 380.381C615.473 380.544 615.252 380.637 615.021 380.637Z" fill="#3F3D56"/>
<path d="M343.394 300.69H248.21C246.957 300.697 245.752 300.206 244.86 299.325C243.967 298.444 243.461 297.245 243.451 295.991V83.4426C243.461 82.1885 243.967 80.9895 244.86 80.1086C245.752 79.2276 246.957 78.7367 248.21 78.7434H343.394C344.648 78.7367 345.853 79.2276 346.745 80.1086C347.637 80.9895 348.144 82.1885 348.153 83.4426V295.991C348.144 297.245 347.637 298.444 346.745 299.325C345.853 300.206 344.648 300.697 343.394 300.69Z" fill="white"/>
<path d="M348.153 147.517H243.451V148.982H348.153V147.517Z" fill="#CCCCCC"/>
<path d="M348.52 231.103H243.817V232.568H348.52V231.103Z" fill="#CCCCCC"/>
<path d="M277.864 78.7434H276.399V301.423H277.864V78.7434Z" fill="#CCCCCC"/>
<path d="M314.473 78.7434H313.009V301.423H314.473V78.7434Z" fill="#CCCCCC"/>
</g>
<defs>
<clipPath id="clip0_142_2570">
<rect width="637" height="381" fill="white"/>
</clipPath>
</defs>
</svg>
