<svg width="313" height="19" viewBox="0 0 313 19" fill="none" xmlns="http://www.w3.org/2000/svg">
<path d="M5.024 2.88C6.208 2.88 7.24267 3.10933 8.128 3.568C9.01333 4.016 9.696 4.66667 10.176 5.52C10.6667 6.36267 10.912 7.34933 10.912 8.48C10.912 9.61067 10.6667 10.592 10.176 11.424C9.696 12.256 9.01333 12.896 8.128 13.344C7.24267 13.7813 6.208 14 5.024 14H1.376V9.312H0.144V7.632H1.376V2.88H5.024ZM5.024 12.608C6.31467 12.608 7.30667 12.24 8 11.504C8.69333 10.768 9.04 9.76 9.04 8.48C9.04 7.18933 8.69333 6.18133 8 5.456C7.30667 4.72 6.31467 4.352 5.024 4.352H3.216V7.632H6.064V9.312H3.216V12.608H5.024ZM12.1076 9.552C12.1076 8.66667 12.289 7.88267 12.6516 7.2C13.025 6.51733 13.5263 5.98933 14.1556 5.616C14.7956 5.232 15.4996 5.04 16.2676 5.04C16.961 5.04 17.5636 5.17867 18.0756 5.456C18.5983 5.72267 19.0143 6.05867 19.3236 6.464V5.184H21.1636V14H19.3236V12.688C19.0143 13.104 18.593 13.4507 18.0596 13.728C17.5263 14.0053 16.9183 14.144 16.2356 14.144C15.4783 14.144 14.785 13.952 14.1556 13.568C13.5263 13.1733 13.025 12.6293 12.6516 11.936C12.289 11.232 12.1076 10.4373 12.1076 9.552ZM19.3236 9.584C19.3236 8.976 19.1956 8.448 18.9396 8C18.6943 7.552 18.369 7.21067 17.9636 6.976C17.5583 6.74133 17.121 6.624 16.6516 6.624C16.1823 6.624 15.745 6.74133 15.3396 6.976C14.9343 7.2 14.6036 7.536 14.3476 7.984C14.1023 8.42133 13.9796 8.944 13.9796 9.552C13.9796 10.16 14.1023 10.6933 14.3476 11.152C14.6036 11.6107 14.9343 11.9627 15.3396 12.208C15.7556 12.4427 16.193 12.56 16.6516 12.56C17.121 12.56 17.5583 12.4427 17.9636 12.208C18.369 11.9733 18.6943 11.632 18.9396 11.184C19.1956 10.7253 19.3236 10.192 19.3236 9.584ZM19.3556 2.224C19.3556 2.896 19.137 3.43467 18.6996 3.84C18.273 4.24533 17.6863 4.448 16.9396 4.448C16.193 4.448 15.6063 4.24533 15.1796 3.84C14.753 3.424 14.5396 2.88 14.5396 2.208V1.872H15.5796C15.5796 2.256 15.681 2.544 15.8836 2.736C16.0863 2.928 16.4383 3.024 16.9396 3.024C17.441 3.024 17.793 2.928 17.9956 2.736C18.1983 2.544 18.2996 2.256 18.2996 1.872H19.3556V2.224ZM28.0074 5.04C28.7007 5.04 29.3194 5.184 29.8634 5.472C30.418 5.76 30.85 6.18667 31.1594 6.752C31.4687 7.31733 31.6234 8 31.6234 8.8V14H29.8154V9.072C29.8154 8.28267 29.618 7.68 29.2234 7.264C28.8287 6.83733 28.29 6.624 27.6074 6.624C26.9247 6.624 26.3807 6.83733 25.9754 7.264C25.5807 7.68 25.3834 8.28267 25.3834 9.072V14H23.5594V5.184H25.3834V6.192C25.682 5.82933 26.0607 5.54667 26.5194 5.344C26.9887 5.14133 27.4847 5.04 28.0074 5.04ZM37.502 5.04C38.1847 5.04 38.7873 5.17867 39.31 5.456C39.8433 5.72267 40.2593 6.05867 40.558 6.464V5.184H42.398V14.144C42.398 14.9547 42.2273 15.6747 41.886 16.304C41.5447 16.944 41.0487 17.4453 40.398 17.808C39.758 18.1707 38.99 18.352 38.094 18.352C36.8993 18.352 35.9073 18.0693 35.118 17.504C34.3287 16.9493 33.8807 16.192 33.774 15.232H35.582C35.7207 15.6907 36.014 16.0587 36.462 16.336C36.9207 16.624 37.4647 16.768 38.094 16.768C38.83 16.768 39.422 16.544 39.87 16.096C40.3287 15.648 40.558 14.9973 40.558 14.144V12.672C40.2487 13.088 39.8273 13.44 39.294 13.728C38.7713 14.0053 38.174 14.144 37.502 14.144C36.734 14.144 36.03 13.952 35.39 13.568C34.7607 13.1733 34.2593 12.6293 33.886 11.936C33.5233 11.232 33.342 10.4373 33.342 9.552C33.342 8.66667 33.5233 7.88267 33.886 7.2C34.2593 6.51733 34.7607 5.98933 35.39 5.616C36.03 5.232 36.734 5.04 37.502 5.04ZM40.558 9.584C40.558 8.976 40.43 8.448 40.174 8C39.9287 7.552 39.6033 7.21067 39.198 6.976C38.7927 6.74133 38.3553 6.624 37.886 6.624C37.4167 6.624 36.9793 6.74133 36.574 6.976C36.1687 7.2 35.838 7.536 35.582 7.984C35.3367 8.42133 35.214 8.944 35.214 9.552C35.214 10.16 35.3367 10.6933 35.582 11.152C35.838 11.6107 36.1687 11.9627 36.574 12.208C36.99 12.4427 37.4273 12.56 37.886 12.56C38.3553 12.56 38.7927 12.4427 39.198 12.208C39.6033 11.9733 39.9287 11.632 40.174 11.184C40.43 10.7253 40.558 10.192 40.558 9.584ZM53.398 5.04C54.0913 5.04 54.71 5.184 55.254 5.472C55.8087 5.76 56.2407 6.18667 56.55 6.752C56.8593 7.31733 57.014 8 57.014 8.8V14H55.206V9.072C55.206 8.28267 55.0087 7.68 54.614 7.264C54.2193 6.83733 53.6807 6.624 52.998 6.624C52.3153 6.624 51.7713 6.83733 51.366 7.264C50.9713 7.68 50.774 8.28267 50.774 9.072V14H48.95V5.184H50.774V6.192C51.0727 5.82933 51.4513 5.54667 51.91 5.344C52.3793 5.14133 52.8753 5.04 53.398 5.04ZM63.9006 5.04C64.5726 5.04 65.17 5.184 65.6926 5.472C66.226 5.76 66.642 6.18667 66.9406 6.752C67.25 7.31733 67.4046 8 67.4046 8.8V14H65.5966V9.072C65.5966 8.28267 65.3993 7.68 65.0046 7.264C64.61 6.83733 64.0713 6.624 63.3886 6.624C62.706 6.624 62.162 6.83733 61.7566 7.264C61.362 7.68 61.1646 8.28267 61.1646 9.072V14H59.3406V2.16H61.1646V6.208C61.474 5.83467 61.8633 5.54667 62.3326 5.344C62.8126 5.14133 63.3353 5.04 63.9006 5.04ZM73.1393 5.28C74.1846 5.28 74.9579 5.50933 75.4593 5.968C75.9606 6.42667 76.2113 7.15733 76.2113 8.16V14H75.1873L74.9153 12.784H74.8513C74.6059 13.0933 74.3499 13.3547 74.0833 13.568C73.8273 13.7707 73.5286 13.92 73.1873 14.016C72.8566 14.112 72.4513 14.16 71.9713 14.16C71.4593 14.16 70.9953 14.0693 70.5793 13.888C70.1739 13.7067 69.8539 13.4293 69.6193 13.056C69.3846 12.672 69.2673 12.192 69.2673 11.616C69.2673 10.7627 69.6033 10.1067 70.2753 9.648C70.9473 9.17867 71.9819 8.92267 73.3793 8.88L74.8353 8.832V8.32C74.8353 7.60533 74.6806 7.10933 74.3713 6.832C74.0619 6.55467 73.6246 6.416 73.0593 6.416C72.6113 6.416 72.1846 6.48533 71.7793 6.624C71.3739 6.752 70.9953 6.90133 70.6432 7.072L70.2113 6.016C70.5846 5.81333 71.0273 5.64267 71.5393 5.504C72.0513 5.35467 72.5846 5.28 73.1393 5.28ZM73.5553 9.856C72.4886 9.89867 71.7473 10.0693 71.3313 10.368C70.9259 10.6667 70.7233 11.088 70.7233 11.632C70.7233 12.112 70.8673 12.464 71.1553 12.688C71.4539 12.912 71.8326 13.024 72.2913 13.024C73.0166 13.024 73.6193 12.8267 74.0993 12.432C74.5793 12.0267 74.8193 11.408 74.8193 10.576V9.808L73.5553 9.856ZM73.7633 1.744C73.8913 1.97867 74.0726 2.24533 74.3073 2.544C74.5526 2.832 74.8033 3.12 75.0593 3.408C75.3259 3.68533 75.5606 3.92533 75.7633 4.128V4.304H74.7713C74.4939 4.13333 74.2059 3.92533 73.9073 3.68C73.6086 3.424 73.3153 3.152 73.0273 2.864C72.7393 3.152 72.4513 3.41867 72.1633 3.664C71.8753 3.90933 71.5926 4.12267 71.3153 4.304H70.3553V4.128C70.5579 3.91467 70.7819 3.66933 71.0273 3.392C71.2833 3.11467 71.5286 2.832 71.7633 2.544C71.9979 2.24533 72.1846 1.97867 72.3233 1.744H73.7633ZM72.9153 16.816C72.6913 16.816 72.4939 16.7413 72.3233 16.592C72.1633 16.4427 72.0833 16.2187 72.0833 15.92C72.0833 15.6107 72.1633 15.3813 72.3233 15.232C72.4939 15.0933 72.6913 15.024 72.9153 15.024C73.1393 15.024 73.3313 15.0933 73.4913 15.232C73.6619 15.3813 73.7473 15.6107 73.7473 15.92C73.7473 16.2187 73.6619 16.4427 73.4913 16.592C73.3313 16.7413 73.1393 16.816 72.9153 16.816ZM80.524 6.48C80.8333 6.07467 81.2547 5.73333 81.788 5.456C82.3213 5.17867 82.924 5.04 83.596 5.04C84.364 5.04 85.0627 5.232 85.692 5.616C86.332 5.98933 86.8333 6.51733 87.196 7.2C87.5587 7.88267 87.74 8.66667 87.74 9.552C87.74 10.4373 87.5587 11.232 87.196 11.936C86.8333 12.6293 86.332 13.1733 85.692 13.568C85.0627 13.952 84.364 14.144 83.596 14.144C82.924 14.144 82.3267 14.0107 81.804 13.744C81.2813 13.4667 80.8547 13.1253 80.524 12.72V18.192H78.7V5.184H80.524V6.48ZM85.884 9.552C85.884 8.944 85.756 8.42133 85.5 7.984C85.2547 7.536 84.924 7.2 84.508 6.976C84.1027 6.74133 83.6653 6.624 83.196 6.624C82.7373 6.624 82.3 6.74133 81.884 6.976C81.4787 7.21067 81.148 7.552 80.892 8C80.6467 8.448 80.524 8.976 80.524 9.584C80.524 10.192 80.6467 10.7253 80.892 11.184C81.148 11.632 81.4787 11.9733 81.884 12.208C82.3 12.4427 82.7373 12.56 83.196 12.56C83.6653 12.56 84.1027 12.4427 84.508 12.208C84.924 11.9627 85.2547 11.6107 85.5 11.152C85.756 10.6933 85.884 10.16 85.884 9.552ZM97.108 12.368L99.604 5.184H101.54L98.18 14H96.004L92.66 5.184H94.612L97.108 12.368ZM102.311 9.552C102.311 8.66667 102.492 7.88267 102.855 7.2C103.228 6.51733 103.729 5.98933 104.359 5.616C104.999 5.232 105.703 5.04 106.471 5.04C107.164 5.04 107.767 5.17867 108.279 5.456C108.801 5.72267 109.217 6.05867 109.527 6.464V5.184H111.367V14H109.527V12.688C109.217 13.104 108.796 13.4507 108.263 13.728C107.729 14.0053 107.121 14.144 106.439 14.144C105.681 14.144 104.988 13.952 104.359 13.568C103.729 13.1733 103.228 12.6293 102.855 11.936C102.492 11.232 102.311 10.4373 102.311 9.552ZM109.527 9.584C109.527 8.976 109.399 8.448 109.143 8C108.897 7.552 108.572 7.21067 108.167 6.976C107.761 6.74133 107.324 6.624 106.855 6.624C106.385 6.624 105.948 6.74133 105.543 6.976C105.137 7.2 104.807 7.536 104.551 7.984C104.305 8.42133 104.183 8.944 104.183 9.552C104.183 10.16 104.305 10.6933 104.551 11.152C104.807 11.6107 105.137 11.9627 105.543 12.208C105.959 12.4427 106.396 12.56 106.855 12.56C107.324 12.56 107.761 12.4427 108.167 12.208C108.572 11.9733 108.897 11.632 109.143 11.184C109.399 10.7253 109.527 10.192 109.527 9.584ZM108.791 3.216V4.56L105.255 2.816V1.264L108.791 3.216ZM117.587 14.144C116.755 14.144 116.003 13.9573 115.331 13.584C114.659 13.2 114.131 12.6667 113.747 11.984C113.363 11.2907 113.171 10.4907 113.171 9.584C113.171 8.688 113.368 7.89333 113.763 7.2C114.157 6.50667 114.696 5.97333 115.379 5.6C116.061 5.22667 116.824 5.04 117.667 5.04C118.509 5.04 119.272 5.22667 119.955 5.6C120.637 5.97333 121.176 6.50667 121.571 7.2C121.965 7.89333 122.163 8.688 122.163 9.584C122.163 10.48 121.96 11.2747 121.555 11.968C121.149 12.6613 120.595 13.2 119.891 13.584C119.197 13.9573 118.429 14.144 117.587 14.144ZM117.587 12.56C118.056 12.56 118.493 12.448 118.899 12.224C119.315 12 119.651 11.664 119.907 11.216C120.163 10.768 120.291 10.224 120.291 9.584C120.291 8.944 120.168 8.40533 119.923 7.968C119.677 7.52 119.352 7.184 118.947 6.96C118.541 6.736 118.104 6.624 117.635 6.624C117.165 6.624 116.728 6.736 116.323 6.96C115.928 7.184 115.613 7.52 115.379 7.968C115.144 8.40533 115.027 8.944 115.027 9.584C115.027 10.5333 115.267 11.2693 115.747 11.792C116.237 12.304 116.851 12.56 117.587 12.56ZM130.25 6.672V11.552C130.25 11.8827 130.325 12.1227 130.474 12.272C130.634 12.4107 130.901 12.48 131.274 12.48H132.394V14H130.954C130.133 14 129.503 13.808 129.066 13.424C128.629 13.04 128.41 12.416 128.41 11.552V6.672H127.37V5.184H128.41V2.992H130.25V5.184H132.394V6.672H130.25ZM133.467 9.552C133.467 8.66667 133.648 7.88267 134.011 7.2C134.384 6.51733 134.886 5.98933 135.515 5.616C136.155 5.232 136.859 5.04 137.627 5.04C138.32 5.04 138.923 5.17867 139.435 5.456C139.958 5.72267 140.374 6.05867 140.683 6.464V5.184H142.523V14H140.683V12.688C140.374 13.104 139.952 13.4507 139.419 13.728C138.886 14.0053 138.278 14.144 137.595 14.144C136.838 14.144 136.144 13.952 135.515 13.568C134.886 13.1733 134.384 12.6293 134.011 11.936C133.648 11.232 133.467 10.4373 133.467 9.552ZM140.683 9.584C140.683 8.976 140.555 8.448 140.299 8C140.054 7.552 139.728 7.21067 139.323 6.976C138.918 6.74133 138.48 6.624 138.011 6.624C137.542 6.624 137.104 6.74133 136.699 6.976C136.294 7.2 135.963 7.536 135.707 7.984C135.462 8.42133 135.339 8.944 135.339 9.552C135.339 10.16 135.462 10.6933 135.707 11.152C135.963 11.6107 136.294 11.9627 136.699 12.208C137.115 12.4427 137.552 12.56 138.011 12.56C138.48 12.56 138.918 12.4427 139.323 12.208C139.728 11.9733 140.054 11.632 140.299 11.184C140.555 10.7253 140.683 10.192 140.683 9.584ZM139.947 3.216V4.56L136.411 2.816V1.264L139.947 3.216ZM145.847 4.016C145.516 4.016 145.239 3.904 145.015 3.68C144.791 3.456 144.679 3.17867 144.679 2.848C144.679 2.51733 144.791 2.24 145.015 2.016C145.239 1.792 145.516 1.68 145.847 1.68C146.167 1.68 146.439 1.792 146.663 2.016C146.887 2.24 146.999 2.51733 146.999 2.848C146.999 3.17867 146.887 3.456 146.663 3.68C146.439 3.904 146.167 4.016 145.847 4.016ZM146.743 5.184V14H144.919V5.184H146.743ZM156.782 9.6L160.846 14H158.382L155.118 10.208V14H153.294V2.16H155.118V9.04L158.318 5.184H160.846L156.782 9.6ZM166.713 5.04C167.385 5.04 167.982 5.184 168.505 5.472C169.038 5.76 169.454 6.18667 169.753 6.752C170.062 7.31733 170.217 8 170.217 8.8V14H168.409V9.072C168.409 8.28267 168.212 7.68 167.817 7.264C167.422 6.83733 166.884 6.624 166.201 6.624C165.518 6.624 164.974 6.83733 164.569 7.264C164.174 7.68 163.977 8.28267 163.977 9.072V14H162.153V2.16H163.977V6.208C164.286 5.83467 164.676 5.54667 165.145 5.344C165.625 5.14133 166.148 5.04 166.713 5.04ZM176.368 14.144C175.536 14.144 174.784 13.9573 174.112 13.584C173.44 13.2 172.912 12.6667 172.528 11.984C172.144 11.2907 171.952 10.4907 171.952 9.584C171.952 8.688 172.149 7.89333 172.544 7.2C172.938 6.50667 173.477 5.97333 174.16 5.6C174.842 5.22667 175.605 5.04 176.448 5.04C177.29 5.04 178.053 5.22667 178.736 5.6C179.418 5.97333 179.957 6.50667 180.352 7.2C180.746 7.89333 180.944 8.688 180.944 9.584C180.944 10.48 180.741 11.2747 180.336 11.968C179.93 12.6613 179.376 13.2 178.672 13.584C177.978 13.9573 177.21 14.144 176.368 14.144ZM176.368 12.56C176.837 12.56 177.274 12.448 177.68 12.224C178.096 12 178.432 11.664 178.688 11.216C178.944 10.768 179.072 10.224 179.072 9.584C179.072 8.944 178.949 8.40533 178.704 7.968C178.458 7.52 178.133 7.184 177.728 6.96C177.322 6.736 176.885 6.624 176.416 6.624C175.946 6.624 175.509 6.736 175.104 6.96C174.709 7.184 174.394 7.52 174.16 7.968C173.925 8.40533 173.808 8.944 173.808 9.584C173.808 10.5333 174.048 11.2693 174.528 11.792C175.018 12.304 175.632 12.56 176.368 12.56ZM186.155 5.28C187.2 5.28 187.974 5.50933 188.475 5.968C188.976 6.42667 189.227 7.15733 189.227 8.16V14H188.203L187.931 12.784H187.867C187.622 13.0933 187.366 13.3547 187.099 13.568C186.843 13.7707 186.544 13.92 186.203 14.016C185.872 14.112 185.467 14.16 184.987 14.16C184.475 14.16 184.011 14.0693 183.595 13.888C183.19 13.7067 182.87 13.4293 182.635 13.056C182.4 12.672 182.283 12.192 182.283 11.616C182.283 10.7627 182.619 10.1067 183.291 9.648C183.963 9.17867 184.998 8.92267 186.395 8.88L187.851 8.832V8.32C187.851 7.60533 187.696 7.10933 187.387 6.832C187.078 6.55467 186.64 6.416 186.075 6.416C185.627 6.416 185.2 6.48533 184.795 6.624C184.39 6.752 184.011 6.90133 183.659 7.072L183.227 6.016C183.6 5.81333 184.043 5.64267 184.555 5.504C185.067 5.35467 185.6 5.28 186.155 5.28ZM186.571 9.856C185.504 9.89867 184.763 10.0693 184.347 10.368C183.942 10.6667 183.739 11.088 183.739 11.632C183.739 12.112 183.883 12.464 184.171 12.688C184.47 12.912 184.848 13.024 185.307 13.024C186.032 13.024 186.635 12.8267 187.115 12.432C187.595 12.0267 187.835 11.408 187.835 10.576V9.808L186.571 9.856ZM187.659 2.32C187.659 2.72533 187.536 3.04 187.291 3.264C187.046 3.47733 186.736 3.62667 186.363 3.712L186.283 4.56H185.419L185.307 3.2C185.691 3.136 185.995 3.04533 186.219 2.928C186.454 2.8 186.571 2.61333 186.571 2.368C186.571 2.112 186.47 1.94133 186.267 1.856C186.075 1.77067 185.83 1.728 185.531 1.728C185.392 1.728 185.248 1.73333 185.099 1.744C184.96 1.75467 184.848 1.77067 184.763 1.792V0.959999C184.859 0.927999 184.976 0.906666 185.115 0.895999C185.264 0.874666 185.44 0.863999 185.643 0.863999C186.283 0.863999 186.779 0.981333 187.131 1.216C187.483 1.45067 187.659 1.81867 187.659 2.32ZM196.164 5.04C196.857 5.04 197.476 5.184 198.02 5.472C198.574 5.76 199.006 6.18667 199.316 6.752C199.625 7.31733 199.78 8 199.78 8.8V14H197.972V9.072C197.972 8.28267 197.774 7.68 197.38 7.264C196.985 6.83733 196.446 6.624 195.764 6.624C195.081 6.624 194.537 6.83733 194.132 7.264C193.737 7.68 193.54 8.28267 193.54 9.072V14H191.716V5.184H193.54V6.192C193.838 5.82933 194.217 5.54667 194.676 5.344C195.145 5.14133 195.641 5.04 196.164 5.04ZM249.889 9.584C249.889 8.67733 250.07 7.88267 250.433 7.2C250.806 6.50667 251.318 5.97333 251.969 5.6C252.62 5.22667 253.366 5.04 254.209 5.04C255.276 5.04 256.156 5.296 256.849 5.808C257.553 6.30933 258.028 7.02933 258.273 7.968H256.305C256.145 7.53067 255.889 7.18933 255.537 6.944C255.185 6.69867 254.742 6.576 254.209 6.576C253.462 6.576 252.865 6.84267 252.417 7.376C251.98 7.89867 251.761 8.63467 251.761 9.584C251.761 10.5333 251.98 11.2747 252.417 11.808C252.865 12.3413 253.462 12.608 254.209 12.608C255.265 12.608 255.964 12.144 256.305 11.216H258.273C258.017 12.112 257.537 12.8267 256.833 13.36C256.129 13.8827 255.254 14.144 254.209 14.144C253.366 14.144 252.62 13.9573 251.969 13.584C251.318 13.2 250.806 12.6667 250.433 11.984C250.07 11.2907 249.889 10.4907 249.889 9.584ZM265.499 2.32C265.499 2.72533 265.376 3.04 265.131 3.264C264.885 3.47733 264.576 3.62667 264.203 3.712L264.123 4.56H263.259L263.147 3.2C263.531 3.136 263.835 3.04533 264.059 2.928C264.293 2.8 264.411 2.61333 264.411 2.368C264.411 2.112 264.309 1.94133 264.107 1.856C263.915 1.77067 263.669 1.728 263.371 1.728C263.232 1.728 263.088 1.73333 262.939 1.744C262.8 1.75467 262.688 1.77067 262.603 1.792V0.959999C262.699 0.927999 262.816 0.906666 262.955 0.895999C263.104 0.874666 263.28 0.863999 263.483 0.863999C264.123 0.863999 264.619 0.981333 264.971 1.216C265.323 1.45067 265.499 1.81867 265.499 2.32ZM267.419 5.424V14H266.267L266.059 12.864H265.995C265.813 13.1627 265.579 13.408 265.291 13.6C265.003 13.792 264.688 13.9307 264.347 14.016C264.005 14.112 263.648 14.16 263.275 14.16C262.592 14.16 262.016 14.0533 261.547 13.84C261.088 13.616 260.741 13.2747 260.507 12.816C260.272 12.3573 260.155 11.7653 260.155 11.04V5.424H261.579V10.944C261.579 11.6267 261.733 12.1387 262.043 12.48C262.352 12.8213 262.832 12.992 263.483 12.992C264.123 12.992 264.624 12.8747 264.987 12.64C265.36 12.3947 265.621 12.0427 265.771 11.584C265.931 11.1147 266.011 10.5493 266.011 9.888V5.424H267.419ZM269.373 9.552C269.373 8.66667 269.555 7.88267 269.917 7.2C270.291 6.51733 270.792 5.98933 271.421 5.616C272.061 5.232 272.765 5.04 273.533 5.04C274.227 5.04 274.829 5.17867 275.341 5.456C275.864 5.72267 276.28 6.05867 276.589 6.464V5.184H278.429V14H276.589V12.688C276.28 13.104 275.859 13.4507 275.325 13.728C274.792 14.0053 274.184 14.144 273.501 14.144C272.744 14.144 272.051 13.952 271.421 13.568C270.792 13.1733 270.291 12.6293 269.917 11.936C269.555 11.232 269.373 10.4373 269.373 9.552ZM276.589 9.584C276.589 8.976 276.461 8.448 276.205 8C275.96 7.552 275.635 7.21067 275.229 6.976C274.824 6.74133 274.387 6.624 273.917 6.624C273.448 6.624 273.011 6.74133 272.605 6.976C272.2 7.2 271.869 7.536 271.613 7.984C271.368 8.42133 271.245 8.944 271.245 9.552C271.245 10.16 271.368 10.6933 271.613 11.152C271.869 11.6107 272.2 11.9627 272.605 12.208C273.021 12.4427 273.459 12.56 273.917 12.56C274.387 12.56 274.824 12.4427 275.229 12.208C275.635 11.9733 275.96 11.632 276.205 11.184C276.461 10.7253 276.589 10.192 276.589 9.584ZM286.805 6.496C287.115 6.06933 287.536 5.72267 288.069 5.456C288.613 5.17867 289.216 5.04 289.877 5.04C290.656 5.04 291.36 5.22667 291.989 5.6C292.619 5.97333 293.115 6.50667 293.477 7.2C293.84 7.88267 294.021 8.66667 294.021 9.552C294.021 10.4373 293.84 11.232 293.477 11.936C293.115 12.6293 292.613 13.1733 291.973 13.568C291.344 13.952 290.645 14.144 289.877 14.144C289.195 14.144 288.587 14.0107 288.053 13.744C287.531 13.4773 287.115 13.136 286.805 12.72V14H284.981V2.16H286.805V6.496ZM292.165 9.552C292.165 8.944 292.037 8.42133 291.781 7.984C291.536 7.536 291.205 7.2 290.789 6.976C290.384 6.74133 289.947 6.624 289.477 6.624C289.019 6.624 288.581 6.74133 288.165 6.976C287.76 7.21067 287.429 7.552 287.173 8C286.928 8.448 286.805 8.976 286.805 9.584C286.805 10.192 286.928 10.7253 287.173 11.184C287.429 11.632 287.76 11.9733 288.165 12.208C288.581 12.4427 289.019 12.56 289.477 12.56C289.947 12.56 290.384 12.4427 290.789 12.208C291.205 11.9627 291.536 11.6107 291.781 11.152C292.037 10.6933 292.165 10.16 292.165 9.552ZM299.233 5.28C300.278 5.28 301.052 5.50933 301.553 5.968C302.054 6.42667 302.305 7.15733 302.305 8.16V14H301.281L301.009 12.784H300.945C300.7 13.0933 300.444 13.3547 300.177 13.568C299.921 13.7707 299.622 13.92 299.281 14.016C298.95 14.112 298.545 14.16 298.065 14.16C297.553 14.16 297.089 14.0693 296.673 13.888C296.268 13.7067 295.948 13.4293 295.713 13.056C295.478 12.672 295.361 12.192 295.361 11.616C295.361 10.7627 295.697 10.1067 296.369 9.648C297.041 9.17867 298.076 8.92267 299.473 8.88L300.929 8.832V8.32C300.929 7.60533 300.774 7.10933 300.465 6.832C300.156 6.55467 299.718 6.416 299.153 6.416C298.705 6.416 298.278 6.48533 297.873 6.624C297.468 6.752 297.089 6.90133 296.737 7.072L296.305 6.016C296.678 5.81333 297.121 5.64267 297.633 5.504C298.145 5.35467 298.678 5.28 299.233 5.28ZM299.649 9.856C298.582 9.89867 297.841 10.0693 297.425 10.368C297.02 10.6667 296.817 11.088 296.817 11.632C296.817 12.112 296.961 12.464 297.249 12.688C297.548 12.912 297.926 13.024 298.385 13.024C299.11 13.024 299.713 12.8267 300.193 12.432C300.673 12.0267 300.913 11.408 300.913 10.576V9.808L299.649 9.856ZM299.105 16.816C298.881 16.816 298.684 16.7413 298.513 16.592C298.353 16.4427 298.273 16.2187 298.273 15.92C298.273 15.6107 298.353 15.3813 298.513 15.232C298.684 15.0933 298.881 15.024 299.105 15.024C299.329 15.024 299.521 15.0933 299.681 15.232C299.852 15.3813 299.937 15.6107 299.937 15.92C299.937 16.2187 299.852 16.4427 299.681 16.592C299.521 16.7413 299.329 16.816 299.105 16.816ZM309.242 5.04C309.935 5.04 310.554 5.184 311.098 5.472C311.652 5.76 312.084 6.18667 312.394 6.752C312.703 7.31733 312.858 8 312.858 8.8V14H311.05V9.072C311.05 8.28267 310.852 7.68 310.458 7.264C310.063 6.83733 309.524 6.624 308.842 6.624C308.159 6.624 307.615 6.83733 307.21 7.264C306.815 7.68 306.618 8.28267 306.618 9.072V14H304.794V5.184H306.618V6.192C306.916 5.82933 307.295 5.54667 307.754 5.344C308.223 5.14133 308.719 5.04 309.242 5.04Z" fill="#939598"/>
<path d="M212.327 2.88V10.896C212.327 11.888 212.023 12.672 211.415 13.248C210.817 13.824 210.028 14.112 209.047 14.112C208.065 14.112 207.271 13.824 206.663 13.248C206.065 12.672 205.767 11.888 205.767 10.896H207.607C207.617 11.3867 207.74 11.776 207.975 12.064C208.22 12.352 208.577 12.496 209.047 12.496C209.516 12.496 209.873 12.352 210.119 12.064C210.364 11.7653 210.487 11.376 210.487 10.896V2.88H212.327ZM220.366 14.112C219.331 14.112 218.376 13.872 217.502 13.392C216.638 12.9013 215.95 12.224 215.438 11.36C214.936 10.4853 214.686 9.504 214.686 8.416C214.686 7.328 214.936 6.352 215.438 5.488C215.95 4.624 216.638 3.952 217.502 3.472C218.376 2.98133 219.331 2.736 220.366 2.736C221.411 2.736 222.366 2.98133 223.23 3.472C224.104 3.952 224.792 4.624 225.294 5.488C225.795 6.352 226.046 7.328 226.046 8.416C226.046 9.504 225.795 10.4853 225.294 11.36C224.792 12.224 224.104 12.9013 223.23 13.392C222.366 13.872 221.411 14.112 220.366 14.112ZM220.366 12.528C221.102 12.528 221.758 12.3627 222.334 12.032C222.91 11.6907 223.358 11.2107 223.678 10.592C224.008 9.96267 224.174 9.23733 224.174 8.416C224.174 7.59467 224.008 6.87467 223.678 6.256C223.358 5.63733 222.91 5.16267 222.334 4.832C221.758 4.50133 221.102 4.336 220.366 4.336C219.63 4.336 218.974 4.50133 218.398 4.832C217.822 5.16267 217.368 5.63733 217.038 6.256C216.718 6.87467 216.558 7.59467 216.558 8.416C216.558 9.23733 216.718 9.96267 217.038 10.592C217.368 11.2107 217.822 11.6907 218.398 12.032C218.974 12.3627 219.63 12.528 220.366 12.528ZM233.617 14L231.057 9.552H229.665V14H227.841V2.88H231.681C232.534 2.88 233.254 3.02933 233.841 3.328C234.438 3.62667 234.881 4.02667 235.169 4.528C235.467 5.02933 235.617 5.58933 235.617 6.208C235.617 6.93333 235.403 7.59467 234.977 8.192C234.561 8.77867 233.915 9.17867 233.041 9.392L235.793 14H233.617ZM229.665 8.096H231.681C232.363 8.096 232.875 7.92533 233.217 7.584C233.569 7.24267 233.745 6.784 233.745 6.208C233.745 5.632 233.574 5.184 233.233 4.864C232.891 4.53333 232.374 4.368 231.681 4.368H229.665V8.096ZM239.774 4.352V7.616H243.614V9.104H239.774V12.512H244.094V14H237.95V2.864H244.094V4.352H239.774Z" fill="#0077B6"/>
</svg>
