<svg width="617" height="64" viewBox="0 0 617 64" fill="none" xmlns="http://www.w3.org/2000/svg">
<path d="M13.9403 4.32V21H11.2043V13.704H3.35631V21H0.620313V4.32H3.35631V11.472H11.2043V4.32H13.9403ZM16.6302 14.328C16.6302 13 16.9022 11.824 17.4462 10.8C18.0062 9.776 18.7582 8.984 19.7022 8.424C20.6622 7.848 21.7182 7.56 22.8702 7.56C23.9102 7.56 24.8142 7.768 25.5822 8.184C26.3662 8.584 26.9902 9.088 27.4542 9.696V7.776H30.2142V21H27.4542V19.032C26.9902 19.656 26.3582 20.176 25.5582 20.592C24.7582 21.008 23.8462 21.216 22.8222 21.216C21.6862 21.216 20.6462 20.928 19.7022 20.352C18.7582 19.76 18.0062 18.944 17.4462 17.904C16.9022 16.848 16.6302 15.656 16.6302 14.328ZM27.4542 14.376C27.4542 13.464 27.2622 12.672 26.8782 12C26.5102 11.328 26.0222 10.816 25.4142 10.464C24.8062 10.112 24.1502 9.936 23.4462 9.936C22.7422 9.936 22.0862 10.112 21.4782 10.464C20.8702 10.8 20.3742 11.304 19.9902 11.976C19.6222 12.632 19.4382 13.416 19.4382 14.328C19.4382 15.24 19.6222 16.04 19.9902 16.728C20.3742 17.416 20.8702 17.944 21.4782 18.312C22.1022 18.664 22.7582 18.84 23.4462 18.84C24.1502 18.84 24.8062 18.664 25.4142 18.312C26.0222 17.96 26.5102 17.448 26.8782 16.776C27.2622 16.088 27.4542 15.288 27.4542 14.376ZM19.9662 6.408C20.0942 5.48 20.3982 4.784 20.8782 4.32C21.3582 3.84 21.9582 3.6 22.6782 3.6C22.9822 3.6 23.2462 3.648 23.4702 3.744C23.6942 3.84 23.9662 3.984 24.2862 4.176C24.5262 4.336 24.7262 4.456 24.8862 4.536C25.0622 4.616 25.2542 4.656 25.4622 4.656C25.7342 4.656 25.9582 4.576 26.1342 4.416C26.3262 4.24 26.4462 3.984 26.4942 3.648H28.0302C27.9022 4.576 27.5982 5.28 27.1182 5.76C26.6382 6.224 26.0382 6.456 25.3182 6.456C25.0142 6.456 24.7422 6.408 24.5022 6.312C24.2622 6.2 23.9982 6.048 23.7102 5.856C23.4222 5.68 23.1982 5.56 23.0382 5.496C22.8942 5.416 22.7262 5.376 22.5342 5.376C22.2622 5.376 22.0302 5.464 21.8382 5.64C21.6622 5.816 21.5502 6.072 21.5022 6.408H19.9662ZM45.7118 7.776L37.5998 27.216H34.7678L37.4558 20.784L32.2478 7.776H35.2958L39.0158 17.856L42.8798 7.776H45.7118ZM68.0989 6.84H66.6829V21H63.9229V19.008C63.4749 19.648 62.8509 20.176 62.0509 20.592C61.2669 21.008 60.3629 21.216 59.3389 21.216C58.1869 21.216 57.1309 20.928 56.1709 20.352C55.2269 19.76 54.4749 18.944 53.9149 17.904C53.3709 16.848 53.0989 15.656 53.0989 14.328C53.0989 13 53.3709 11.824 53.9149 10.8C54.4749 9.776 55.2269 8.984 56.1709 8.424C57.1309 7.848 58.1949 7.56 59.3629 7.56C60.2269 7.56 61.0749 7.752 61.9069 8.136C62.7549 8.504 63.4269 9 63.9229 9.624V6.84H61.9549V5.256H63.9229V3.24H66.6829V5.256H68.0989V6.84ZM59.9149 18.84C60.6189 18.84 61.2749 18.664 61.8829 18.312C62.4909 17.96 62.9789 17.448 63.3469 16.776C63.7309 16.088 63.9229 15.288 63.9229 14.376C63.9229 13.464 63.7309 12.672 63.3469 12C62.9789 11.328 62.4909 10.816 61.8829 10.464C61.2749 10.112 60.6189 9.936 59.9149 9.936C59.2109 9.936 58.5549 10.112 57.9469 10.464C57.3389 10.8 56.8429 11.304 56.4589 11.976C56.0909 12.632 55.9069 13.416 55.9069 14.328C55.9069 15.24 56.0909 16.04 56.4589 16.728C56.8429 17.416 57.3389 17.944 57.9469 18.312C58.5709 18.664 59.2269 18.84 59.9149 18.84ZM69.3646 14.328C69.3646 13 69.6366 11.824 70.1806 10.8C70.7406 9.776 71.4926 8.984 72.4366 8.424C73.3966 7.848 74.4526 7.56 75.6046 7.56C76.6446 7.56 77.5486 7.768 78.3166 8.184C79.1006 8.584 79.7246 9.088 80.1886 9.696V7.776H82.9486V21H80.1886V19.032C79.7246 19.656 79.0926 20.176 78.2926 20.592C77.4926 21.008 76.5806 21.216 75.5566 21.216C74.4206 21.216 73.3806 20.928 72.4366 20.352C71.4926 19.76 70.7406 18.944 70.1806 17.904C69.6366 16.848 69.3646 15.656 69.3646 14.328ZM80.1886 14.376C80.1886 13.464 79.9966 12.672 79.6126 12C79.2446 11.328 78.7566 10.816 78.1486 10.464C77.5406 10.112 76.8846 9.936 76.1806 9.936C75.4766 9.936 74.8206 10.112 74.2126 10.464C73.6046 10.8 73.1086 11.304 72.7246 11.976C72.3566 12.632 72.1726 13.416 72.1726 14.328C72.1726 15.24 72.3566 16.04 72.7246 16.728C73.1086 17.416 73.6046 17.944 74.2126 18.312C74.8366 18.664 75.4926 18.84 76.1806 18.84C76.8846 18.84 77.5406 18.664 78.1486 18.312C78.7566 17.96 79.2446 17.448 79.6126 16.776C79.9966 16.088 80.1886 15.288 80.1886 14.376ZM80.2366 3.336C80.2366 4.344 79.9086 5.152 79.2526 5.76C78.6126 6.368 77.7326 6.672 76.6126 6.672C75.4926 6.672 74.6126 6.368 73.9726 5.76C73.3326 5.136 73.0126 4.32 73.0126 3.312V2.808H74.5726C74.5726 3.384 74.7246 3.816 75.0286 4.104C75.3326 4.392 75.8606 4.536 76.6126 4.536C77.3646 4.536 77.8926 4.392 78.1966 4.104C78.5006 3.816 78.6526 3.384 78.6526 2.808H80.2366V3.336ZM93.2142 7.56C94.2542 7.56 95.1822 7.776 95.9982 8.208C96.8302 8.64 97.4782 9.28 97.9422 10.128C98.4062 10.976 98.6382 12 98.6382 13.2V21H95.9262V13.608C95.9262 12.424 95.6302 11.52 95.0382 10.896C94.4462 10.256 93.6382 9.936 92.6142 9.936C91.5902 9.936 90.7742 10.256 90.1662 10.896C89.5742 11.52 89.2782 12.424 89.2782 13.608V21H86.5422V7.776H89.2782V9.288C89.7262 8.744 90.2942 8.32 90.9822 8.016C91.6862 7.712 92.4302 7.56 93.2142 7.56ZM107.456 7.56C108.48 7.56 109.384 7.768 110.168 8.184C110.968 8.584 111.592 9.088 112.04 9.696V7.776H114.8V21.216C114.8 22.432 114.544 23.512 114.032 24.456C113.52 25.416 112.776 26.168 111.8 26.712C110.84 27.256 109.688 27.528 108.344 27.528C106.552 27.528 105.064 27.104 103.88 26.256C102.696 25.424 102.024 24.288 101.864 22.848H104.576C104.784 23.536 105.224 24.088 105.896 24.504C106.584 24.936 107.4 25.152 108.344 25.152C109.448 25.152 110.336 24.816 111.008 24.144C111.696 23.472 112.04 22.496 112.04 21.216V19.008C111.576 19.632 110.944 20.16 110.144 20.592C109.36 21.008 108.464 21.216 107.456 21.216C106.304 21.216 105.248 20.928 104.288 20.352C103.344 19.76 102.592 18.944 102.032 17.904C101.488 16.848 101.216 15.656 101.216 14.328C101.216 13 101.488 11.824 102.032 10.8C102.592 9.776 103.344 8.984 104.288 8.424C105.248 7.848 106.304 7.56 107.456 7.56ZM112.04 14.376C112.04 13.464 111.848 12.672 111.464 12C111.096 11.328 110.608 10.816 110 10.464C109.392 10.112 108.736 9.936 108.032 9.936C107.328 9.936 106.672 10.112 106.064 10.464C105.456 10.8 104.96 11.304 104.576 11.976C104.208 12.632 104.024 13.416 104.024 14.328C104.024 15.24 104.208 16.04 104.576 16.728C104.96 17.416 105.456 17.944 106.064 18.312C106.688 18.664 107.344 18.84 108.032 18.84C108.736 18.84 109.392 18.664 110 18.312C110.608 17.96 111.096 17.448 111.464 16.776C111.848 16.088 112.04 15.288 112.04 14.376ZM129.86 14.4L135.956 21H132.26L127.364 15.312V21H124.628V3.24H127.364V13.56L132.164 7.776H135.956L129.86 14.4ZM149.821 7.776L141.709 27.216H138.877L141.565 20.784L136.357 7.776H139.405L143.125 17.856L146.989 7.776H149.821ZM145.573 4.224L140.269 6.84V4.824L145.573 1.896V4.224ZM161.312 10.008V17.328C161.312 17.824 161.424 18.184 161.648 18.408C161.888 18.616 162.288 18.72 162.848 18.72H164.528V21H162.368C161.136 21 160.192 20.712 159.536 20.136C158.88 19.56 158.552 18.624 158.552 17.328V10.008H156.992V7.776H158.552V4.488H161.312V7.776H164.528V10.008H161.312ZM166.138 14.328C166.138 13 166.41 11.824 166.954 10.8C167.514 9.776 168.266 8.984 169.21 8.424C170.17 7.848 171.226 7.56 172.378 7.56C173.418 7.56 174.322 7.768 175.09 8.184C175.874 8.584 176.498 9.088 176.962 9.696V7.776H179.722V21H176.962V19.032C176.498 19.656 175.866 20.176 175.066 20.592C174.266 21.008 173.354 21.216 172.33 21.216C171.194 21.216 170.154 20.928 169.21 20.352C168.266 19.76 167.514 18.944 166.954 17.904C166.41 16.848 166.138 15.656 166.138 14.328ZM176.962 14.376C176.962 13.464 176.77 12.672 176.386 12C176.018 11.328 175.53 10.816 174.922 10.464C174.314 10.112 173.658 9.936 172.954 9.936C172.25 9.936 171.594 10.112 170.986 10.464C170.378 10.8 169.882 11.304 169.498 11.976C169.13 12.632 168.946 13.416 168.946 14.328C168.946 15.24 169.13 16.04 169.498 16.728C169.882 17.416 170.378 17.944 170.986 18.312C171.61 18.664 172.266 18.84 172.954 18.84C173.658 18.84 174.314 18.664 174.922 18.312C175.53 17.96 176.018 17.448 176.386 16.776C176.77 16.088 176.962 15.288 176.962 14.376ZM175.858 4.824V6.84L170.554 4.224V1.896L175.858 4.824ZM184.708 6.024C184.212 6.024 183.796 5.856 183.46 5.52C183.124 5.184 182.956 4.768 182.956 4.272C182.956 3.776 183.124 3.36 183.46 3.024C183.796 2.688 184.212 2.52 184.708 2.52C185.188 2.52 185.596 2.688 185.932 3.024C186.268 3.36 186.436 3.776 186.436 4.272C186.436 4.768 186.268 5.184 185.932 5.52C185.596 5.856 185.188 6.024 184.708 6.024ZM186.052 7.776V21H183.316V7.776H186.052ZM201.11 14.4L207.206 21H203.51L198.614 15.312V21H195.878V3.24H198.614V13.56L203.414 7.776H207.206L201.11 14.4ZM216.007 7.56C217.015 7.56 217.911 7.776 218.695 8.208C219.495 8.64 220.119 9.28 220.567 10.128C221.031 10.976 221.263 12 221.263 13.2V21H218.551V13.608C218.551 12.424 218.255 11.52 217.663 10.896C217.071 10.256 216.263 9.936 215.239 9.936C214.215 9.936 213.399 10.256 212.791 10.896C212.199 11.52 211.903 12.424 211.903 13.608V21H209.167V3.24H211.903V9.312C212.367 8.752 212.951 8.32 213.655 8.016C214.375 7.712 215.159 7.56 216.007 7.56ZM230.489 21.216C229.241 21.216 228.113 20.936 227.105 20.376C226.097 19.8 225.305 19 224.729 17.976C224.153 16.936 223.865 15.736 223.865 14.376C223.865 13.032 224.161 11.84 224.753 10.8C225.345 9.76 226.153 8.96 227.177 8.4C228.201 7.84 229.345 7.56 230.609 7.56C231.873 7.56 233.017 7.84 234.041 8.4C235.065 8.96 235.873 9.76 236.465 10.8C237.057 11.84 237.353 13.032 237.353 14.376C237.353 15.72 237.049 16.912 236.441 17.952C235.833 18.992 235.001 19.8 233.945 20.376C232.905 20.936 231.753 21.216 230.489 21.216ZM230.489 18.84C231.193 18.84 231.849 18.672 232.457 18.336C233.081 18 233.585 17.496 233.969 16.824C234.353 16.152 234.545 15.336 234.545 14.376C234.545 13.416 234.361 12.608 233.993 11.952C233.625 11.28 233.137 10.776 232.529 10.44C231.921 10.104 231.265 9.936 230.561 9.936C229.857 9.936 229.201 10.104 228.593 10.44C228.001 10.776 227.529 11.28 227.177 11.952C226.825 12.608 226.649 13.416 226.649 14.376C226.649 15.8 227.009 16.904 227.729 17.688C228.465 18.456 229.385 18.84 230.489 18.84ZM245.17 7.92C246.738 7.92 247.898 8.264 248.65 8.952C249.402 9.64 249.778 10.736 249.778 12.24V21H248.242L247.834 19.176H247.738C247.37 19.64 246.986 20.032 246.586 20.352C246.202 20.656 245.754 20.88 245.242 21.024C244.746 21.168 244.138 21.24 243.418 21.24C242.65 21.24 241.954 21.104 241.33 20.832C240.722 20.56 240.242 20.144 239.89 19.584C239.538 19.008 239.362 18.288 239.362 17.424C239.362 16.144 239.866 15.16 240.874 14.472C241.882 13.768 243.434 13.384 245.53 13.32L247.714 13.248V12.48C247.714 11.408 247.482 10.664 247.018 10.248C246.554 9.832 245.898 9.624 245.05 9.624C244.378 9.624 243.738 9.728 243.13 9.936C242.522 10.128 241.954 10.352 241.426 10.608L240.778 9.024C241.338 8.72 242.002 8.464 242.77 8.256C243.538 8.032 244.338 7.92 245.17 7.92ZM245.794 14.784C244.194 14.848 243.082 15.104 242.458 15.552C241.85 16 241.546 16.632 241.546 17.448C241.546 18.168 241.762 18.696 242.194 19.032C242.642 19.368 243.21 19.536 243.898 19.536C244.986 19.536 245.89 19.24 246.61 18.648C247.33 18.04 247.69 17.112 247.69 15.864V14.712L245.794 14.784ZM247.426 3.48C247.426 4.088 247.242 4.56 246.874 4.896C246.506 5.216 246.042 5.44 245.482 5.568L245.362 6.84H244.066L243.898 4.8C244.474 4.704 244.93 4.568 245.266 4.392C245.618 4.2 245.794 3.92 245.794 3.552C245.794 3.168 245.642 2.912 245.338 2.784C245.05 2.656 244.682 2.592 244.234 2.592C244.026 2.592 243.81 2.6 243.586 2.616C243.378 2.632 243.21 2.656 243.082 2.688V1.44C243.226 1.392 243.402 1.36 243.61 1.344C243.834 1.312 244.098 1.296 244.402 1.296C245.362 1.296 246.106 1.472 246.634 1.824C247.162 2.176 247.426 2.728 247.426 3.48ZM260.183 7.56C261.223 7.56 262.151 7.776 262.967 8.208C263.799 8.64 264.447 9.28 264.911 10.128C265.375 10.976 265.607 12 265.607 13.2V21H262.895V13.608C262.895 12.424 262.599 11.52 262.007 10.896C261.415 10.256 260.607 9.936 259.583 9.936C258.559 9.936 257.743 10.256 257.135 10.896C256.543 11.52 256.247 12.424 256.247 13.608V21H253.511V7.776H256.247V9.288C256.695 8.744 257.263 8.32 257.951 8.016C258.655 7.712 259.399 7.56 260.183 7.56ZM289.419 6.84H288.003V21H285.243V19.008C284.795 19.648 284.171 20.176 283.371 20.592C282.587 21.008 281.683 21.216 280.659 21.216C279.507 21.216 278.451 20.928 277.491 20.352C276.547 19.76 275.795 18.944 275.235 17.904C274.691 16.848 274.419 15.656 274.419 14.328C274.419 13 274.691 11.824 275.235 10.8C275.795 9.776 276.547 8.984 277.491 8.424C278.451 7.848 279.515 7.56 280.683 7.56C281.547 7.56 282.395 7.752 283.227 8.136C284.075 8.504 284.747 9 285.243 9.624V6.84H283.275V5.256H285.243V3.24H288.003V5.256H289.419V6.84ZM281.235 18.84C281.939 18.84 282.595 18.664 283.203 18.312C283.811 17.96 284.299 17.448 284.667 16.776C285.051 16.088 285.243 15.288 285.243 14.376C285.243 13.464 285.051 12.672 284.667 12C284.299 11.328 283.811 10.816 283.203 10.464C282.595 10.112 281.939 9.936 281.235 9.936C280.531 9.936 279.875 10.112 279.267 10.464C278.659 10.8 278.163 11.304 277.779 11.976C277.411 12.632 277.227 13.416 277.227 14.328C277.227 15.24 277.411 16.04 277.779 16.728C278.163 17.416 278.659 17.944 279.267 18.312C279.891 18.664 280.547 18.84 281.235 18.84ZM297.741 3.096C297.997 3.448 298.269 3.808 298.557 4.176C298.845 4.528 299.133 4.872 299.421 5.208C299.725 5.544 300.013 5.864 300.285 6.168V6.456H299.109C298.709 6.184 298.301 5.888 297.885 5.568C297.469 5.232 297.053 4.88 296.637 4.512C296.221 4.88 295.805 5.232 295.389 5.568C294.973 5.888 294.565 6.184 294.165 6.456H292.989V6.168C293.261 5.864 293.541 5.544 293.829 5.208C294.133 4.872 294.429 4.528 294.717 4.176C295.021 3.808 295.293 3.448 295.533 3.096H297.741ZM299.997 0.0959988C300.733 0.0959988 301.301 0.231999 301.701 0.503999C302.101 0.776 302.301 1.192 302.301 1.752C302.301 2.216 302.157 2.568 301.869 2.808C301.581 3.032 301.229 3.192 300.813 3.288L300.741 4.224H299.757L299.637 2.712C300.101 2.632 300.453 2.536 300.693 2.424C300.933 2.296 301.053 2.088 301.053 1.8C301.053 1.528 300.941 1.344 300.717 1.248C300.509 1.136 300.237 1.08 299.901 1.08C299.741 1.08 299.581 1.088 299.421 1.104C299.277 1.104 299.157 1.12 299.061 1.152V0.167999C299.157 0.135999 299.285 0.119998 299.445 0.119998C299.605 0.103999 299.789 0.0959988 299.997 0.0959988ZM296.805 7.896C297.909 7.896 298.853 8.136 299.637 8.616C300.437 9.096 301.045 9.776 301.461 10.656C301.893 11.52 302.109 12.536 302.109 13.704V14.976H293.301C293.333 16.432 293.701 17.544 294.405 18.312C295.125 19.064 296.125 19.44 297.405 19.44C298.221 19.44 298.941 19.368 299.565 19.224C300.205 19.064 300.861 18.84 301.533 18.552V20.4C300.877 20.688 300.229 20.896 299.589 21.024C298.949 21.168 298.189 21.24 297.309 21.24C296.093 21.24 295.013 20.992 294.069 20.496C293.141 20 292.413 19.264 291.885 18.288C291.373 17.296 291.117 16.088 291.117 14.664C291.117 13.256 291.349 12.048 291.813 11.04C292.293 10.032 292.957 9.256 293.805 8.712C294.669 8.168 295.669 7.896 296.805 7.896ZM296.781 9.624C295.773 9.624 294.973 9.952 294.381 10.608C293.805 11.248 293.461 12.144 293.349 13.296H299.901C299.901 12.56 299.789 11.92 299.565 11.376C299.341 10.832 298.997 10.408 298.533 10.104C298.085 9.784 297.501 9.624 296.781 9.624ZM314.57 10.008V17.328C314.57 17.824 314.682 18.184 314.906 18.408C315.146 18.616 315.546 18.72 316.106 18.72H317.786V21H315.626C314.394 21 313.45 20.712 312.794 20.136C312.138 19.56 311.81 18.624 311.81 17.328V10.008H310.25V7.776H311.81V4.488H314.57V7.776H317.786V10.008H314.57ZM321.7 6.024C321.204 6.024 320.788 5.856 320.452 5.52C320.116 5.184 319.948 4.768 319.948 4.272C319.948 3.776 320.116 3.36 320.452 3.024C320.788 2.688 321.204 2.52 321.7 2.52C322.18 2.52 322.588 2.688 322.924 3.024C323.26 3.36 323.428 3.776 323.428 4.272C323.428 4.768 323.26 5.184 322.924 5.52C322.588 5.856 322.18 6.024 321.7 6.024ZM323.044 7.776V21H320.308V7.776H323.044ZM334.268 6.456C333.868 6.184 333.46 5.888 333.044 5.568C332.628 5.232 332.212 4.88 331.796 4.512C331.38 4.88 330.964 5.232 330.548 5.568C330.132 5.888 329.724 6.184 329.324 6.456H328.148V6.168C328.42 5.864 328.7 5.544 328.988 5.208C329.292 4.872 329.588 4.528 329.876 4.176C330.18 3.808 330.452 3.448 330.692 3.096H332.9C333.156 3.448 333.428 3.808 333.716 4.176C334.004 4.528 334.292 4.872 334.58 5.208C334.884 5.544 335.172 5.864 335.444 6.168V6.456H334.268ZM334.508 3.888C334.828 3.488 335.092 3.12 335.3 2.784C335.508 2.448 335.74 2.024 335.996 1.512H338.108V1.752C337.756 2.216 337.372 2.656 336.956 3.072C336.54 3.472 336.124 3.84 335.708 4.176H334.508V3.888ZM331.844 7.896C332.948 7.896 333.892 8.136 334.676 8.616C335.476 9.096 336.084 9.776 336.5 10.656C336.932 11.52 337.148 12.536 337.148 13.704V14.976H328.34C328.372 16.432 328.74 17.544 329.444 18.312C330.164 19.064 331.164 19.44 332.444 19.44C333.26 19.44 333.98 19.368 334.604 19.224C335.244 19.064 335.9 18.84 336.572 18.552V20.4C335.916 20.688 335.268 20.896 334.628 21.024C333.988 21.168 333.228 21.24 332.348 21.24C331.132 21.24 330.052 20.992 329.108 20.496C328.18 20 327.452 19.264 326.924 18.288C326.412 17.296 326.156 16.088 326.156 14.664C326.156 13.256 326.388 12.048 326.852 11.04C327.332 10.032 327.996 9.256 328.844 8.712C329.708 8.168 330.708 7.896 331.844 7.896ZM331.82 9.624C330.812 9.624 330.012 9.952 329.42 10.608C328.844 11.248 328.5 12.144 328.388 13.296H334.94C334.94 12.56 334.828 11.92 334.604 11.376C334.38 10.832 334.036 10.408 333.572 10.104C333.124 9.784 332.54 9.624 331.82 9.624ZM342.919 9.72C343.383 9.112 344.015 8.6 344.815 8.184C345.615 7.768 346.519 7.56 347.527 7.56C348.679 7.56 349.727 7.848 350.671 8.424C351.631 8.984 352.383 9.776 352.927 10.8C353.471 11.824 353.743 13 353.743 14.328C353.743 15.656 353.471 16.848 352.927 17.904C352.383 18.944 351.631 19.76 350.671 20.352C349.727 20.928 348.679 21.216 347.527 21.216C346.519 21.216 345.623 21.016 344.839 20.616C344.055 20.2 343.415 19.688 342.919 19.08V27.288H340.183V7.776H342.919V9.72ZM350.959 14.328C350.959 13.416 350.767 12.632 350.383 11.976C350.015 11.304 349.519 10.8 348.895 10.464C348.287 10.112 347.631 9.936 346.927 9.936C346.239 9.936 345.583 10.112 344.959 10.464C344.351 10.816 343.855 11.328 343.471 12C343.103 12.672 342.919 13.464 342.919 14.376C342.919 15.288 343.103 16.088 343.471 16.776C343.855 17.448 344.351 17.96 344.959 18.312C345.583 18.664 346.239 18.84 346.927 18.84C347.631 18.84 348.287 18.664 348.895 18.312C349.519 17.944 350.015 17.416 350.383 16.728C350.767 16.04 350.959 15.24 350.959 14.328ZM361.771 14.376C361.771 13.016 362.043 11.824 362.587 10.8C363.147 9.76 363.915 8.96 364.891 8.4C365.867 7.84 366.987 7.56 368.251 7.56C369.851 7.56 371.171 7.944 372.211 8.712C373.267 9.464 373.979 10.544 374.347 11.952H371.395C371.155 11.296 370.771 10.784 370.243 10.416C369.715 10.048 369.051 9.864 368.251 9.864C367.131 9.864 366.235 10.264 365.563 11.064C364.907 11.848 364.579 12.952 364.579 14.376C364.579 15.8 364.907 16.912 365.563 17.712C366.235 18.512 367.131 18.912 368.251 18.912C369.835 18.912 370.883 18.216 371.395 16.824H374.347C373.963 18.168 373.243 19.24 372.187 20.04C371.131 20.824 369.819 21.216 368.251 21.216C366.987 21.216 365.867 20.936 364.891 20.376C363.915 19.8 363.147 19 362.587 17.976C362.043 16.936 361.771 15.736 361.771 14.376ZM382.185 7.92C383.753 7.92 384.913 8.264 385.665 8.952C386.417 9.64 386.793 10.736 386.793 12.24V21H385.257L384.849 19.176H384.753C384.385 19.64 384.001 20.032 383.601 20.352C383.217 20.656 382.769 20.88 382.257 21.024C381.761 21.168 381.153 21.24 380.433 21.24C379.665 21.24 378.969 21.104 378.345 20.832C377.737 20.56 377.257 20.144 376.905 19.584C376.553 19.008 376.377 18.288 376.377 17.424C376.377 16.144 376.881 15.16 377.889 14.472C378.897 13.768 380.449 13.384 382.545 13.32L384.729 13.248V12.48C384.729 11.408 384.497 10.664 384.033 10.248C383.569 9.832 382.913 9.624 382.065 9.624C381.393 9.624 380.753 9.728 380.145 9.936C379.537 10.128 378.969 10.352 378.441 10.608L377.793 9.024C378.353 8.72 379.017 8.464 379.785 8.256C380.553 8.032 381.353 7.92 382.185 7.92ZM382.809 14.784C381.209 14.848 380.097 15.104 379.473 15.552C378.865 16 378.561 16.632 378.561 17.448C378.561 18.168 378.777 18.696 379.209 19.032C379.657 19.368 380.225 19.536 380.913 19.536C382.001 19.536 382.905 19.24 383.625 18.648C384.345 18.04 384.705 17.112 384.705 15.864V14.712L382.809 14.784ZM383.121 2.616C383.313 2.968 383.585 3.368 383.937 3.816C384.305 4.248 384.681 4.68 385.065 5.112C385.465 5.528 385.817 5.888 386.121 6.192V6.456H384.633C384.217 6.2 383.785 5.888 383.337 5.52C382.889 5.136 382.449 4.728 382.017 4.296C381.585 4.728 381.153 5.128 380.721 5.496C380.289 5.864 379.865 6.184 379.449 6.456H378.009V6.192C378.313 5.872 378.649 5.504 379.017 5.088C379.401 4.672 379.769 4.248 380.121 3.816C380.473 3.368 380.753 2.968 380.961 2.616H383.121ZM381.849 25.224C381.513 25.224 381.217 25.112 380.961 24.888C380.721 24.664 380.601 24.328 380.601 23.88C380.601 23.416 380.721 23.072 380.961 22.848C381.217 22.64 381.513 22.536 381.849 22.536C382.185 22.536 382.473 22.64 382.713 22.848C382.969 23.072 383.097 23.416 383.097 23.88C383.097 24.328 382.969 24.664 382.713 24.888C382.473 25.112 382.185 25.224 381.849 25.224ZM397.199 7.56C398.239 7.56 399.167 7.776 399.983 8.208C400.815 8.64 401.463 9.28 401.927 10.128C402.391 10.976 402.623 12 402.623 13.2V21H399.911V13.608C399.911 12.424 399.615 11.52 399.023 10.896C398.431 10.256 397.623 9.936 396.599 9.936C395.575 9.936 394.759 10.256 394.151 10.896C393.559 11.52 393.263 12.424 393.263 13.608V21H390.527V7.776H393.263V9.288C393.711 8.744 394.279 8.32 394.967 8.016C395.671 7.712 396.415 7.56 397.199 7.56ZM411.435 14.376C411.435 13.016 411.707 11.824 412.251 10.8C412.811 9.76 413.579 8.96 414.555 8.4C415.531 7.84 416.651 7.56 417.915 7.56C419.515 7.56 420.835 7.944 421.875 8.712C422.931 9.464 423.643 10.544 424.011 11.952H421.059C420.819 11.296 420.435 10.784 419.907 10.416C419.379 10.048 418.715 9.864 417.915 9.864C416.795 9.864 415.899 10.264 415.227 11.064C414.571 11.848 414.243 12.952 414.243 14.376C414.243 15.8 414.571 16.912 415.227 17.712C415.899 18.512 416.795 18.912 417.915 18.912C419.499 18.912 420.547 18.216 421.059 16.824H424.011C423.627 18.168 422.907 19.24 421.851 20.04C420.795 20.824 419.483 21.216 417.915 21.216C416.651 21.216 415.531 20.936 414.555 20.376C413.579 19.8 412.811 19 412.251 17.976C411.707 16.936 411.435 15.736 411.435 14.376ZM425.826 14.328C425.826 13 426.098 11.824 426.642 10.8C427.202 9.776 427.954 8.984 428.898 8.424C429.858 7.848 430.914 7.56 432.066 7.56C433.106 7.56 434.01 7.768 434.778 8.184C435.562 8.584 436.186 9.088 436.65 9.696V7.776H439.41V21H436.65V19.032C436.186 19.656 435.554 20.176 434.754 20.592C433.954 21.008 433.042 21.216 432.018 21.216C430.882 21.216 429.842 20.928 428.898 20.352C427.954 19.76 427.202 18.944 426.642 17.904C426.098 16.848 425.826 15.656 425.826 14.328ZM436.65 14.376C436.65 13.464 436.458 12.672 436.074 12C435.706 11.328 435.218 10.816 434.61 10.464C434.002 10.112 433.346 9.936 432.642 9.936C431.938 9.936 431.282 10.112 430.674 10.464C430.066 10.8 429.57 11.304 429.186 11.976C428.818 12.632 428.634 13.416 428.634 14.328C428.634 15.24 428.818 16.04 429.186 16.728C429.57 17.416 430.066 17.944 430.674 18.312C431.298 18.664 431.954 18.84 432.642 18.84C433.346 18.84 434.002 18.664 434.61 18.312C435.218 17.96 435.706 17.448 436.074 16.776C436.458 16.088 436.65 15.288 436.65 14.376ZM435.546 4.224L430.242 6.84V4.824L435.546 1.896V4.224ZM442.091 14.376C442.091 13.016 442.363 11.824 442.907 10.8C443.467 9.76 444.235 8.96 445.211 8.4C446.187 7.84 447.307 7.56 448.571 7.56C450.171 7.56 451.491 7.944 452.531 8.712C453.587 9.464 454.299 10.544 454.667 11.952H451.715C451.475 11.296 451.091 10.784 450.563 10.416C450.035 10.048 449.371 9.864 448.571 9.864C447.451 9.864 446.555 10.264 445.883 11.064C445.227 11.848 444.899 12.952 444.899 14.376C444.899 15.8 445.227 16.912 445.883 17.712C446.555 18.512 447.451 18.912 448.571 18.912C450.155 18.912 451.203 18.216 451.715 16.824H454.667C454.283 18.168 453.563 19.24 452.507 20.04C451.451 20.824 450.139 21.216 448.571 21.216C447.307 21.216 446.187 20.936 445.211 20.376C444.235 19.8 443.467 19 442.907 17.976C442.363 16.936 442.091 15.736 442.091 14.376ZM478.82 6.408C478.724 6.968 478.58 7.512 478.388 8.04C478.212 8.568 477.964 9.048 477.644 9.48C477.34 9.896 476.94 10.248 476.444 10.536C475.948 10.808 475.34 10.984 474.62 11.064V21H472.892L472.58 19.296H472.484C472.212 19.744 471.86 20.112 471.428 20.4C471.012 20.688 470.548 20.896 470.036 21.024C469.524 21.168 468.996 21.24 468.452 21.24C467.412 21.24 466.54 21.08 465.836 20.76C465.132 20.424 464.604 19.912 464.252 19.224C463.9 18.536 463.724 17.648 463.724 16.56V8.16H465.86V16.416C465.86 17.44 466.092 18.208 466.556 18.72C467.02 19.232 467.74 19.488 468.716 19.488C470.14 19.488 471.124 19.088 471.668 18.288C472.228 17.488 472.508 16.336 472.508 14.832V8.16H474.62V9.576C475.132 9.48 475.516 9.28 475.772 8.976C476.028 8.672 476.196 8.28 476.276 7.8C476.372 7.304 476.42 6.752 476.42 6.144H478.652L478.82 6.408ZM472.628 2.856C472.484 3.08 472.276 3.352 472.004 3.672C471.732 3.992 471.428 4.328 471.092 4.68C470.772 5.016 470.444 5.344 470.108 5.664C469.788 5.968 469.484 6.232 469.196 6.456H467.804V6.168C468.044 5.864 468.3 5.504 468.572 5.088C468.86 4.672 469.14 4.248 469.412 3.816C469.684 3.368 469.908 2.968 470.084 2.616H472.628V2.856ZM486.472 7.56C487.512 7.56 488.44 7.776 489.256 8.208C490.088 8.64 490.736 9.28 491.2 10.128C491.664 10.976 491.896 12 491.896 13.2V21H489.184V13.608C489.184 12.424 488.888 11.52 488.296 10.896C487.704 10.256 486.896 9.936 485.872 9.936C484.848 9.936 484.032 10.256 483.424 10.896C482.832 11.52 482.536 12.424 482.536 13.608V21H479.8V7.776H482.536V9.288C482.984 8.744 483.552 8.32 484.24 8.016C484.944 7.712 485.688 7.56 486.472 7.56ZM500.714 7.56C501.738 7.56 502.642 7.768 503.426 8.184C504.226 8.584 504.85 9.088 505.298 9.696V7.776H508.058V21.216C508.058 22.432 507.802 23.512 507.29 24.456C506.778 25.416 506.034 26.168 505.058 26.712C504.098 27.256 502.946 27.528 501.602 27.528C499.81 27.528 498.322 27.104 497.138 26.256C495.954 25.424 495.282 24.288 495.122 22.848H497.834C498.042 23.536 498.482 24.088 499.154 24.504C499.842 24.936 500.658 25.152 501.602 25.152C502.706 25.152 503.594 24.816 504.266 24.144C504.954 23.472 505.298 22.496 505.298 21.216V19.008C504.834 19.632 504.202 20.16 503.402 20.592C502.618 21.008 501.722 21.216 500.714 21.216C499.562 21.216 498.506 20.928 497.546 20.352C496.602 19.76 495.85 18.944 495.29 17.904C494.746 16.848 494.474 15.656 494.474 14.328C494.474 13 494.746 11.824 495.29 10.8C495.85 9.776 496.602 8.984 497.546 8.424C498.506 7.848 499.562 7.56 500.714 7.56ZM505.298 14.376C505.298 13.464 505.106 12.672 504.722 12C504.354 11.328 503.866 10.816 503.258 10.464C502.65 10.112 501.994 9.936 501.29 9.936C500.586 9.936 499.93 10.112 499.322 10.464C498.714 10.8 498.218 11.304 497.834 11.976C497.466 12.632 497.282 13.416 497.282 14.328C497.282 15.24 497.466 16.04 497.834 16.728C498.218 17.416 498.714 17.944 499.322 18.312C499.946 18.664 500.602 18.84 501.29 18.84C501.994 18.84 502.65 18.664 503.258 18.312C503.866 17.96 504.354 17.448 504.722 16.776C505.106 16.088 505.298 15.288 505.298 14.376ZM522.998 18.552L526.742 7.776H529.646L524.606 21H521.342L516.326 7.776H519.254L522.998 18.552ZM533.106 6.024C532.61 6.024 532.194 5.856 531.858 5.52C531.522 5.184 531.354 4.768 531.354 4.272C531.354 3.776 531.522 3.36 531.858 3.024C532.194 2.688 532.61 2.52 533.106 2.52C533.586 2.52 533.994 2.688 534.33 3.024C534.666 3.36 534.834 3.776 534.834 4.272C534.834 4.768 534.666 5.184 534.33 5.52C533.994 5.856 533.586 6.024 533.106 6.024ZM534.45 7.776V21H531.714V7.776H534.45ZM550.162 14.064C550.162 14.56 550.13 15.008 550.066 15.408H539.962C540.042 16.464 540.434 17.312 541.138 17.952C541.842 18.592 542.706 18.912 543.73 18.912C545.202 18.912 546.242 18.296 546.85 17.064H549.802C549.402 18.28 548.674 19.28 547.618 20.064C546.578 20.832 545.282 21.216 543.73 21.216C542.466 21.216 541.33 20.936 540.322 20.376C539.33 19.8 538.546 19 537.97 17.976C537.41 16.936 537.13 15.736 537.13 14.376C537.13 13.016 537.402 11.824 537.946 10.8C538.506 9.76 539.282 8.96 540.274 8.4C541.282 7.84 542.434 7.56 543.73 7.56C544.978 7.56 546.09 7.832 547.066 8.376C548.042 8.92 548.802 9.688 549.346 10.68C549.89 11.656 550.162 12.784 550.162 14.064ZM547.306 13.2C547.29 12.192 546.93 11.384 546.226 10.776C545.522 10.168 544.65 9.864 543.61 9.864C542.666 9.864 541.858 10.168 541.186 10.776C540.514 11.368 540.114 12.176 539.986 13.2H547.306ZM543.658 4.776L540.226 6.84V4.704L543.658 2.712L547.09 4.704V6.84L543.658 4.776ZM559.527 7.56C560.567 7.56 561.495 7.776 562.311 8.208C563.143 8.64 563.791 9.28 564.255 10.128C564.719 10.976 564.951 12 564.951 13.2V21H562.239V13.608C562.239 12.424 561.943 11.52 561.351 10.896C560.759 10.256 559.951 9.936 558.927 9.936C557.903 9.936 557.087 10.256 556.479 10.896C555.887 11.52 555.591 12.424 555.591 13.608V21H552.855V7.776H555.591V9.288C556.039 8.744 556.607 8.32 557.295 8.016C557.999 7.712 558.743 7.56 559.527 7.56ZM577.411 9.744C577.875 9.104 578.507 8.584 579.307 8.184C580.123 7.768 581.027 7.56 582.019 7.56C583.187 7.56 584.243 7.84 585.187 8.4C586.131 8.96 586.875 9.76 587.419 10.8C587.963 11.824 588.235 13 588.235 14.328C588.235 15.656 587.963 16.848 587.419 17.904C586.875 18.944 586.123 19.76 585.163 20.352C584.219 20.928 583.171 21.216 582.019 21.216C580.995 21.216 580.083 21.016 579.283 20.616C578.499 20.216 577.875 19.704 577.411 19.08V21H574.675V3.24H577.411V9.744ZM585.451 14.328C585.451 13.416 585.259 12.632 584.875 11.976C584.507 11.304 584.011 10.8 583.387 10.464C582.779 10.112 582.123 9.936 581.419 9.936C580.731 9.936 580.075 10.112 579.451 10.464C578.843 10.816 578.347 11.328 577.963 12C577.595 12.672 577.411 13.464 577.411 14.376C577.411 15.288 577.595 16.088 577.963 16.776C578.347 17.448 578.843 17.96 579.451 18.312C580.075 18.664 580.731 18.84 581.419 18.84C582.123 18.84 582.779 18.664 583.387 18.312C584.011 17.944 584.507 17.416 584.875 16.728C585.259 16.04 585.451 15.24 585.451 14.328ZM596.053 7.92C597.621 7.92 598.781 8.264 599.533 8.952C600.285 9.64 600.661 10.736 600.661 12.24V21H599.125L598.717 19.176H598.621C598.253 19.64 597.869 20.032 597.469 20.352C597.085 20.656 596.637 20.88 596.125 21.024C595.629 21.168 595.021 21.24 594.301 21.24C593.533 21.24 592.837 21.104 592.213 20.832C591.605 20.56 591.125 20.144 590.773 19.584C590.421 19.008 590.245 18.288 590.245 17.424C590.245 16.144 590.749 15.16 591.757 14.472C592.765 13.768 594.317 13.384 596.413 13.32L598.597 13.248V12.48C598.597 11.408 598.365 10.664 597.901 10.248C597.437 9.832 596.781 9.624 595.933 9.624C595.261 9.624 594.621 9.728 594.013 9.936C593.405 10.128 592.837 10.352 592.309 10.608L591.661 9.024C592.221 8.72 592.885 8.464 593.653 8.256C594.421 8.032 595.221 7.92 596.053 7.92ZM596.677 14.784C595.077 14.848 593.965 15.104 593.341 15.552C592.733 16 592.429 16.632 592.429 17.448C592.429 18.168 592.645 18.696 593.077 19.032C593.525 19.368 594.093 19.536 594.781 19.536C595.869 19.536 596.773 19.24 597.493 18.648C598.213 18.04 598.573 17.112 598.573 15.864V14.712L596.677 14.784ZM595.861 25.224C595.525 25.224 595.229 25.112 594.973 24.888C594.733 24.664 594.613 24.328 594.613 23.88C594.613 23.416 594.733 23.072 594.973 22.848C595.229 22.64 595.525 22.536 595.861 22.536C596.197 22.536 596.485 22.64 596.725 22.848C596.981 23.072 597.109 23.416 597.109 23.88C597.109 24.328 596.981 24.664 596.725 24.888C596.485 25.112 596.197 25.224 595.861 25.224ZM611.066 7.56C612.106 7.56 613.034 7.776 613.85 8.208C614.682 8.64 615.33 9.28 615.794 10.128C616.258 10.976 616.49 12 616.49 13.2V21H613.778V13.608C613.778 12.424 613.482 11.52 612.89 10.896C612.298 10.256 611.49 9.936 610.466 9.936C609.442 9.936 608.626 10.256 608.018 10.896C607.426 11.52 607.13 12.424 607.13 13.608V21H604.394V7.776H607.13V9.288C607.578 8.744 608.146 8.32 608.834 8.016C609.538 7.712 610.282 7.56 611.066 7.56ZM70.6687 50.4L76.7647 57H73.0687L68.1727 51.312V57H65.4367V39.24H68.1727V49.56L72.9727 43.776H76.7647L70.6687 50.4ZM85.5658 43.56C86.5738 43.56 87.4698 43.776 88.2538 44.208C89.0538 44.64 89.6778 45.28 90.1258 46.128C90.5898 46.976 90.8218 48 90.8218 49.2V57H88.1098V49.608C88.1098 48.424 87.8138 47.52 87.2218 46.896C86.6298 46.256 85.8218 45.936 84.7978 45.936C83.7738 45.936 82.9578 46.256 82.3498 46.896C81.7578 47.52 81.4618 48.424 81.4618 49.608V57H78.7258V39.24H81.4618V45.312C81.9258 44.752 82.5098 44.32 83.2138 44.016C83.9338 43.712 84.7178 43.56 85.5658 43.56ZM100.048 57.216C98.7997 57.216 97.6717 56.936 96.6637 56.376C95.6557 55.8 94.8637 55 94.2877 53.976C93.7117 52.936 93.4237 51.736 93.4237 50.376C93.4237 49.032 93.7197 47.84 94.3117 46.8C94.9037 45.76 95.7117 44.96 96.7357 44.4C97.7597 43.84 98.9037 43.56 100.168 43.56C101.432 43.56 102.576 43.84 103.6 44.4C104.624 44.96 105.432 45.76 106.024 46.8C106.616 47.84 106.912 49.032 106.912 50.376C106.912 51.72 106.608 52.912 106 53.952C105.392 54.992 104.56 55.8 103.504 56.376C102.464 56.936 101.312 57.216 100.048 57.216ZM100.048 54.84C100.752 54.84 101.408 54.672 102.016 54.336C102.64 54 103.144 53.496 103.528 52.824C103.912 52.152 104.104 51.336 104.104 50.376C104.104 49.416 103.92 48.608 103.552 47.952C103.184 47.28 102.696 46.776 102.088 46.44C101.48 46.104 100.824 45.936 100.12 45.936C99.4157 45.936 98.7597 46.104 98.1517 46.44C97.5597 46.776 97.0877 47.28 96.7357 47.952C96.3837 48.608 96.2077 49.416 96.2077 50.376C96.2077 51.8 96.5677 52.904 97.2877 53.688C98.0237 54.456 98.9437 54.84 100.048 54.84ZM100.168 40.56L96.7357 42.624V40.488L100.168 38.496L103.6 40.488V42.624L100.168 40.56ZM116.288 43.56C117.328 43.56 118.256 43.776 119.072 44.208C119.904 44.64 120.552 45.28 121.016 46.128C121.48 46.976 121.712 48 121.712 49.2V57H119V49.608C119 48.424 118.704 47.52 118.112 46.896C117.52 46.256 116.712 45.936 115.688 45.936C114.664 45.936 113.848 46.256 113.24 46.896C112.648 47.52 112.352 48.424 112.352 49.608V57H109.616V43.776H112.352V45.288C112.8 44.744 113.368 44.32 114.056 44.016C114.76 43.712 115.504 43.56 116.288 43.56ZM130.53 43.56C131.554 43.56 132.458 43.768 133.242 44.184C134.042 44.584 134.666 45.088 135.114 45.696V43.776H137.874V57.216C137.874 58.432 137.618 59.512 137.106 60.456C136.594 61.416 135.85 62.168 134.874 62.712C133.914 63.256 132.762 63.528 131.418 63.528C129.626 63.528 128.138 63.104 126.954 62.256C125.77 61.424 125.098 60.288 124.938 58.848H127.65C127.858 59.536 128.298 60.088 128.97 60.504C129.658 60.936 130.474 61.152 131.418 61.152C132.522 61.152 133.41 60.816 134.082 60.144C134.77 59.472 135.114 58.496 135.114 57.216V55.008C134.65 55.632 134.018 56.16 133.218 56.592C132.434 57.008 131.538 57.216 130.53 57.216C129.378 57.216 128.322 56.928 127.362 56.352C126.418 55.76 125.666 54.944 125.106 53.904C124.562 52.848 124.29 51.656 124.29 50.328C124.29 49 124.562 47.824 125.106 46.8C125.666 45.776 126.418 44.984 127.362 44.424C128.322 43.848 129.378 43.56 130.53 43.56ZM135.114 50.376C135.114 49.464 134.922 48.672 134.538 48C134.17 47.328 133.682 46.816 133.074 46.464C132.466 46.112 131.81 45.936 131.106 45.936C130.402 45.936 129.746 46.112 129.138 46.464C128.53 46.8 128.034 47.304 127.65 47.976C127.282 48.632 127.098 49.416 127.098 50.328C127.098 51.24 127.282 52.04 127.65 52.728C128.034 53.416 128.53 53.944 129.138 54.312C129.762 54.664 130.418 54.84 131.106 54.84C131.81 54.84 132.466 54.664 133.074 54.312C133.682 53.96 134.17 53.448 134.538 52.776C134.922 52.088 135.114 51.288 135.114 50.376ZM150.894 46.008V53.328C150.894 53.824 151.006 54.184 151.23 54.408C151.47 54.616 151.87 54.72 152.43 54.72H154.11V57H151.95C150.718 57 149.774 56.712 149.118 56.136C148.462 55.56 148.134 54.624 148.134 53.328V46.008H146.574V43.776H148.134V40.488H150.894V43.776H154.11V46.008H150.894ZM163.472 43.56C164.48 43.56 165.376 43.776 166.16 44.208C166.96 44.64 167.584 45.28 168.032 46.128C168.496 46.976 168.728 48 168.728 49.2V57H166.016V49.608C166.016 48.424 165.72 47.52 165.128 46.896C164.536 46.256 163.728 45.936 162.704 45.936C161.68 45.936 160.864 46.256 160.256 46.896C159.664 47.52 159.368 48.424 159.368 49.608V57H156.632V39.24H159.368V45.312C159.832 44.752 160.416 44.32 161.12 44.016C161.84 43.712 162.624 43.56 163.472 43.56ZM178.362 39.096C178.618 39.448 178.89 39.808 179.178 40.176C179.466 40.528 179.754 40.872 180.042 41.208C180.346 41.544 180.634 41.864 180.906 42.168V42.456H179.73C179.33 42.184 178.922 41.888 178.506 41.568C178.09 41.232 177.674 40.88 177.258 40.512C176.842 40.88 176.426 41.232 176.01 41.568C175.594 41.888 175.186 42.184 174.786 42.456H173.61V42.168C173.882 41.864 174.162 41.544 174.45 41.208C174.754 40.872 175.05 40.528 175.338 40.176C175.642 39.808 175.914 39.448 176.154 39.096H178.362ZM180.618 36.096C181.354 36.096 181.922 36.232 182.322 36.504C182.722 36.776 182.922 37.192 182.922 37.752C182.922 38.216 182.778 38.568 182.49 38.808C182.202 39.032 181.85 39.192 181.434 39.288L181.362 40.224H180.378L180.258 38.712C180.722 38.632 181.074 38.536 181.314 38.424C181.554 38.296 181.674 38.088 181.674 37.8C181.674 37.528 181.562 37.344 181.338 37.248C181.13 37.136 180.858 37.08 180.522 37.08C180.362 37.08 180.202 37.088 180.042 37.104C179.898 37.104 179.778 37.12 179.682 37.152V36.168C179.778 36.136 179.906 36.12 180.066 36.12C180.226 36.104 180.41 36.096 180.618 36.096ZM177.426 43.896C178.53 43.896 179.474 44.136 180.258 44.616C181.058 45.096 181.666 45.776 182.082 46.656C182.514 47.52 182.73 48.536 182.73 49.704V50.976H173.922C173.954 52.432 174.322 53.544 175.026 54.312C175.746 55.064 176.746 55.44 178.026 55.44C178.842 55.44 179.562 55.368 180.186 55.224C180.826 55.064 181.482 54.84 182.154 54.552V56.4C181.498 56.688 180.85 56.896 180.21 57.024C179.57 57.168 178.81 57.24 177.93 57.24C176.714 57.24 175.634 56.992 174.69 56.496C173.762 56 173.034 55.264 172.506 54.288C171.994 53.296 171.738 52.088 171.738 50.664C171.738 49.256 171.97 48.048 172.434 47.04C172.914 46.032 173.578 45.256 174.426 44.712C175.29 44.168 176.29 43.896 177.426 43.896ZM177.402 45.624C176.394 45.624 175.594 45.952 175.002 46.608C174.426 47.248 174.082 48.144 173.97 49.296H180.522C180.522 48.56 180.41 47.92 180.186 47.376C179.962 46.832 179.618 46.408 179.154 46.104C178.706 45.784 178.122 45.624 177.402 45.624ZM195.191 46.008V53.328C195.191 53.824 195.303 54.184 195.527 54.408C195.767 54.616 196.167 54.72 196.727 54.72H198.407V57H196.247C195.015 57 194.071 56.712 193.415 56.136C192.759 55.56 192.431 54.624 192.431 53.328V46.008H190.871V43.776H192.431V40.488H195.191V43.776H198.407V46.008H195.191ZM203.665 43.776V57H200.929V43.776H203.665ZM204.769 40.824V42.84L199.465 40.224V37.896L204.769 40.824ZM223.265 43.56C224.305 43.56 225.233 43.776 226.049 44.208C226.881 44.64 227.529 45.28 227.993 46.128C228.473 46.976 228.713 48 228.713 49.2V57H226.001V49.608C226.001 48.424 225.705 47.52 225.113 46.896C224.521 46.256 223.713 45.936 222.689 45.936C221.665 45.936 220.849 46.256 220.241 46.896C219.649 47.52 219.353 48.424 219.353 49.608V57H216.641V49.608C216.641 48.424 216.345 47.52 215.753 46.896C215.161 46.256 214.353 45.936 213.329 45.936C212.305 45.936 211.489 46.256 210.881 46.896C210.289 47.52 209.993 48.424 209.993 49.608V57H207.257V43.776H209.993V45.288C210.441 44.744 211.009 44.32 211.697 44.016C212.385 43.712 213.121 43.56 213.905 43.56C214.961 43.56 215.905 43.784 216.737 44.232C217.569 44.68 218.209 45.328 218.657 46.176C219.057 45.376 219.681 44.744 220.529 44.28C221.377 43.8 222.289 43.56 223.265 43.56ZM241.621 46.008V53.328C241.621 53.824 241.733 54.184 241.957 54.408C242.197 54.616 242.597 54.72 243.157 54.72H244.837V57H242.677C241.445 57 240.501 56.712 239.845 56.136C239.189 55.56 238.861 54.624 238.861 53.328V46.008H237.301V43.776H238.861V40.488H241.621V43.776H244.837V46.008H241.621ZM254.199 43.56C255.207 43.56 256.103 43.776 256.887 44.208C257.687 44.64 258.311 45.28 258.759 46.128C259.223 46.976 259.455 48 259.455 49.2V57H256.743V49.608C256.743 48.424 256.447 47.52 255.855 46.896C255.263 46.256 254.455 45.936 253.431 45.936C252.407 45.936 251.591 46.256 250.983 46.896C250.391 47.52 250.095 48.424 250.095 49.608V57H247.359V39.24H250.095V45.312C250.559 44.752 251.143 44.32 251.847 44.016C252.567 43.712 253.351 43.56 254.199 43.56ZM270.289 42.456C269.889 42.184 269.481 41.888 269.065 41.568C268.649 41.232 268.233 40.88 267.817 40.512C267.401 40.88 266.985 41.232 266.569 41.568C266.153 41.888 265.745 42.184 265.345 42.456H264.169V42.168C264.441 41.864 264.721 41.544 265.009 41.208C265.313 40.872 265.609 40.528 265.897 40.176C266.201 39.808 266.473 39.448 266.713 39.096H268.921C269.177 39.448 269.449 39.808 269.737 40.176C270.025 40.528 270.313 40.872 270.601 41.208C270.905 41.544 271.193 41.864 271.465 42.168V42.456H270.289ZM270.529 39.888C270.849 39.488 271.113 39.12 271.321 38.784C271.529 38.448 271.761 38.024 272.017 37.512H274.129V37.752C273.777 38.216 273.393 38.656 272.977 39.072C272.561 39.472 272.145 39.84 271.729 40.176H270.529V39.888ZM268.057 43.92C269.625 43.92 270.785 44.264 271.537 44.952C272.289 45.64 272.665 46.736 272.665 48.24V57H271.129L270.721 55.176H270.625C270.257 55.64 269.873 56.032 269.473 56.352C269.089 56.656 268.641 56.88 268.129 57.024C267.633 57.168 267.025 57.24 266.305 57.24C265.537 57.24 264.841 57.104 264.217 56.832C263.609 56.56 263.129 56.144 262.777 55.584C262.425 55.008 262.249 54.288 262.249 53.424C262.249 52.144 262.753 51.16 263.761 50.472C264.769 49.768 266.321 49.384 268.417 49.32L270.601 49.248V48.48C270.601 47.408 270.369 46.664 269.905 46.248C269.441 45.832 268.785 45.624 267.937 45.624C267.265 45.624 266.625 45.728 266.017 45.936C265.409 46.128 264.841 46.352 264.313 46.608L263.665 45.024C264.225 44.72 264.889 44.464 265.657 44.256C266.425 44.032 267.225 43.92 268.057 43.92ZM268.681 50.784C267.081 50.848 265.969 51.104 265.345 51.552C264.737 52 264.433 52.632 264.433 53.448C264.433 54.168 264.649 54.696 265.081 55.032C265.529 55.368 266.097 55.536 266.785 55.536C267.873 55.536 268.777 55.24 269.497 54.648C270.217 54.04 270.577 53.112 270.577 51.864V50.712L268.681 50.784ZM288.302 43.776L280.19 63.216H277.358L280.046 56.784L274.838 43.776H277.886L281.606 53.856L285.47 43.776H288.302ZM308.025 50.544C308.025 51.968 307.777 53.184 307.281 54.192C306.801 55.184 306.113 55.944 305.217 56.472C304.321 56.984 303.257 57.24 302.025 57.24C300.889 57.24 299.873 56.984 298.977 56.472C298.097 55.944 297.401 55.184 296.889 54.192C296.377 53.184 296.121 51.968 296.121 50.544C296.121 48.416 296.657 46.776 297.729 45.624C298.801 44.472 300.257 43.896 302.097 43.896C302.945 43.896 303.721 44.04 304.425 44.328C305.145 44.616 305.761 45.024 306.273 45.552C306.753 45.408 307.105 45.176 307.329 44.856C307.569 44.52 307.721 44.12 307.785 43.656C307.849 43.192 307.881 42.696 307.881 42.168H310.137L310.305 42.432C310.161 43.168 309.961 43.824 309.705 44.4C309.465 44.976 309.145 45.472 308.745 45.888C308.345 46.288 307.833 46.6 307.209 46.824C307.465 47.32 307.665 47.88 307.809 48.504C307.953 49.128 308.025 49.808 308.025 50.544ZM298.305 50.544C298.305 51.616 298.433 52.52 298.689 53.256C298.961 53.992 299.369 54.552 299.913 54.936C300.473 55.304 301.193 55.488 302.073 55.488C302.953 55.488 303.665 55.304 304.209 54.936C304.769 54.552 305.177 53.992 305.433 53.256C305.705 52.52 305.841 51.616 305.841 50.544C305.841 49.472 305.705 48.576 305.433 47.856C305.177 47.136 304.769 46.592 304.209 46.224C303.649 45.856 302.929 45.672 302.049 45.672C300.737 45.672 299.785 46.08 299.193 46.896C298.601 47.712 298.305 48.928 298.305 50.544ZM304.497 39.48C304.497 40.088 304.313 40.56 303.945 40.896C303.577 41.216 303.113 41.44 302.553 41.568L302.433 42.84H301.137L300.969 40.8C301.545 40.704 302.001 40.568 302.337 40.392C302.689 40.2 302.865 39.92 302.865 39.552C302.865 39.168 302.713 38.912 302.409 38.784C302.121 38.656 301.753 38.592 301.305 38.592C301.097 38.592 300.881 38.6 300.657 38.616C300.449 38.632 300.281 38.656 300.153 38.688V37.44C300.297 37.392 300.473 37.36 300.681 37.344C300.905 37.312 301.169 37.296 301.473 37.296C302.433 37.296 303.177 37.472 303.705 37.824C304.233 38.176 304.497 38.728 304.497 39.48ZM320.36 45.744C320.824 45.104 321.456 44.584 322.256 44.184C323.072 43.768 323.976 43.56 324.968 43.56C326.136 43.56 327.192 43.84 328.136 44.4C329.08 44.96 329.824 45.76 330.368 46.8C330.912 47.824 331.184 49 331.184 50.328C331.184 51.656 330.912 52.848 330.368 53.904C329.824 54.944 329.072 55.76 328.112 56.352C327.168 56.928 326.12 57.216 324.968 57.216C323.944 57.216 323.032 57.016 322.232 56.616C321.448 56.216 320.824 55.704 320.36 55.08V57H317.624V39.24H320.36V45.744ZM328.4 50.328C328.4 49.416 328.208 48.632 327.824 47.976C327.456 47.304 326.96 46.8 326.336 46.464C325.728 46.112 325.072 45.936 324.368 45.936C323.68 45.936 323.024 46.112 322.4 46.464C321.792 46.816 321.296 47.328 320.912 48C320.544 48.672 320.36 49.464 320.36 50.376C320.36 51.288 320.544 52.088 320.912 52.776C321.296 53.448 321.792 53.96 322.4 54.312C323.024 54.664 323.68 54.84 324.368 54.84C325.072 54.84 325.728 54.664 326.336 54.312C326.96 53.944 327.456 53.416 327.824 52.728C328.208 52.04 328.4 51.24 328.4 50.328ZM341.234 42.456C340.834 42.184 340.426 41.888 340.01 41.568C339.594 41.232 339.178 40.88 338.762 40.512C338.346 40.88 337.93 41.232 337.514 41.568C337.098 41.888 336.69 42.184 336.29 42.456H335.114V42.168C335.386 41.864 335.666 41.544 335.954 41.208C336.258 40.872 336.554 40.528 336.842 40.176C337.146 39.808 337.418 39.448 337.658 39.096H339.866C340.122 39.448 340.394 39.808 340.682 40.176C340.97 40.528 341.258 40.872 341.546 41.208C341.85 41.544 342.138 41.864 342.41 42.168V42.456H341.234ZM341.474 39.888C341.794 39.488 342.058 39.12 342.266 38.784C342.474 38.448 342.706 38.024 342.962 37.512H345.074V37.752C344.722 38.216 344.338 38.656 343.922 39.072C343.506 39.472 343.09 39.84 342.674 40.176H341.474V39.888ZM339.002 43.92C340.57 43.92 341.73 44.264 342.482 44.952C343.234 45.64 343.61 46.736 343.61 48.24V57H342.074L341.666 55.176H341.57C341.202 55.64 340.818 56.032 340.418 56.352C340.034 56.656 339.586 56.88 339.074 57.024C338.578 57.168 337.97 57.24 337.25 57.24C336.482 57.24 335.786 57.104 335.162 56.832C334.554 56.56 334.074 56.144 333.722 55.584C333.37 55.008 333.194 54.288 333.194 53.424C333.194 52.144 333.698 51.16 334.706 50.472C335.714 49.768 337.266 49.384 339.362 49.32L341.546 49.248V48.48C341.546 47.408 341.314 46.664 340.85 46.248C340.386 45.832 339.73 45.624 338.882 45.624C338.21 45.624 337.57 45.728 336.962 45.936C336.354 46.128 335.786 46.352 335.258 46.608L334.61 45.024C335.17 44.72 335.834 44.464 336.602 44.256C337.37 44.032 338.17 43.92 339.002 43.92ZM339.626 50.784C338.026 50.848 336.914 51.104 336.29 51.552C335.682 52 335.378 52.632 335.378 53.448C335.378 54.168 335.594 54.696 336.026 55.032C336.474 55.368 337.042 55.536 337.73 55.536C338.818 55.536 339.722 55.24 340.442 54.648C341.162 54.04 341.522 53.112 341.522 51.864V50.712L339.626 50.784ZM350.535 46.008V53.328C350.535 53.824 350.647 54.184 350.871 54.408C351.111 54.616 351.511 54.72 352.071 54.72H353.751V57H351.591C350.359 57 349.415 56.712 348.759 56.136C348.103 55.56 347.775 54.624 347.775 53.328V46.008H346.215V43.776H347.775V40.488H350.535V43.776H353.751V46.008H350.535ZM361.595 50.376C361.595 49.016 361.867 47.824 362.411 46.8C362.971 45.76 363.739 44.96 364.715 44.4C365.691 43.84 366.811 43.56 368.075 43.56C369.675 43.56 370.995 43.944 372.035 44.712C373.091 45.464 373.803 46.544 374.171 47.952H371.219C370.979 47.296 370.595 46.784 370.067 46.416C369.539 46.048 368.875 45.864 368.075 45.864C366.955 45.864 366.059 46.264 365.387 47.064C364.731 47.848 364.403 48.952 364.403 50.376C364.403 51.8 364.731 52.912 365.387 53.712C366.059 54.512 366.955 54.912 368.075 54.912C369.659 54.912 370.707 54.216 371.219 52.824H374.171C373.787 54.168 373.067 55.24 372.011 56.04C370.955 56.824 369.643 57.216 368.075 57.216C366.811 57.216 365.691 56.936 364.715 56.376C363.739 55.8 362.971 55 362.411 53.976C361.867 52.936 361.595 51.736 361.595 50.376ZM392.09 42.408C391.994 42.968 391.85 43.512 391.658 44.04C391.482 44.568 391.234 45.048 390.914 45.48C390.61 45.896 390.21 46.248 389.714 46.536C389.218 46.808 388.61 46.984 387.89 47.064V57H386.162L385.85 55.296H385.754C385.482 55.744 385.13 56.112 384.698 56.4C384.282 56.688 383.818 56.896 383.306 57.024C382.794 57.168 382.266 57.24 381.722 57.24C380.682 57.24 379.81 57.08 379.106 56.76C378.402 56.424 377.874 55.912 377.522 55.224C377.17 54.536 376.994 53.648 376.994 52.56V44.16H379.13V52.416C379.13 53.44 379.362 54.208 379.826 54.72C380.29 55.232 381.01 55.488 381.986 55.488C383.41 55.488 384.394 55.088 384.938 54.288C385.498 53.488 385.778 52.336 385.778 50.832V44.16H387.89V45.576C388.402 45.48 388.786 45.28 389.042 44.976C389.298 44.672 389.466 44.28 389.546 43.8C389.642 43.304 389.69 42.752 389.69 42.144H391.922L392.09 42.408ZM385.898 38.856C385.754 39.08 385.546 39.352 385.274 39.672C385.002 39.992 384.698 40.328 384.362 40.68C384.042 41.016 383.714 41.344 383.378 41.664C383.058 41.968 382.754 42.232 382.466 42.456H381.074V42.168C381.314 41.864 381.57 41.504 381.842 41.088C382.13 40.672 382.41 40.248 382.682 39.816C382.954 39.368 383.178 38.968 383.354 38.616H385.898V38.856ZM405.976 43.56C407.016 43.56 407.944 43.776 408.76 44.208C409.592 44.64 410.24 45.28 410.704 46.128C411.168 46.976 411.4 48 411.4 49.2V57H408.688V49.608C408.688 48.424 408.392 47.52 407.8 46.896C407.208 46.256 406.4 45.936 405.376 45.936C404.352 45.936 403.536 46.256 402.928 46.896C402.336 47.52 402.04 48.424 402.04 49.608V57H399.304V43.776H402.04V45.288C402.488 44.744 403.056 44.32 403.744 44.016C404.448 43.712 405.192 43.56 405.976 43.56ZM426.314 50.544C426.314 51.968 426.066 53.184 425.57 54.192C425.09 55.184 424.402 55.944 423.506 56.472C422.61 56.984 421.546 57.24 420.314 57.24C419.178 57.24 418.162 56.984 417.266 56.472C416.386 55.944 415.69 55.184 415.178 54.192C414.666 53.184 414.41 51.968 414.41 50.544C414.41 48.416 414.946 46.776 416.018 45.624C417.09 44.472 418.546 43.896 420.386 43.896C421.234 43.896 422.01 44.04 422.714 44.328C423.434 44.616 424.05 45.024 424.562 45.552C425.042 45.408 425.394 45.176 425.618 44.856C425.858 44.52 426.01 44.12 426.074 43.656C426.138 43.192 426.17 42.696 426.17 42.168H428.426L428.594 42.432C428.45 43.168 428.25 43.824 427.994 44.4C427.754 44.976 427.434 45.472 427.034 45.888C426.634 46.288 426.122 46.6 425.498 46.824C425.754 47.32 425.954 47.88 426.098 48.504C426.242 49.128 426.314 49.808 426.314 50.544ZM416.594 50.544C416.594 51.616 416.722 52.52 416.978 53.256C417.25 53.992 417.658 54.552 418.202 54.936C418.762 55.304 419.482 55.488 420.362 55.488C421.242 55.488 421.954 55.304 422.498 54.936C423.058 54.552 423.466 53.992 423.722 53.256C423.994 52.52 424.13 51.616 424.13 50.544C424.13 49.472 423.994 48.576 423.722 47.856C423.466 47.136 423.058 46.592 422.498 46.224C421.938 45.856 421.218 45.672 420.338 45.672C419.026 45.672 418.074 46.08 417.482 46.896C416.89 47.712 416.594 48.928 416.594 50.544ZM431.071 42.024C430.575 42.024 430.159 41.856 429.823 41.52C429.487 41.184 429.319 40.768 429.319 40.272C429.319 39.776 429.487 39.36 429.823 39.024C430.159 38.688 430.575 38.52 431.071 38.52C431.551 38.52 431.959 38.688 432.295 39.024C432.631 39.36 432.799 39.776 432.799 40.272C432.799 40.768 432.631 41.184 432.295 41.52C431.959 41.856 431.551 42.024 431.071 42.024ZM432.415 43.776V57H429.679V43.776H432.415ZM448.913 43.56C449.953 43.56 450.881 43.776 451.697 44.208C452.529 44.64 453.177 45.28 453.641 46.128C454.105 46.976 454.337 48 454.337 49.2V57H451.625V49.608C451.625 48.424 451.329 47.52 450.737 46.896C450.145 46.256 449.337 45.936 448.313 45.936C447.289 45.936 446.473 46.256 445.865 46.896C445.273 47.52 444.977 48.424 444.977 49.608V57H442.241V43.776H444.977V45.288C445.425 44.744 445.993 44.32 446.681 44.016C447.385 43.712 448.129 43.56 448.913 43.56ZM456.915 50.328C456.915 49 457.187 47.824 457.731 46.8C458.291 45.776 459.043 44.984 459.987 44.424C460.947 43.848 462.003 43.56 463.155 43.56C464.195 43.56 465.099 43.768 465.867 44.184C466.651 44.584 467.275 45.088 467.739 45.696V43.776H470.499V57H467.739V55.032C467.275 55.656 466.643 56.176 465.843 56.592C465.043 57.008 464.131 57.216 463.107 57.216C461.971 57.216 460.931 56.928 459.987 56.352C459.043 55.76 458.291 54.944 457.731 53.904C457.187 52.848 456.915 51.656 456.915 50.328ZM467.739 50.376C467.739 49.464 467.547 48.672 467.163 48C466.795 47.328 466.307 46.816 465.699 46.464C465.091 46.112 464.435 45.936 463.731 45.936C463.027 45.936 462.371 46.112 461.763 46.464C461.155 46.8 460.659 47.304 460.275 47.976C459.907 48.632 459.723 49.416 459.723 50.328C459.723 51.24 459.907 52.04 460.275 52.728C460.659 53.416 461.155 53.944 461.763 54.312C462.387 54.664 463.043 54.84 463.731 54.84C464.435 54.84 465.091 54.664 465.699 54.312C466.307 53.96 466.795 53.448 467.163 52.776C467.547 52.088 467.739 51.288 467.739 50.376ZM466.635 40.824V42.84L461.331 40.224V37.896L466.635 40.824ZM479.829 57.216C478.581 57.216 477.453 56.936 476.445 56.376C475.437 55.8 474.645 55 474.069 53.976C473.493 52.936 473.205 51.736 473.205 50.376C473.205 49.032 473.501 47.84 474.093 46.8C474.685 45.76 475.493 44.96 476.517 44.4C477.541 43.84 478.685 43.56 479.949 43.56C481.213 43.56 482.357 43.84 483.381 44.4C484.405 44.96 485.213 45.76 485.805 46.8C486.397 47.84 486.693 49.032 486.693 50.376C486.693 51.72 486.389 52.912 485.781 53.952C485.173 54.992 484.341 55.8 483.285 56.376C482.245 56.936 481.093 57.216 479.829 57.216ZM479.829 54.84C480.533 54.84 481.189 54.672 481.797 54.336C482.421 54 482.925 53.496 483.309 52.824C483.693 52.152 483.885 51.336 483.885 50.376C483.885 49.416 483.701 48.608 483.333 47.952C482.965 47.28 482.477 46.776 481.869 46.44C481.261 46.104 480.605 45.936 479.901 45.936C479.197 45.936 478.541 46.104 477.933 46.44C477.341 46.776 476.869 47.28 476.517 47.952C476.165 48.608 475.989 49.416 475.989 50.376C475.989 51.8 476.349 52.904 477.069 53.688C477.805 54.456 478.725 54.84 479.829 54.84ZM500.864 50.4L506.96 57H503.264L498.368 51.312V57H495.632V39.24H498.368V49.56L503.168 43.776H506.96L500.864 50.4ZM515.761 43.56C516.769 43.56 517.665 43.776 518.449 44.208C519.249 44.64 519.873 45.28 520.321 46.128C520.785 46.976 521.017 48 521.017 49.2V57H518.305V49.608C518.305 48.424 518.009 47.52 517.417 46.896C516.825 46.256 516.017 45.936 514.993 45.936C513.969 45.936 513.153 46.256 512.545 46.896C511.953 47.52 511.657 48.424 511.657 49.608V57H508.921V39.24H511.657V45.312C512.121 44.752 512.705 44.32 513.409 44.016C514.129 43.712 514.913 43.56 515.761 43.56ZM523.595 50.328C523.595 49 523.867 47.824 524.411 46.8C524.971 45.776 525.723 44.984 526.667 44.424C527.627 43.848 528.683 43.56 529.835 43.56C530.875 43.56 531.779 43.768 532.547 44.184C533.331 44.584 533.955 45.088 534.419 45.696V43.776H537.179V57H534.419V55.032C533.955 55.656 533.323 56.176 532.523 56.592C531.723 57.008 530.811 57.216 529.787 57.216C528.651 57.216 527.611 56.928 526.667 56.352C525.723 55.76 524.971 54.944 524.411 53.904C523.867 52.848 523.595 51.656 523.595 50.328ZM534.419 50.376C534.419 49.464 534.227 48.672 533.843 48C533.475 47.328 532.987 46.816 532.379 46.464C531.771 46.112 531.115 45.936 530.411 45.936C529.707 45.936 529.051 46.112 528.443 46.464C527.835 46.8 527.339 47.304 526.955 47.976C526.587 48.632 526.403 49.416 526.403 50.328C526.403 51.24 526.587 52.04 526.955 52.728C527.339 53.416 527.835 53.944 528.443 54.312C529.067 54.664 529.723 54.84 530.411 54.84C531.115 54.84 531.771 54.664 532.379 54.312C532.987 53.96 533.475 53.448 533.843 52.776C534.227 52.088 534.419 51.288 534.419 50.376ZM533.315 40.224L528.011 42.84V40.824L533.315 37.896V40.224ZM539.861 50.376C539.861 49.016 540.133 47.824 540.677 46.8C541.237 45.76 542.005 44.96 542.981 44.4C543.957 43.84 545.077 43.56 546.341 43.56C547.941 43.56 549.261 43.944 550.301 44.712C551.357 45.464 552.069 46.544 552.437 47.952H549.485C549.245 47.296 548.861 46.784 548.333 46.416C547.805 46.048 547.141 45.864 546.341 45.864C545.221 45.864 544.325 46.264 543.653 47.064C542.997 47.848 542.669 48.952 542.669 50.376C542.669 51.8 542.997 52.912 543.653 53.712C544.325 54.512 545.221 54.912 546.341 54.912C547.925 54.912 548.973 54.216 549.485 52.824H552.437C552.053 54.168 551.333 55.24 550.277 56.04C549.221 56.824 547.909 57.216 546.341 57.216C545.077 57.216 543.957 56.936 542.981 56.376C542.005 55.8 541.237 55 540.677 53.976C540.133 52.936 539.861 51.736 539.861 50.376Z" fill="#939598"/>
</svg>
