<svg width="653" height="47" viewBox="0 0 653 47" fill="none" xmlns="http://www.w3.org/2000/svg">
<path d="M0.386 20.216C0.386 17.304 1.016 14.714 2.276 12.446C3.536 10.15 5.286 8.372 7.526 7.112C9.794 5.824 12.356 5.18 15.212 5.18C18.712 5.18 21.708 6.104 24.2 7.952C26.692 9.8 28.358 12.32 29.198 15.512H21.302C20.714 14.28 19.874 13.342 18.782 12.698C17.718 12.054 16.5 11.732 15.128 11.732C12.916 11.732 11.124 12.502 9.752 14.042C8.38 15.582 7.694 17.64 7.694 20.216C7.694 22.792 8.38 24.85 9.752 26.39C11.124 27.93 12.916 28.7 15.128 28.7C16.5 28.7 17.718 28.378 18.782 27.734C19.874 27.09 20.714 26.152 21.302 24.92H29.198C28.358 28.112 26.692 30.632 24.2 32.48C21.708 34.3 18.712 35.21 15.212 35.21C12.356 35.21 9.794 34.58 7.526 33.32C5.286 32.032 3.536 30.254 2.276 27.986C1.016 25.718 0.386 23.128 0.386 20.216ZM48.0022 11.312C50.6902 11.312 52.8462 12.208 54.4702 14C56.0942 15.764 56.9062 18.2 56.9062 21.308V35H49.7662V22.274C49.7662 20.706 49.3602 19.488 48.5482 18.62C47.7362 17.752 46.6442 17.318 45.2722 17.318C43.9002 17.318 42.8082 17.752 41.9962 18.62C41.1842 19.488 40.7782 20.706 40.7782 22.274V35H33.5962V3.92H40.7782V14.714C41.5062 13.678 42.5002 12.852 43.7602 12.236C45.0202 11.62 46.4342 11.312 48.0022 11.312ZM60.469 23.24C60.469 20.832 60.917 18.718 61.813 16.898C62.737 15.078 63.983 13.678 65.551 12.698C67.119 11.718 68.869 11.228 70.801 11.228C72.453 11.228 73.895 11.564 75.127 12.236C76.387 12.908 77.353 13.79 78.025 14.882V11.564H85.207V35H78.025V31.682C77.325 32.774 76.345 33.656 75.085 34.328C73.853 35 72.411 35.336 70.759 35.336C68.855 35.336 67.119 34.846 65.551 33.866C63.983 32.858 62.737 31.444 61.813 29.624C60.917 27.776 60.469 25.648 60.469 23.24ZM78.025 23.282C78.025 21.49 77.521 20.076 76.513 19.04C75.533 18.004 74.329 17.486 72.901 17.486C71.473 17.486 70.255 18.004 69.247 19.04C68.267 20.048 67.777 21.448 67.777 23.24C67.777 25.032 68.267 26.46 69.247 27.524C70.255 28.56 71.473 29.078 72.901 29.078C74.329 29.078 75.533 28.56 76.513 27.524C77.521 26.488 78.025 25.074 78.025 23.282ZM78.571 5.012V9.968L68.449 5.726V0.139998L78.571 5.012ZM101.071 35.336C98.7748 35.336 96.7028 34.846 94.8548 33.866C93.0348 32.886 91.5928 31.486 90.5288 29.666C89.4928 27.846 88.9748 25.718 88.9748 23.282C88.9748 20.874 89.5068 18.76 90.5708 16.94C91.6348 15.092 93.0908 13.678 94.9388 12.698C96.7868 11.718 98.8588 11.228 101.155 11.228C103.451 11.228 105.523 11.718 107.371 12.698C109.219 13.678 110.675 15.092 111.739 16.94C112.803 18.76 113.335 20.874 113.335 23.282C113.335 25.69 112.789 27.818 111.697 29.666C110.633 31.486 109.163 32.886 107.287 33.866C105.439 34.846 103.367 35.336 101.071 35.336ZM101.071 29.12C102.443 29.12 103.605 28.616 104.557 27.608C105.537 26.6 106.027 25.158 106.027 23.282C106.027 21.406 105.551 19.964 104.599 18.956C103.675 17.948 102.527 17.444 101.155 17.444C99.7548 17.444 98.5928 17.948 97.6688 18.956C96.7448 19.936 96.2828 21.378 96.2828 23.282C96.2828 25.158 96.7308 26.6 97.6268 27.608C98.5508 28.616 99.6988 29.12 101.071 29.12ZM155.949 11.312C158.861 11.312 161.171 12.194 162.879 13.958C164.615 15.722 165.483 18.172 165.483 21.308V35H158.343V22.274C158.343 20.762 157.937 19.6 157.125 18.788C156.341 17.948 155.249 17.528 153.849 17.528C152.449 17.528 151.343 17.948 150.531 18.788C149.747 19.6 149.355 20.762 149.355 22.274V35H142.215V22.274C142.215 20.762 141.809 19.6 140.997 18.788C140.213 17.948 139.121 17.528 137.721 17.528C136.321 17.528 135.215 17.948 134.403 18.788C133.619 19.6 133.227 20.762 133.227 22.274V35H126.045V11.564H133.227V14.504C133.955 13.524 134.907 12.754 136.083 12.194C137.259 11.606 138.589 11.312 140.073 11.312C141.837 11.312 143.405 11.69 144.777 12.446C146.177 13.202 147.269 14.28 148.053 15.68C148.865 14.392 149.971 13.342 151.371 12.53C152.771 11.718 154.297 11.312 155.949 11.312ZM201.754 9.086C201.53 10.234 201.222 11.312 200.83 12.32C200.438 13.328 199.892 14.238 199.192 15.05C198.52 15.834 197.624 16.506 196.504 17.066C195.384 17.598 193.956 17.99 192.22 18.242V35H187.432L186.592 32.06H186.214C185.738 32.844 185.122 33.488 184.366 33.992C183.638 34.468 182.826 34.818 181.93 35.042C181.062 35.294 180.152 35.42 179.2 35.42C177.576 35.42 176.148 35.126 174.916 34.538C173.684 33.95 172.732 33.04 172.06 31.808C171.388 30.576 171.052 28.98 171.052 27.02V12.068H177.31V25.466C177.31 27.09 177.604 28.322 178.192 29.162C178.78 30.002 179.718 30.422 181.006 30.422C182.91 30.422 184.212 29.778 184.912 28.49C185.612 27.174 185.962 25.298 185.962 22.862V12.068H192.22V14.462C192.92 14.238 193.494 13.86 193.942 13.328C194.39 12.768 194.726 12.096 194.95 11.312C195.174 10.5 195.286 9.604 195.286 8.624H201.46L201.754 9.086ZM180.712 2.828C181.132 3.444 181.622 4.144 182.182 4.928C182.77 5.684 183.358 6.426 183.946 7.154C184.562 7.854 185.094 8.47 185.542 9.002V9.548H181.384C180.852 9.184 180.222 8.736 179.494 8.204C178.794 7.644 178.066 7.056 177.31 6.44C176.582 5.824 175.896 5.236 175.252 4.676C174.608 4.116 174.09 3.64 173.698 3.248V2.828H180.712ZM216.697 11.312C219.441 11.312 221.625 12.208 223.249 14C224.901 15.764 225.727 18.2 225.727 21.308V35H218.587V22.274C218.587 20.706 218.181 19.488 217.369 18.62C216.557 17.752 215.465 17.318 214.093 17.318C212.721 17.318 211.629 17.752 210.817 18.62C210.005 19.488 209.599 20.706 209.599 22.274V35H202.417V11.564H209.599V14.672C210.327 13.636 211.307 12.824 212.539 12.236C213.771 11.62 215.157 11.312 216.697 11.312ZM239.621 11.228C241.273 11.228 242.715 11.564 243.947 12.236C245.207 12.908 246.173 13.79 246.845 14.882V11.564H254.027V34.958C254.027 37.114 253.593 39.06 252.725 40.796C251.885 42.56 250.583 43.96 248.819 44.996C247.083 46.032 244.913 46.55 242.309 46.55C238.837 46.55 236.023 45.724 233.867 44.072C231.711 42.448 230.479 40.236 230.171 37.436H237.269C237.493 38.332 238.025 39.032 238.865 39.536C239.705 40.068 240.741 40.334 241.973 40.334C243.457 40.334 244.633 39.9 245.501 39.032C246.397 38.192 246.845 36.834 246.845 34.958V31.64C246.145 32.732 245.179 33.628 243.947 34.328C242.715 35 241.273 35.336 239.621 35.336C237.689 35.336 235.939 34.846 234.371 33.866C232.803 32.858 231.557 31.444 230.633 29.624C229.737 27.776 229.289 25.648 229.289 23.24C229.289 20.832 229.737 18.718 230.633 16.898C231.557 15.078 232.803 13.678 234.371 12.698C235.939 11.718 237.689 11.228 239.621 11.228ZM246.845 23.282C246.845 21.49 246.341 20.076 245.333 19.04C244.353 18.004 243.149 17.486 241.721 17.486C240.293 17.486 239.075 18.004 238.067 19.04C237.087 20.048 236.597 21.448 236.597 23.24C236.597 25.032 237.087 26.46 238.067 27.524C239.075 28.56 240.293 29.078 241.721 29.078C243.149 29.078 244.353 28.56 245.333 27.524C246.341 26.488 246.845 25.074 246.845 23.282ZM275.306 14.882C275.978 13.79 276.944 12.908 278.204 12.236C279.464 11.564 280.906 11.228 282.53 11.228C284.462 11.228 286.212 11.718 287.78 12.698C289.348 13.678 290.58 15.078 291.476 16.898C292.4 18.718 292.862 20.832 292.862 23.24C292.862 25.648 292.4 27.776 291.476 29.624C290.58 31.444 289.348 32.858 287.78 33.866C286.212 34.846 284.462 35.336 282.53 35.336C280.878 35.336 279.436 35.014 278.204 34.37C276.972 33.698 276.006 32.816 275.306 31.724V35H268.124V3.92H275.306V14.882ZM285.554 23.24C285.554 21.448 285.05 20.048 284.042 19.04C283.062 18.004 281.844 17.486 280.388 17.486C278.96 17.486 277.742 18.004 276.734 19.04C275.754 20.076 275.264 21.49 275.264 23.282C275.264 25.074 275.754 26.488 276.734 27.524C277.742 28.56 278.96 29.078 280.388 29.078C281.816 29.078 283.034 28.56 284.042 27.524C285.05 26.46 285.554 25.032 285.554 23.24ZM306.709 11.606C309.789 11.606 312.141 12.278 313.765 13.622C315.417 14.938 316.243 16.968 316.243 19.712V35H311.875L310.657 31.892H310.489C309.845 32.704 309.173 33.376 308.473 33.908C307.801 34.44 307.017 34.818 306.121 35.042C305.253 35.294 304.175 35.42 302.887 35.42C301.543 35.42 300.325 35.168 299.233 34.664C298.169 34.132 297.329 33.334 296.713 32.27C296.097 31.178 295.789 29.806 295.789 28.154C295.789 25.718 296.643 23.926 298.351 22.778C300.059 21.602 302.621 20.958 306.037 20.846L310.027 20.72V19.712C310.027 18.508 309.705 17.626 309.061 17.066C308.445 16.506 307.577 16.226 306.457 16.226C305.337 16.226 304.245 16.394 303.181 16.73C302.117 17.038 301.053 17.43 299.989 17.906L297.931 13.664C299.163 13.02 300.521 12.516 302.005 12.152C303.517 11.788 305.085 11.606 306.709 11.606ZM307.591 24.458C305.575 24.514 304.175 24.878 303.391 25.55C302.607 26.222 302.215 27.104 302.215 28.196C302.215 29.148 302.495 29.834 303.055 30.254C303.615 30.646 304.343 30.842 305.239 30.842C306.583 30.842 307.717 30.45 308.641 29.666C309.565 28.854 310.027 27.72 310.027 26.264V24.374L307.591 24.458ZM306.667 43.82C305.715 43.82 304.903 43.596 304.231 43.148C303.587 42.7 303.265 41.902 303.265 40.754C303.265 39.578 303.587 38.766 304.231 38.318C304.903 37.898 305.715 37.688 306.667 37.688C307.591 37.688 308.389 37.898 309.061 38.318C309.733 38.766 310.069 39.578 310.069 40.754C310.069 41.902 309.733 42.7 309.061 43.148C308.389 43.596 307.591 43.82 306.667 43.82ZM336.257 11.312C339.001 11.312 341.185 12.208 342.809 14C344.461 15.764 345.287 18.2 345.287 21.308V35H338.147V22.274C338.147 20.706 337.741 19.488 336.929 18.62C336.117 17.752 335.025 17.318 333.653 17.318C332.281 17.318 331.189 17.752 330.377 18.62C329.565 19.488 329.159 20.706 329.159 22.274V35H321.977V11.564H329.159V14.672C329.887 13.636 330.867 12.824 332.099 12.236C333.331 11.62 334.717 11.312 336.257 11.312ZM385.092 10.178H382.488V35H375.306V31.64C374.634 32.76 373.668 33.656 372.408 34.328C371.176 35 369.734 35.336 368.082 35.336C366.15 35.336 364.4 34.846 362.832 33.866C361.264 32.858 360.018 31.444 359.094 29.624C358.198 27.776 357.75 25.648 357.75 23.24C357.75 20.832 358.198 18.718 359.094 16.898C360.018 15.078 361.264 13.678 362.832 12.698C364.4 11.718 366.15 11.228 368.082 11.228C369.622 11.228 371.022 11.55 372.282 12.194C373.57 12.838 374.578 13.706 375.306 14.798V10.178H372.366V6.734H375.306V3.92H382.488V6.734H385.092V10.178ZM370.182 29.078C371.61 29.078 372.814 28.56 373.794 27.524C374.802 26.488 375.306 25.074 375.306 23.282C375.306 21.49 374.802 20.076 373.794 19.04C372.814 18.004 371.61 17.486 370.182 17.486C368.754 17.486 367.536 18.004 366.528 19.04C365.548 20.048 365.058 21.448 365.058 23.24C365.058 25.032 365.548 26.46 366.528 27.524C367.536 28.56 368.754 29.078 370.182 29.078ZM402.706 9.548C402.006 9.072 401.292 8.554 400.564 7.994C399.836 7.406 399.108 6.79 398.38 6.146C397.652 6.79 396.924 7.406 396.196 7.994C395.468 8.554 394.754 9.072 394.054 9.548H390.736V9.002C391.212 8.47 391.702 7.882 392.206 7.238C392.71 6.566 393.214 5.894 393.718 5.222C394.25 4.522 394.726 3.864 395.146 3.248H401.614C402.062 3.864 402.538 4.522 403.042 5.222C403.546 5.894 404.05 6.566 404.554 7.238C405.086 7.882 405.576 8.47 406.024 9.002V9.548H402.706ZM404.218 5.012C404.778 4.424 405.268 3.822 405.688 3.206C406.136 2.562 406.584 1.792 407.032 0.895998H411.988V1.316C411.372 2.128 410.644 2.898 409.804 3.626C408.964 4.326 408.138 4.97 407.326 5.558H404.218V5.012ZM398.38 11.648C400.508 11.648 402.328 12.054 403.84 12.866C405.38 13.678 406.57 14.854 407.41 16.394C408.25 17.934 408.67 19.824 408.67 22.064V25.088H393.886C393.942 26.852 394.46 28.238 395.44 29.246C396.448 30.254 397.834 30.758 399.598 30.758C401.082 30.758 402.426 30.618 403.63 30.338C404.834 30.03 406.08 29.568 407.368 28.952V33.782C406.248 34.342 405.058 34.748 403.798 35C402.566 35.28 401.068 35.42 399.304 35.42C397.008 35.42 394.978 35 393.214 34.16C391.45 33.292 390.064 31.99 389.056 30.254C388.048 28.518 387.544 26.334 387.544 23.702C387.544 21.014 387.992 18.788 388.888 17.024C389.812 15.232 391.086 13.888 392.71 12.992C394.334 12.096 396.224 11.648 398.38 11.648ZM398.422 16.1C397.218 16.1 396.21 16.492 395.398 17.276C394.614 18.06 394.152 19.278 394.012 20.93H402.79C402.79 20.006 402.622 19.18 402.286 18.452C401.978 17.724 401.502 17.15 400.858 16.73C400.214 16.31 399.402 16.1 398.422 16.1ZM427.353 11.312C430.097 11.312 432.281 12.208 433.905 14C435.557 15.764 436.383 18.2 436.383 21.308V35H429.243V22.274C429.243 20.706 428.837 19.488 428.025 18.62C427.213 17.752 426.121 17.318 424.749 17.318C423.377 17.318 422.285 17.752 421.473 18.62C420.661 19.488 420.255 20.706 420.255 22.274V35H413.073V11.564H420.255V14.672C420.983 13.636 421.963 12.824 423.195 12.236C424.427 11.62 425.813 11.312 427.353 11.312ZM460.816 28.28L465.898 11.564H473.542L465.226 35H456.364L448.048 11.564H455.734L460.816 28.28ZM498.069 23.492C498.069 26.04 497.607 28.21 496.683 30.002C495.787 31.766 494.499 33.11 492.819 34.034C491.167 34.958 489.193 35.42 486.897 35.42C484.769 35.42 482.865 34.958 481.185 34.034C479.533 33.11 478.231 31.766 477.279 30.002C476.327 28.21 475.851 26.04 475.851 23.492C475.851 19.684 476.845 16.758 478.833 14.714C480.821 12.67 483.551 11.648 487.023 11.648C488.563 11.648 490.019 11.886 491.391 12.362C492.763 12.838 493.925 13.538 494.877 14.462C495.633 14.238 496.235 13.86 496.683 13.328C497.131 12.768 497.453 12.096 497.649 11.312C497.845 10.5 497.943 9.604 497.943 8.624H504.117L504.411 9.086C504.131 10.43 503.739 11.69 503.235 12.866C502.759 14.014 502.031 15.008 501.051 15.848C500.071 16.688 498.727 17.332 497.019 17.78C497.355 18.592 497.607 19.474 497.775 20.426C497.971 21.378 498.069 22.4 498.069 23.492ZM482.235 23.492C482.235 25.004 482.389 26.278 482.697 27.314C483.033 28.322 483.551 29.092 484.251 29.624C484.951 30.128 485.861 30.38 486.981 30.38C488.101 30.38 488.997 30.128 489.669 29.624C490.369 29.092 490.873 28.322 491.181 27.314C491.517 26.278 491.685 25.004 491.685 23.492C491.685 21.98 491.517 20.72 491.181 19.712C490.873 18.704 490.369 17.948 489.669 17.444C488.969 16.94 488.059 16.688 486.939 16.688C485.287 16.688 484.083 17.262 483.327 18.41C482.599 19.53 482.235 21.224 482.235 23.492ZM495.045 3.248C494.653 3.64 494.135 4.116 493.491 4.676C492.847 5.236 492.147 5.824 491.391 6.44C490.663 7.056 489.935 7.644 489.207 8.204C488.507 8.736 487.891 9.184 487.359 9.548H483.201V9.002C483.649 8.47 484.167 7.854 484.755 7.154C485.371 6.426 485.973 5.684 486.561 4.928C487.149 4.144 487.639 3.444 488.031 2.828H495.045V3.248ZM508.683 9.128C507.423 9.128 506.387 8.764 505.575 8.036C504.791 7.28 504.399 6.356 504.399 5.264C504.399 4.144 504.791 3.22 505.575 2.492C506.387 1.736 507.423 1.358 508.683 1.358C509.915 1.358 510.923 1.736 511.707 2.492C512.519 3.22 512.925 4.144 512.925 5.264C512.925 6.356 512.519 7.28 511.707 8.036C510.923 8.764 509.915 9.128 508.683 9.128ZM512.253 11.564V35H505.071V11.564H512.253ZM652.128 4.466L651.288 24.584H645.198L644.358 4.466H652.128ZM648.348 35.336C647.088 35.336 646.052 34.972 645.24 34.244C644.456 33.488 644.064 32.564 644.064 31.472C644.064 30.352 644.456 29.414 645.24 28.658C646.052 27.902 647.088 27.524 648.348 27.524C649.58 27.524 650.588 27.902 651.372 28.658C652.184 29.414 652.59 30.352 652.59 31.472C652.59 32.564 652.184 33.488 651.372 34.244C650.588 34.972 649.58 35.336 648.348 35.336Z" fill="white"/>
<path d="M544.838 5.516V25.592C544.838 28.7 543.956 31.094 542.192 32.774C540.456 34.454 538.104 35.294 535.136 35.294C532.028 35.294 529.536 34.412 527.66 32.648C525.784 30.884 524.846 28.378 524.846 25.13H531.986C531.986 26.362 532.238 27.3 532.742 27.944C533.246 28.56 533.974 28.868 534.926 28.868C535.794 28.868 536.466 28.588 536.942 28.028C537.418 27.468 537.656 26.656 537.656 25.592V5.516H544.838ZM564.583 35.294C561.811 35.294 559.263 34.65 556.939 33.362C554.643 32.074 552.809 30.282 551.437 27.986C550.093 25.662 549.421 23.058 549.421 20.174C549.421 17.29 550.093 14.7 551.437 12.404C552.809 10.108 554.643 8.316 556.939 7.028C559.263 5.74 561.811 5.096 564.583 5.096C567.355 5.096 569.889 5.74 572.185 7.028C574.509 8.316 576.329 10.108 577.645 12.404C578.989 14.7 579.661 17.29 579.661 20.174C579.661 23.058 578.989 25.662 577.645 27.986C576.301 30.282 574.481 32.074 572.185 33.362C569.889 34.65 567.355 35.294 564.583 35.294ZM564.583 28.742C566.935 28.742 568.811 27.958 570.211 26.39C571.639 24.822 572.353 22.75 572.353 20.174C572.353 17.57 571.639 15.498 570.211 13.958C568.811 12.39 566.935 11.606 564.583 11.606C562.203 11.606 560.299 12.376 558.871 13.916C557.471 15.456 556.771 17.542 556.771 20.174C556.771 22.778 557.471 24.864 558.871 26.432C560.299 27.972 562.203 28.742 564.583 28.742ZM598.693 35L592.561 23.87H590.839V35H583.657V5.516H595.711C598.035 5.516 600.009 5.922 601.633 6.734C603.285 7.546 604.517 8.666 605.329 10.094C606.141 11.494 606.547 13.062 606.547 14.798C606.547 16.758 605.987 18.508 604.867 20.048C603.775 21.588 602.151 22.68 599.995 23.324L606.799 35H598.693ZM590.839 18.788H595.291C596.607 18.788 597.587 18.466 598.231 17.822C598.903 17.178 599.239 16.268 599.239 15.092C599.239 13.972 598.903 13.09 598.231 12.446C597.587 11.802 596.607 11.48 595.291 11.48H590.839V18.788ZM618.237 11.27V17.234H627.855V22.778H618.237V29.246H629.115V35H611.055V5.516H629.115V11.27H618.237Z" fill="#023E8A"/>
</svg>
